ISO-10303-21;
HEADER;
FILE_DESCRIPTION (( 'STEP AP203' ),
    '1' );
FILE_NAME ('fix1_jetson.STEP',
    '2026-06-02T09:32:34',
    ( '' ),
    ( '' ),
    'SwSTEP 2.0',
    'SolidWorks 2020',
    '' );
FILE_SCHEMA (( 'CONFIG_CONTROL_DESIGN' ));
ENDSEC;

DATA;
#1 = CARTESIAN_POINT ( 'NONE',  ( 10.49999999999999822, 16.49999999999999645, 8.000000000000000000 ) ) ;
#2 = AXIS2_PLACEMENT_3D ( 'NONE', #95, #20, #450 ) ;
#3 = PLANE ( 'NONE',  #177 ) ;
#4 = CARTESIAN_POINT ( 'NONE',  ( 10.49999999999999822, 16.49999999999999645, 8.000000000000000000 ) ) ;
#5 = VECTOR ( 'NONE', #161, 1000.000000000000000 ) ;
#6 = LINE ( 'NONE', #600, #940 ) ;
#7 = ORIENTED_EDGE ( 'NONE', *, *, #199, .T. ) ;
#8 = DIRECTION ( 'NONE',  ( 0.000000000000000000, 0.000000000000000000, -1.000000000000000000 ) ) ;
#9 = PLANE ( 'NONE',  #423 ) ;
#10 = ORIENTED_EDGE ( 'NONE', *, *, #848, .T. ) ;
#11 = LINE ( 'NONE', #154, #738 ) ;
#12 = DIRECTION ( 'NONE',  ( 0.000000000000000000, 0.5913636636275173553, 0.8064049958557054643 ) ) ;
#13 = ORIENTED_EDGE ( 'NONE', *, *, #366, .T. ) ;
#14 = ORIENTED_EDGE ( 'NONE', *, *, #785, .F. ) ;
#15 = FACE_OUTER_BOUND ( 'NONE', #796, .T. ) ;
#16 = DIRECTION ( 'NONE',  ( 1.000000000000000000, 0.000000000000000000, 0.000000000000000000 ) ) ;
#17 = CARTESIAN_POINT ( 'NONE',  ( 10.49999999999999822, 17.49999999999999645, 8.000000000000000000 ) ) ;
#18 = ORIENTED_EDGE ( 'NONE', *, *, #199, .F. ) ;
#19 = AXIS2_PLACEMENT_3D ( 'NONE', #782, #42, #486 ) ;
#20 = DIRECTION ( 'NONE',  ( -4.906538933386798475E-17, 0.7071067811865476838, 0.7071067811865473507 ) ) ;
#21 = LOCAL_TIME ( 11, 32, 34.00000000000000000, #344 ) ;
#22 = LINE ( 'NONE', #915, #234 ) ;
#23 = EDGE_CURVE ( 'NONE', #158, #25, #803, .T. ) ;
#24 = CARTESIAN_POINT ( 'NONE',  ( 9.500000000000001776, 7.999999999999998224, 36.00000000000000000 ) ) ;
#25 = VERTEX_POINT ( 'NONE', #426 ) ;
#26 = DIRECTION ( 'NONE',  ( 0.000000000000000000, 0.000000000000000000, 1.000000000000000000 ) ) ;
#27 = EDGE_CURVE ( 'NONE', #298, #592, #498, .T. ) ;
#28 = VERTEX_POINT ( 'NONE', #941 ) ;
#29 = FACE_OUTER_BOUND ( 'NONE', #628, .T. ) ;
#30 = PLANE ( 'NONE',  #568 ) ;
#31 = VECTOR ( 'NONE', #458, 1000.000000000000000 ) ;
#32 = EDGE_LOOP ( 'NONE', ( #699, #490, #585, #843, #358, #406 ) ) ;
#33 = EDGE_CURVE ( 'NONE', #557, #412, #938, .T. ) ;
#34 = CARTESIAN_POINT ( 'NONE',  ( 9.500000000000001776, 7.999999999999998224, 35.03595337885061411 ) ) ;
#35 = CARTESIAN_POINT ( 'NONE',  ( -12.50000000000000000, -14.00000000000000178, 6.000000000000000000 ) ) ;
#36 = ORIENTED_EDGE ( 'NONE', *, *, #823, .T. ) ;
#37 = CARTESIAN_POINT ( 'NONE',  ( 12.50000000000000000, 6.817272672744955742, 34.38719000828857730 ) ) ;
#38 = EDGE_CURVE ( 'NONE', #163, #537, #791, .T. ) ;
#39 = DATE_TIME_ROLE ( 'classification_date' ) ;
#40 = ORIENTED_EDGE ( 'NONE', *, *, #835, .F. ) ;
#41 = EDGE_LOOP ( 'NONE', ( #271, #894, #953, #40 ) ) ;
#42 = DIRECTION ( 'NONE',  ( 0.000000000000000000, -0.8064049958557055753, 0.5913636636275174663 ) ) ;
#43 = PERSON_AND_ORGANIZATION ( #928, #820 ) ;
#44 = ORIENTED_EDGE ( 'NONE', *, *, #570, .T. ) ;
#45 = ORIENTED_EDGE ( 'NONE', *, *, #949, .F. ) ;
#46 = AXIS2_PLACEMENT_3D ( 'NONE', #914, #125, #838 ) ;
#47 = CARTESIAN_POINT ( 'NONE',  ( -3.250000000000001776, 8.000000000000024869, 0.000000000000000000 ) ) ;
#48 = DIRECTION ( 'NONE',  ( 0.000000000000000000, 0.000000000000000000, 1.000000000000000000 ) ) ;
#49 = VERTEX_POINT ( 'NONE', #285 ) ;
#50 = VECTOR ( 'NONE', #73, 1000.000000000000000 ) ;
#51 = ORIENTED_EDGE ( 'NONE', *, *, #922, .F. ) ;
#52 = CARTESIAN_POINT ( 'NONE',  ( 9.500000000000001776, -14.00000000000000178, 6.000000000000000000 ) ) ;
#53 = ORIENTED_EDGE ( 'NONE', *, *, #122, .T. ) ;
#54 = EDGE_LOOP ( 'NONE', ( #905, #781, #777, #599, #105 ) ) ;
#55 = LINE ( 'NONE', #653, #741 ) ;
#56 =( NAMED_UNIT ( * ) SI_UNIT ( $, .STERADIAN. ) SOLID_ANGLE_UNIT ( ) );
#57 = ORIENTED_EDGE ( 'NONE', *, *, #615, .T. ) ;
#58 = FACE_BOUND ( 'NONE', #658, .T. ) ;
#59 = EDGE_LOOP ( 'NONE', ( #867, #169, #230, #686, #802, #506 ) ) ;
#60 = DIRECTION ( 'NONE',  ( -0.000000000000000000, -0.000000000000000000, -1.000000000000000000 ) ) ;
#61 = VECTOR ( 'NONE', #875, 1000.000000000000000 ) ;
#62 = ADVANCED_FACE ( 'NONE', ( #571 ), #865, .T. ) ;
#63 = ORIENTED_EDGE ( 'NONE', *, *, #338, .T. ) ;
#64 = VECTOR ( 'NONE', #832, 1000.000000000000000 ) ;
#65 = ADVANCED_BREP_SHAPE_REPRESENTATION ( 'fix1_jetson', ( #597, #193 ), #483 ) ;
#66 = DIRECTION ( 'NONE',  ( 1.000000000000000000, 0.000000000000000000, 0.000000000000000000 ) ) ;
#67 = AXIS2_PLACEMENT_3D ( 'NONE', #171, #902, #245 ) ;
#68 = DIRECTION ( 'NONE',  ( -0.000000000000000000, -1.000000000000000000, -0.000000000000000000 ) ) ;
#69 = EDGE_LOOP ( 'NONE', ( #323, #728, #211, #431 ) ) ;
#70 = CC_DESIGN_PERSON_AND_ORGANIZATION_ASSIGNMENT ( #548, #268, ( #650 ) ) ;
#71 = DIRECTION ( 'NONE',  ( -1.000000000000000000, -0.000000000000000000, -0.000000000000000000 ) ) ;
#72 = CARTESIAN_POINT ( 'NONE',  ( 12.50000000000000000, 9.757504099828404165, 36.00000000000000000 ) ) ;
#73 = DIRECTION ( 'NONE',  ( 1.000000000000000000, 0.000000000000000000, 0.000000000000000000 ) ) ;
#74 = ORIENTED_EDGE ( 'NONE', *, *, #425, .F. ) ;
#75 = EDGE_CURVE ( 'NONE', #163, #189, #794, .T. ) ;
#76 = FACE_OUTER_BOUND ( 'NONE', #612, .T. ) ;
#77 = DIRECTION ( 'NONE',  ( 0.000000000000000000, -0.8064049958557055753, 0.5913636636275174663 ) ) ;
#78 = CARTESIAN_POINT ( 'NONE',  ( 10.49999999999999822, 16.49999999999999645, 6.000000000000000000 ) ) ;
#79 = AXIS2_PLACEMENT_3D ( 'NONE', #299, #736, #943 ) ;
#80 = FACE_OUTER_BOUND ( 'NONE', #901, .T. ) ;
#81 = EDGE_CURVE ( 'NONE', #863, #137, #433, .T. ) ;
#82 = CARTESIAN_POINT ( 'NONE',  ( -12.50000000000000000, 11.99999999999999645, 36.00000000000000000 ) ) ;
#83 = VECTOR ( 'NONE', #463, 1000.000000000000000 ) ;
#84 = ORIENTED_EDGE ( 'NONE', *, *, #23, .T. ) ;
#85 = UNCERTAINTY_MEASURE_WITH_UNIT (LENGTH_MEASURE( 1.000000000000000082E-05 ), #613, 'distance_accuracy_value', 'NONE');
#86 = LINE ( 'NONE', #249, #466 ) ;
#87 = LINE ( 'NONE', #739, #908 ) ;
#88 = DIRECTION ( 'NONE',  ( -0.000000000000000000, -0.7071067811865474617, 0.7071067811865476838 ) ) ;
#89 = EDGE_LOOP ( 'NONE', ( #579, #667, #150, #761 ) ) ;
#90 = FACE_BOUND ( 'NONE', #123, .T. ) ;
#91 = CARTESIAN_POINT ( 'NONE',  ( -12.50000000000000000, 17.49999999999999645, 6.000000000000000000 ) ) ;
#92 = FACE_OUTER_BOUND ( 'NONE', #54, .T. ) ;
#93 = CARTESIAN_POINT ( 'NONE',  ( 0.000000000000000000, 8.000000000000024869, 0.000000000000000000 ) ) ;
#94 = ORIENTED_EDGE ( 'NONE', *, *, #384, .F. ) ;
#95 = CARTESIAN_POINT ( 'NONE',  ( -6.125000000000007105, 9.000000000000005329, 32.00000000000000000 ) ) ;
#96 = EDGE_CURVE ( 'NONE', #440, #28, #372, .T. ) ;
#97 = DIRECTION ( 'NONE',  ( 1.000000000000000000, 0.000000000000000000, 0.000000000000000000 ) ) ;
#98 = VECTOR ( 'NONE', #730, 1000.000000000000000 ) ;
#99 = VECTOR ( 'NONE', #582, 1000.000000000000114 ) ;
#100 = CARTESIAN_POINT ( 'NONE',  ( -3.250000000000001332, 1.999999999999998224, 0.000000000000000000 ) ) ;
#101 = VERTEX_POINT ( 'NONE', #945 ) ;
#102 = CC_DESIGN_APPROVAL ( #301, ( #935 ) ) ;
#103 = DIRECTION ( 'NONE',  ( 1.000000000000000000, 0.000000000000000000, 0.000000000000000000 ) ) ;
#104 = ADVANCED_FACE ( 'NONE', ( #660 ), #134, .T. ) ;
#105 = ORIENTED_EDGE ( 'NONE', *, *, #147, .F. ) ;
#106 = DIRECTION ( 'NONE',  ( -0.000000000000000000, -0.000000000000000000, -1.000000000000000000 ) ) ;
#107 = ORIENTED_EDGE ( 'NONE', *, *, #504, .T. ) ;
#108 = CARTESIAN_POINT ( 'NONE',  ( 3.250000000000000000, -8.000000000000001776, 0.000000000000000000 ) ) ;
#109 = CARTESIAN_POINT ( 'NONE',  ( 12.50000000000000000, 13.99999999999999822, 33.99999999999998579 ) ) ;
#110 = ADVANCED_FACE ( 'NONE', ( #576 ), #869, .T. ) ;
#111 = ORIENTED_EDGE ( 'NONE', *, *, #315, .T. ) ;
#112 = VECTOR ( 'NONE', #378, 1000.000000000000000 ) ;
#113 = PERSON_AND_ORGANIZATION ( #928, #820 ) ;
#114 = ORIENTED_EDGE ( 'NONE', *, *, #127, .F. ) ;
#115 = VERTEX_POINT ( 'NONE', #720 ) ;
#116 = DIRECTION ( 'NONE',  ( 0.000000000000000000, 1.000000000000000000, 0.000000000000000000 ) ) ;
#117 = APPROVAL_ROLE ( '' ) ;
#118 = ORIENTED_EDGE ( 'NONE', *, *, #672, .T. ) ;
#119 = ORIENTED_EDGE ( 'NONE', *, *, #366, .F. ) ;
#120 = CARTESIAN_POINT ( 'NONE',  ( -3.250000000000001332, 1.999999999999998224, 6.000000000000000000 ) ) ;
#121 = CALENDAR_DATE ( 2026, 2, 6 ) ;
#122 = EDGE_CURVE ( 'NONE', #472, #429, #797, .T. ) ;
#123 = EDGE_LOOP ( 'NONE', ( #356, #243, #319, #683 ) ) ;
#124 = VECTOR ( 'NONE', #170, 1000.000000000000000 ) ;
#125 = DIRECTION ( 'NONE',  ( 1.000000000000000000, 0.000000000000000000, 0.000000000000000000 ) ) ;
#126 = COORDINATED_UNIVERSAL_TIME_OFFSET ( 1, 0, .AHEAD. ) ;
#127 = EDGE_CURVE ( 'NONE', #542, #768, #367, .T. ) ;
#128 = VECTOR ( 'NONE', #12, 1000.000000000000114 ) ;
#129 = CARTESIAN_POINT ( 'NONE',  ( -6.125000000000007994, 13.99999999999999822, 6.000000000000000000 ) ) ;
#130 = FACE_OUTER_BOUND ( 'NONE', #533, .T. ) ;
#131 = COORDINATED_UNIVERSAL_TIME_OFFSET ( 1, 0, .AHEAD. ) ;
#132 = ORIENTED_EDGE ( 'NONE', *, *, #904, .T. ) ;
#133 = CARTESIAN_POINT ( 'NONE',  ( -12.50000000000000000, 17.49999999999999645, 0.000000000000000000 ) ) ;
#134 = PLANE ( 'NONE',  #630 ) ;
#135 = EDGE_CURVE ( 'NONE', #412, #745, #148, .T. ) ;
#136 = CARTESIAN_POINT ( 'NONE',  ( -12.50000000000000000, 9.757504099828404165, 36.00000000000000000 ) ) ;
#137 = VERTEX_POINT ( 'NONE', #734 ) ;
#138 = CARTESIAN_POINT ( 'NONE',  ( 3.249999999999998668, 1.999999999999998224, 6.000000000000000000 ) ) ;
#139 = CARTESIAN_POINT ( 'NONE',  ( 12.50000000000000000, 13.99999999999999822, 36.00000000000000000 ) ) ;
#140 = ADVANCED_FACE ( 'NONE', ( #76 ), #3, .F. ) ;
#141 = LINE ( 'NONE', #577, #343 ) ;
#142 = ORIENTED_EDGE ( 'NONE', *, *, #870, .T. ) ;
#143 = CARTESIAN_POINT ( 'NONE',  ( -3.250000000000001776, 5.000000000000000888, 3.000000000000012879 ) ) ;
#144 = LOCAL_TIME ( 11, 32, 34.00000000000000000, #925 ) ;
#145 = CARTESIAN_POINT ( 'NONE',  ( -9.500000000000001776, 7.999999999999998224, 35.03595337885061411 ) ) ;
#146 = ORIENTED_EDGE ( 'NONE', *, *, #435, .F. ) ;
#147 = EDGE_CURVE ( 'NONE', #485, #557, #786, .T. ) ;
#148 = LINE ( 'NONE', #293, #580 ) ;
#149 = LINE ( 'NONE', #443, #332 ) ;
#150 = ORIENTED_EDGE ( 'NONE', *, *, #545, .F. ) ;
#151 = ORIENTED_EDGE ( 'NONE', *, *, #75, .F. ) ;
#152 = PLANE ( 'NONE',  #784 ) ;
#153 = ADVANCED_FACE ( 'NONE', ( #92 ), #514, .F. ) ;
#154 = CARTESIAN_POINT ( 'NONE',  ( 10.49999999999999822, 17.49999999999999645, 8.000000000000000000 ) ) ;
#155 = DIRECTION ( 'NONE',  ( -0.000000000000000000, -0.000000000000000000, -1.000000000000000000 ) ) ;
#156 = ORIENTED_EDGE ( 'NONE', *, *, #408, .F. ) ;
#157 = FACE_OUTER_BOUND ( 'NONE', #756, .T. ) ;
#158 = VERTEX_POINT ( 'NONE', #815 ) ;
#159 = VECTOR ( 'NONE', #651, 1000.000000000000000 ) ;
#160 = CARTESIAN_POINT ( 'NONE',  ( 12.50000000000000000, 17.49999999999999645, 0.000000000000000000 ) ) ;
#161 = DIRECTION ( 'NONE',  ( 1.000000000000000000, 0.000000000000000000, 0.000000000000000000 ) ) ;
#162 = VECTOR ( 'NONE', #690, 1000.000000000000000 ) ;
#163 = VERTEX_POINT ( 'NONE', #224 ) ;
#164 = FACE_OUTER_BOUND ( 'NONE', #41, .T. ) ;
#165 = LINE ( 'NONE', #91, #64 ) ;
#166 = LINE ( 'NONE', #316, #31 ) ;
#167 = DIRECTION ( 'NONE',  ( 0.000000000000000000, -0.5913636636275173553, -0.8064049958557054643 ) ) ;
#168 = EDGE_CURVE ( 'NONE', #101, #511, #233, .T. ) ;
#169 = ORIENTED_EDGE ( 'NONE', *, *, #414, .F. ) ;
#170 = DIRECTION ( 'NONE',  ( -1.000000000000000000, -0.000000000000000000, -0.000000000000000000 ) ) ;
#171 = CARTESIAN_POINT ( 'NONE',  ( -12.50000000000000000, 7.999999999999996447, 36.00000000000000000 ) ) ;
#172 = DIRECTION ( 'NONE',  ( -0.000000000000000000, -0.5913636636275173553, -0.8064049958557054643 ) ) ;
#173 = ORIENTED_EDGE ( 'NONE', *, *, #38, .F. ) ;
#174 = APPROVAL ( #783, 'UNSPECIFIED' ) ;
#175 = LINE ( 'NONE', #827, #833 ) ;
#176 = CARTESIAN_POINT ( 'NONE',  ( -9.500000000000001776, 0.000000000000000000, 0.000000000000000000 ) ) ;
#177 = AXIS2_PLACEMENT_3D ( 'NONE', #588, #881, #492 ) ;
#178 = VECTOR ( 'NONE', #605, 1000.000000000000000 ) ;
#179 = ORIENTED_EDGE ( 'NONE', *, *, #806, .F. ) ;
#180 = VECTOR ( 'NONE', #258, 1000.000000000000000 ) ;
#181 = EDGE_CURVE ( 'NONE', #101, #436, #596, .T. ) ;
#182 = ORIENTED_EDGE ( 'NONE', *, *, #348, .T. ) ;
#183 = CARTESIAN_POINT ( 'NONE',  ( -12.50000000000000000, 13.99999999999999822, 36.00000000000000000 ) ) ;
#184 = CARTESIAN_POINT ( 'NONE',  ( 1.586449154109027832E-16, 7.999999999999996447, 35.03595337885061411 ) ) ;
#185 = EDGE_CURVE ( 'NONE', #639, #889, #742, .T. ) ;
#186 = ORIENTED_EDGE ( 'NONE', *, *, #644, .F. ) ;
#187 = CARTESIAN_POINT ( 'NONE',  ( -12.50000000000000000, 16.49999999999999645, 6.000000000000000000 ) ) ;
#188 = APPLICATION_PROTOCOL_DEFINITION ( 'international standard', 'config_control_design', 1994, #808 ) ;
#189 = VERTEX_POINT ( 'NONE', #525 ) ;
#190 = VERTEX_POINT ( 'NONE', #160 ) ;
#191 = VECTOR ( 'NONE', #409, 1000.000000000000000 ) ;
#192 = ORIENTED_EDGE ( 'NONE', *, *, #254, .F. ) ;
#193 = AXIS2_PLACEMENT_3D ( 'NONE', #645, #48, #262 ) ;
#194 = ORIENTED_EDGE ( 'NONE', *, *, #254, .T. ) ;
#195 = EDGE_CURVE ( 'NONE', #429, #436, #892, .T. ) ;
#196 = DATE_AND_TIME ( #121, #395 ) ;
#197 = VERTEX_POINT ( 'NONE', #822 ) ;
#198 = ORIENTED_EDGE ( 'NONE', *, *, #203, .F. ) ;
#199 = EDGE_CURVE ( 'NONE', #28, #521, #87, .T. ) ;
#200 = ORIENTED_EDGE ( 'NONE', *, *, #195, .T. ) ;
#201 = VECTOR ( 'NONE', #887, 1000.000000000000000 ) ;
#202 = CARTESIAN_POINT ( 'NONE',  ( 12.50000000000000000, 11.99999999999999645, 36.00000000000000000 ) ) ;
#203 = EDGE_CURVE ( 'NONE', #351, #247, #11, .T. ) ;
#204 = VECTOR ( 'NONE', #669, 1000.000000000000000 ) ;
#205 = DIRECTION ( 'NONE',  ( -1.000000000000000000, -1.301042606982605321E-16, 0.000000000000000000 ) ) ;
#206 = FACE_OUTER_BOUND ( 'NONE', #637, .T. ) ;
#207 = ORIENTED_EDGE ( 'NONE', *, *, #779, .F. ) ;
#208 = CC_DESIGN_PERSON_AND_ORGANIZATION_ASSIGNMENT ( #273, #713, ( #501 ) ) ;
#209 = ORIENTED_EDGE ( 'NONE', *, *, #475, .F. ) ;
#210 = CARTESIAN_POINT ( 'NONE',  ( -6.125000000000007994, 13.99999999999999822, 27.50000000000000000 ) ) ;
#211 = ORIENTED_EDGE ( 'NONE', *, *, #904, .F. ) ;
#212 = DIRECTION ( 'NONE',  ( -0.000000000000000000, -0.000000000000000000, -1.000000000000000000 ) ) ;
#213 = DIRECTION ( 'NONE',  ( 0.000000000000000000, 1.000000000000000000, 0.000000000000000000 ) ) ;
#214 = CARTESIAN_POINT ( 'NONE',  ( 6.124999999999992006, 17.99999999999999645, 32.00000000000000000 ) ) ;
#215 = AXIS2_PLACEMENT_3D ( 'NONE', #219, #213, #495 ) ;
#216 = VECTOR ( 'NONE', #932, 1000.000000000000000 ) ;
#217 = ORIENTED_EDGE ( 'NONE', *, *, #81, .F. ) ;
#218 = CARTESIAN_POINT ( 'NONE',  ( 9.500000000000001776, 6.817272672744953077, 34.38719000828857730 ) ) ;
#219 = CARTESIAN_POINT ( 'NONE',  ( 0.000000000000000000, 17.49999999999999645, 0.000000000000000000 ) ) ;
#220 = CARTESIAN_POINT ( 'NONE',  ( 12.50000000000000000, -14.00000000000000178, 6.000000000000000000 ) ) ;
#221 = EDGE_CURVE ( 'NONE', #189, #714, #166, .T. ) ;
#222 = ORIENTED_EDGE ( 'NONE', *, *, #27, .T. ) ;
#223 = CARTESIAN_POINT ( 'NONE',  ( -6.125000000000007105, 9.000000000000005329, 32.00000000000000000 ) ) ;
#224 = CARTESIAN_POINT ( 'NONE',  ( 12.50000000000000000, 9.757504099828404165, 36.00000000000000000 ) ) ;
#225 = DIRECTION ( 'NONE',  ( 1.000000000000000000, 0.000000000000000000, -0.000000000000000000 ) ) ;
#226 = ORIENTED_EDGE ( 'NONE', *, *, #81, .T. ) ;
#227 = ORIENTED_EDGE ( 'NONE', *, *, #844, .T. ) ;
#228 = DIRECTION ( 'NONE',  ( -0.000000000000000000, -0.000000000000000000, 1.000000000000000000 ) ) ;
#229 = CARTESIAN_POINT ( 'NONE',  ( -12.50000000000000000, 16.49999999999999645, 6.000000000000000000 ) ) ;
#230 = ORIENTED_EDGE ( 'NONE', *, *, #203, .T. ) ;
#231 = CARTESIAN_POINT ( 'NONE',  ( -6.125000000000007994, 7.999999999999996447, 32.00000000000000000 ) ) ;
#232 = EDGE_CURVE ( 'NONE', #521, #49, #748, .T. ) ;
#233 = LINE ( 'NONE', #387, #617 ) ;
#234 = VECTOR ( 'NONE', #97, 1000.000000000000000 ) ;
#235 = LINE ( 'NONE', #526, #649 ) ;
#236 = VERTEX_POINT ( 'NONE', #447 ) ;
#237 = LINE ( 'NONE', #528, #124 ) ;
#238 = FACE_BOUND ( 'NONE', #909, .T. ) ;
#239 = CARTESIAN_POINT ( 'NONE',  ( 12.50000000000000000, 13.99999999999999822, 33.99999999999998579 ) ) ;
#240 = ADVANCED_FACE ( 'NONE', ( #80 ), #377, .F. ) ;
#241 = CARTESIAN_POINT ( 'NONE',  ( 3.250000000000000000, -8.000000000000001776, 6.000000000000000000 ) ) ;
#242 = ORIENTED_EDGE ( 'NONE', *, *, #398, .F. ) ;
#243 = ORIENTED_EDGE ( 'NONE', *, *, #135, .T. ) ;
#244 = DIRECTION ( 'NONE',  ( 0.000000000000000000, -0.000000000000000000, -1.000000000000000000 ) ) ;
#245 = DIRECTION ( 'NONE',  ( -1.000000000000000000, -6.938893903907228378E-17, 0.000000000000000000 ) ) ;
#246 = DIRECTION ( 'NONE',  ( -0.000000000000000000, -0.000000000000000000, 1.000000000000000000 ) ) ;
#247 = VERTEX_POINT ( 'NONE', #370 ) ;
#248 = EDGE_CURVE ( 'NONE', #115, #396, #655, .T. ) ;
#249 = CARTESIAN_POINT ( 'NONE',  ( 12.50000000000000000, 17.49999999999999645, 0.000000000000000000 ) ) ;
#250 = LINE ( 'NONE', #35, #524 ) ;
#251 = VECTOR ( 'NONE', #116, 1000.000000000000000 ) ;
#252 = VERTEX_POINT ( 'NONE', #78 ) ;
#253 = VECTOR ( 'NONE', #900, 1000.000000000000000 ) ;
#254 = EDGE_CURVE ( 'NONE', #412, #137, #283, .T. ) ;
#255 = DIRECTION ( 'NONE',  ( -1.000000000000000000, -6.938893903907229610E-17, -3.806202911975545741E-17 ) ) ;
#256 = VERTEX_POINT ( 'NONE', #437 ) ;
#257 = VERTEX_POINT ( 'NONE', #133 ) ;
#258 = DIRECTION ( 'NONE',  ( -0.000000000000000000, -0.000000000000000000, 1.000000000000000000 ) ) ;
#259 = CALENDAR_DATE ( 2026, 2, 6 ) ;
#260 = ORIENTED_EDGE ( 'NONE', *, *, #127, .T. ) ;
#261 = PLANE ( 'NONE',  #46 ) ;
#262 = DIRECTION ( 'NONE',  ( 1.000000000000000000, 0.000000000000000000, 0.000000000000000000 ) ) ;
#263 = ORIENTED_EDGE ( 'NONE', *, *, #603, .F. ) ;
#264 = EDGE_CURVE ( 'NONE', #840, #252, #664, .T. ) ;
#265 = ORIENTED_EDGE ( 'NONE', *, *, #248, .F. ) ;
#266 = LINE ( 'NONE', #555, #581 ) ;
#267 = VECTOR ( 'NONE', #510, 1000.000000000000000 ) ;
#268 = PERSON_AND_ORGANIZATION_ROLE ( 'creator' ) ;
#269 = ORIENTED_EDGE ( 'NONE', *, *, #885, .F. ) ;
#270 = LOCAL_TIME ( 11, 32, 34.00000000000000000, #417 ) ;
#271 = ORIENTED_EDGE ( 'NONE', *, *, #467, .F. ) ;
#272 = LINE ( 'NONE', #853, #180 ) ;
#273 = PERSON_AND_ORGANIZATION ( #928, #820 ) ;
#274 = ORIENTED_EDGE ( 'NONE', *, *, #687, .F. ) ;
#275 = DIRECTION ( 'NONE',  ( 0.000000000000000000, 1.000000000000000000, 0.000000000000000000 ) ) ;
#276 = ADVANCED_FACE ( 'NONE', ( #729 ), #152, .F. ) ;
#277 = PERSON_AND_ORGANIZATION ( #928, #820 ) ;
#278 = CARTESIAN_POINT ( 'NONE',  ( -6.125000000000007994, 7.999999999999996447, 27.50000000000000000 ) ) ;
#279 = VECTOR ( 'NONE', #212, 1000.000000000000000 ) ;
#280 = FACE_BOUND ( 'NONE', #952, .T. ) ;
#281 = ADVANCED_FACE ( 'NONE', ( #445 ), #361, .T. ) ;
#282 = VECTOR ( 'NONE', #839, 1000.000000000000000 ) ;
#283 = LINE ( 'NONE', #432, #491 ) ;
#284 = APPROVAL_PERSON_ORGANIZATION ( #487, #174, #780 ) ;
#285 = CARTESIAN_POINT ( 'NONE',  ( -12.50000000000000000, 13.99999999999999822, 6.000000000000000000 ) ) ;
#286 = CARTESIAN_POINT ( 'NONE',  ( 9.500000000000001776, 9.757504099828404165, 36.00000000000000000 ) ) ;
#287 = FACE_OUTER_BOUND ( 'NONE', #855, .T. ) ;
#288 = CARTESIAN_POINT ( 'NONE',  ( 3.249999999999998668, 1.999999999999998224, 0.000000000000000000 ) ) ;
#289 = APPLICATION_CONTEXT ( 'configuration controlled 3d designs of mechanical parts and assemblies' ) ;
#290 = DIRECTION ( 'NONE',  ( 1.000000000000000000, 0.000000000000000000, 0.000000000000000000 ) ) ;
#291 = VERTEX_POINT ( 'NONE', #719 ) ;
#292 = CARTESIAN_POINT ( 'NONE',  ( -12.50000000000000000, 17.49999999999999645, 6.000000000000000000 ) ) ;
#293 = CARTESIAN_POINT ( 'NONE',  ( 6.124999999999988454, 13.99999999999999822, 5.999999999999996447 ) ) ;
#294 = EDGE_CURVE ( 'NONE', #291, #789, #587, .T. ) ;
#295 = CARTESIAN_POINT ( 'NONE',  ( -12.50000000000000000, 16.49999999999999645, 8.000000000000000000 ) ) ;
#296 = ORIENTED_EDGE ( 'NONE', *, *, #315, .F. ) ;
#297 = VECTOR ( 'NONE', #886, 1000.000000000000000 ) ;
#298 = VERTEX_POINT ( 'NONE', #497 ) ;
#299 = CARTESIAN_POINT ( 'NONE',  ( 0.000000000000000000, 11.99999999999999645, 36.00000000000000000 ) ) ;
#300 = DIRECTION ( 'NONE',  ( -0.000000000000000000, 1.000000000000000000, -0.000000000000000000 ) ) ;
#301 = APPROVAL ( #484, 'UNSPECIFIED' ) ;
#302 = LINE ( 'NONE', #747, #282 ) ;
#303 = CARTESIAN_POINT ( 'NONE',  ( 6.124999999999991118, 13.99999999999999822, 27.50000000000000000 ) ) ;
#304 = ORIENTED_EDGE ( 'NONE', *, *, #467, .T. ) ;
#305 = CARTESIAN_POINT ( 'NONE',  ( -6.125000000000007994, 17.99999999999999645, 32.00000000000000000 ) ) ;
#306 = CARTESIAN_POINT ( 'NONE',  ( -9.500000000000001776, -14.00000000000000178, 6.000000000000000000 ) ) ;
#307 = ORIENTED_EDGE ( 'NONE', *, *, #499, .F. ) ;
#308 = DIRECTION ( 'NONE',  ( 0.000000000000000000, -1.000000000000000000, 0.000000000000000000 ) ) ;
#309 = ADVANCED_FACE ( 'NONE', ( #58, #287 ), #880, .F. ) ;
#310 = DIRECTION ( 'NONE',  ( 0.000000000000000000, 0.000000000000000000, 1.000000000000000000 ) ) ;
#311 = CARTESIAN_POINT ( 'NONE',  ( -9.500000000000001776, -14.00000000000000178, 6.000000000000000000 ) ) ;
#312 = ORIENTED_EDGE ( 'NONE', *, *, #801, .F. ) ;
#313 = CARTESIAN_POINT ( 'NONE',  ( -12.50000000000000000, -14.00000000000000178, 6.000000000000000000 ) ) ;
#314 = PLANE ( 'NONE',  #362 ) ;
#315 = EDGE_CURVE ( 'NONE', #537, #800, #948, .T. ) ;
#316 = CARTESIAN_POINT ( 'NONE',  ( -12.50000000000000000, 11.99999999999999645, 36.00000000000000000 ) ) ;
#317 = PLANE ( 'NONE',  #407 ) ;
#318 = SECURITY_CLASSIFICATION ( '', '', #769 ) ;
#319 = ORIENTED_EDGE ( 'NONE', *, *, #353, .T. ) ;
#320 = DIRECTION ( 'NONE',  ( -1.000000000000000000, 0.000000000000000000, 0.000000000000000000 ) ) ;
#321 = ADVANCED_FACE ( 'NONE', ( #513 ), #508, .F. ) ;
#322 = CARTESIAN_POINT ( 'NONE',  ( 9.500000000000001776, 7.999999999999998224, 6.000000000000000000 ) ) ;
#323 = ORIENTED_EDGE ( 'NONE', *, *, #622, .F. ) ;
#324 = LINE ( 'NONE', #313, #540 ) ;
#325 = PLANE ( 'NONE',  #67 ) ;
#326 = ADVANCED_FACE ( 'NONE', ( #90, #164 ), #397, .F. ) ;
#327 = ORIENTED_EDGE ( 'NONE', *, *, #384, .T. ) ;
#328 = PLANE ( 'NONE',  #818 ) ;
#329 = VECTOR ( 'NONE', #647, 1000.000000000000000 ) ;
#330 = AXIS2_PLACEMENT_3D ( 'NONE', #357, #793, #868 ) ;
#331 = EDGE_LOOP ( 'NONE', ( #573, #63, #670, #476 ) ) ;
#332 = VECTOR ( 'NONE', #735, 1000.000000000000000 ) ;
#333 = CARTESIAN_POINT ( 'NONE',  ( 9.500000000000001776, 0.000000000000000000, 0.000000000000000000 ) ) ;
#334 = ORIENTED_EDGE ( 'NONE', *, *, #499, .T. ) ;
#335 = VERTEX_POINT ( 'NONE', #456 ) ;
#336 = ORIENTED_EDGE ( 'NONE', *, *, #353, .F. ) ;
#337 = DIRECTION ( 'NONE',  ( 0.000000000000000000, 0.000000000000000000, 1.000000000000000000 ) ) ;
#338 = EDGE_CURVE ( 'NONE', #424, #25, #811, .T. ) ;
#339 = VECTOR ( 'NONE', #438, 1000.000000000000000 ) ;
#340 = VECTOR ( 'NONE', #684, 1000.000000000000000 ) ;
#341 = EDGE_LOOP ( 'NONE', ( #84, #923, #146, #132, #304, #916, #18, #345, #156, #327, #186 ) ) ;
#342 = LINE ( 'NONE', #689, #663 ) ;
#343 = VECTOR ( 'NONE', #60, 1000.000000000000000 ) ;
#344 = COORDINATED_UNIVERSAL_TIME_OFFSET ( 1, 0, .AHEAD. ) ;
#345 = ORIENTED_EDGE ( 'NONE', *, *, #96, .F. ) ;
#346 = APPROVAL_PERSON_ORGANIZATION ( #43, #441, #355 ) ;
#347 = ORIENTED_EDGE ( 'NONE', *, *, #854, .T. ) ;
#348 = EDGE_CURVE ( 'NONE', #197, #256, #752, .T. ) ;
#349 = PLANE ( 'NONE',  #494 ) ;
#350 = APPROVAL_DATE_TIME ( #428, #301 ) ;
#351 = VERTEX_POINT ( 'NONE', #906 ) ;
#352 = DIRECTION ( 'NONE',  ( -0.000000000000000000, -0.8767589709236949247, -0.4809300436704108117 ) ) ;
#353 = EDGE_CURVE ( 'NONE', #745, #485, #175, .T. ) ;
#354 = DIRECTION ( 'NONE',  ( 0.000000000000000000, 0.000000000000000000, -1.000000000000000000 ) ) ;
#355 = APPROVAL_ROLE ( '' ) ;
#356 = ORIENTED_EDGE ( 'NONE', *, *, #33, .T. ) ;
#357 = CARTESIAN_POINT ( 'NONE',  ( 0.000000000000000000, 0.000000000000000000, 6.000000000000000000 ) ) ;
#358 = ORIENTED_EDGE ( 'NONE', *, *, #891, .F. ) ;
#359 = FACE_OUTER_BOUND ( 'NONE', #810, .T. ) ;
#360 = VECTOR ( 'NONE', #255, 1000.000000000000000 ) ;
#361 = PLANE ( 'NONE',  #79 ) ;
#362 = AXIS2_PLACEMENT_3D ( 'NONE', #333, #601, #898 ) ;
#363 = DIRECTION ( 'NONE',  ( 1.000000000000000000, 0.000000000000000000, 0.000000000000000000 ) ) ;
#364 = DIRECTION ( 'NONE',  ( -9.199760500100260852E-17, 0.7071067811865487940, -0.7071067811865463515 ) ) ;
#365 = VERTEX_POINT ( 'NONE', #516 ) ;
#366 = EDGE_CURVE ( 'NONE', #236, #542, #324, .T. ) ;
#367 = LINE ( 'NONE', #950, #465 ) ;
#368 = LINE ( 'NONE', #52, #619 ) ;
#369 = ORIENTED_EDGE ( 'NONE', *, *, #785, .T. ) ;
#370 = CARTESIAN_POINT ( 'NONE',  ( 10.49999999999999822, 17.49999999999999645, 6.000000000000000000 ) ) ;
#371 = ADVANCED_FACE ( 'NONE', ( #157 ), #539, .F. ) ;
#372 = LINE ( 'NONE', #566, #98 ) ;
#373 = LINE ( 'NONE', #306, #128 ) ;
#374 = VECTOR ( 'NONE', #228, 1000.000000000000000 ) ;
#375 = DIRECTION ( 'NONE',  ( 0.000000000000000000, 0.000000000000000000, -1.000000000000000000 ) ) ;
#376 = VECTOR ( 'NONE', #543, 1000.000000000000000 ) ;
#377 = PLANE ( 'NONE',  #565 ) ;
#378 = DIRECTION ( 'NONE',  ( 1.000000000000000000, 0.000000000000000000, 0.000000000000000000 ) ) ;
#379 = EDGE_CURVE ( 'NONE', #872, #863, #831, .T. ) ;
#380 = ORIENTED_EDGE ( 'NONE', *, *, #181, .F. ) ;
#381 = CARTESIAN_POINT ( 'NONE',  ( -3.250000000000000444, -8.000000000000001776, 0.000000000000000000 ) ) ;
#382 = CARTESIAN_POINT ( 'NONE',  ( -6.125000000000007994, 17.99999999999999645, 32.00000000000000000 ) ) ;
#383 = EDGE_LOOP ( 'NONE', ( #884, #469, #845, #618 ) ) ;
#384 = EDGE_CURVE ( 'NONE', #257, #197, #819, .T. ) ;
#385 = DIRECTION ( 'NONE',  ( -1.000000000000000000, -0.000000000000000000, 0.000000000000000000 ) ) ;
#386 = PRODUCT_DEFINITION_SHAPE ( 'NONE', 'NONE',  #935 ) ;
#387 = CARTESIAN_POINT ( 'NONE',  ( -3.250000000000000444, -8.000000000000001776, 0.000000000000000000 ) ) ;
#388 = LINE ( 'NONE', #829, #771 ) ;
#389 = EDGE_LOOP ( 'NONE', ( #624, #921, #625, #711 ) ) ;
#390 = DIRECTION ( 'NONE',  ( 1.000000000000000000, 0.000000000000000000, 0.000000000000000000 ) ) ;
#391 = VECTOR ( 'NONE', #363, 1000.000000000000000 ) ;
#392 = CARTESIAN_POINT ( 'NONE',  ( -12.50000000000000000, 7.999999999999996447, 33.00000000000000711 ) ) ;
#393 = AXIS2_PLACEMENT_3D ( 'NONE', #749, #754, #515 ) ;
#394 = LINE ( 'NONE', #229, #5 ) ;
#395 = LOCAL_TIME ( 11, 32, 34.00000000000000000, #126 ) ;
#396 = VERTEX_POINT ( 'NONE', #883 ) ;
#397 = PLANE ( 'NONE',  #874 ) ;
#398 = EDGE_CURVE ( 'NONE', #298, #190, #86, .T. ) ;
#399 = ORIENTED_EDGE ( 'NONE', *, *, #854, .F. ) ;
#400 = CARTESIAN_POINT ( 'NONE',  ( -9.500000000000001776, 6.817272672744955742, 34.38719000828858441 ) ) ;
#401 = CARTESIAN_POINT ( 'NONE',  ( -6.125000000000007994, 7.999999999999996447, 27.50000000000000000 ) ) ;
#402 = VERTEX_POINT ( 'NONE', #746 ) ;
#403 = CARTESIAN_POINT ( 'NONE',  ( -12.50000000000000000, -14.00000000000000178, 6.000000000000000000 ) ) ;
#404 = DIRECTION ( 'NONE',  ( 0.000000000000000000, 0.7071067811865463515, -0.7071067811865487940 ) ) ;
#405 = VECTOR ( 'NONE', #762, 1000.000000000000000 ) ;
#406 = ORIENTED_EDGE ( 'NONE', *, *, #615, .F. ) ;
#407 = AXIS2_PLACEMENT_3D ( 'NONE', #448, #598, #225 ) ;
#408 = EDGE_CURVE ( 'NONE', #257, #440, #6, .T. ) ;
#409 = DIRECTION ( 'NONE',  ( 1.000000000000000000, 0.000000000000000000, 0.000000000000000000 ) ) ;
#410 = APPROVAL_DATE_TIME ( #920, #441 ) ;
#411 = EDGE_LOOP ( 'NONE', ( #36, #142, #561, #10 ) ) ;
#412 = VERTEX_POINT ( 'NONE', #303 ) ;
#413 = DIRECTION ( 'NONE',  ( 0.000000000000000000, -1.000000000000000000, 0.000000000000000000 ) ) ;
#414 = EDGE_CURVE ( 'NONE', #351, #440, #237, .T. ) ;
#415 = ORIENTED_EDGE ( 'NONE', *, *, #538, .F. ) ;
#416 = LINE ( 'NONE', #477, #191 ) ;
#417 = COORDINATED_UNIVERSAL_TIME_OFFSET ( 1, 0, .AHEAD. ) ;
#418 = ORIENTED_EDGE ( 'NONE', *, *, #96, .T. ) ;
#419 = ADVANCED_FACE ( 'NONE', ( #591 ), #461, .F. ) ;
#420 = VECTOR ( 'NONE', #911, 1000.000000000000000 ) ;
#421 = ORIENTED_EDGE ( 'NONE', *, *, #885, .T. ) ;
#422 = CARTESIAN_POINT ( 'NONE',  ( -9.500000000000001776, 7.999999999999996447, 6.000000000000000000 ) ) ;
#423 = AXIS2_PLACEMENT_3D ( 'NONE', #311, #77, #167 ) ;
#424 = VERTEX_POINT ( 'NONE', #621 ) ;
#425 = EDGE_CURVE ( 'NONE', #365, #115, #850, .T. ) ;
#426 = CARTESIAN_POINT ( 'NONE',  ( -12.50000000000000000, 6.817272672744955742, 34.38719000828857730 ) ) ;
#427 = LINE ( 'NONE', #942, #681 ) ;
#428 = DATE_AND_TIME ( #631, #554 ) ;
#429 = VERTEX_POINT ( 'NONE', #120 ) ;
#430 = CARTESIAN_POINT ( 'NONE',  ( -12.50000000000000000, 13.99999999999999822, 33.99999999999998579 ) ) ;
#431 = ORIENTED_EDGE ( 'NONE', *, *, #221, .F. ) ;
#432 = CARTESIAN_POINT ( 'NONE',  ( 6.124999999999991118, 17.99999999999999645, 27.50000000000000000 ) ) ;
#433 = LINE ( 'NONE', #278, #391 ) ;
#434 = LINE ( 'NONE', #871, #50 ) ;
#435 = EDGE_CURVE ( 'NONE', #714, #335, #489, .T. ) ;
#436 = VERTEX_POINT ( 'NONE', #924 ) ;
#437 = CARTESIAN_POINT ( 'NONE',  ( 12.50000000000000000, -14.00000000000000178, 0.000000000000000000 ) ) ;
#438 = DIRECTION ( 'NONE',  ( 6.133173666733507646E-17, -0.7071067811865487940, 0.7071067811865463515 ) ) ;
#439 = CARTESIAN_POINT ( 'NONE',  ( 0.000000000000000000, 0.000000000000000000, 8.000000000000000000 ) ) ;
#440 = VERTEX_POINT ( 'NONE', #705 ) ;
#441 = APPROVAL ( #788, 'UNSPECIFIED' ) ;
#442 = DIRECTION ( 'NONE',  ( 1.927470528863118802E-16, 0.000000000000000000, 1.000000000000000000 ) ) ;
#443 = CARTESIAN_POINT ( 'NONE',  ( -12.50000000000000000, 13.99999999999999822, 6.000000000000000000 ) ) ;
#444 = VERTEX_POINT ( 'NONE', #34 ) ;
#445 = FACE_OUTER_BOUND ( 'NONE', #69, .T. ) ;
#446 = ADVANCED_FACE ( 'NONE', ( #560 ), #261, .F. ) ;
#447 = CARTESIAN_POINT ( 'NONE',  ( -9.500000000000001776, -14.00000000000000178, 6.000000000000000000 ) ) ;
#448 = CARTESIAN_POINT ( 'NONE',  ( -6.125000000000007994, 17.99999999999999645, 32.00000000000000000 ) ) ;
#449 = VECTOR ( 'NONE', #519, 1000.000000000000000 ) ;
#450 = DIRECTION ( 'NONE',  ( -1.000000000000000000, -6.938893903907228378E-17, 0.000000000000000000 ) ) ;
#451 = VECTOR ( 'NONE', #493, 1000.000000000000000 ) ;
#452 = DIRECTION ( 'NONE',  ( -1.000000000000000000, 0.000000000000000000, 0.000000000000000000 ) ) ;
#453 = EDGE_CURVE ( 'NONE', #641, #424, #266, .T. ) ;
#454 = CARTESIAN_POINT ( 'NONE',  ( 9.500000000000001776, 6.817272672744955742, 34.38719000828857730 ) ) ;
#455 = ORIENTED_EDGE ( 'NONE', *, *, #435, .T. ) ;
#456 = CARTESIAN_POINT ( 'NONE',  ( -12.50000000000000000, 9.757504099828404165, 36.00000000000000000 ) ) ;
#457 = LINE ( 'NONE', #184, #360 ) ;
#458 = DIRECTION ( 'NONE',  ( -1.000000000000000000, 0.000000000000000000, -0.000000000000000000 ) ) ;
#459 = LINE ( 'NONE', #93, #927 ) ;
#460 = ORIENTED_EDGE ( 'NONE', *, *, #703, .F. ) ;
#461 = PLANE ( 'NONE',  #633 ) ;
#462 = CARTESIAN_POINT ( 'NONE',  ( -12.50000000000000000, 16.49999999999999645, 8.000000000000000000 ) ) ;
#463 = DIRECTION ( 'NONE',  ( -0.000000000000000000, -1.000000000000000000, -0.000000000000000000 ) ) ;
#464 = ORIENTED_EDGE ( 'NONE', *, *, #859, .F. ) ;
#465 = VECTOR ( 'NONE', #300, 1000.000000000000000 ) ;
#466 = VECTOR ( 'NONE', #106, 1000.000000000000000 ) ;
#467 = EDGE_CURVE ( 'NONE', #639, #49, #692, .T. ) ;
#468 = LINE ( 'NONE', #462, #897 ) ;
#469 = ORIENTED_EDGE ( 'NONE', *, *, #480, .F. ) ;
#470 = CARTESIAN_POINT ( 'NONE',  ( -12.50000000000000000, -14.00000000000000178, 0.000000000000000000 ) ) ;
#471 = CC_DESIGN_PERSON_AND_ORGANIZATION_ASSIGNMENT ( #113, #556, ( #650 ) ) ;
#472 = VERTEX_POINT ( 'NONE', #47 ) ;
#473 = CARTESIAN_POINT ( 'NONE',  ( -6.125000000000007994, 13.99999999999999822, 32.00000000000000000 ) ) ;
#474 = CARTESIAN_POINT ( 'NONE',  ( 6.124999999999992006, 7.999999999999996447, 32.00000000000000000 ) ) ;
#475 = EDGE_CURVE ( 'NONE', #256, #190, #847, .T. ) ;
#476 = ORIENTED_EDGE ( 'NONE', *, *, #922, .T. ) ;
#477 = CARTESIAN_POINT ( 'NONE',  ( -3.250000000000001332, 1.999999999999998224, 6.000000000000000000 ) ) ;
#478 = PERSON_AND_ORGANIZATION ( #928, #820 ) ;
#479 = ORIENTED_EDGE ( 'NONE', *, *, #823, .F. ) ;
#480 = EDGE_CURVE ( 'NONE', #511, #789, #272, .T. ) ;
#481 = ORIENTED_EDGE ( 'NONE', *, *, #870, .F. ) ;
#482 = VECTOR ( 'NONE', #246, 1000.000000000000000 ) ;
#483 =( GEOMETRIC_REPRESENTATION_CONTEXT ( 3 ) GLOBAL_UNCERTAINTY_ASSIGNED_CONTEXT ( ( #85 ) ) GLOBAL_UNIT_ASSIGNED_CONTEXT ( ( #613, #763, #56 ) ) REPRESENTATION_CONTEXT ( 'NONE', 'WORKASPACE' ) );
#484 = APPROVAL_STATUS ( 'not_yet_approved' ) ;
#485 = VERTEX_POINT ( 'NONE', #473 ) ;
#486 = DIRECTION ( 'NONE',  ( 0.000000000000000000, -0.5913636636275173553, -0.8064049958557054643 ) ) ;
#487 = PERSON_AND_ORGANIZATION ( #928, #820 ) ;
#488 = ORIENTED_EDGE ( 'NONE', *, *, #744, .T. ) ;
#489 = LINE ( 'NONE', #183, #216 ) ;
#490 = ORIENTED_EDGE ( 'NONE', *, *, #232, .T. ) ;
#491 = VECTOR ( 'NONE', #864, 1000.000000000000000 ) ;
#492 = DIRECTION ( 'NONE',  ( -1.927470528863118802E-16, 0.000000000000000000, -1.000000000000000000 ) ) ;
#493 = DIRECTION ( 'NONE',  ( 0.000000000000000000, -0.7071067811865463515, 0.7071067811865487940 ) ) ;
#494 = AXIS2_PLACEMENT_3D ( 'NONE', #936, #354, #717 ) ;
#495 = DIRECTION ( 'NONE',  ( 0.000000000000000000, -0.000000000000000000, 1.000000000000000000 ) ) ;
#496 = CARTESIAN_POINT ( 'NONE',  ( 3.249999999999997780, 8.000000000000024869, 0.000000000000000000 ) ) ;
#497 = CARTESIAN_POINT ( 'NONE',  ( 12.50000000000000000, 17.49999999999999645, 6.000000000000000000 ) ) ;
#498 = LINE ( 'NONE', #656, #329 ) ;
#499 = EDGE_CURVE ( 'NONE', #635, #511, #775, .T. ) ;
#500 = CARTESIAN_POINT ( 'NONE',  ( 0.000000000000000000, 9.757504099828404165, 36.00000000000000000 ) ) ;
#501 = PRODUCT ( 'fix1_jetson', 'fix1_jetson', '', ( #718 ) ) ;
#502 = EDGE_LOOP ( 'NONE', ( #209, #934, #94, #263 ) ) ;
#503 = DIRECTION ( 'NONE',  ( 1.301042606982605321E-16, -1.000000000000000000, 0.000000000000000000 ) ) ;
#504 = EDGE_CURVE ( 'NONE', #546, #236, #342, .T. ) ;
#505 = DIRECTION ( 'NONE',  ( 0.000000000000000000, -0.000000000000000000, 1.000000000000000000 ) ) ;
#506 = ORIENTED_EDGE ( 'NONE', *, *, #603, .T. ) ;
#507 = VECTOR ( 'NONE', #88, 1000.000000000000000 ) ;
#508 = PLANE ( 'NONE',  #693 ) ;
#509 = CARTESIAN_POINT ( 'NONE',  ( 0.000000000000000000, 0.000000000000000000, 36.00000000000000000 ) ) ;
#510 = DIRECTION ( 'NONE',  ( -0.000000000000000000, -0.000000000000000000, -1.000000000000000000 ) ) ;
#511 = VERTEX_POINT ( 'NONE', #108 ) ;
#512 = ADVANCED_FACE ( 'NONE', ( #701 ), #841, .T. ) ;
#513 = FACE_OUTER_BOUND ( 'NONE', #89, .T. ) ;
#514 = PLANE ( 'NONE',  #755 ) ;
#515 = DIRECTION ( 'NONE',  ( 0.000000000000000000, -0.000000000000000000, -1.000000000000000000 ) ) ;
#516 = CARTESIAN_POINT ( 'NONE',  ( 6.124999999999992006, 7.999999999999996447, 33.00000000000000711 ) ) ;
#517 = ORIENTED_EDGE ( 'NONE', *, *, #248, .T. ) ;
#518 = ADVANCED_FACE ( 'NONE', ( #29 ), #328, .F. ) ;
#519 = DIRECTION ( 'NONE',  ( 1.000000000000000000, 0.000000000000000000, 0.000000000000000000 ) ) ;
#520 = LINE ( 'NONE', #536, #586 ) ;
#521 = VERTEX_POINT ( 'NONE', #187 ) ;
#522 = DIRECTION ( 'NONE',  ( 0.000000000000000000, 0.000000000000000000, -1.000000000000000000 ) ) ;
#523 = FACE_OUTER_BOUND ( 'NONE', #632, .T. ) ;
#524 = VECTOR ( 'NONE', #673, 1000.000000000000000 ) ;
#525 = CARTESIAN_POINT ( 'NONE',  ( 12.50000000000000000, 11.99999999999999645, 36.00000000000000000 ) ) ;
#526 = CARTESIAN_POINT ( 'NONE',  ( 12.50000000000000000, 13.99999999999999822, 6.000000000000000000 ) ) ;
#527 = ORIENTED_EDGE ( 'NONE', *, *, #634, .T. ) ;
#528 = CARTESIAN_POINT ( 'NONE',  ( -12.50000000000000000, 17.49999999999999645, 8.000000000000000000 ) ) ;
#529 = FACE_OUTER_BOUND ( 'NONE', #411, .T. ) ;
#530 = DIRECTION ( 'NONE',  ( -0.000000000000000000, -0.000000000000000000, -1.000000000000000000 ) ) ;
#531 = FACE_OUTER_BOUND ( 'NONE', #331, .T. ) ;
#532 = EDGE_CURVE ( 'NONE', #429, #291, #416, .T. ) ;
#533 = EDGE_LOOP ( 'NONE', ( #562, #773, #45, #7 ) ) ;
#534 = DIRECTION ( 'NONE',  ( 1.000000000000000000, 0.000000000000000000, 0.000000000000000000 ) ) ;
#535 = LINE ( 'NONE', #392, #162 ) ;
#536 = CARTESIAN_POINT ( 'NONE',  ( -9.500000000000001776, 7.999999999999998224, 36.00000000000000000 ) ) ;
#537 = VERTEX_POINT ( 'NONE', #37 ) ;
#538 = EDGE_CURVE ( 'NONE', #25, #335, #626, .T. ) ;
#539 = PLANE ( 'NONE',  #2 ) ;
#540 = VECTOR ( 'NONE', #534, 1000.000000000000000 ) ;
#541 = VECTOR ( 'NONE', #657, 1000.000000000000114 ) ;
#542 = VERTEX_POINT ( 'NONE', #725 ) ;
#543 = DIRECTION ( 'NONE',  ( 1.301042606982605321E-16, -1.000000000000000000, 0.000000000000000000 ) ) ;
#544 = CARTESIAN_POINT ( 'NONE',  ( 12.50000000000000000, -14.00000000000000178, 6.000000000000000000 ) ) ;
#545 = EDGE_CURVE ( 'NONE', #291, #635, #567, .T. ) ;
#546 = VERTEX_POINT ( 'NONE', #422 ) ;
#547 = DIRECTION ( 'NONE',  ( -0.000000000000000000, -0.8767589709236949247, -0.4809300436704108117 ) ) ;
#548 = PERSON_AND_ORGANIZATION ( #928, #820 ) ;
#549 = ADVANCED_FACE ( 'NONE', ( #280, #787 ), #349, .T. ) ;
#550 = EDGE_LOOP ( 'NONE', ( #415, #691, #654, #481, #937, #296, #173, #646 ) ) ;
#551 = CARTESIAN_POINT ( 'NONE',  ( 12.50000000000000000, -14.00000000000000178, 0.000000000000000000 ) ) ;
#552 = ORIENTED_EDGE ( 'NONE', *, *, #774, .T. ) ;
#553 = AXIS2_PLACEMENT_3D ( 'NONE', #439, #572, #648 ) ;
#554 = LOCAL_TIME ( 11, 32, 34.00000000000000000, #131 ) ;
#555 = CARTESIAN_POINT ( 'NONE',  ( -9.500000000000001776, 9.757504099828404165, 36.00000000000000000 ) ) ;
#556 = PERSON_AND_ORGANIZATION_ROLE ( 'design_supplier' ) ;
#557 = VERTEX_POINT ( 'NONE', #210 ) ;
#558 = ORIENTED_EDGE ( 'NONE', *, *, #168, .T. ) ;
#559 = ADVANCED_FACE ( 'NONE', ( #130 ), #798, .F. ) ;
#560 = FACE_OUTER_BOUND ( 'NONE', #341, .T. ) ;
#561 = ORIENTED_EDGE ( 'NONE', *, *, #716, .T. ) ;
#562 = ORIENTED_EDGE ( 'NONE', *, *, #764, .T. ) ;
#563 = DIRECTION ( 'NONE',  ( -1.000000000000000000, -0.000000000000000000, -0.000000000000000000 ) ) ;
#564 = PERSON_AND_ORGANIZATION_ROLE ( 'creator' ) ;
#565 = AXIS2_PLACEMENT_3D ( 'NONE', #665, #8, #593 ) ;
#566 = CARTESIAN_POINT ( 'NONE',  ( -12.50000000000000000, 17.49999999999999645, 8.000000000000000000 ) ) ;
#567 = LINE ( 'NONE', #856, #760 ) ;
#568 = AXIS2_PLACEMENT_3D ( 'NONE', #544, #828, #26 ) ;
#569 = AXIS2_PLACEMENT_3D ( 'NONE', #712, #866, #583 ) ;
#570 = EDGE_CURVE ( 'NONE', #745, #115, #640, .T. ) ;
#571 = FACE_OUTER_BOUND ( 'NONE', #812, .T. ) ;
#572 = DIRECTION ( 'NONE',  ( -0.000000000000000000, 0.000000000000000000, 1.000000000000000000 ) ) ;
#573 = ORIENTED_EDGE ( 'NONE', *, *, #733, .T. ) ;
#574 = DIRECTION ( 'NONE',  ( -1.000000000000000000, 0.000000000000000000, -0.000000000000000000 ) ) ;
#575 = CC_DESIGN_DATE_AND_TIME_ASSIGNMENT ( #698, #627, ( #935 ) ) ;
#576 = FACE_OUTER_BOUND ( 'NONE', #59, .T. ) ;
#577 = CARTESIAN_POINT ( 'NONE',  ( -12.50000000000000000, -14.00000000000000178, 6.000000000000000000 ) ) ;
#578 = ORIENTED_EDGE ( 'NONE', *, *, #75, .T. ) ;
#579 = ORIENTED_EDGE ( 'NONE', *, *, #122, .F. ) ;
#580 = VECTOR ( 'NONE', #442, 1000.000000000000000 ) ;
#581 = VECTOR ( 'NONE', #547, 1000.000000000000114 ) ;
#582 = DIRECTION ( 'NONE',  ( 0.000000000000000000, 0.5913636636275173553, 0.8064049958557054643 ) ) ;
#583 = DIRECTION ( 'NONE',  ( 8.673617379884034239E-17, -1.000000000000000000, 0.000000000000000000 ) ) ;
#584 = ADVANCED_FACE ( 'NONE', ( #206 ), #862, .T. ) ;
#585 = ORIENTED_EDGE ( 'NONE', *, *, #835, .T. ) ;
#586 = VECTOR ( 'NONE', #893, 1000.000000000000000 ) ;
#587 = LINE ( 'NONE', #138, #297 ) ;
#588 = CARTESIAN_POINT ( 'NONE',  ( 6.124999999999992006, 17.99999999999999645, 32.00000000000000000 ) ) ;
#589 = LINE ( 'NONE', #100, #204 ) ;
#590 = CC_DESIGN_PERSON_AND_ORGANIZATION_ASSIGNMENT ( #478, #564, ( #935 ) ) ;
#591 = FACE_OUTER_BOUND ( 'NONE', #930, .T. ) ;
#592 = VERTEX_POINT ( 'NONE', #643 ) ;
#593 = DIRECTION ( 'NONE',  ( -1.000000000000000000, 0.000000000000000000, -0.000000000000000000 ) ) ;
#594 = EDGE_LOOP ( 'NONE', ( #207, #111, #765, #708 ) ) ;
#595 = CARTESIAN_POINT ( 'NONE',  ( -12.50000000000000000, -14.00000000000000178, 0.000000000000000000 ) ) ;
#596 = LINE ( 'NONE', #381, #374 ) ;
#597 = MANIFOLD_SOLID_BREP ( 'Chamfer5', #737 ) ;
#598 = DIRECTION ( 'NONE',  ( 0.000000000000000000, 0.000000000000000000, 1.000000000000000000 ) ) ;
#599 = ORIENTED_EDGE ( 'NONE', *, *, #844, .F. ) ;
#600 = CARTESIAN_POINT ( 'NONE',  ( -12.50000000000000000, 17.49999999999999645, 0.000000000000000000 ) ) ;
#601 = DIRECTION ( 'NONE',  ( 1.000000000000000000, 0.000000000000000000, -0.000000000000000000 ) ) ;
#602 = VECTOR ( 'NONE', #404, 1000.000000000000000 ) ;
#603 = EDGE_CURVE ( 'NONE', #190, #257, #427, .T. ) ;
#604 = APPROVAL_PERSON_ORGANIZATION ( #842, #301, #117 ) ;
#605 = DIRECTION ( 'NONE',  ( -0.000000000000000000, -1.000000000000000000, -0.000000000000000000 ) ) ;
#606 = LINE ( 'NONE', #816, #112 ) ;
#607 = ORIENTED_EDGE ( 'NONE', *, *, #570, .F. ) ;
#608 = DIRECTION ( 'NONE',  ( -0.000000000000000000, 0.7071067811865463515, 0.7071067811865487940 ) ) ;
#609 = PLANE ( 'NONE',  #772 ) ;
#610 = ADVANCED_FACE ( 'NONE', ( #359 ), #951, .F. ) ;
#611 = DIRECTION ( 'NONE',  ( -1.000000000000000000, 0.000000000000000000, 0.000000000000000000 ) ) ;
#612 = EDGE_LOOP ( 'NONE', ( #194, #421, #837, #607, #825 ) ) ;
#613 =( LENGTH_UNIT ( ) NAMED_UNIT ( * ) SI_UNIT ( .MILLI., .METRE. ) );
#614 = ORIENTED_EDGE ( 'NONE', *, *, #38, .T. ) ;
#615 = EDGE_CURVE ( 'NONE', #252, #247, #55, .T. ) ;
#616 = DIRECTION ( 'NONE',  ( 0.000000000000000000, 1.000000000000000000, 0.000000000000000000 ) ) ;
#617 = VECTOR ( 'NONE', #16, 1000.000000000000000 ) ;
#618 = ORIENTED_EDGE ( 'NONE', *, *, #181, .T. ) ;
#619 = VECTOR ( 'NONE', #740, 1000.000000000000114 ) ;
#620 = ORIENTED_EDGE ( 'NONE', *, *, #532, .T. ) ;
#621 = CARTESIAN_POINT ( 'NONE',  ( -9.500000000000001776, 6.817272672744955742, 34.38719000828857730 ) ) ;
#622 = EDGE_CURVE ( 'NONE', #889, #189, #731, .T. ) ;
#623 = DIRECTION ( 'NONE',  ( 1.927470528863118802E-16, -0.000000000000000000, 1.000000000000000000 ) ) ;
#624 = ORIENTED_EDGE ( 'NONE', *, *, #716, .F. ) ;
#625 = ORIENTED_EDGE ( 'NONE', *, *, #733, .F. ) ;
#626 = LINE ( 'NONE', #136, #541 ) ;
#627 = DATE_TIME_ROLE ( 'creation_date' ) ;
#628 = EDGE_LOOP ( 'NONE', ( #182, #947, #464, #119, #51, #834 ) ) ;
#629 = DIRECTION ( 'NONE',  ( -1.362927481496332814E-16, 0.7071067811865474617, -0.7071067811865476838 ) ) ;
#630 = AXIS2_PLACEMENT_3D ( 'NONE', #288, #205, #503 ) ;
#631 = CALENDAR_DATE ( 2026, 2, 6 ) ;
#632 = EDGE_LOOP ( 'NONE', ( #151, #614, #704, #527, #677, #242, #222, #715, #830 ) ) ;
#633 = AXIS2_PLACEMENT_3D ( 'NONE', #678, #320, #337 ) ;
#634 = EDGE_CURVE ( 'NONE', #402, #256, #939, .T. ) ;
#635 = VERTEX_POINT ( 'NONE', #496 ) ;
#636 = DATE_AND_TIME ( #707, #270 ) ;
#637 = EDGE_LOOP ( 'NONE', ( #418, #873, #369, #750 ) ) ;
#638 = ADVANCED_FACE ( 'NONE', ( #792 ), #722, .F. ) ;
#639 = VERTEX_POINT ( 'NONE', #430 ) ;
#640 = LINE ( 'NONE', #214, #836 ) ;
#641 = VERTEX_POINT ( 'NONE', #145 ) ;
#642 = DIRECTION ( 'NONE',  ( -0.000000000000000000, 1.000000000000000000, -0.000000000000000000 ) ) ;
#643 = CARTESIAN_POINT ( 'NONE',  ( 12.50000000000000000, 13.99999999999999822, 6.000000000000000000 ) ) ;
#644 = EDGE_CURVE ( 'NONE', #158, #197, #141, .T. ) ;
#645 = CARTESIAN_POINT ( 'NONE',  ( 0.000000000000000000, 0.000000000000000000, 0.000000000000000000 ) ) ;
#646 = ORIENTED_EDGE ( 'NONE', *, *, #744, .F. ) ;
#647 = DIRECTION ( 'NONE',  ( -0.000000000000000000, -1.000000000000000000, -0.000000000000000000 ) ) ;
#648 = DIRECTION ( 'NONE',  ( 1.000000000000000000, 0.000000000000000000, 0.000000000000000000 ) ) ;
#649 = VECTOR ( 'NONE', #155, 1000.000000000000000 ) ;
#650 = PRODUCT_DEFINITION_FORMATION_WITH_SPECIFIED_SOURCE ( 'ANY', '', #501, .NOT_KNOWN. ) ;
#651 = DIRECTION ( 'NONE',  ( -1.000000000000000000, -6.938893903907228378E-17, 0.000000000000000000 ) ) ;
#652 = DIRECTION ( 'NONE',  ( -0.000000000000000000, 0.000000000000000000, 1.000000000000000000 ) ) ;
#653 = CARTESIAN_POINT ( 'NONE',  ( 10.49999999999999822, 17.49999999999999645, 6.000000000000000000 ) ) ;
#654 = ORIENTED_EDGE ( 'NONE', *, *, #453, .F. ) ;
#655 = LINE ( 'NONE', #223, #159 ) ;
#656 = CARTESIAN_POINT ( 'NONE',  ( 12.50000000000000000, 17.49999999999999645, 6.000000000000000000 ) ) ;
#657 = DIRECTION ( 'NONE',  ( -0.000000000000000000, 0.8767589709236949247, 0.4809300436704108117 ) ) ;
#658 = EDGE_LOOP ( 'NONE', ( #732, #274, #805, #620 ) ) ;
#659 = VECTOR ( 'NONE', #629, 1000.000000000000000 ) ;
#660 = FACE_OUTER_BOUND ( 'NONE', #879, .T. ) ;
#661 = LINE ( 'NONE', #382, #83 ) ;
#662 = ORIENTED_EDGE ( 'NONE', *, *, #264, .T. ) ;
#663 = VECTOR ( 'NONE', #413, 1000.000000000000000 ) ;
#664 = LINE ( 'NONE', #1, #279 ) ;
#665 = CARTESIAN_POINT ( 'NONE',  ( -6.125000000000007994, 17.99999999999999645, 27.50000000000000000 ) ) ;
#666 = FACE_OUTER_BOUND ( 'NONE', #383, .T. ) ;
#667 = ORIENTED_EDGE ( 'NONE', *, *, #774, .F. ) ;
#668 = DIRECTION ( 'NONE',  ( -0.000000000000000000, -0.000000000000000000, -1.000000000000000000 ) ) ;
#669 = DIRECTION ( 'NONE',  ( 8.673617379884035472E-17, -1.000000000000000000, 0.000000000000000000 ) ) ;
#670 = ORIENTED_EDGE ( 'NONE', *, *, #23, .F. ) ;
#671 = DIRECTION ( 'NONE',  ( 1.000000000000000000, 0.000000000000000000, 0.000000000000000000 ) ) ;
#672 = EDGE_CURVE ( 'NONE', #800, #444, #804, .T. ) ;
#673 = DIRECTION ( 'NONE',  ( 1.000000000000000000, 0.000000000000000000, 0.000000000000000000 ) ) ;
#674 = CARTESIAN_POINT ( 'NONE',  ( -12.50000000000000000, 17.49999999999999645, 6.000000000000000000 ) ) ;
#675 = LINE ( 'NONE', #17, #253 ) ;
#676 = VECTOR ( 'NONE', #642, 1000.000000000000000 ) ;
#677 = ORIENTED_EDGE ( 'NONE', *, *, #475, .T. ) ;
#678 = CARTESIAN_POINT ( 'NONE',  ( 10.49999999999999822, 17.49999999999999645, 8.000000000000000000 ) ) ;
#679 = DIRECTION ( 'NONE',  ( 1.000000000000000000, 6.938893903907228378E-17, 0.000000000000000000 ) ) ;
#680 = CC_DESIGN_DATE_AND_TIME_ASSIGNMENT ( #196, #39, ( #318 ) ) ;
#681 = VECTOR ( 'NONE', #563, 1000.000000000000000 ) ;
#682 = LINE ( 'NONE', #24, #482 ) ;
#683 = ORIENTED_EDGE ( 'NONE', *, *, #147, .T. ) ;
#684 = DIRECTION ( 'NONE',  ( -1.000000000000000000, 0.000000000000000000, 0.000000000000000000 ) ) ;
#685 = DIRECTION ( 'NONE',  ( 0.000000000000000000, 0.000000000000000000, 1.000000000000000000 ) ) ;
#686 = ORIENTED_EDGE ( 'NONE', *, *, #891, .T. ) ;
#687 = EDGE_CURVE ( 'NONE', #436, #789, #434, .T. ) ;
#688 = ORIENTED_EDGE ( 'NONE', *, *, #848, .F. ) ;
#689 = CARTESIAN_POINT ( 'NONE',  ( -9.500000000000001776, 7.999999999999996447, 6.000000000000000000 ) ) ;
#690 = DIRECTION ( 'NONE',  ( 1.000000000000000000, 6.938893903907228378E-17, 0.000000000000000000 ) ) ;
#691 = ORIENTED_EDGE ( 'NONE', *, *, #338, .F. ) ;
#692 = LINE ( 'NONE', #919, #420 ) ;
#693 = AXIS2_PLACEMENT_3D ( 'NONE', #807, #608, #390 ) ;
#694 = LINE ( 'NONE', #474, #895 ) ;
#695 = CC_DESIGN_APPROVAL ( #174, ( #318 ) ) ;
#696 = ORIENTED_EDGE ( 'NONE', *, *, #480, .T. ) ;
#697 = CARTESIAN_POINT ( 'NONE',  ( 6.124999999999991118, 13.49999999999999822, 27.50000000000000711 ) ) ;
#698 = DATE_AND_TIME ( #702, #21 ) ;
#699 = ORIENTED_EDGE ( 'NONE', *, *, #764, .F. ) ;
#700 = ORIENTED_EDGE ( 'NONE', *, *, #813, .F. ) ;
#701 = FACE_OUTER_BOUND ( 'NONE', #594, .T. ) ;
#702 = CALENDAR_DATE ( 2026, 2, 6 ) ;
#703 = EDGE_CURVE ( 'NONE', #800, #542, #368, .T. ) ;
#704 = ORIENTED_EDGE ( 'NONE', *, *, #779, .T. ) ;
#705 = CARTESIAN_POINT ( 'NONE',  ( -12.50000000000000000, 17.49999999999999645, 8.000000000000000000 ) ) ;
#706 = VECTOR ( 'NONE', #899, 1000.000000000000000 ) ;
#707 = CALENDAR_DATE ( 2026, 2, 6 ) ;
#708 = ORIENTED_EDGE ( 'NONE', *, *, #859, .T. ) ;
#709 = VECTOR ( 'NONE', #71, 1000.000000000000000 ) ;
#710 = ADVANCED_FACE ( 'NONE', ( #888 ), #317, .F. ) ;
#711 = ORIENTED_EDGE ( 'NONE', *, *, #504, .F. ) ;
#712 = CARTESIAN_POINT ( 'NONE',  ( -3.250000000000001332, 1.999999999999998224, 0.000000000000000000 ) ) ;
#713 = PERSON_AND_ORGANIZATION_ROLE ( 'design_owner' ) ;
#714 = VERTEX_POINT ( 'NONE', #82 ) ;
#715 = ORIENTED_EDGE ( 'NONE', *, *, #751, .F. ) ;
#716 = EDGE_CURVE ( 'NONE', #641, #546, #520, .T. ) ;
#717 = DIRECTION ( 'NONE',  ( -1.000000000000000000, 0.000000000000000000, -0.000000000000000000 ) ) ;
#718 = MECHANICAL_CONTEXT ( 'NONE', #289, 'mechanical' ) ;
#719 = CARTESIAN_POINT ( 'NONE',  ( 3.249999999999998668, 1.999999999999998224, 6.000000000000000000 ) ) ;
#720 = CARTESIAN_POINT ( 'NONE',  ( 6.124999999999992006, 9.000000000000005329, 32.00000000000000000 ) ) ;
#721 = ADVANCED_FACE ( 'NONE', ( #666 ), #882, .F. ) ;
#722 = PLANE ( 'NONE',  #799 ) ;
#723 = VECTOR ( 'NONE', #352, 1000.000000000000114 ) ;
#724 = CARTESIAN_POINT ( 'NONE',  ( -12.50000000000000000, -14.00000000000000178, 6.000000000000000000 ) ) ;
#725 = CARTESIAN_POINT ( 'NONE',  ( 9.500000000000001776, -14.00000000000000178, 6.000000000000000000 ) ) ;
#726 = AXIS2_PLACEMENT_3D ( 'NONE', #295, #275, #505 ) ;
#727 = CC_DESIGN_APPROVAL ( #441, ( #650 ) ) ;
#728 = ORIENTED_EDGE ( 'NONE', *, *, #185, .F. ) ;
#729 = FACE_OUTER_BOUND ( 'NONE', #32, .T. ) ;
#730 = DIRECTION ( 'NONE',  ( 0.000000000000000000, -1.000000000000000000, 0.000000000000000000 ) ) ;
#731 = LINE ( 'NONE', #202, #451 ) ;
#732 = ORIENTED_EDGE ( 'NONE', *, *, #294, .T. ) ;
#733 = EDGE_CURVE ( 'NONE', #236, #424, #373, .T. ) ;
#734 = CARTESIAN_POINT ( 'NONE',  ( 6.124999999999991118, 7.999999999999996447, 27.50000000000000000 ) ) ;
#735 = DIRECTION ( 'NONE',  ( 1.000000000000000000, 0.000000000000000000, 0.000000000000000000 ) ) ;
#736 = DIRECTION ( 'NONE',  ( -0.000000000000000000, 0.7071067811865487940, 0.7071067811865463515 ) ) ;
#737 = CLOSED_SHELL ( 'NONE', ( #276, #326, #309, #944, #876, #446, #518, #549, #721, #610, #104, #62, #759, #917, #512, #931, #110, #559, #419, #584, #321, #140, #240, #153, #710, #281, #638, #371 ) ) ;
#738 = VECTOR ( 'NONE', #530, 1000.000000000000000 ) ;
#739 = CARTESIAN_POINT ( 'NONE',  ( -12.50000000000000000, 16.49999999999999645, 8.000000000000000000 ) ) ;
#740 = DIRECTION ( 'NONE',  ( -0.000000000000000000, -0.5913636636275173553, -0.8064049958557054643 ) ) ;
#741 = VECTOR ( 'NONE', #877, 1000.000000000000000 ) ;
#742 = LINE ( 'NONE', #239, #449 ) ;
#743 = CARTESIAN_POINT ( 'NONE',  ( -6.125000000000007994, 13.49999999999999822, 27.50000000000000355 ) ) ;
#744 = EDGE_CURVE ( 'NONE', #335, #163, #606, .T. ) ;
#745 = VERTEX_POINT ( 'NONE', #824 ) ;
#746 = CARTESIAN_POINT ( 'NONE',  ( 12.50000000000000000, -14.00000000000000178, 6.000000000000000000 ) ) ;
#747 = CARTESIAN_POINT ( 'NONE',  ( -6.125000000000007994, 17.99999999999999645, 27.50000000000000000 ) ) ;
#748 = LINE ( 'NONE', #674, #178 ) ;
#749 = CARTESIAN_POINT ( 'NONE',  ( -3.250000000000000444, -8.000000000000001776, 0.000000000000000000 ) ) ;
#750 = ORIENTED_EDGE ( 'NONE', *, *, #414, .T. ) ;
#751 = EDGE_CURVE ( 'NONE', #889, #592, #235, .T. ) ;
#752 = LINE ( 'NONE', #595, #814 ) ;
#753 = CARTESIAN_POINT ( 'NONE',  ( -12.50000000000000000, 7.999999999999996447, 6.000000000000000000 ) ) ;
#754 = DIRECTION ( 'NONE',  ( 0.000000000000000000, -1.000000000000000000, 0.000000000000000000 ) ) ;
#755 = AXIS2_PLACEMENT_3D ( 'NONE', #305, #452, #310 ) ;
#756 = EDGE_LOOP ( 'NONE', ( #74, #399, #312, #265 ) ) ;
#757 = DIRECTION ( 'NONE',  ( -1.000000000000000000, 0.000000000000000000, 0.000000000000000000 ) ) ;
#758 = CARTESIAN_POINT ( 'NONE',  ( -6.125000000000007994, 7.999999999999996447, 33.00000000000000711 ) ) ;
#759 = ADVANCED_FACE ( 'NONE', ( #531 ), #9, .T. ) ;
#760 = VECTOR ( 'NONE', #364, 1000.000000000000000 ) ;
#761 = ORIENTED_EDGE ( 'NONE', *, *, #532, .F. ) ;
#762 = DIRECTION ( 'NONE',  ( -0.000000000000000000, -1.000000000000000000, -0.000000000000000000 ) ) ;
#763 =( NAMED_UNIT ( * ) PLANE_ANGLE_UNIT ( ) SI_UNIT ( $, .RADIAN. ) );
#764 = EDGE_CURVE ( 'NONE', #521, #252, #394, .T. ) ;
#765 = ORIENTED_EDGE ( 'NONE', *, *, #703, .T. ) ;
#766 = CARTESIAN_POINT ( 'NONE',  ( 3.249999999999998668, 1.999999999999998224, 0.000000000000000000 ) ) ;
#767 = LINE ( 'NONE', #821, #602 ) ;
#768 = VERTEX_POINT ( 'NONE', #322 ) ;
#769 = SECURITY_CLASSIFICATION_LEVEL ( 'unclassified' ) ;
#770 = ORIENTED_EDGE ( 'NONE', *, *, #221, .T. ) ;
#771 = VECTOR ( 'NONE', #172, 1000.000000000000114 ) ;
#772 = AXIS2_PLACEMENT_3D ( 'NONE', #176, #385, #685 ) ;
#773 = ORIENTED_EDGE ( 'NONE', *, *, #264, .F. ) ;
#774 = EDGE_CURVE ( 'NONE', #635, #472, #459, .T. ) ;
#775 = LINE ( 'NONE', #766, #376 ) ;
#776 = APPLICATION_PROTOCOL_DEFINITION ( 'international standard', 'config_control_design', 1994, #289 ) ;
#777 = ORIENTED_EDGE ( 'NONE', *, *, #379, .T. ) ;
#778 = DIRECTION ( 'NONE',  ( 0.000000000000000000, -0.000000000000000000, 1.000000000000000000 ) ) ;
#779 = EDGE_CURVE ( 'NONE', #537, #402, #388, .T. ) ;
#780 = APPROVAL_ROLE ( '' ) ;
#781 = ORIENTED_EDGE ( 'NONE', *, *, #801, .T. ) ;
#782 = CARTESIAN_POINT ( 'NONE',  ( 9.500000000000001776, -14.00000000000000178, 6.000000000000000000 ) ) ;
#783 = APPROVAL_STATUS ( 'not_yet_approved' ) ;
#784 = AXIS2_PLACEMENT_3D ( 'NONE', #292, #375, #574 ) ;
#785 = EDGE_CURVE ( 'NONE', #840, #351, #675, .T. ) ;
#786 = LINE ( 'NONE', #129, #706 ) ;
#787 = FACE_OUTER_BOUND ( 'NONE', #502, .T. ) ;
#788 = APPROVAL_STATUS ( 'not_yet_approved' ) ;
#789 = VERTEX_POINT ( 'NONE', #241 ) ;
#790 = CC_DESIGN_PERSON_AND_ORGANIZATION_ASSIGNMENT ( #277, #851, ( #318 ) ) ;
#791 = LINE ( 'NONE', #72, #723 ) ;
#792 = FACE_OUTER_BOUND ( 'NONE', #550, .T. ) ;
#793 = DIRECTION ( 'NONE',  ( 0.000000000000000000, 0.000000000000000000, -1.000000000000000000 ) ) ;
#794 = LINE ( 'NONE', #139, #676 ) ;
#795 = DIRECTION ( 'NONE',  ( -0.000000000000000000, 0.8767589709236949247, 0.4809300436704108117 ) ) ;
#796 = EDGE_LOOP ( 'NONE', ( #460, #118, #479, #114 ) ) ;
#797 = LINE ( 'NONE', #143, #339 ) ;
#798 = PLANE ( 'NONE',  #726 ) ;
#799 = AXIS2_PLACEMENT_3D ( 'NONE', #500, #946, #290 ) ;
#800 = VERTEX_POINT ( 'NONE', #454 ) ;
#801 = EDGE_CURVE ( 'NONE', #396, #872, #903, .T. ) ;
#802 = ORIENTED_EDGE ( 'NONE', *, *, #398, .T. ) ;
#803 = LINE ( 'NONE', #724, #99 ) ;
#804 = LINE ( 'NONE', #286, #878 ) ;
#805 = ORIENTED_EDGE ( 'NONE', *, *, #195, .F. ) ;
#806 = EDGE_CURVE ( 'NONE', #485, #396, #661, .T. ) ;
#807 = CARTESIAN_POINT ( 'NONE',  ( -3.250000000000001332, 1.999999999999998224, 6.000000000000005329 ) ) ;
#808 = APPLICATION_CONTEXT ( 'configuration controlled 3d designs of mechanical parts and assemblies' ) ;
#809 = CARTESIAN_POINT ( 'NONE',  ( -3.250000000000001332, 1.999999999999998224, 6.000000000000000000 ) ) ;
#810 = EDGE_LOOP ( 'NONE', ( #200, #380, #700, #53 ) ) ;
#811 = LINE ( 'NONE', #400, #340 ) ;
#812 = EDGE_LOOP ( 'NONE', ( #455, #488, #578, #770 ) ) ;
#813 = EDGE_CURVE ( 'NONE', #472, #101, #589, .T. ) ;
#814 = VECTOR ( 'NONE', #671, 1000.000000000000000 ) ;
#815 = CARTESIAN_POINT ( 'NONE',  ( -12.50000000000000000, -14.00000000000000178, 6.000000000000000000 ) ) ;
#816 = CARTESIAN_POINT ( 'NONE',  ( 0.000000000000000000, 9.757504099828404165, 36.00000000000000000 ) ) ;
#817 = EDGE_LOOP ( 'NONE', ( #44, #517, #179, #336 ) ) ;
#818 = AXIS2_PLACEMENT_3D ( 'NONE', #403, #616, #778 ) ;
#819 = LINE ( 'NONE', #470, #405 ) ;
#820 = ORGANIZATION ( 'UNSPECIFIED', 'UNSPECIFIED', '' ) ;
#821 = CARTESIAN_POINT ( 'NONE',  ( -12.50000000000000000, 11.99999999999999645, 36.00000000000000000 ) ) ;
#822 = CARTESIAN_POINT ( 'NONE',  ( -12.50000000000000000, -14.00000000000000178, 0.000000000000000000 ) ) ;
#823 = EDGE_CURVE ( 'NONE', #768, #444, #682, .T. ) ;
#824 = CARTESIAN_POINT ( 'NONE',  ( 6.124999999999992006, 13.99999999999999822, 32.00000000000000000 ) ) ;
#825 = ORIENTED_EDGE ( 'NONE', *, *, #135, .F. ) ;
#826 = DESIGN_CONTEXT ( 'detailed design', #808, 'design' ) ;
#827 = CARTESIAN_POINT ( 'NONE',  ( -12.50000000000000000, 13.99999999999999822, 32.00000000000000000 ) ) ;
#828 = DIRECTION ( 'NONE',  ( -1.000000000000000000, 0.000000000000000000, 0.000000000000000000 ) ) ;
#829 = CARTESIAN_POINT ( 'NONE',  ( 12.50000000000000000, -14.00000000000000178, 6.000000000000000000 ) ) ;
#830 = ORIENTED_EDGE ( 'NONE', *, *, #622, .T. ) ;
#831 = LINE ( 'NONE', #231, #858 ) ;
#832 = DIRECTION ( 'NONE',  ( 1.000000000000000000, 0.000000000000000000, 0.000000000000000000 ) ) ;
#833 = VECTOR ( 'NONE', #757, 1000.000000000000000 ) ;
#834 = ORIENTED_EDGE ( 'NONE', *, *, #644, .T. ) ;
#835 = EDGE_CURVE ( 'NONE', #49, #592, #149, .T. ) ;
#836 = VECTOR ( 'NONE', #68, 1000.000000000000000 ) ;
#837 = ORIENTED_EDGE ( 'NONE', *, *, #425, .T. ) ;
#838 = DIRECTION ( 'NONE',  ( 0.000000000000000000, 0.000000000000000000, -1.000000000000000000 ) ) ;
#839 = DIRECTION ( 'NONE',  ( -0.000000000000000000, -1.000000000000000000, -0.000000000000000000 ) ) ;
#840 = VERTEX_POINT ( 'NONE', #4 ) ;
#841 = PLANE ( 'NONE',  #19 ) ;
#842 = PERSON_AND_ORGANIZATION ( #928, #820 ) ;
#843 = ORIENTED_EDGE ( 'NONE', *, *, #27, .F. ) ;
#844 = EDGE_CURVE ( 'NONE', #557, #863, #302, .T. ) ;
#845 = ORIENTED_EDGE ( 'NONE', *, *, #168, .F. ) ;
#846 = AXIS2_PLACEMENT_3D ( 'NONE', #509, #652, #66 ) ;
#847 = LINE ( 'NONE', #551, #251 ) ;
#848 = EDGE_CURVE ( 'NONE', #546, #768, #912, .T. ) ;
#849 = ORIENTED_EDGE ( 'NONE', *, *, #545, .T. ) ;
#850 = LINE ( 'NONE', #697, #659 ) ;
#851 = PERSON_AND_ORGANIZATION_ROLE ( 'classification_officer' ) ;
#852 = ORIENTED_EDGE ( 'NONE', *, *, #33, .F. ) ;
#853 = CARTESIAN_POINT ( 'NONE',  ( 3.250000000000000000, -8.000000000000001776, 0.000000000000000000 ) ) ;
#854 = EDGE_CURVE ( 'NONE', #872, #365, #535, .T. ) ;
#855 = EDGE_LOOP ( 'NONE', ( #260, #688, #107, #13 ) ) ;
#856 = CARTESIAN_POINT ( 'NONE',  ( 3.249999999999998668, 1.999999999999998668, 6.000000000000005329 ) ) ;
#857 = APPROVAL_DATE_TIME ( #636, #174 ) ;
#858 = VECTOR ( 'NONE', #522, 1000.000000000000000 ) ;
#859 = EDGE_CURVE ( 'NONE', #542, #402, #22, .T. ) ;
#860 = CARTESIAN_POINT ( 'NONE',  ( -12.50000000000000000, 13.99999999999999822, 27.49999999999999645 ) ) ;
#861 = VECTOR ( 'NONE', #679, 1000.000000000000000 ) ;
#862 = PLANE ( 'NONE',  #553 ) ;
#863 = VERTEX_POINT ( 'NONE', #401 ) ;
#864 = DIRECTION ( 'NONE',  ( -0.000000000000000000, -1.000000000000000000, -0.000000000000000000 ) ) ;
#865 = PLANE ( 'NONE',  #846 ) ;
#866 = DIRECTION ( 'NONE',  ( -1.000000000000000000, -8.673617379884034239E-17, 0.000000000000000000 ) ) ;
#867 = ORIENTED_EDGE ( 'NONE', *, *, #408, .T. ) ;
#868 = DIRECTION ( 'NONE',  ( -1.000000000000000000, 0.000000000000000000, -0.000000000000000000 ) ) ;
#869 = PLANE ( 'NONE',  #215 ) ;
#870 = EDGE_CURVE ( 'NONE', #444, #641, #457, .T. ) ;
#871 = CARTESIAN_POINT ( 'NONE',  ( -3.250000000000000444, -8.000000000000001776, 6.000000000000000000 ) ) ;
#872 = VERTEX_POINT ( 'NONE', #758 ) ;
#873 = ORIENTED_EDGE ( 'NONE', *, *, #949, .T. ) ;
#874 = AXIS2_PLACEMENT_3D ( 'NONE', #890, #308, #244 ) ;
#875 = DIRECTION ( 'NONE',  ( 1.000000000000000000, 0.000000000000000000, 0.000000000000000000 ) ) ;
#876 = ADVANCED_FACE ( 'NONE', ( #523 ), #30, .F. ) ;
#877 = DIRECTION ( 'NONE',  ( -0.000000000000000000, 1.000000000000000000, -0.000000000000000000 ) ) ;
#878 = VECTOR ( 'NONE', #795, 1000.000000000000114 ) ;
#879 = EDGE_LOOP ( 'NONE', ( #918, #849, #334, #696 ) ) ;
#880 = PLANE ( 'NONE',  #330 ) ;
#881 = DIRECTION ( 'NONE',  ( 1.000000000000000000, 0.000000000000000000, -1.927470528863118802E-16 ) ) ;
#882 = PLANE ( 'NONE',  #393 ) ;
#883 = CARTESIAN_POINT ( 'NONE',  ( -6.125000000000007994, 9.000000000000005329, 32.00000000000000000 ) ) ;
#884 = ORIENTED_EDGE ( 'NONE', *, *, #687, .T. ) ;
#885 = EDGE_CURVE ( 'NONE', #137, #365, #694, .T. ) ;
#886 = DIRECTION ( 'NONE',  ( 1.301042606982605321E-16, -1.000000000000000000, 0.000000000000000000 ) ) ;
#887 = DIRECTION ( 'NONE',  ( 8.673617379884035472E-17, -1.000000000000000000, 0.000000000000000000 ) ) ;
#888 = FACE_OUTER_BOUND ( 'NONE', #817, .T. ) ;
#889 = VERTEX_POINT ( 'NONE', #109 ) ;
#890 = CARTESIAN_POINT ( 'NONE',  ( -12.50000000000000000, 13.99999999999999822, 6.000000000000000000 ) ) ;
#891 = EDGE_CURVE ( 'NONE', #247, #298, #165, .T. ) ;
#892 = LINE ( 'NONE', #809, #201 ) ;
#893 = DIRECTION ( 'NONE',  ( 0.000000000000000000, -5.782411586589357392E-17, -1.000000000000000000 ) ) ;
#894 = ORIENTED_EDGE ( 'NONE', *, *, #185, .T. ) ;
#895 = VECTOR ( 'NONE', #623, 1000.000000000000000 ) ;
#896 = DIRECTION ( 'NONE',  ( 0.000000000000000000, 0.000000000000000000, 1.000000000000000000 ) ) ;
#897 = VECTOR ( 'NONE', #103, 1000.000000000000000 ) ;
#898 = DIRECTION ( 'NONE',  ( -0.000000000000000000, 0.000000000000000000, -1.000000000000000000 ) ) ;
#899 = DIRECTION ( 'NONE',  ( 0.000000000000000000, 0.000000000000000000, -1.000000000000000000 ) ) ;
#900 = DIRECTION ( 'NONE',  ( -0.000000000000000000, 1.000000000000000000, -0.000000000000000000 ) ) ;
#901 = EDGE_LOOP ( 'NONE', ( #227, #226, #192, #852 ) ) ;
#902 = DIRECTION ( 'NONE',  ( -6.938893903907228378E-17, 1.000000000000000000, 0.000000000000000000 ) ) ;
#903 = LINE ( 'NONE', #743, #507 ) ;
#904 = EDGE_CURVE ( 'NONE', #714, #639, #767, .T. ) ;
#905 = ORIENTED_EDGE ( 'NONE', *, *, #806, .T. ) ;
#906 = CARTESIAN_POINT ( 'NONE',  ( 10.49999999999999822, 17.49999999999999645, 8.000000000000000000 ) ) ;
#907 = FACE_OUTER_BOUND ( 'NONE', #389, .T. ) ;
#908 = VECTOR ( 'NONE', #668, 1000.000000000000000 ) ;
#909 = EDGE_LOOP ( 'NONE', ( #913, #347, #269, #217 ) ) ;
#910 = PRODUCT_RELATED_PRODUCT_CATEGORY ( 'detail', '', ( #501 ) ) ;
#911 = DIRECTION ( 'NONE',  ( -0.000000000000000000, -0.000000000000000000, -1.000000000000000000 ) ) ;
#912 = LINE ( 'NONE', #753, #861 ) ;
#913 = ORIENTED_EDGE ( 'NONE', *, *, #379, .F. ) ;
#914 = CARTESIAN_POINT ( 'NONE',  ( -12.50000000000000000, -14.00000000000000178, 6.000000000000000000 ) ) ;
#915 = CARTESIAN_POINT ( 'NONE',  ( 9.500000000000001776, -14.00000000000000178, 6.000000000000000000 ) ) ;
#916 = ORIENTED_EDGE ( 'NONE', *, *, #232, .F. ) ;
#917 = ADVANCED_FACE ( 'NONE', ( #907 ), #609, .F. ) ;
#918 = ORIENTED_EDGE ( 'NONE', *, *, #294, .F. ) ;
#919 = CARTESIAN_POINT ( 'NONE',  ( -12.50000000000000000, 13.99999999999999822, 6.000000000000000000 ) ) ;
#920 = DATE_AND_TIME ( #259, #144 ) ;
#921 = ORIENTED_EDGE ( 'NONE', *, *, #453, .T. ) ;
#922 = EDGE_CURVE ( 'NONE', #158, #236, #250, .T. ) ;
#923 = ORIENTED_EDGE ( 'NONE', *, *, #538, .T. ) ;
#924 = CARTESIAN_POINT ( 'NONE',  ( -3.250000000000000444, -8.000000000000001776, 6.000000000000000000 ) ) ;
#925 = COORDINATED_UNIVERSAL_TIME_OFFSET ( 1, 0, .AHEAD. ) ;
#926 = ORIENTED_EDGE ( 'NONE', *, *, #813, .T. ) ;
#927 = VECTOR ( 'NONE', #611, 1000.000000000000000 ) ;
#928 = PERSON ( 'UNSPECIFIED', 'UNSPECIFIED', 'UNSPECIFIED', ('UNSPECIFIED'), ('UNSPECIFIED'), ('UNSPECIFIED') ) ;
#929 = CC_DESIGN_SECURITY_CLASSIFICATION ( #318, ( #650 ) ) ;
#930 = EDGE_LOOP ( 'NONE', ( #57, #198, #14, #662 ) ) ;
#931 = ADVANCED_FACE ( 'NONE', ( #15 ), #314, .F. ) ;
#932 = DIRECTION ( 'NONE',  ( 0.000000000000000000, -1.000000000000000000, 0.000000000000000000 ) ) ;
#933 = SHAPE_DEFINITION_REPRESENTATION ( #386, #65 ) ;
#934 = ORIENTED_EDGE ( 'NONE', *, *, #348, .F. ) ;
#935 = PRODUCT_DEFINITION ( 'UNKNOWN', '', #650, #826 ) ;
#936 = CARTESIAN_POINT ( 'NONE',  ( 0.000000000000000000, 0.000000000000000000, 0.000000000000000000 ) ) ;
#937 = ORIENTED_EDGE ( 'NONE', *, *, #672, .F. ) ;
#938 = LINE ( 'NONE', #860, #61 ) ;
#939 = LINE ( 'NONE', #220, #267 ) ;
#940 = VECTOR ( 'NONE', #896, 1000.000000000000000 ) ;
#941 = CARTESIAN_POINT ( 'NONE',  ( -12.50000000000000000, 16.49999999999999645, 8.000000000000000000 ) ) ;
#942 = CARTESIAN_POINT ( 'NONE',  ( -12.50000000000000000, 17.49999999999999645, 0.000000000000000000 ) ) ;
#943 = DIRECTION ( 'NONE',  ( 1.000000000000000000, 0.000000000000000000, 0.000000000000000000 ) ) ;
#944 = ADVANCED_FACE ( 'NONE', ( #238, #529 ), #325, .F. ) ;
#945 = CARTESIAN_POINT ( 'NONE',  ( -3.250000000000000444, -8.000000000000001776, 0.000000000000000000 ) ) ;
#946 = DIRECTION ( 'NONE',  ( 0.000000000000000000, 0.4809300436704108672, -0.8767589709236950357 ) ) ;
#947 = ORIENTED_EDGE ( 'NONE', *, *, #634, .F. ) ;
#948 = LINE ( 'NONE', #218, #709 ) ;
#949 = EDGE_CURVE ( 'NONE', #28, #840, #468, .T. ) ;
#950 = CARTESIAN_POINT ( 'NONE',  ( 9.500000000000001776, 7.999999999999998224, 6.000000000000000000 ) ) ;
#951 = PLANE ( 'NONE',  #569 ) ;
#952 = EDGE_LOOP ( 'NONE', ( #307, #552, #926, #558 ) ) ;
#953 = ORIENTED_EDGE ( 'NONE', *, *, #751, .T. ) ;
ENDSEC;
END-ISO-10303-21;
