ISO-10303-21;
HEADER;
FILE_DESCRIPTION (( 'STEP AP203' ),
    '1' );
FILE_NAME ('fix_imu.STEP',
    '2026-06-02T09:32:49',
    ( '' ),
    ( '' ),
    'SwSTEP 2.0',
    'SolidWorks 2020',
    '' );
FILE_SCHEMA (( 'CONFIG_CONTROL_DESIGN' ));
ENDSEC;

DATA;
#1 = FACE_OUTER_BOUND ( 'NONE', #80, .T. ) ;
#2 = ORIENTED_EDGE ( 'NONE', *, *, #946, .T. ) ;
#3 = EDGE_CURVE ( 'NONE', #1246, #717, #993, .T. ) ;
#4 = CARTESIAN_POINT ( 'NONE',  ( -26.49999999999999645, 26.50000000000000000, 16.00000000000000000 ) ) ;
#5 = CARTESIAN_POINT ( 'NONE',  ( 40.25000000000000711, -15.00000000000000355, 11.00000000000000000 ) ) ;
#6 = CIRCLE ( 'NONE', #619, 1.875000000000000000 ) ;
#7 = ORIENTED_EDGE ( 'NONE', *, *, #1389, .T. ) ;
#8 = DIRECTION ( 'NONE',  ( -1.226634733346696106E-16, 0.7071067811865457964, -0.7071067811865492381 ) ) ;
#9 = CARTESIAN_POINT ( 'NONE',  ( 15.00000000000000000, 40.24999999999999289, 12.87500000000000355 ) ) ;
#10 = DIRECTION ( 'NONE',  ( -0.000000000000000000, 0.000000000000000000, 1.000000000000000000 ) ) ;
#11 = VECTOR ( 'NONE', #1160, 1000.000000000000000 ) ;
#12 = PERSON ( 'UNSPECIFIED', 'UNSPECIFIED', 'UNSPECIFIED', ('UNSPECIFIED'), ('UNSPECIFIED'), ('UNSPECIFIED') ) ;
#13 = ORIENTED_EDGE ( 'NONE', *, *, #715, .F. ) ;
#14 = EDGE_CURVE ( 'NONE', #1104, #219, #1015, .T. ) ;
#15 = LINE ( 'NONE', #897, #1377 ) ;
#16 = ORIENTED_EDGE ( 'NONE', *, *, #605, .F. ) ;
#17 = CARTESIAN_POINT ( 'NONE',  ( -12.49999999999999467, 46.49999999999998579, 6.000000000000001776 ) ) ;
#18 = DIRECTION ( 'NONE',  ( 1.000000000000000000, 0.000000000000000000, 0.000000000000000000 ) ) ;
#19 = DIRECTION ( 'NONE',  ( -0.000000000000000000, 0.000000000000000000, 1.000000000000000000 ) ) ;
#20 = VECTOR ( 'NONE', #868, 1000.000000000000000 ) ;
#21 = EDGE_LOOP ( 'NONE', ( #1027, #129 ) ) ;
#22 = EDGE_LOOP ( 'NONE', ( #1177, #1322, #1070, #439 ) ) ;
#23 = ADVANCED_FACE ( 'NONE', ( #475 ), #905, .F. ) ;
#24 = CARTESIAN_POINT ( 'NONE',  ( -3.250000000000002220, -4.228388472693469265E-16, 0.000000000000000000 ) ) ;
#25 = DIRECTION ( 'NONE',  ( 1.000000000000000000, 0.000000000000000000, 0.000000000000000000 ) ) ;
#26 = CIRCLE ( 'NONE', #500, 1.875000000000000000 ) ;
#27 = LINE ( 'NONE', #34, #1281 ) ;
#28 = ORIENTED_EDGE ( 'NONE', *, *, #153, .T. ) ;
#29 = VERTEX_POINT ( 'NONE', #803 ) ;
#30 = ORIENTED_EDGE ( 'NONE', *, *, #1294, .F. ) ;
#31 = VECTOR ( 'NONE', #131, 1000.000000000000000 ) ;
#32 = CARTESIAN_POINT ( 'NONE',  ( -26.49999999999999645, 26.50000000000000000, 6.000000000000000000 ) ) ;
#33 = CARTESIAN_POINT ( 'NONE',  ( -0.000000000000000000, 41.50000000000000711, 0.000000000000000000 ) ) ;
#34 = CARTESIAN_POINT ( 'NONE',  ( -3.249999999999996891, 41.50000000000000711, -13.99999999999999645 ) ) ;
#35 = VERTEX_POINT ( 'NONE', #782 ) ;
#36 = ORIENTED_EDGE ( 'NONE', *, *, #667, .F. ) ;
#37 = DIRECTION ( 'NONE',  ( 0.000000000000000000, 0.000000000000000000, -1.000000000000000000 ) ) ;
#38 = EDGE_CURVE ( 'NONE', #1351, #484, #362, .T. ) ;
#39 = DIRECTION ( 'NONE',  ( 0.000000000000000000, 0.000000000000000000, 1.000000000000000000 ) ) ;
#40 = ORIENTED_EDGE ( 'NONE', *, *, #95, .F. ) ;
#41 = CARTESIAN_POINT ( 'NONE',  ( -12.49999999999999467, 46.49999999999998579, 6.000000000000001776 ) ) ;
#42 = EDGE_CURVE ( 'NONE', #675, #504, #1224, .T. ) ;
#43 = EDGE_LOOP ( 'NONE', ( #701, #93 ) ) ;
#44 = DIRECTION ( 'NONE',  ( -0.000000000000000000, -0.000000000000000000, 1.000000000000000000 ) ) ;
#45 = EDGE_CURVE ( 'NONE', #61, #418, #809, .T. ) ;
#46 = DIRECTION ( 'NONE',  ( 0.000000000000000000, -1.000000000000000000, 0.000000000000000000 ) ) ;
#47 = FACE_OUTER_BOUND ( 'NONE', #1372, .T. ) ;
#48 = CARTESIAN_POINT ( 'NONE',  ( 26.50000000000000355, -15.00000000000000533, 11.00000000000000000 ) ) ;
#49 = ORIENTED_EDGE ( 'NONE', *, *, #645, .T. ) ;
#50 = CARTESIAN_POINT ( 'NONE',  ( 20.25000000000000355, -15.00000000000000533, 11.00000000000000000 ) ) ;
#51 = CARTESIAN_POINT ( 'NONE',  ( 20.25000000000000355, -20.25000000000000355, 6.000000000000000000 ) ) ;
#52 = AXIS2_PLACEMENT_3D ( 'NONE', #1076, #230, #758 ) ;
#53 = FACE_BOUND ( 'NONE', #195, .T. ) ;
#54 = DIRECTION ( 'NONE',  ( 1.000000000000000000, 0.000000000000000000, -0.000000000000000000 ) ) ;
#55 = EDGE_LOOP ( 'NONE', ( #252, #508, #866, #233 ) ) ;
#56 = CIRCLE ( 'NONE', #1201, 1.875000000000000000 ) ;
#57 = CARTESIAN_POINT ( 'NONE',  ( 12.50000000000000533, 46.49999999999998579, 6.000000000000005329 ) ) ;
#58 = CARTESIAN_POINT ( 'NONE',  ( -20.24999999999999289, -20.25000000000000355, 6.000000000000000000 ) ) ;
#59 = EDGE_CURVE ( 'NONE', #680, #474, #855, .T. ) ;
#60 = FACE_OUTER_BOUND ( 'NONE', #135, .T. ) ;
#61 = VERTEX_POINT ( 'NONE', #161 ) ;
#62 = CARTESIAN_POINT ( 'NONE',  ( 15.00000000000000000, 40.24999999999999289, 11.00000000000000000 ) ) ;
#63 = CARTESIAN_POINT ( 'NONE',  ( 40.25000000000000711, 15.00000000000001066, 10.99999999999999645 ) ) ;
#64 = ORIENTED_EDGE ( 'NONE', *, *, #615, .T. ) ;
#65 = DIRECTION ( 'NONE',  ( 1.000000000000000000, 0.000000000000000000, 0.000000000000000000 ) ) ;
#66 = CC_DESIGN_SECURITY_CLASSIFICATION ( #313, ( #1236 ) ) ;
#67 = ORIENTED_EDGE ( 'NONE', *, *, #722, .T. ) ;
#68 = DIRECTION ( 'NONE',  ( 0.000000000000000000, 0.000000000000000000, -1.000000000000000000 ) ) ;
#69 = FACE_OUTER_BOUND ( 'NONE', #107, .T. ) ;
#70 = ORIENTED_EDGE ( 'NONE', *, *, #1363, .F. ) ;
#71 = DIRECTION ( 'NONE',  ( 0.000000000000000000, 0.000000000000000000, -1.000000000000000000 ) ) ;
#72 = VECTOR ( 'NONE', #1326, 1000.000000000000000 ) ;
#73 = VERTEX_POINT ( 'NONE', #1000 ) ;
#74 = APPROVAL_DATE_TIME ( #196, #372 ) ;
#75 = LINE ( 'NONE', #954, #1296 ) ;
#76 = EDGE_LOOP ( 'NONE', ( #669, #342, #1139, #1034 ) ) ;
#77 = VECTOR ( 'NONE', #157, 1000.000000000000000 ) ;
#78 = PERSON_AND_ORGANIZATION ( #12, #193 ) ;
#79 = LINE ( 'NONE', #181, #514 ) ;
#80 = EDGE_LOOP ( 'NONE', ( #396, #521, #1044, #1253, #780, #1272, #259, #154, #212, #642, #612, #1036 ) ) ;
#81 = VERTEX_POINT ( 'NONE', #597 ) ;
#82 = AXIS2_PLACEMENT_3D ( 'NONE', #429, #545, #316 ) ;
#83 = VECTOR ( 'NONE', #203, 1000.000000000000000 ) ;
#84 = CARTESIAN_POINT ( 'NONE',  ( 15.00000000000000000, 26.50000000000000000, 11.00000000000000000 ) ) ;
#85 = VERTEX_POINT ( 'NONE', #1314 ) ;
#86 = VECTOR ( 'NONE', #65, 1000.000000000000000 ) ;
#87 = AXIS2_PLACEMENT_3D ( 'NONE', #559, #665, #979 ) ;
#88 = EDGE_CURVE ( 'NONE', #297, #111, #56, .T. ) ;
#89 = FACE_OUTER_BOUND ( 'NONE', #90, .T. ) ;
#90 = EDGE_LOOP ( 'NONE', ( #368, #1334, #888, #274, #732, #223, #1012, #1229 ) ) ;
#91 = DATE_TIME_ROLE ( 'creation_date' ) ;
#92 = DIRECTION ( 'NONE',  ( 1.301042606982605074E-16, -1.000000000000000000, 0.000000000000000000 ) ) ;
#93 = ORIENTED_EDGE ( 'NONE', *, *, #906, .T. ) ;
#94 = CARTESIAN_POINT ( 'NONE',  ( 20.25000000000000355, -20.25000000000000355, 16.00000000000000000 ) ) ;
#95 = EDGE_CURVE ( 'NONE', #900, #547, #874, .T. ) ;
#96 = CARTESIAN_POINT ( 'NONE',  ( -26.49999999999999645, 26.50000000000000000, 6.000000000000000000 ) ) ;
#97 = EDGE_CURVE ( 'NONE', #1104, #61, #1090, .T. ) ;
#98 =( LENGTH_UNIT ( ) NAMED_UNIT ( * ) SI_UNIT ( .MILLI., .METRE. ) );
#99 = PLANE ( 'NONE',  #813 ) ;
#100 = ORIENTED_EDGE ( 'NONE', *, *, #506, .F. ) ;
#101 = UNCERTAINTY_MEASURE_WITH_UNIT (LENGTH_MEASURE( 1.000000000000000082E-05 ), #98, 'distance_accuracy_value', 'NONE');
#102 = CARTESIAN_POINT ( 'NONE',  ( -12.49999999999999467, 46.49999999999998579, 6.000000000000001776 ) ) ;
#103 = CARTESIAN_POINT ( 'NONE',  ( -3.249999999999996891, -41.50000000000000711, 6.000000000000003553 ) ) ;
#104 = CARTESIAN_POINT ( 'NONE',  ( 15.00000000000000000, -26.50000000000000711, 11.00000000000000000 ) ) ;
#105 = ADVANCED_FACE ( 'NONE', ( #1, #414, #638 ), #115, .F. ) ;
#106 = CALENDAR_DATE ( 2026, 2, 6 ) ;
#107 = EDGE_LOOP ( 'NONE', ( #423, #317, #702, #1202 ) ) ;
#108 = CARTESIAN_POINT ( 'NONE',  ( -26.49999999999999645, 26.50000000000000000, 16.00000000000000000 ) ) ;
#109 = AXIS2_PLACEMENT_3D ( 'NONE', #1125, #690, #489 ) ;
#110 = FACE_OUTER_BOUND ( 'NONE', #1065, .T. ) ;
#111 = VERTEX_POINT ( 'NONE', #844 ) ;
#112 = LINE ( 'NONE', #1088, #201 ) ;
#113 = LINE ( 'NONE', #873, #565 ) ;
#114 = ADVANCED_FACE ( 'NONE', ( #89 ), #425, .T. ) ;
#115 = PLANE ( 'NONE',  #1170 ) ;
#116 = ORIENTED_EDGE ( 'NONE', *, *, #846, .T. ) ;
#117 = CARTESIAN_POINT ( 'NONE',  ( 12.50000000000000533, 46.49999999999998579, 5.204170427930421283E-15 ) ) ;
#118 = CARTESIAN_POINT ( 'NONE',  ( -3.249999999999996891, 41.50000000000000711, -13.99999999999999645 ) ) ;
#119 = ORIENTED_EDGE ( 'NONE', *, *, #410, .T. ) ;
#120 = PLANE ( 'NONE',  #344 ) ;
#121 = DIRECTION ( 'NONE',  ( -1.000000000000000000, -0.000000000000000000, -1.387778780781445676E-16 ) ) ;
#122 = DIRECTION ( 'NONE',  ( -1.000000000000000000, 0.000000000000000000, 0.000000000000000000 ) ) ;
#123 = EDGE_CURVE ( 'NONE', #1087, #602, #1237, .T. ) ;
#124 = ORIENTED_EDGE ( 'NONE', *, *, #302, .F. ) ;
#125 = LINE ( 'NONE', #141, #542 ) ;
#126 = DIRECTION ( 'NONE',  ( -0.000000000000000000, 1.000000000000000000, -0.000000000000000000 ) ) ;
#127 = LINE ( 'NONE', #1095, #1047 ) ;
#128 = VECTOR ( 'NONE', #640, 1000.000000000000000 ) ;
#129 = ORIENTED_EDGE ( 'NONE', *, *, #1094, .F. ) ;
#130 = CARTESIAN_POINT ( 'NONE',  ( 15.00000000000000000, 20.24999999999999645, 11.00000000000000000 ) ) ;
#131 = DIRECTION ( 'NONE',  ( 0.000000000000000000, -1.000000000000000000, 0.000000000000000000 ) ) ;
#132 = LINE ( 'NONE', #103, #1276 ) ;
#133 = VECTOR ( 'NONE', #218, 1000.000000000000000 ) ;
#134 = PRODUCT ( 'fix_imu', 'fix_imu', '', ( #1068 ) ) ;
#135 = EDGE_LOOP ( 'NONE', ( #452, #1325, #853, #828 ) ) ;
#136 = CARTESIAN_POINT ( 'NONE',  ( 15.00000000000000000, -40.24999999999999289, 9.124999999999996447 ) ) ;
#137 = EDGE_CURVE ( 'NONE', #537, #81, #1271, .T. ) ;
#138 = EDGE_LOOP ( 'NONE', ( #1074, #190, #1084, #710 ) ) ;
#139 = CARTESIAN_POINT ( 'NONE',  ( 3.249999999999996003, 5.637851296924615168E-16, 0.000000000000000000 ) ) ;
#140 = AXIS2_PLACEMENT_3D ( 'NONE', #1249, #1119, #811 ) ;
#141 = CARTESIAN_POINT ( 'NONE',  ( 15.00000000000000000, 40.24999999999999289, 9.124999999999996447 ) ) ;
#142 = CARTESIAN_POINT ( 'NONE',  ( -3.249999999999998224, 31.50000000000000711, 6.000000000000003553 ) ) ;
#143 = AXIS2_PLACEMENT_3D ( 'NONE', #996, #1312, #352 ) ;
#144 = EDGE_CURVE ( 'NONE', #266, #750, #957, .T. ) ;
#145 = LINE ( 'NONE', #694, #1176 ) ;
#146 = ORIENTED_EDGE ( 'NONE', *, *, #467, .F. ) ;
#147 = ORIENTED_EDGE ( 'NONE', *, *, #137, .F. ) ;
#148 = VECTOR ( 'NONE', #691, 1000.000000000000000 ) ;
#149 = EDGE_CURVE ( 'NONE', #1007, #750, #1060, .T. ) ;
#150 = DIRECTION ( 'NONE',  ( 0.000000000000000000, 0.000000000000000000, -1.000000000000000000 ) ) ;
#151 = FACE_OUTER_BOUND ( 'NONE', #569, .T. ) ;
#152 = DIRECTION ( 'NONE',  ( 1.000000000000000000, -0.000000000000000000, 0.000000000000000000 ) ) ;
#153 = EDGE_CURVE ( 'NONE', #1192, #660, #1058, .T. ) ;
#154 = ORIENTED_EDGE ( 'NONE', *, *, #1153, .T. ) ;
#155 = EDGE_LOOP ( 'NONE', ( #942, #298 ) ) ;
#156 = DIRECTION ( 'NONE',  ( -1.387778780781445676E-16, 0.000000000000000000, 1.000000000000000000 ) ) ;
#157 = DIRECTION ( 'NONE',  ( -0.000000000000000000, -0.000000000000000000, -1.000000000000000000 ) ) ;
#158 = DIRECTION ( 'NONE',  ( 1.000000000000000000, 0.000000000000000000, 0.000000000000000000 ) ) ;
#159 = EDGE_CURVE ( 'NONE', #1313, #900, #744, .T. ) ;
#160 = VERTEX_POINT ( 'NONE', #771 ) ;
#161 = CARTESIAN_POINT ( 'NONE',  ( 3.250000000000003109, -41.50000000000000711, 0.000000000000000000 ) ) ;
#162 = DIRECTION ( 'NONE',  ( 0.000000000000000000, -1.000000000000000000, 0.000000000000000000 ) ) ;
#163 = VECTOR ( 'NONE', #1066, 1000.000000000000000 ) ;
#164 = VECTOR ( 'NONE', #546, 1000.000000000000000 ) ;
#165 = CARTESIAN_POINT ( 'NONE',  ( -15.00000000000000000, 20.24999999999999645, 11.00000000000000355 ) ) ;
#166 = DIRECTION ( 'NONE',  ( -1.000000000000000000, 0.000000000000000000, -0.000000000000000000 ) ) ;
#167 = EDGE_CURVE ( 'NONE', #1158, #266, #1067, .T. ) ;
#168 = ORIENTED_EDGE ( 'NONE', *, *, #393, .F. ) ;
#169 = DIRECTION ( 'NONE',  ( 0.000000000000000000, -0.000000000000000000, 1.000000000000000000 ) ) ;
#170 = DIRECTION ( 'NONE',  ( 0.000000000000000000, 0.000000000000000000, -1.000000000000000000 ) ) ;
#171 = CARTESIAN_POINT ( 'NONE',  ( 3.249999999999996003, -5.637851296924615168E-16, 0.000000000000000000 ) ) ;
#172 = ORIENTED_EDGE ( 'NONE', *, *, #3, .T. ) ;
#173 = VERTEX_POINT ( 'NONE', #963 ) ;
#174 = LINE ( 'NONE', #485, #971 ) ;
#175 = CARTESIAN_POINT ( 'NONE',  ( -15.00000000000000000, -40.24999999999999289, 11.00000000000000355 ) ) ;
#176 = EDGE_LOOP ( 'NONE', ( #435, #13, #1134, #822 ) ) ;
#177 = DIRECTION ( 'NONE',  ( 0.000000000000000000, 0.000000000000000000, -1.000000000000000000 ) ) ;
#178 = AXIS2_PLACEMENT_3D ( 'NONE', #1240, #505, #150 ) ;
#179 = ORIENTED_EDGE ( 'NONE', *, *, #743, .F. ) ;
#180 = CARTESIAN_POINT ( 'NONE',  ( 0.000000000000000000, 0.000000000000000000, 0.000000000000000000 ) ) ;
#181 = CARTESIAN_POINT ( 'NONE',  ( -15.00000000000000000, 40.24999999999999289, 12.87500000000000355 ) ) ;
#182 = ORIENTED_EDGE ( 'NONE', *, *, #42, .F. ) ;
#183 = EDGE_CURVE ( 'NONE', #61, #932, #856, .T. ) ;
#184 = VECTOR ( 'NONE', #374, 1000.000000000000000 ) ;
#185 =( NAMED_UNIT ( * ) SI_UNIT ( $, .STERADIAN. ) SOLID_ANGLE_UNIT ( ) );
#186 = DIRECTION ( 'NONE',  ( -0.000000000000000000, 1.000000000000000000, -0.000000000000000000 ) ) ;
#187 = ORIENTED_EDGE ( 'NONE', *, *, #482, .F. ) ;
#188 = ORIENTED_EDGE ( 'NONE', *, *, #1242, .F. ) ;
#189 = CARTESIAN_POINT ( 'NONE',  ( -15.00000000000000000, -20.24999999999999645, 9.125000000000003553 ) ) ;
#190 = ORIENTED_EDGE ( 'NONE', *, *, #956, .F. ) ;
#191 = VECTOR ( 'NONE', #992, 1000.000000000000000 ) ;
#192 = CARTESIAN_POINT ( 'NONE',  ( 0.000000000000000000, 0.000000000000000000, 16.00000000000000000 ) ) ;
#193 = ORGANIZATION ( 'UNSPECIFIED', 'UNSPECIFIED', '' ) ;
#194 = AXIS2_PLACEMENT_3D ( 'NONE', #443, #972, #763 ) ;
#195 = EDGE_LOOP ( 'NONE', ( #999, #989, #527, #411 ) ) ;
#196 = DATE_AND_TIME ( #398, #291 ) ;
#197 = FACE_OUTER_BOUND ( 'NONE', #767, .T. ) ;
#198 = EDGE_CURVE ( 'NONE', #451, #85, #1388, .T. ) ;
#199 = ORIENTED_EDGE ( 'NONE', *, *, #88, .T. ) ;
#200 = DIRECTION ( 'NONE',  ( 0.000000000000000000, -0.000000000000000000, -1.000000000000000000 ) ) ;
#201 = VECTOR ( 'NONE', #1078, 1000.000000000000000 ) ;
#202 = EDGE_CURVE ( 'NONE', #537, #1007, #738, .T. ) ;
#203 = DIRECTION ( 'NONE',  ( 0.000000000000000000, -1.000000000000000000, 0.000000000000000000 ) ) ;
#204 = CALENDAR_DATE ( 2026, 2, 6 ) ;
#205 = PLANE ( 'NONE',  #519 ) ;
#206 = ORIENTED_EDGE ( 'NONE', *, *, #1338, .T. ) ;
#207 = CARTESIAN_POINT ( 'NONE',  ( -12.49999999999999467, -46.50000000000000711, 1.734723475976807094E-15 ) ) ;
#208 = EDGE_CURVE ( 'NONE', #1335, #1328, #981, .T. ) ;
#209 = AXIS2_PLACEMENT_3D ( 'NONE', #1048, #531, #947 ) ;
#210 = CARTESIAN_POINT ( 'NONE',  ( 0.000000000000000000, 0.000000000000000000, 16.00000000000000000 ) ) ;
#211 = SECURITY_CLASSIFICATION_LEVEL ( 'unclassified' ) ;
#212 = ORIENTED_EDGE ( 'NONE', *, *, #928, .F. ) ;
#213 = FACE_OUTER_BOUND ( 'NONE', #1143, .T. ) ;
#214 = CARTESIAN_POINT ( 'NONE',  ( 0.000000000000000000, 0.000000000000000000, 16.00000000000000000 ) ) ;
#215 = EDGE_LOOP ( 'NONE', ( #1327, #652, #1216, #188 ) ) ;
#216 = LINE ( 'NONE', #799, #526 ) ;
#217 = DIRECTION ( 'NONE',  ( -1.000000000000000000, -0.000000000000000000, -0.000000000000000000 ) ) ;
#218 = DIRECTION ( 'NONE',  ( -0.000000000000000000, -0.000000000000000000, 1.000000000000000000 ) ) ;
#219 = VERTEX_POINT ( 'NONE', #433 ) ;
#220 = CC_DESIGN_APPROVAL ( #459, ( #313 ) ) ;
#221 = DIRECTION ( 'NONE',  ( 0.000000000000000000, -0.000000000000000000, 1.000000000000000000 ) ) ;
#222 = DIRECTION ( 'NONE',  ( 0.000000000000000000, -1.000000000000000000, 0.000000000000000000 ) ) ;
#223 = ORIENTED_EDGE ( 'NONE', *, *, #359, .T. ) ;
#224 = CARTESIAN_POINT ( 'NONE',  ( -26.49999999999999645, -26.50000000000000711, 6.000000000000000000 ) ) ;
#225 = LINE ( 'NONE', #33, #841 ) ;
#226 = EDGE_CURVE ( 'NONE', #1336, #570, #314, .T. ) ;
#227 = CARTESIAN_POINT ( 'NONE',  ( 0.000000000000000000, 0.000000000000000000, 6.000000000000000000 ) ) ;
#228 = CIRCLE ( 'NONE', #1316, 1.875000000000000000 ) ;
#229 = ORIENTED_EDGE ( 'NONE', *, *, #722, .F. ) ;
#230 = DIRECTION ( 'NONE',  ( 1.000000000000000000, 8.566535683836085482E-17, -0.000000000000000000 ) ) ;
#231 = DIRECTION ( 'NONE',  ( 1.301042606982605074E-16, 1.000000000000000000, 0.000000000000000000 ) ) ;
#232 = CARTESIAN_POINT ( 'NONE',  ( -15.00000000000000000, -26.50000000000000711, 11.00000000000000355 ) ) ;
#233 = ORIENTED_EDGE ( 'NONE', *, *, #45, .F. ) ;
#234 = ORIENTED_EDGE ( 'NONE', *, *, #289, .F. ) ;
#235 = FACE_OUTER_BOUND ( 'NONE', #557, .T. ) ;
#236 = DIRECTION ( 'NONE',  ( -1.000000000000000000, 0.000000000000000000, -0.000000000000000000 ) ) ;
#237 = EDGE_CURVE ( 'NONE', #460, #347, #26, .T. ) ;
#238 = LINE ( 'NONE', #1320, #1361 ) ;
#239 = ORIENTED_EDGE ( 'NONE', *, *, #244, .F. ) ;
#240 = EDGE_LOOP ( 'NONE', ( #511, #1165, #1321, #618 ) ) ;
#241 = ORIENTED_EDGE ( 'NONE', *, *, #644, .F. ) ;
#242 = ORIENTED_EDGE ( 'NONE', *, *, #928, .T. ) ;
#243 = CARTESIAN_POINT ( 'NONE',  ( 12.50000000000000533, 46.49999999999998579, 6.000000000000005329 ) ) ;
#244 = EDGE_CURVE ( 'NONE', #29, #340, #27, .T. ) ;
#245 = VECTOR ( 'NONE', #305, 1000.000000000000000 ) ;
#246 = CARTESIAN_POINT ( 'NONE',  ( -12.49999999999999467, 46.49999999999998579, 6.000000000000001776 ) ) ;
#247 = EDGE_CURVE ( 'NONE', #900, #1313, #683, .T. ) ;
#248 = EDGE_CURVE ( 'NONE', #1385, #1053, #127, .T. ) ;
#249 = DIRECTION ( 'NONE',  ( 0.000000000000000000, -1.000000000000000000, 0.000000000000000000 ) ) ;
#250 = ORIENTED_EDGE ( 'NONE', *, *, #1153, .F. ) ;
#251 = ORIENTED_EDGE ( 'NONE', *, *, #898, .F. ) ;
#252 = ORIENTED_EDGE ( 'NONE', *, *, #183, .T. ) ;
#253 = CARTESIAN_POINT ( 'NONE',  ( 12.50000000000000355, -26.50000000000000711, 6.000000000000005329 ) ) ;
#254 = DIRECTION ( 'NONE',  ( 8.566535683836085482E-17, -1.000000000000000000, 0.000000000000000000 ) ) ;
#255 = CIRCLE ( 'NONE', #391, 1.875000000000000000 ) ;
#256 = EDGE_CURVE ( 'NONE', #484, #451, #145, .T. ) ;
#257 = ORIENTED_EDGE ( 'NONE', *, *, #1162, .F. ) ;
#258 = CARTESIAN_POINT ( 'NONE',  ( 20.25000000000000355, 16.87500000000000711, 10.99999999999999645 ) ) ;
#259 = ORIENTED_EDGE ( 'NONE', *, *, #256, .F. ) ;
#260 = ORIENTED_EDGE ( 'NONE', *, *, #97, .F. ) ;
#261 = VECTOR ( 'NONE', #39, 1000.000000000000000 ) ;
#262 = FACE_OUTER_BOUND ( 'NONE', #1366, .T. ) ;
#263 = LINE ( 'NONE', #1357, #148 ) ;
#264 = PRODUCT_DEFINITION ( 'UNKNOWN', '', #1236, #548 ) ;
#265 = DIRECTION ( 'NONE',  ( -1.000000000000000000, -1.064603789369520613E-16, -6.162975822039153361E-33 ) ) ;
#266 = VERTEX_POINT ( 'NONE', #807 ) ;
#267 = ORIENTED_EDGE ( 'NONE', *, *, #38, .F. ) ;
#268 = VECTOR ( 'NONE', #448, 1000.000000000000000 ) ;
#269 = DIRECTION ( 'NONE',  ( 1.000000000000000000, 1.734723475976806848E-16, 0.000000000000000000 ) ) ;
#270 = DIRECTION ( 'NONE',  ( 0.000000000000000000, 0.7071067811865492381, 0.7071067811865457964 ) ) ;
#271 = VECTOR ( 'NONE', #303, 999.9999999999998863 ) ;
#272 = EDGE_CURVE ( 'NONE', #85, #1335, #466, .T. ) ;
#273 = CARTESIAN_POINT ( 'NONE',  ( -3.249999999999998224, 31.50000000000000711, 6.000000000000003553 ) ) ;
#274 = ORIENTED_EDGE ( 'NONE', *, *, #506, .T. ) ;
#275 = CARTESIAN_POINT ( 'NONE',  ( -12.49999999999999467, 46.49999999999998579, 6.000000000000001776 ) ) ;
#276 = CIRCLE ( 'NONE', #1243, 1.875000000000000000 ) ;
#277 = AXIS2_PLACEMENT_3D ( 'NONE', #892, #236, #677 ) ;
#278 = DIRECTION ( 'NONE',  ( -0.000000000000000000, 1.000000000000000000, -0.000000000000000000 ) ) ;
#279 = CARTESIAN_POINT ( 'NONE',  ( -15.00000000000000000, 20.24999999999999645, 11.00000000000000355 ) ) ;
#280 = ORIENTED_EDGE ( 'NONE', *, *, #272, .T. ) ;
#281 = DIRECTION ( 'NONE',  ( 0.000000000000000000, 1.000000000000000000, 0.000000000000000000 ) ) ;
#282 = CARTESIAN_POINT ( 'NONE',  ( 12.50000000000000533, 46.49999999999998579, 5.204170427930421283E-15 ) ) ;
#283 = VERTEX_POINT ( 'NONE', #894 ) ;
#284 = LINE ( 'NONE', #171, #163 ) ;
#285 = EDGE_CURVE ( 'NONE', #561, #887, #1011, .T. ) ;
#286 = ORIENTED_EDGE ( 'NONE', *, *, #859, .T. ) ;
#287 = DATE_AND_TIME ( #1254, #1260 ) ;
#288 = PLANE ( 'NONE',  #1226 ) ;
#289 = EDGE_CURVE ( 'NONE', #717, #1246, #6, .T. ) ;
#290 = ORIENTED_EDGE ( 'NONE', *, *, #95, .T. ) ;
#291 = LOCAL_TIME ( 11, 32, 49.00000000000000000, #835 ) ;
#292 = DIRECTION ( 'NONE',  ( 0.000000000000000000, 0.000000000000000000, -1.000000000000000000 ) ) ;
#293 = CIRCLE ( 'NONE', #1080, 1.875000000000003331 ) ;
#294 = ORIENTED_EDGE ( 'NONE', *, *, #1363, .T. ) ;
#295 = DIRECTION ( 'NONE',  ( 8.566535683836085482E-17, -1.000000000000000000, 0.000000000000000000 ) ) ;
#296 = FACE_OUTER_BOUND ( 'NONE', #1021, .T. ) ;
#297 = VERTEX_POINT ( 'NONE', #258 ) ;
#298 = ORIENTED_EDGE ( 'NONE', *, *, #88, .F. ) ;
#299 = CYLINDRICAL_SURFACE ( 'NONE', #1039, 1.875000000000003331 ) ;
#300 = LINE ( 'NONE', #1384, #693 ) ;
#301 = ORIENTED_EDGE ( 'NONE', *, *, #607, .T. ) ;
#302 = EDGE_CURVE ( 'NONE', #831, #160, #238, .T. ) ;
#303 = DIRECTION ( 'NONE',  ( 0.7071067811865473507, 0.7071067811865477948, 0.000000000000000000 ) ) ;
#304 = ADVANCED_FACE ( 'NONE', ( #567 ), #360, .T. ) ;
#305 = DIRECTION ( 'NONE',  ( 0.000000000000000000, -1.000000000000000000, 0.000000000000000000 ) ) ;
#306 = CC_DESIGN_DATE_AND_TIME_ASSIGNMENT ( #321, #648, ( #313 ) ) ;
#307 = FACE_OUTER_BOUND ( 'NONE', #1265, .T. ) ;
#308 = ORIENTED_EDGE ( 'NONE', *, *, #850, .F. ) ;
#309 = VECTOR ( 'NONE', #231, 1000.000000000000000 ) ;
#310 = VECTOR ( 'NONE', #1342, 1000.000000000000000 ) ;
#311 = DIRECTION ( 'NONE',  ( 1.000000000000000000, 0.000000000000000000, 0.000000000000000000 ) ) ;
#312 = PRODUCT_DEFINITION_SHAPE ( 'NONE', 'NONE',  #264 ) ;
#313 = SECURITY_CLASSIFICATION ( '', '', #211 ) ;
#314 = CIRCLE ( 'NONE', #705, 1.875000000000000000 ) ;
#315 = PERSON_AND_ORGANIZATION ( #12, #193 ) ;
#316 = DIRECTION ( 'NONE',  ( 0.000000000000000000, 0.000000000000000000, 1.000000000000000000 ) ) ;
#317 = ORIENTED_EDGE ( 'NONE', *, *, #410, .F. ) ;
#318 = LINE ( 'NONE', #1030, #1155 ) ;
#319 = CARTESIAN_POINT ( 'NONE',  ( 0.000000000000000000, -41.50000000000000711, 0.000000000000000000 ) ) ;
#320 = CIRCLE ( 'NONE', #940, 1.875000000000000000 ) ;
#321 = DATE_AND_TIME ( #427, #1019 ) ;
#322 = ORIENTED_EDGE ( 'NONE', *, *, #248, .T. ) ;
#323 = CARTESIAN_POINT ( 'NONE',  ( 3.250000000000003109, 41.50000000000000711, -13.99999999999999645 ) ) ;
#324 = FACE_BOUND ( 'NONE', #155, .T. ) ;
#325 = ORIENTED_EDGE ( 'NONE', *, *, #419, .T. ) ;
#326 = FACE_OUTER_BOUND ( 'NONE', #369, .T. ) ;
#327 = CARTESIAN_POINT ( 'NONE',  ( -15.00000000000000000, 20.24999999999999645, 12.87500000000000355 ) ) ;
#328 = AXIS2_PLACEMENT_3D ( 'NONE', #1029, #373, #1033 ) ;
#329 = CC_DESIGN_DATE_AND_TIME_ASSIGNMENT ( #1267, #91, ( #264 ) ) ;
#330 = DIRECTION ( 'NONE',  ( -0.000000000000000000, 0.000000000000000000, 1.000000000000000000 ) ) ;
#331 = APPROVAL_DATE_TIME ( #973, #459 ) ;
#332 = EDGE_LOOP ( 'NONE', ( #961, #839, #498, #1223 ) ) ;
#333 = LINE ( 'NONE', #975, #128 ) ;
#334 = DIRECTION ( 'NONE',  ( 0.000000000000000000, 0.000000000000000000, -1.000000000000000000 ) ) ;
#335 = ORIENTED_EDGE ( 'NONE', *, *, #1338, .F. ) ;
#336 = CYLINDRICAL_SURFACE ( 'NONE', #456, 1.875000000000003331 ) ;
#337 = DIRECTION ( 'NONE',  ( 1.000000000000000000, -1.301042606982605074E-16, 0.000000000000000000 ) ) ;
#338 = DIRECTION ( 'NONE',  ( -0.000000000000000000, 1.000000000000000000, -0.000000000000000000 ) ) ;
#339 = PERSON_AND_ORGANIZATION ( #12, #193 ) ;
#340 = VERTEX_POINT ( 'NONE', #584 ) ;
#341 = PLANE ( 'NONE',  #1197 ) ;
#342 = ORIENTED_EDGE ( 'NONE', *, *, #998, .T. ) ;
#343 = PLANE ( 'NONE',  #778 ) ;
#344 = AXIS2_PLACEMENT_3D ( 'NONE', #17, #872, #549 ) ;
#345 = DIRECTION ( 'NONE',  ( 0.000000000000000000, 0.000000000000000000, -1.000000000000000000 ) ) ;
#346 = VECTOR ( 'NONE', #676, 1000.000000000000000 ) ;
#347 = VERTEX_POINT ( 'NONE', #1208 ) ;
#348 = DIRECTION ( 'NONE',  ( 0.000000000000000000, 0.000000000000000000, -1.000000000000000000 ) ) ;
#349 = CARTESIAN_POINT ( 'NONE',  ( -26.49999999999999645, -26.50000000000000711, 16.00000000000000000 ) ) ;
#350 = ADVANCED_FACE ( 'NONE', ( #679 ), #779, .T. ) ;
#351 = DIRECTION ( 'NONE',  ( -0.7071067811865473507, -0.7071067811865477948, 0.000000000000000000 ) ) ;
#352 = DIRECTION ( 'NONE',  ( -1.734723475976806848E-16, -1.000000000000000000, 0.000000000000000000 ) ) ;
#353 = VERTEX_POINT ( 'NONE', #1106 ) ;
#354 = ORIENTED_EDGE ( 'NONE', *, *, #1394, .T. ) ;
#355 = DIRECTION ( 'NONE',  ( -1.000000000000000000, -1.064603789369520613E-16, -6.162975822039153361E-33 ) ) ;
#356 = EDGE_CURVE ( 'NONE', #1192, #353, #450, .T. ) ;
#357 = LINE ( 'NONE', #349, #613 ) ;
#358 = CARTESIAN_POINT ( 'NONE',  ( 0.000000000000000000, 0.000000000000000000, 16.00000000000000000 ) ) ;
#359 = EDGE_CURVE ( 'NONE', #173, #634, #1340, .T. ) ;
#360 = PLANE ( 'NONE',  #143 ) ;
#361 = VERTEX_POINT ( 'NONE', #801 ) ;
#362 = LINE ( 'NONE', #696, #568 ) ;
#363 = DIRECTION ( 'NONE',  ( 1.000000000000000000, 0.000000000000000000, 0.000000000000000000 ) ) ;
#364 = ADVANCED_FACE ( 'NONE', ( #1333 ), #1215, .T. ) ;
#365 = AXIS2_PLACEMENT_3D ( 'NONE', #922, #281, #169 ) ;
#366 = LINE ( 'NONE', #1132, #261 ) ;
#367 = CARTESIAN_POINT ( 'NONE',  ( -3.249999999999998224, 31.50000000000000711, 6.000000000000007105 ) ) ;
#368 = ORIENTED_EDGE ( 'NONE', *, *, #202, .F. ) ;
#369 = EDGE_LOOP ( 'NONE', ( #375, #28, #67, #70 ) ) ;
#370 = CARTESIAN_POINT ( 'NONE',  ( 15.00000000000000000, 40.24999999999999289, 11.00000000000000000 ) ) ;
#371 = LINE ( 'NONE', #1140, #1280 ) ;
#372 = APPROVAL ( #1062, 'UNSPECIFIED' ) ;
#373 = DIRECTION ( 'NONE',  ( -1.387778780781445676E-16, 0.000000000000000000, 1.000000000000000000 ) ) ;
#374 = DIRECTION ( 'NONE',  ( -1.734723475976806848E-16, 1.000000000000000000, -0.000000000000000000 ) ) ;
#375 = ORIENTED_EDGE ( 'NONE', *, *, #356, .F. ) ;
#376 = EDGE_LOOP ( 'NONE', ( #267, #955, #124, #250 ) ) ;
#377 = CARTESIAN_POINT ( 'NONE',  ( 3.250000000000003109, 41.50000000000000711, 0.000000000000000000 ) ) ;
#378 = EDGE_CURVE ( 'NONE', #1171, #353, #753, .T. ) ;
#379 = CARTESIAN_POINT ( 'NONE',  ( 15.00000000000000000, -40.24999999999999289, 12.87500000000000355 ) ) ;
#380 = PLANE ( 'NONE',  #509 ) ;
#381 = ORIENTED_EDGE ( 'NONE', *, *, #657, .F. ) ;
#382 = CIRCLE ( 'NONE', #82, 1.875000000000000000 ) ;
#383 = FACE_BOUND ( 'NONE', #628, .T. ) ;
#384 = CARTESIAN_POINT ( 'NONE',  ( 20.25000000000000355, 1.734723475976807489E-15, 16.00000000000000000 ) ) ;
#385 = AXIS2_PLACEMENT_3D ( 'NONE', #180, #415, #1046 ) ;
#386 = AXIS2_PLACEMENT_3D ( 'NONE', #192, #10, #311 ) ;
#387 = CARTESIAN_POINT ( 'NONE',  ( -15.00000000000000000, 40.24999999999999289, 11.00000000000000355 ) ) ;
#388 = EDGE_LOOP ( 'NONE', ( #889, #234 ) ) ;
#389 = ORIENTED_EDGE ( 'NONE', *, *, #302, .T. ) ;
#390 = FACE_OUTER_BOUND ( 'NONE', #332, .T. ) ;
#391 = AXIS2_PLACEMENT_3D ( 'NONE', #279, #395, #292 ) ;
#392 = CARTESIAN_POINT ( 'NONE',  ( 20.25000000000000355, -13.12500000000000533, 11.00000000000000000 ) ) ;
#393 = EDGE_CURVE ( 'NONE', #347, #460, #320, .T. ) ;
#394 = ORIENTED_EDGE ( 'NONE', *, *, #247, .T. ) ;
#395 = DIRECTION ( 'NONE',  ( 0.000000000000000000, -1.000000000000000000, 0.000000000000000000 ) ) ;
#396 = ORIENTED_EDGE ( 'NONE', *, *, #1042, .F. ) ;
#397 = EDGE_CURVE ( 'NONE', #932, #1385, #919, .T. ) ;
#398 = CALENDAR_DATE ( 2026, 2, 6 ) ;
#399 = VECTOR ( 'NONE', #217, 1000.000000000000000 ) ;
#400 = PLANE ( 'NONE',  #1050 ) ;
#401 = ORIENTED_EDGE ( 'NONE', *, *, #378, .T. ) ;
#402 = EDGE_CURVE ( 'NONE', #340, #361, #700, .T. ) ;
#403 = DIRECTION ( 'NONE',  ( 0.000000000000000000, -0.000000000000000000, -1.000000000000000000 ) ) ;
#404 = EDGE_LOOP ( 'NONE', ( #182, #381, #1287, #724 ) ) ;
#405 = DIRECTION ( 'NONE',  ( 0.000000000000000000, 0.000000000000000000, 1.000000000000000000 ) ) ;
#406 = EDGE_LOOP ( 'NONE', ( #522, #1306 ) ) ;
#407 = ADVANCED_FACE ( 'NONE', ( #510 ), #962, .F. ) ;
#408 = COORDINATED_UNIVERSAL_TIME_OFFSET ( 1, 0, .AHEAD. ) ;
#409 = LINE ( 'NONE', #1268, #699 ) ;
#410 = EDGE_CURVE ( 'NONE', #634, #35, #318, .T. ) ;
#411 = ORIENTED_EDGE ( 'NONE', *, *, #248, .F. ) ;
#412 = AXIS2_PLACEMENT_3D ( 'NONE', #463, #984, #334 ) ;
#413 = CC_DESIGN_PERSON_AND_ORGANIZATION_ASSIGNMENT ( #949, #513, ( #264 ) ) ;
#414 = FACE_BOUND ( 'NONE', #945, .T. ) ;
#415 = DIRECTION ( 'NONE',  ( 0.000000000000000000, 0.000000000000000000, 1.000000000000000000 ) ) ;
#416 = CARTESIAN_POINT ( 'NONE',  ( -12.49999999999999467, 46.49999999999998579, 1.734723475976807094E-15 ) ) ;
#417 = AXIS2_PLACEMENT_3D ( 'NONE', #130, #1130, #348 ) ;
#418 = VERTEX_POINT ( 'NONE', #1386 ) ;
#419 = EDGE_CURVE ( 'NONE', #561, #880, #728, .T. ) ;
#420 = DIRECTION ( 'NONE',  ( 1.000000000000000000, 0.000000000000000000, 0.000000000000000000 ) ) ;
#421 = CARTESIAN_POINT ( 'NONE',  ( -12.49999999999999467, 46.49999999999998579, 1.734723475976807094E-15 ) ) ;
#422 = CARTESIAN_POINT ( 'NONE',  ( -3.249999999999998224, -31.50000000000000711, 6.000000000000003553 ) ) ;
#423 = ORIENTED_EDGE ( 'NONE', *, *, #1162, .T. ) ;
#424 = CARTESIAN_POINT ( 'NONE',  ( 12.50000000000000533, 46.49999999999998579, 6.000000000000005329 ) ) ;
#425 = PLANE ( 'NONE',  #386 ) ;
#426 = VECTOR ( 'NONE', #295, 1000.000000000000000 ) ;
#427 = CALENDAR_DATE ( 2026, 2, 6 ) ;
#428 = ORIENTED_EDGE ( 'NONE', *, *, #38, .T. ) ;
#429 = CARTESIAN_POINT ( 'NONE',  ( 26.50000000000000355, 15.00000000000000888, 10.99999999999999645 ) ) ;
#430 = ORIENTED_EDGE ( 'NONE', *, *, #1248, .F. ) ;
#431 = DIRECTION ( 'NONE',  ( 0.000000000000000000, 0.000000000000000000, 1.000000000000000000 ) ) ;
#432 = LINE ( 'NONE', #1003, #893 ) ;
#433 = CARTESIAN_POINT ( 'NONE',  ( -3.249999999999996891, -41.50000000000000711, 6.000000000000003553 ) ) ;
#434 = VECTOR ( 'NONE', #473, 1000.000000000000000 ) ;
#435 = ORIENTED_EDGE ( 'NONE', *, *, #1394, .F. ) ;
#436 = ADVANCED_FACE ( 'NONE', ( #1152 ), #380, .T. ) ;
#437 = DIRECTION ( 'NONE',  ( 0.000000000000000000, 1.000000000000000000, 0.000000000000000000 ) ) ;
#438 = PLANE ( 'NONE',  #52 ) ;
#439 = ORIENTED_EDGE ( 'NONE', *, *, #59, .T. ) ;
#440 = CARTESIAN_POINT ( 'NONE',  ( 15.00000000000000000, -40.24999999999999289, 11.00000000000000000 ) ) ;
#441 = CARTESIAN_POINT ( 'NONE',  ( -3.250000000000002220, 4.228388472693469265E-16, 0.000000000000000000 ) ) ;
#442 = AXIS2_PLACEMENT_3D ( 'NONE', #720, #960, #92 ) ;
#443 = CARTESIAN_POINT ( 'NONE',  ( 15.00000000000000000, 26.50000000000000000, 11.00000000000000000 ) ) ;
#444 = ORIENTED_EDGE ( 'NONE', *, *, #620, .T. ) ;
#445 = FACE_OUTER_BOUND ( 'NONE', #579, .T. ) ;
#446 = ORIENTED_EDGE ( 'NONE', *, *, #1026, .F. ) ;
#447 = CARTESIAN_POINT ( 'NONE',  ( 26.50000000000000355, -26.50000000000000711, 6.000000000000000000 ) ) ;
#448 = DIRECTION ( 'NONE',  ( -0.000000000000000000, -1.000000000000000000, -0.000000000000000000 ) ) ;
#449 = VECTOR ( 'NONE', #756, 1000.000000000000000 ) ;
#450 = LINE ( 'NONE', #136, #72 ) ;
#451 = VERTEX_POINT ( 'NONE', #1368 ) ;
#452 = ORIENTED_EDGE ( 'NONE', *, *, #1303, .T. ) ;
#453 = AXIS2_PLACEMENT_3D ( 'NONE', #630, #646, #849 ) ;
#454 = DIRECTION ( 'NONE',  ( -0.000000000000000000, -1.000000000000000000, -0.000000000000000000 ) ) ;
#455 = DIRECTION ( 'NONE',  ( -0.000000000000000000, -1.000000000000000000, -0.000000000000000000 ) ) ;
#456 = AXIS2_PLACEMENT_3D ( 'NONE', #440, #643, #431 ) ;
#457 = EDGE_CURVE ( 'NONE', #591, #1329, #1360, .T. ) ;
#458 = CARTESIAN_POINT ( 'NONE',  ( -26.49999999999999645, 26.50000000000000000, 0.000000000000000000 ) ) ;
#459 = APPROVAL ( #1073, 'UNSPECIFIED' ) ;
#460 = VERTEX_POINT ( 'NONE', #533 ) ;
#461 = VERTEX_POINT ( 'NONE', #614 ) ;
#462 = EDGE_CURVE ( 'NONE', #73, #1049, #255, .T. ) ;
#463 = CARTESIAN_POINT ( 'NONE',  ( -15.00000000000000000, 40.24999999999999289, 11.00000000000000355 ) ) ;
#464 = DIRECTION ( 'NONE',  ( -1.000000000000000000, 0.000000000000000000, 0.000000000000000000 ) ) ;
#465 = ORIENTED_EDGE ( 'NONE', *, *, #982, .F. ) ;
#466 = LINE ( 'NONE', #458, #434 ) ;
#467 = EDGE_CURVE ( 'NONE', #880, #468, #826, .T. ) ;
#468 = VERTEX_POINT ( 'NONE', #1350 ) ;
#469 = VERTEX_POINT ( 'NONE', #207 ) ;
#470 = CARTESIAN_POINT ( 'NONE',  ( 12.50000000000000533, 46.49999999999998579, 5.204170427930421283E-15 ) ) ;
#471 = DIRECTION ( 'NONE',  ( 0.000000000000000000, 0.000000000000000000, -1.000000000000000000 ) ) ;
#472 = ORIENTED_EDGE ( 'NONE', *, *, #1186, .T. ) ;
#473 = DIRECTION ( 'NONE',  ( -1.000000000000000000, -0.000000000000000000, -0.000000000000000000 ) ) ;
#474 = VERTEX_POINT ( 'NONE', #491 ) ;
#475 = FACE_OUTER_BOUND ( 'NONE', #22, .T. ) ;
#476 = FACE_BOUND ( 'NONE', #1181, .T. ) ;
#477 = CC_DESIGN_APPROVAL ( #372, ( #264 ) ) ;
#478 = VECTOR ( 'NONE', #1166, 1000.000000000000000 ) ;
#479 = LINE ( 'NONE', #1349, #748 ) ;
#480 = PRODUCT_RELATED_PRODUCT_CATEGORY ( 'detail', '', ( #134 ) ) ;
#481 = DIRECTION ( 'NONE',  ( 0.000000000000000000, 0.000000000000000000, 1.000000000000000000 ) ) ;
#482 = EDGE_CURVE ( 'NONE', #1328, #880, #1245, .T. ) ;
#483 = ORIENTED_EDGE ( 'NONE', *, *, #123, .T. ) ;
#484 = VERTEX_POINT ( 'NONE', #723 ) ;
#485 = CARTESIAN_POINT ( 'NONE',  ( -0.000000000000000000, 0.000000000000000000, 6.000000000000000000 ) ) ;
#486 = DIRECTION ( 'NONE',  ( -0.000000000000000000, -1.000000000000000000, -0.000000000000000000 ) ) ;
#487 = DIRECTION ( 'NONE',  ( -0.000000000000000000, 0.000000000000000000, -1.000000000000000000 ) ) ;
#488 = VERTEX_POINT ( 'NONE', #716 ) ;
#489 = DIRECTION ( 'NONE',  ( 0.000000000000000000, -1.000000000000000000, 0.000000000000000000 ) ) ;
#490 = DIRECTION ( 'NONE',  ( -1.000000000000000000, -8.566535683836085482E-17, -0.000000000000000000 ) ) ;
#491 = CARTESIAN_POINT ( 'NONE',  ( 15.00000000000000000, 20.24999999999999645, 12.87500000000000355 ) ) ;
#492 = ORIENTED_EDGE ( 'NONE', *, *, #749, .T. ) ;
#493 = ORIENTED_EDGE ( 'NONE', *, *, #462, .T. ) ;
#494 = AXIS2_PLACEMENT_3D ( 'NONE', #84, #1057, #627 ) ;
#495 = EDGE_CURVE ( 'NONE', #1346, #576, #284, .T. ) ;
#496 = DIRECTION ( 'NONE',  ( -0.000000000000000000, -1.000000000000000000, -0.000000000000000000 ) ) ;
#497 = FACE_OUTER_BOUND ( 'NONE', #215, .T. ) ;
#498 = ORIENTED_EDGE ( 'NONE', *, *, #503, .T. ) ;
#499 =( GEOMETRIC_REPRESENTATION_CONTEXT ( 3 ) GLOBAL_UNCERTAINTY_ASSIGNED_CONTEXT ( ( #101 ) ) GLOBAL_UNIT_ASSIGNED_CONTEXT ( ( #98, #1056, #185 ) ) REPRESENTATION_CONTEXT ( 'NONE', 'WORKASPACE' ) );
#500 = AXIS2_PLACEMENT_3D ( 'NONE', #668, #122, #560 ) ;
#501 = ADVANCED_FACE ( 'NONE', ( #707 ), #1345, .F. ) ;
#502 = DIRECTION ( 'NONE',  ( 0.000000000000000000, 1.000000000000000000, 0.000000000000000000 ) ) ;
#503 = EDGE_CURVE ( 'NONE', #1007, #591, #636, .T. ) ;
#504 = VERTEX_POINT ( 'NONE', #424 ) ;
#505 = DIRECTION ( 'NONE',  ( 0.000000000000000000, -1.000000000000000000, 0.000000000000000000 ) ) ;
#506 = EDGE_CURVE ( 'NONE', #1358, #948, #600, .T. ) ;
#507 = DIRECTION ( 'NONE',  ( -1.000000000000000000, -8.566535683836085482E-17, -0.000000000000000000 ) ) ;
#508 = ORIENTED_EDGE ( 'NONE', *, *, #397, .T. ) ;
#509 = AXIS2_PLACEMENT_3D ( 'NONE', #938, #1025, #403 ) ;
#510 = FACE_OUTER_BOUND ( 'NONE', #786, .T. ) ;
#511 = ORIENTED_EDGE ( 'NONE', *, *, #144, .F. ) ;
#512 = EDGE_CURVE ( 'NONE', #808, #681, #1283, .T. ) ;
#513 = PERSON_AND_ORGANIZATION_ROLE ( 'creator' ) ;
#514 = VECTOR ( 'NONE', #1040, 1000.000000000000000 ) ;
#515 = CARTESIAN_POINT ( 'NONE',  ( 3.250000000000001776, 31.50000000000000711, 6.000000000000003553 ) ) ;
#516 = VERTEX_POINT ( 'NONE', #1137 ) ;
#517 = CC_DESIGN_PERSON_AND_ORGANIZATION_ASSIGNMENT ( #78, #746, ( #134 ) ) ;
#518 = APPROVAL_ROLE ( '' ) ;
#519 = AXIS2_PLACEMENT_3D ( 'NONE', #1190, #437, #221 ) ;
#520 = DIRECTION ( 'NONE',  ( 0.000000000000000000, -0.000000000000000000, -1.000000000000000000 ) ) ;
#521 = ORIENTED_EDGE ( 'NONE', *, *, #1387, .F. ) ;
#522 = ORIENTED_EDGE ( 'NONE', *, *, #462, .F. ) ;
#523 = APPLICATION_CONTEXT ( 'configuration controlled 3d designs of mechanical parts and assemblies' ) ;
#524 = ADVANCED_FACE ( 'NONE', ( #60 ), #1178, .F. ) ;
#525 = CARTESIAN_POINT ( 'NONE',  ( -12.49999999999999467, 26.50000000000000000, 6.000000000000001776 ) ) ;
#526 = VECTOR ( 'NONE', #1136, 1000.000000000000114 ) ;
#527 = ORIENTED_EDGE ( 'NONE', *, *, #859, .F. ) ;
#528 = CIRCLE ( 'NONE', #596, 1.875000000000000000 ) ;
#529 = DIRECTION ( 'NONE',  ( -1.000000000000000000, -1.064603789369520613E-16, -6.162975822039153361E-33 ) ) ;
#530 = APPROVAL_STATUS ( 'not_yet_approved' ) ;
#531 = DIRECTION ( 'NONE',  ( -0.000000000000000000, -1.000000000000000000, -0.000000000000000000 ) ) ;
#532 = ORIENTED_EDGE ( 'NONE', *, *, #1138, .T. ) ;
#533 = CARTESIAN_POINT ( 'NONE',  ( 26.50000000000000355, -16.87500000000000355, 11.00000000000000000 ) ) ;
#534 = CARTESIAN_POINT ( 'NONE',  ( 0.000000000000000000, -26.50000000000000711, 16.00000000000000000 ) ) ;
#535 = EDGE_CURVE ( 'NONE', #81, #1358, #925, .T. ) ;
#536 = LINE ( 'NONE', #323, #449 ) ;
#537 = VERTEX_POINT ( 'NONE', #653 ) ;
#538 = CARTESIAN_POINT ( 'NONE',  ( -15.00000000000000000, 26.50000000000000000, 9.125000000000003553 ) ) ;
#539 = CARTESIAN_POINT ( 'NONE',  ( -26.49999999999999645, -26.50000000000000711, 6.000000000000000000 ) ) ;
#540 = EDGE_CURVE ( 'NONE', #516, #297, #112, .T. ) ;
#541 = DIRECTION ( 'NONE',  ( -0.000000000000000000, 0.000000000000000000, 1.000000000000000000 ) ) ;
#542 = VECTOR ( 'NONE', #454, 1000.000000000000000 ) ;
#543 = PERSON_AND_ORGANIZATION_ROLE ( 'classification_officer' ) ;
#544 = ORIENTED_EDGE ( 'NONE', *, *, #247, .F. ) ;
#545 = DIRECTION ( 'NONE',  ( -1.000000000000000000, 0.000000000000000000, 0.000000000000000000 ) ) ;
#546 = DIRECTION ( 'NONE',  ( 0.000000000000000000, -1.000000000000000000, 0.000000000000000000 ) ) ;
#547 = VERTEX_POINT ( 'NONE', #768 ) ;
#548 = DESIGN_CONTEXT ( 'detailed design', #523, 'design' ) ;
#549 = DIRECTION ( 'NONE',  ( -0.000000000000000000, 0.000000000000000000, 1.000000000000000000 ) ) ;
#550 = CARTESIAN_POINT ( 'NONE',  ( 15.00000000000000000, 26.50000000000000000, 12.87500000000000355 ) ) ;
#551 = CARTESIAN_POINT ( 'NONE',  ( -20.24999999999999289, -20.25000000000000355, 16.00000000000000000 ) ) ;
#552 = AXIS2_PLACEMENT_3D ( 'NONE', #387, #1043, #177 ) ;
#553 = PERSON_AND_ORGANIZATION ( #12, #193 ) ;
#554 = VERTEX_POINT ( 'NONE', #969 ) ;
#555 = DIRECTION ( 'NONE',  ( -0.000000000000000000, -0.000000000000000000, -1.000000000000000000 ) ) ;
#556 = CYLINDRICAL_SURFACE ( 'NONE', #412, 1.875000000000000000 ) ;
#557 = EDGE_LOOP ( 'NONE', ( #1297, #1154, #199, #251 ) ) ;
#558 = CARTESIAN_POINT ( 'NONE',  ( 3.250000000000000000, -21.50000000000000000, -4.000000000000034639 ) ) ;
#559 = CARTESIAN_POINT ( 'NONE',  ( 15.00000000000000000, 20.24999999999999645, 11.00000000000000000 ) ) ;
#560 = DIRECTION ( 'NONE',  ( 0.000000000000000000, 0.000000000000000000, 1.000000000000000000 ) ) ;
#561 = VERTEX_POINT ( 'NONE', #102 ) ;
#562 = ADVANCED_FACE ( 'NONE', ( #1301 ), #120, .T. ) ;
#563 = DIRECTION ( 'NONE',  ( 0.000000000000000000, -1.000000000000000000, 0.000000000000000000 ) ) ;
#564 = DIRECTION ( 'NONE',  ( 1.000000000000000000, 0.000000000000000000, 0.000000000000000000 ) ) ;
#565 = VECTOR ( 'NONE', #1194, 1000.000000000000000 ) ;
#566 = APPROVAL ( #530, 'UNSPECIFIED' ) ;
#567 = FACE_OUTER_BOUND ( 'NONE', #861, .T. ) ;
#568 = VECTOR ( 'NONE', #795, 1000.000000000000000 ) ;
#569 = EDGE_LOOP ( 'NONE', ( #16, #322, #590, #1184 ) ) ;
#570 = VERTEX_POINT ( 'NONE', #538 ) ;
#571 = CC_DESIGN_APPROVAL ( #566, ( #1236 ) ) ;
#572 = VECTOR ( 'NONE', #1188, 1000.000000000000000 ) ;
#573 = FACE_OUTER_BOUND ( 'NONE', #1041, .T. ) ;
#574 = DIRECTION ( 'NONE',  ( -0.7071067811865477948, 0.7071067811865473507, 0.000000000000000000 ) ) ;
#575 = VECTOR ( 'NONE', #760, 1000.000000000000000 ) ;
#576 = VERTEX_POINT ( 'NONE', #1193 ) ;
#577 = DIRECTION ( 'NONE',  ( 1.000000000000000000, 0.000000000000000000, 0.000000000000000000 ) ) ;
#578 = ORIENTED_EDGE ( 'NONE', *, *, #1373, .F. ) ;
#579 = EDGE_LOOP ( 'NONE', ( #902, #815, #1157, #239 ) ) ;
#580 = AXIS2_PLACEMENT_3D ( 'NONE', #589, #1018, #345 ) ;
#581 = DIRECTION ( 'NONE',  ( -1.000000000000000000, -8.566535683836085482E-17, -0.000000000000000000 ) ) ;
#582 = PLANE ( 'NONE',  #944 ) ;
#583 = VECTOR ( 'NONE', #950, 1000.000000000000000 ) ;
#584 = CARTESIAN_POINT ( 'NONE',  ( -3.249999999999996891, 41.50000000000000711, 6.000000000000003553 ) ) ;
#585 = EDGE_LOOP ( 'NONE', ( #168, #532, #1116, #608 ) ) ;
#586 = DIRECTION ( 'NONE',  ( 0.000000000000000000, -1.000000000000000000, 0.000000000000000000 ) ) ;
#587 = DIRECTION ( 'NONE',  ( -1.000000000000000000, -8.566535683836085482E-17, -0.000000000000000000 ) ) ;
#588 = DIRECTION ( 'NONE',  ( 0.000000000000000000, -1.000000000000000000, 0.000000000000000000 ) ) ;
#589 = CARTESIAN_POINT ( 'NONE',  ( 15.00000000000000000, -20.24999999999999645, 11.00000000000000000 ) ) ;
#590 = ORIENTED_EDGE ( 'NONE', *, *, #812, .F. ) ;
#591 = VERTEX_POINT ( 'NONE', #1396 ) ;
#592 = PLANE ( 'NONE',  #658 ) ;
#593 = LOCAL_TIME ( 11, 32, 49.00000000000000000, #408 ) ;
#594 = LINE ( 'NONE', #706, #1118 ) ;
#595 = CARTESIAN_POINT ( 'NONE',  ( 0.000000000000000000, 20.24999999999999645, 16.00000000000000000 ) ) ;
#596 = AXIS2_PLACEMENT_3D ( 'NONE', #970, #455, #987 ) ;
#597 = CARTESIAN_POINT ( 'NONE',  ( 26.50000000000000355, -26.50000000000000711, 16.00000000000000000 ) ) ;
#598 = DIRECTION ( 'NONE',  ( -0.000000000000000000, -1.000000000000000000, -0.000000000000000000 ) ) ;
#599 = DIRECTION ( 'NONE',  ( -1.000000000000000000, -0.000000000000000000, 0.000000000000000000 ) ) ;
#600 = LINE ( 'NONE', #854, #1173 ) ;
#601 = ADVANCED_FACE ( 'NONE', ( #326 ), #336, .F. ) ;
#602 = VERTEX_POINT ( 'NONE', #1292 ) ;
#603 = CARTESIAN_POINT ( 'NONE',  ( 26.50000000000000355, 26.50000000000000000, 16.00000000000000000 ) ) ;
#604 = PLANE ( 'NONE',  #328 ) ;
#605 = EDGE_CURVE ( 'NONE', #1385, #418, #978, .T. ) ;
#606 = CARTESIAN_POINT ( 'NONE',  ( -26.49999999999999645, 26.50000000000000000, 6.000000000000000000 ) ) ;
#607 = EDGE_CURVE ( 'NONE', #1358, #85, #664, .T. ) ;
#608 = ORIENTED_EDGE ( 'NONE', *, *, #798, .F. ) ;
#609 = ORIENTED_EDGE ( 'NONE', *, *, #692, .F. ) ;
#610 = FACE_OUTER_BOUND ( 'NONE', #376, .T. ) ;
#611 = DIRECTION ( 'NONE',  ( 9.199760500100218944E-17, -0.7071067811865457964, 0.7071067811865492381 ) ) ;
#612 = ORIENTED_EDGE ( 'NONE', *, *, #946, .F. ) ;
#613 = VECTOR ( 'NONE', #670, 1000.000000000000000 ) ;
#614 = CARTESIAN_POINT ( 'NONE',  ( 26.50000000000000355, 13.12500000000000888, 10.99999999999999645 ) ) ;
#615 = EDGE_CURVE ( 'NONE', #266, #554, #986, .T. ) ;
#616 = ORIENTED_EDGE ( 'NONE', *, *, #402, .T. ) ;
#617 = DIRECTION ( 'NONE',  ( 0.000000000000000000, -1.000000000000000000, 0.000000000000000000 ) ) ;
#618 = ORIENTED_EDGE ( 'NONE', *, *, #149, .T. ) ;
#619 = AXIS2_PLACEMENT_3D ( 'NONE', #792, #265, #249 ) ;
#620 = EDGE_CURVE ( 'NONE', #81, #451, #1185, .T. ) ;
#621 = AXIS2_PLACEMENT_3D ( 'NONE', #175, #1150, #405 ) ;
#622 = DIRECTION ( 'NONE',  ( 0.000000000000000000, 0.000000000000000000, 1.000000000000000000 ) ) ;
#623 = ORIENTED_EDGE ( 'NONE', *, *, #850, .T. ) ;
#624 = ORIENTED_EDGE ( 'NONE', *, *, #495, .T. ) ;
#625 = EDGE_CURVE ( 'NONE', #681, #759, #216, .T. ) ;
#626 = VECTOR ( 'NONE', #1069, 1000.000000000000000 ) ;
#627 = DIRECTION ( 'NONE',  ( 0.000000000000000000, 0.000000000000000000, -1.000000000000000000 ) ) ;
#628 = EDGE_LOOP ( 'NONE', ( #401, #294 ) ) ;
#629 = VECTOR ( 'NONE', #338, 1000.000000000000000 ) ;
#630 = CARTESIAN_POINT ( 'NONE',  ( -15.00000000000000000, -26.50000000000000711, 11.00000000000000355 ) ) ;
#631 = LINE ( 'NONE', #1273, #426 ) ;
#632 = LINE ( 'NONE', #830, #583 ) ;
#633 = VECTOR ( 'NONE', #881, 1000.000000000000000 ) ;
#634 = VERTEX_POINT ( 'NONE', #1233 ) ;
#635 = AXIS2_PLACEMENT_3D ( 'NONE', #118, #222, #684 ) ;
#636 = LINE ( 'NONE', #1133, #86 ) ;
#637 = ADVANCED_FACE ( 'NONE', ( #1010 ), #1219, .F. ) ;
#638 = FACE_BOUND ( 'NONE', #968, .T. ) ;
#639 = CARTESIAN_POINT ( 'NONE',  ( 3.250000000000001332, -31.50000000000000000, 6.000000000000004441 ) ) ;
#640 = DIRECTION ( 'NONE',  ( 1.000000000000000000, 0.000000000000000000, 0.000000000000000000 ) ) ;
#641 = CIRCLE ( 'NONE', #869, 1.875000000000000000 ) ;
#642 = ORIENTED_EDGE ( 'NONE', *, *, #1103, .F. ) ;
#643 = DIRECTION ( 'NONE',  ( -0.000000000000000000, 1.000000000000000000, -0.000000000000000000 ) ) ;
#644 = EDGE_CURVE ( 'NONE', #871, #547, #276, .T. ) ;
#645 = EDGE_CURVE ( 'NONE', #1354, #469, #479, .T. ) ;
#646 = DIRECTION ( 'NONE',  ( -0.000000000000000000, -1.000000000000000000, -0.000000000000000000 ) ) ;
#647 = ADVANCED_FACE ( 'NONE', ( #1339, #918, #47 ), #1110, .F. ) ;
#648 = DATE_TIME_ROLE ( 'classification_date' ) ;
#649 = ORIENTED_EDGE ( 'NONE', *, *, #1389, .F. ) ;
#650 = CARTESIAN_POINT ( 'NONE',  ( -3.249999999999998224, 31.50000000000000711, -13.99999999999999645 ) ) ;
#651 = DIRECTION ( 'NONE',  ( 1.301042606982605074E-16, -1.000000000000000000, 0.000000000000000000 ) ) ;
#652 = ORIENTED_EDGE ( 'NONE', *, *, #1248, .T. ) ;
#653 = CARTESIAN_POINT ( 'NONE',  ( -26.49999999999999645, -26.50000000000000711, 16.00000000000000000 ) ) ;
#654 = CARTESIAN_POINT ( 'NONE',  ( -3.249999999999998224, -31.50000000000000711, 6.000000000000003553 ) ) ;
#655 = LOCAL_TIME ( 11, 32, 49.00000000000000000, #1083 ) ;
#656 = DIRECTION ( 'NONE',  ( 0.000000000000000000, 0.000000000000000000, -1.000000000000000000 ) ) ;
#657 = EDGE_CURVE ( 'NONE', #887, #675, #908, .T. ) ;
#658 = AXIS2_PLACEMENT_3D ( 'NONE', #1247, #162, #1225 ) ;
#659 = COORDINATED_UNIVERSAL_TIME_OFFSET ( 1, 0, .AHEAD. ) ;
#660 = VERTEX_POINT ( 'NONE', #819 ) ;
#661 = CARTESIAN_POINT ( 'NONE',  ( 3.250000000000003109, -41.50000000000000711, 6.000000000000003553 ) ) ;
#662 = CYLINDRICAL_SURFACE ( 'NONE', #709, 1.874999999999998224 ) ;
#663 = EDGE_LOOP ( 'NONE', ( #616, #1097, #1391, #876 ) ) ;
#664 = LINE ( 'NONE', #862, #575 ) ;
#665 = DIRECTION ( 'NONE',  ( 0.000000000000000000, -1.000000000000000000, 0.000000000000000000 ) ) ;
#666 = AXIS2_PLACEMENT_3D ( 'NONE', #1100, #890, #1323 ) ;
#667 = EDGE_CURVE ( 'NONE', #983, #687, #366, .T. ) ;
#668 = CARTESIAN_POINT ( 'NONE',  ( 26.50000000000000355, -15.00000000000000533, 11.00000000000000000 ) ) ;
#669 = ORIENTED_EDGE ( 'NONE', *, *, #123, .F. ) ;
#670 = DIRECTION ( 'NONE',  ( -0.000000000000000000, -0.000000000000000000, -1.000000000000000000 ) ) ;
#671 = LINE ( 'NONE', #1302, #930 ) ;
#672 = DIRECTION ( 'NONE',  ( 0.000000000000000000, 0.000000000000000000, 1.000000000000000000 ) ) ;
#673 = ADVANCED_FACE ( 'NONE', ( #53, #497 ), #604, .T. ) ;
#674 = ORIENTED_EDGE ( 'NONE', *, *, #237, .T. ) ;
#675 = VERTEX_POINT ( 'NONE', #282 ) ;
#676 = DIRECTION ( 'NONE',  ( -1.000000000000000000, -8.566535683836085482E-17, -0.000000000000000000 ) ) ;
#677 = DIRECTION ( 'NONE',  ( -0.000000000000000000, 0.000000000000000000, 1.000000000000000000 ) ) ;
#678 = EDGE_LOOP ( 'NONE', ( #206, #179, #1091, #1014 ) ) ;
#679 = FACE_OUTER_BOUND ( 'NONE', #939, .T. ) ;
#680 = VERTEX_POINT ( 'NONE', #924 ) ;
#681 = VERTEX_POINT ( 'NONE', #142 ) ;
#682 = CIRCLE ( 'NONE', #109, 1.875000000000000000 ) ;
#683 = CIRCLE ( 'NONE', #1311, 1.875000000000000000 ) ;
#684 = DIRECTION ( 'NONE',  ( 0.000000000000000000, -0.000000000000000000, -1.000000000000000000 ) ) ;
#685 = LINE ( 'NONE', #539, #1099 ) ;
#686 = DIRECTION ( 'NONE',  ( 0.000000000000000000, 0.000000000000000000, -1.000000000000000000 ) ) ;
#687 = VERTEX_POINT ( 'NONE', #1331 ) ;
#688 = ORIENTED_EDGE ( 'NONE', *, *, #846, .F. ) ;
#689 = VECTOR ( 'NONE', #1222, 1000.000000000000000 ) ;
#690 = DIRECTION ( 'NONE',  ( -1.000000000000000000, -1.064603789369520613E-16, -6.162975822039153361E-33 ) ) ;
#691 = DIRECTION ( 'NONE',  ( 1.000000000000000000, 0.000000000000000000, 0.000000000000000000 ) ) ;
#692 = EDGE_CURVE ( 'NONE', #634, #591, #1227, .T. ) ;
#693 = VECTOR ( 'NONE', #611, 1000.000000000000227 ) ;
#694 = CARTESIAN_POINT ( 'NONE',  ( -26.49999999999999645, -26.50000000000000711, 0.000000000000000000 ) ) ;
#695 = ORIENTED_EDGE ( 'NONE', *, *, #903, .F. ) ;
#696 = CARTESIAN_POINT ( 'NONE',  ( 12.50000000000000355, -26.50000000000000711, 6.000000000000000000 ) ) ;
#697 = PLANE ( 'NONE',  #915 ) ;
#698 = DIRECTION ( 'NONE',  ( -1.000000000000000000, 0.000000000000000000, 0.000000000000000000 ) ) ;
#699 = VECTOR ( 'NONE', #1379, 1000.000000000000000 ) ;
#700 = LINE ( 'NONE', #1128, #980 ) ;
#701 = ORIENTED_EDGE ( 'NONE', *, *, #1120, .T. ) ;
#702 = ORIENTED_EDGE ( 'NONE', *, *, #359, .F. ) ;
#703 = DIRECTION ( 'NONE',  ( -1.734723475976806848E-16, 1.000000000000000000, 0.000000000000000000 ) ) ;
#704 = APPROVAL_PERSON_ORGANIZATION ( #875, #459, #772 ) ;
#705 = AXIS2_PLACEMENT_3D ( 'NONE', #1304, #865, #656 ) ;
#706 = CARTESIAN_POINT ( 'NONE',  ( 0.000000000000000000, -25.50000000000001421, 0.000000000000000000 ) ) ;
#707 = FACE_OUTER_BOUND ( 'NONE', #404, .T. ) ;
#708 = VECTOR ( 'NONE', #833, 1000.000000000000000 ) ;
#709 = AXIS2_PLACEMENT_3D ( 'NONE', #5, #581, #563 ) ;
#710 = ORIENTED_EDGE ( 'NONE', *, *, #1373, .T. ) ;
#711 = DIRECTION ( 'NONE',  ( 0.7071067811865472397, -0.7071067811865479058, 0.000000000000000000 ) ) ;
#712 = EDGE_CURVE ( 'NONE', #1049, #73, #641, .T. ) ;
#713 = FACE_OUTER_BOUND ( 'NONE', #800, .T. ) ;
#714 = CC_DESIGN_PERSON_AND_ORGANIZATION_ASSIGNMENT ( #553, #965, ( #1236 ) ) ;
#715 = EDGE_CURVE ( 'NONE', #759, #576, #263, .T. ) ;
#716 = CARTESIAN_POINT ( 'NONE',  ( -20.24999999999999645, 20.25000000000001776, 6.000000000000000000 ) ) ;
#717 = VERTEX_POINT ( 'NONE', #392 ) ;
#718 = ORIENTED_EDGE ( 'NONE', *, *, #167, .T. ) ;
#719 = LINE ( 'NONE', #725, #478 ) ;
#720 = CARTESIAN_POINT ( 'NONE',  ( -3.249999999999998224, -31.50000000000000711, -13.99999999999999645 ) ) ;
#721 = ORIENTED_EDGE ( 'NONE', *, *, #812, .T. ) ;
#722 = EDGE_CURVE ( 'NONE', #660, #1171, #824, .T. ) ;
#723 = CARTESIAN_POINT ( 'NONE',  ( 12.50000000000000533, -26.50000000000001066, 5.204170427930421283E-15 ) ) ;
#724 = ORIENTED_EDGE ( 'NONE', *, *, #964, .F. ) ;
#725 = CARTESIAN_POINT ( 'NONE',  ( 12.50000000000000533, 46.49999999999998579, 6.000000000000005329 ) ) ;
#726 = CYLINDRICAL_SURFACE ( 'NONE', #621, 1.875000000000000000 ) ;
#727 = ORIENTED_EDGE ( 'NONE', *, *, #1055, .F. ) ;
#728 = LINE ( 'NONE', #1235, #1112 ) ;
#729 = ORIENTED_EDGE ( 'NONE', *, *, #1120, .F. ) ;
#730 = DIRECTION ( 'NONE',  ( 1.226634733346701776E-16, 0.7071067811865490160, 0.7071067811865460184 ) ) ;
#731 = CYLINDRICAL_SURFACE ( 'NONE', #1348, 1.875000000000000000 ) ;
#732 = ORIENTED_EDGE ( 'NONE', *, *, #770, .T. ) ;
#733 = EDGE_LOOP ( 'NONE', ( #1282, #1203 ) ) ;
#734 = ADVANCED_FACE ( 'NONE', ( #151 ), #582, .F. ) ;
#735 = DIRECTION ( 'NONE',  ( -0.000000000000000000, 1.000000000000000000, -0.000000000000000000 ) ) ;
#736 = CARTESIAN_POINT ( 'NONE',  ( -26.49999999999999645, 26.50000000000000000, 6.000000000000000000 ) ) ;
#737 = ORIENTED_EDGE ( 'NONE', *, *, #1008, .T. ) ;
#738 = LINE ( 'NONE', #210, #1105 ) ;
#739 = CARTESIAN_POINT ( 'NONE',  ( 3.250000000000001776, 31.50000000000000711, 6.000000000000006217 ) ) ;
#740 = CIRCLE ( 'NONE', #494, 1.875000000000003331 ) ;
#741 = LINE ( 'NONE', #1141, #11 ) ;
#742 = ORIENTED_EDGE ( 'NONE', *, *, #909, .F. ) ;
#743 = EDGE_CURVE ( 'NONE', #173, #488, #1126, .T. ) ;
#744 = CIRCLE ( 'NONE', #453, 1.875000000000000000 ) ;
#745 = DIRECTION ( 'NONE',  ( -0.000000000000000000, -0.000000000000000000, -1.000000000000000000 ) ) ;
#746 = PERSON_AND_ORGANIZATION_ROLE ( 'design_owner' ) ;
#747 = CARTESIAN_POINT ( 'NONE',  ( -26.49999999999999645, 26.50000000000000000, 6.000000000000000000 ) ) ;
#748 = VECTOR ( 'NONE', #471, 1000.000000000000000 ) ;
#749 = EDGE_CURVE ( 'NONE', #418, #283, #594, .T. ) ;
#750 = VERTEX_POINT ( 'NONE', #58 ) ;
#751 = DIRECTION ( 'NONE',  ( -1.000000000000000000, 0.000000000000000000, -0.000000000000000000 ) ) ;
#752 = ADVANCED_FACE ( 'NONE', ( #713 ), #1064, .F. ) ;
#753 = CIRCLE ( 'NONE', #580, 1.875000000000003331 ) ;
#754 = DIRECTION ( 'NONE',  ( 0.000000000000000000, -1.000000000000000000, 0.000000000000000000 ) ) ;
#755 = ORIENTED_EDGE ( 'NONE', *, *, #1186, .F. ) ;
#756 = DIRECTION ( 'NONE',  ( -0.000000000000000000, -0.000000000000000000, 1.000000000000000000 ) ) ;
#757 = VECTOR ( 'NONE', #936, 1000.000000000000000 ) ;
#758 = DIRECTION ( 'NONE',  ( -8.566535683836085482E-17, 1.000000000000000000, 0.000000000000000000 ) ) ;
#759 = VERTEX_POINT ( 'NONE', #1365 ) ;
#760 = DIRECTION ( 'NONE',  ( -0.000000000000000000, -0.000000000000000000, -1.000000000000000000 ) ) ;
#761 = CARTESIAN_POINT ( 'NONE',  ( -12.49999999999999467, -26.50000000000001066, 1.734723475976807094E-15 ) ) ;
#762 = ADVANCED_FACE ( 'NONE', ( #842, #1168, #69 ), #288, .F. ) ;
#763 = DIRECTION ( 'NONE',  ( 0.000000000000000000, 0.000000000000000000, -1.000000000000000000 ) ) ;
#764 = ORIENTED_EDGE ( 'NONE', *, *, #791, .T. ) ;
#765 = FACE_BOUND ( 'NONE', #1031, .T. ) ;
#766 = CARTESIAN_POINT ( 'NONE',  ( 15.00000000000000000, -20.24999999999999645, 12.87500000000000355 ) ) ;
#767 = EDGE_LOOP ( 'NONE', ( #394, #997, #1129, #40 ) ) ;
#768 = CARTESIAN_POINT ( 'NONE',  ( -15.00000000000000000, -20.24999999999999645, 12.87500000000000355 ) ) ;
#769 = LINE ( 'NONE', #1207, #1305 ) ;
#770 = EDGE_CURVE ( 'NONE', #948, #173, #741, .T. ) ;
#771 = CARTESIAN_POINT ( 'NONE',  ( 12.50000000000000533, -46.50000000000000711, 6.000000000000005329 ) ) ;
#772 = APPROVAL_ROLE ( '' ) ;
#773 = ORIENTED_EDGE ( 'NONE', *, *, #607, .F. ) ;
#774 = LINE ( 'NONE', #1211, #31 ) ;
#775 = AXIS2_PLACEMENT_3D ( 'NONE', #1258, #1145, #200 ) ;
#776 = DIRECTION ( 'NONE',  ( 0.000000000000000000, -1.000000000000000000, 0.000000000000000000 ) ) ;
#777 = ADVANCED_FACE ( 'NONE', ( #197 ), #726, .F. ) ;
#778 = AXIS2_PLACEMENT_3D ( 'NONE', #358, #574, #351 ) ;
#779 = PLANE ( 'NONE',  #804 ) ;
#780 = ORIENTED_EDGE ( 'NONE', *, *, #272, .F. ) ;
#781 = ORIENTED_EDGE ( 'NONE', *, *, #237, .F. ) ;
#782 = CARTESIAN_POINT ( 'NONE',  ( 20.25000000000000000, 20.24999999999999645, 6.000000000000000000 ) ) ;
#783 = FACE_BOUND ( 'NONE', #388, .T. ) ;
#784 = LINE ( 'NONE', #1293, #309 ) ;
#785 = DIRECTION ( 'NONE',  ( -0.000000000000000000, -0.000000000000000000, 1.000000000000000000 ) ) ;
#786 = EDGE_LOOP ( 'NONE', ( #1209, #764, #910, #688 ) ) ;
#787 = ORIENTED_EDGE ( 'NONE', *, *, #1387, .T. ) ;
#788 = ORIENTED_EDGE ( 'NONE', *, *, #198, .T. ) ;
#789 = CARTESIAN_POINT ( 'NONE',  ( 40.25000000000000711, -13.12500000000000355, 11.00000000000000000 ) ) ;
#790 = CARTESIAN_POINT ( 'NONE',  ( -26.49999999999999645, 26.50000000000000000, 0.000000000000000000 ) ) ;
#791 = EDGE_CURVE ( 'NONE', #1336, #1049, #79, .T. ) ;
#792 = CARTESIAN_POINT ( 'NONE',  ( 20.25000000000000355, -15.00000000000000533, 11.00000000000000000 ) ) ;
#793 = ORIENTED_EDGE ( 'NONE', *, *, #256, .T. ) ;
#794 = ORIENTED_EDGE ( 'NONE', *, *, #645, .F. ) ;
#795 = DIRECTION ( 'NONE',  ( 0.000000000000000000, 0.000000000000000000, -1.000000000000000000 ) ) ;
#796 = AXIS2_PLACEMENT_3D ( 'NONE', #243, #1109, #37 ) ;
#797 = PLANE ( 'NONE',  #1332 ) ;
#798 = EDGE_CURVE ( 'NONE', #460, #1246, #75, .T. ) ;
#799 = CARTESIAN_POINT ( 'NONE',  ( -3.249999999999998224, 31.50000000000000711, 6.000000000000007105 ) ) ;
#800 = EDGE_LOOP ( 'NONE', ( #755, #721, #286, #1196 ) ) ;
#801 = CARTESIAN_POINT ( 'NONE',  ( 3.250000000000001332, 41.50000000000000711, 6.000000000000004441 ) ) ;
#802 = ORIENTED_EDGE ( 'NONE', *, *, #667, .T. ) ;
#803 = CARTESIAN_POINT ( 'NONE',  ( -3.249999999999996891, 41.50000000000000711, 0.000000000000000000 ) ) ;
#804 = AXIS2_PLACEMENT_3D ( 'NONE', #911, #19, #901 ) ;
#805 = FACE_OUTER_BOUND ( 'NONE', #55, .T. ) ;
#806 = CARTESIAN_POINT ( 'NONE',  ( -12.49999999999999467, 46.49999999999998579, 1.734723475976807094E-15 ) ) ;
#807 = CARTESIAN_POINT ( 'NONE',  ( -26.49999999999999645, -26.50000000000000711, 6.000000000000000000 ) ) ;
#808 = VERTEX_POINT ( 'NONE', #515 ) ;
#809 = LINE ( 'NONE', #139, #1278 ) ;
#810 = PLANE ( 'NONE',  #1213 ) ;
#811 = DIRECTION ( 'NONE',  ( 0.000000000000000000, 0.000000000000000000, 1.000000000000000000 ) ) ;
#812 = EDGE_CURVE ( 'NONE', #283, #1053, #300, .T. ) ;
#813 = AXIS2_PLACEMENT_3D ( 'NONE', #650, #337, #1089 ) ;
#814 = DIRECTION ( 'NONE',  ( -0.000000000000000000, -0.000000000000000000, -1.000000000000000000 ) ) ;
#815 = ORIENTED_EDGE ( 'NONE', *, *, #923, .T. ) ;
#816 = CLOSED_SHELL ( 'NONE', ( #1204, #1142, #777, #1383, #407, #1370, #105, #1310, #350, #647, #837, #524, #917, #1081, #1127, #762, #1146, #1352, #114, #436, #673, #1111, #1288, #1257, #562, #501, #1356, #1284, #752, #304, #958, #1144, #23, #1159, #601, #852, #1319, #637, #734, #364 ) ) ;
#817 = CARTESIAN_POINT ( 'NONE',  ( -26.49999999999999645, 26.50000000000000000, 0.000000000000000000 ) ) ;
#818 = AXIS2_PLACEMENT_3D ( 'NONE', #104, #1172, #1164 ) ;
#819 = CARTESIAN_POINT ( 'NONE',  ( 15.00000000000000000, -26.50000000000000711, 12.87500000000000355 ) ) ;
#820 = DIRECTION ( 'NONE',  ( -0.000000000000000000, -0.000000000000000000, -1.000000000000000000 ) ) ;
#821 = AXIS2_PLACEMENT_3D ( 'NONE', #63, #490, #1241 ) ;
#822 = ORIENTED_EDGE ( 'NONE', *, *, #512, .F. ) ;
#823 = DIRECTION ( 'NONE',  ( 0.000000000000000000, 0.000000000000000000, -1.000000000000000000 ) ) ;
#824 = LINE ( 'NONE', #379, #1367 ) ;
#825 = ORIENTED_EDGE ( 'NONE', *, *, #1020, .T. ) ;
#826 = LINE ( 'NONE', #1252, #1315 ) ;
#827 = CIRCLE ( 'NONE', #209, 1.875000000000003331 ) ;
#828 = ORIENTED_EDGE ( 'NONE', *, *, #909, .T. ) ;
#829 = COORDINATED_UNIVERSAL_TIME_OFFSET ( 1, 0, .AHEAD. ) ;
#830 = CARTESIAN_POINT ( 'NONE',  ( -15.00000000000000000, 40.24999999999999289, 9.125000000000003553 ) ) ;
#831 = VERTEX_POINT ( 'NONE', #941 ) ;
#832 = CC_DESIGN_PERSON_AND_ORGANIZATION_ASSIGNMENT ( #339, #857, ( #1236 ) ) ;
#833 = DIRECTION ( 'NONE',  ( -1.000000000000000000, 0.000000000000000000, -1.387778780781445676E-16 ) ) ;
#834 = ORIENTED_EDGE ( 'NONE', *, *, #1251, .T. ) ;
#835 = COORDINATED_UNIVERSAL_TIME_OFFSET ( 1, 0, .AHEAD. ) ;
#836 = FACE_BOUND ( 'NONE', #733, .T. ) ;
#837 = ADVANCED_FACE ( 'NONE', ( #836, #1263, #307 ), #400, .F. ) ;
#838 = ORIENTED_EDGE ( 'NONE', *, *, #457, .F. ) ;
#839 = ORIENTED_EDGE ( 'NONE', *, *, #149, .F. ) ;
#840 = LINE ( 'NONE', #421, #245 ) ;
#841 = VECTOR ( 'NONE', #25, 1000.000000000000000 ) ;
#842 = FACE_BOUND ( 'NONE', #406, .T. ) ;
#843 = ORIENTED_EDGE ( 'NONE', *, *, #923, .F. ) ;
#844 = CARTESIAN_POINT ( 'NONE',  ( 20.25000000000000355, 13.12500000000000888, 10.99999999999999645 ) ) ;
#845 = APPLICATION_PROTOCOL_DEFINITION ( 'international standard', 'config_control_design', 1994, #1238 ) ;
#846 = EDGE_CURVE ( 'NONE', #570, #73, #632, .T. ) ;
#847 = LINE ( 'NONE', #851, #1163 ) ;
#848 = ORIENTED_EDGE ( 'NONE', *, *, #419, .F. ) ;
#849 = DIRECTION ( 'NONE',  ( 0.000000000000000000, 0.000000000000000000, 1.000000000000000000 ) ) ;
#850 = EDGE_CURVE ( 'NONE', #660, #1192, #827, .T. ) ;
#851 = CARTESIAN_POINT ( 'NONE',  ( 40.25000000000000711, 13.12500000000001066, 10.99999999999999645 ) ) ;
#852 = ADVANCED_FACE ( 'NONE', ( #296 ), #731, .F. ) ;
#853 = ORIENTED_EDGE ( 'NONE', *, *, #167, .F. ) ;
#854 = CARTESIAN_POINT ( 'NONE',  ( 0.000000000000000000, 26.50000000000000000, 16.00000000000000000 ) ) ;
#855 = CIRCLE ( 'NONE', #417, 1.875000000000003331 ) ;
#856 = LINE ( 'NONE', #1082, #133 ) ;
#857 = PERSON_AND_ORGANIZATION_ROLE ( 'creator' ) ;
#858 = EDGE_LOOP ( 'NONE', ( #36, #1395, #794, #430 ) ) ;
#859 = EDGE_CURVE ( 'NONE', #1053, #219, #1051, .T. ) ;
#860 = FACE_OUTER_BOUND ( 'NONE', #920, .T. ) ;
#861 = EDGE_LOOP ( 'NONE', ( #624, #354, #913, #843 ) ) ;
#862 = CARTESIAN_POINT ( 'NONE',  ( 26.50000000000000355, 26.50000000000000000, 6.000000000000000000 ) ) ;
#863 = CARTESIAN_POINT ( 'NONE',  ( -20.24999999999999289, -20.25000000000000355, 16.00000000000000000 ) ) ;
#864 = AXIS2_PLACEMENT_3D ( 'NONE', #367, #1121, #152 ) ;
#865 = DIRECTION ( 'NONE',  ( 0.000000000000000000, -1.000000000000000000, 0.000000000000000000 ) ) ;
#866 = ORIENTED_EDGE ( 'NONE', *, *, #605, .T. ) ;
#867 = EDGE_CURVE ( 'NONE', #361, #808, #409, .T. ) ;
#868 = DIRECTION ( 'NONE',  ( 1.000000000000000000, 0.000000000000000000, 1.387778780781445676E-16 ) ) ;
#869 = AXIS2_PLACEMENT_3D ( 'NONE', #165, #588, #1344 ) ;
#870 = DIRECTION ( 'NONE',  ( 1.000000000000000000, 0.000000000000000000, 0.000000000000000000 ) ) ;
#871 = VERTEX_POINT ( 'NONE', #189 ) ;
#872 = DIRECTION ( 'NONE',  ( -1.000000000000000000, 0.000000000000000000, -0.000000000000000000 ) ) ;
#873 = CARTESIAN_POINT ( 'NONE',  ( -12.49999999999999467, -46.50000000000000711, 6.000000000000001776 ) ) ;
#874 = LINE ( 'NONE', #1295, #885 ) ;
#875 = PERSON_AND_ORGANIZATION ( #12, #193 ) ;
#876 = ORIENTED_EDGE ( 'NONE', *, *, #1026, .T. ) ;
#877 = EDGE_CURVE ( 'NONE', #602, #1087, #740, .T. ) ;
#878 = VECTOR ( 'NONE', #1289, 1000.000000000000000 ) ;
#879 = LINE ( 'NONE', #24, #953 ) ;
#880 = VERTEX_POINT ( 'NONE', #525 ) ;
#881 = DIRECTION ( 'NONE',  ( -0.000000000000000000, -0.000000000000000000, -1.000000000000000000 ) ) ;
#882 = LINE ( 'NONE', #790, #399 ) ;
#883 = VECTOR ( 'NONE', #44, 1000.000000000000000 ) ;
#884 = APPROVAL_PERSON_ORGANIZATION ( #1364, #372, #518 ) ;
#885 = VECTOR ( 'NONE', #1381, 1000.000000000000000 ) ;
#886 = DIRECTION ( 'NONE',  ( -0.000000000000000000, -0.000000000000000000, 1.000000000000000000 ) ) ;
#887 = VERTEX_POINT ( 'NONE', #416 ) ;
#888 = ORIENTED_EDGE ( 'NONE', *, *, #535, .T. ) ;
#889 = ORIENTED_EDGE ( 'NONE', *, *, #3, .F. ) ;
#890 = DIRECTION ( 'NONE',  ( -1.000000000000000000, -8.566535683836085482E-17, -0.000000000000000000 ) ) ;
#891 = VECTOR ( 'NONE', #502, 1000.000000000000000 ) ;
#892 = CARTESIAN_POINT ( 'NONE',  ( -12.49999999999999467, 46.49999999999998579, 6.000000000000001776 ) ) ;
#893 = VECTOR ( 'NONE', #776, 1000.000000000000000 ) ;
#894 = CARTESIAN_POINT ( 'NONE',  ( -3.249999999999998668, -25.50000000000001421, 0.000000000000000000 ) ) ;
#895 = ORIENTED_EDGE ( 'NONE', *, *, #97, .T. ) ;
#896 = DIRECTION ( 'NONE',  ( -0.000000000000000000, -1.000000000000000000, -0.000000000000000000 ) ) ;
#897 = CARTESIAN_POINT ( 'NONE',  ( -0.000000000000000000, 20.24999999999999645, 6.000000000000000000 ) ) ;
#898 = EDGE_CURVE ( 'NONE', #461, #111, #847, .T. ) ;
#899 = DIRECTION ( 'NONE',  ( 0.000000000000000000, 0.000000000000000000, 1.000000000000000000 ) ) ;
#900 = VERTEX_POINT ( 'NONE', #1392 ) ;
#901 = DIRECTION ( 'NONE',  ( 1.000000000000000000, 0.000000000000000000, 0.000000000000000000 ) ) ;
#902 = ORIENTED_EDGE ( 'NONE', *, *, #1055, .T. ) ;
#903 = EDGE_CURVE ( 'NONE', #948, #1158, #967, .T. ) ;
#904 = EDGE_LOOP ( 'NONE', ( #623, #921, #1059, #229 ) ) ;
#905 = CYLINDRICAL_SURFACE ( 'NONE', #933, 1.875000000000003331 ) ;
#906 = EDGE_CURVE ( 'NONE', #516, #461, #382, .T. ) ;
#907 = LINE ( 'NONE', #1299, #1244 ) ;
#908 = LINE ( 'NONE', #806, #757 ) ;
#909 = EDGE_CURVE ( 'NONE', #1158, #1266, #1175, .T. ) ;
#910 = ORIENTED_EDGE ( 'NONE', *, *, #712, .T. ) ;
#911 = CARTESIAN_POINT ( 'NONE',  ( 0.000000000000000000, 0.000000000000000000, 6.000000000000000000 ) ) ;
#912 = ORIENTED_EDGE ( 'NONE', *, *, #540, .F. ) ;
#913 = ORIENTED_EDGE ( 'NONE', *, *, #867, .F. ) ;
#914 = ORIENTED_EDGE ( 'NONE', *, *, #898, .T. ) ;
#915 = AXIS2_PLACEMENT_3D ( 'NONE', #57, #363, #68 ) ;
#916 = CARTESIAN_POINT ( 'NONE',  ( -12.49999999999999467, -46.50000000000000711, 6.000000000000001776 ) ) ;
#917 = ADVANCED_FACE ( 'NONE', ( #765, #1298, #860 ), #205, .F. ) ;
#918 = FACE_BOUND ( 'NONE', #1380, .T. ) ;
#919 = LINE ( 'NONE', #1228, #184 ) ;
#920 = EDGE_LOOP ( 'NONE', ( #1362, #428, #793, #1341, #147, #834, #64, #2, #802 ) ) ;
#921 = ORIENTED_EDGE ( 'NONE', *, *, #356, .T. ) ;
#922 = CARTESIAN_POINT ( 'NONE',  ( 0.000000000000000000, -20.25000000000000355, 16.00000000000000000 ) ) ;
#923 = EDGE_CURVE ( 'NONE', #1346, #361, #536, .T. ) ;
#924 = CARTESIAN_POINT ( 'NONE',  ( 15.00000000000000000, 20.24999999999999645, 9.124999999999996447 ) ) ;
#925 = LINE ( 'NONE', #1035, #891 ) ;
#926 = EDGE_LOOP ( 'NONE', ( #187, #578, #1114, #325 ) ) ;
#927 = FACE_OUTER_BOUND ( 'NONE', #926, .T. ) ;
#928 = EDGE_CURVE ( 'NONE', #469, #831, #1182, .T. ) ;
#929 = CARTESIAN_POINT ( 'NONE',  ( -20.24999999999999645, 20.25000000000001776, 16.00000000000000000 ) ) ;
#930 = VECTOR ( 'NONE', #126, 1000.000000000000000 ) ;
#931 = DIRECTION ( 'NONE',  ( 0.000000000000000000, -1.000000000000000000, 0.000000000000000000 ) ) ;
#932 = VERTEX_POINT ( 'NONE', #661 ) ;
#933 = AXIS2_PLACEMENT_3D ( 'NONE', #370, #896, #1108 ) ;
#934 = DIRECTION ( 'NONE',  ( 0.000000000000000000, -1.000000000000000000, 0.000000000000000000 ) ) ;
#935 = VECTOR ( 'NONE', #541, 1000.000000000000000 ) ;
#936 = DIRECTION ( 'NONE',  ( 1.000000000000000000, 0.000000000000000000, 1.387778780781445676E-16 ) ) ;
#937 = ORIENTED_EDGE ( 'NONE', *, *, #798, .T. ) ;
#938 = CARTESIAN_POINT ( 'NONE',  ( 0.000000000000000000, -46.50000000000000711, 0.000000000000000000 ) ) ;
#939 = EDGE_LOOP ( 'NONE', ( #1269, #649, #257, #335, #718, #1151 ) ) ;
#940 = AXIS2_PLACEMENT_3D ( 'NONE', #48, #1200, #481 ) ;
#941 = CARTESIAN_POINT ( 'NONE',  ( 12.50000000000000533, -46.50000000000000711, 5.204170427930421283E-15 ) ) ;
#942 = ORIENTED_EDGE ( 'NONE', *, *, #1270, .F. ) ;
#943 = CARTESIAN_POINT ( 'NONE',  ( -26.49999999999999645, 26.50000000000000000, 6.000000000000000000 ) ) ;
#944 = AXIS2_PLACEMENT_3D ( 'NONE', #1017, #270, #698 ) ;
#945 = EDGE_LOOP ( 'NONE', ( #492, #472, #895, #1115 ) ) ;
#946 = EDGE_CURVE ( 'NONE', #554, #983, #333, .T. ) ;
#947 = DIRECTION ( 'NONE',  ( 0.000000000000000000, 0.000000000000000000, 1.000000000000000000 ) ) ;
#948 = VERTEX_POINT ( 'NONE', #4 ) ;
#949 = PERSON_AND_ORGANIZATION ( #12, #193 ) ;
#950 = DIRECTION ( 'NONE',  ( -0.000000000000000000, -1.000000000000000000, -0.000000000000000000 ) ) ;
#951 = EDGE_LOOP ( 'NONE', ( #1291, #483 ) ) ;
#952 = AXIS2_PLACEMENT_3D ( 'NONE', #606, #54, #487 ) ;
#953 = VECTOR ( 'NONE', #651, 1000.000000000000000 ) ;
#954 = CARTESIAN_POINT ( 'NONE',  ( 40.25000000000000711, -16.87500000000000000, 11.00000000000000000 ) ) ;
#955 = ORIENTED_EDGE ( 'NONE', *, *, #1242, .T. ) ;
#956 = EDGE_CURVE ( 'NONE', #675, #1335, #1085, .T. ) ;
#957 = LINE ( 'NONE', #227, #271 ) ;
#958 = ADVANCED_FACE ( 'NONE', ( #213 ), #99, .T. ) ;
#959 = CARTESIAN_POINT ( 'NONE',  ( 15.00000000000000000, -40.24999999999999289, 11.00000000000000000 ) ) ;
#960 = DIRECTION ( 'NONE',  ( -1.000000000000000000, -1.301042606982605074E-16, 0.000000000000000000 ) ) ;
#961 = ORIENTED_EDGE ( 'NONE', *, *, #1013, .F. ) ;
#962 = CYLINDRICAL_SURFACE ( 'NONE', #552, 1.875000000000000000 ) ;
#963 = CARTESIAN_POINT ( 'NONE',  ( -20.24999999999999645, 20.25000000000001776, 16.00000000000000000 ) ) ;
#964 = EDGE_CURVE ( 'NONE', #504, #561, #1309, .T. ) ;
#965 = PERSON_AND_ORGANIZATION_ROLE ( 'design_supplier' ) ;
#966 = ORIENTED_EDGE ( 'NONE', *, *, #644, .T. ) ;
#967 = LINE ( 'NONE', #108, #1232 ) ;
#968 = EDGE_LOOP ( 'NONE', ( #1077, #1122, #1123, #727 ) ) ;
#969 = CARTESIAN_POINT ( 'NONE',  ( -26.49999999999999645, -26.50000000000000711, 0.000000000000000000 ) ) ;
#970 = CARTESIAN_POINT ( 'NONE',  ( -15.00000000000000000, -20.24999999999999645, 11.00000000000000355 ) ) ;
#971 = VECTOR ( 'NONE', #711, 1000.000000000000000 ) ;
#972 = DIRECTION ( 'NONE',  ( 0.000000000000000000, -1.000000000000000000, 0.000000000000000000 ) ) ;
#973 = DATE_AND_TIME ( #106, #655 ) ;
#974 = ORIENTED_EDGE ( 'NONE', *, *, #791, .F. ) ;
#975 = CARTESIAN_POINT ( 'NONE',  ( -26.49999999999999645, -26.50000000000000711, 0.000000000000000000 ) ) ;
#976 = CYLINDRICAL_SURFACE ( 'NONE', #666, 1.875000000000000000 ) ;
#977 = ORIENTED_EDGE ( 'NONE', *, *, #625, .T. ) ;
#978 = LINE ( 'NONE', #558, #1002 ) ;
#979 = DIRECTION ( 'NONE',  ( 0.000000000000000000, 0.000000000000000000, -1.000000000000000000 ) ) ;
#980 = VECTOR ( 'NONE', #158, 1000.000000000000000 ) ;
#981 = LINE ( 'NONE', #1072, #935 ) ;
#982 = EDGE_CURVE ( 'NONE', #1313, #871, #671, .T. ) ;
#983 = VERTEX_POINT ( 'NONE', #761 ) ;
#984 = DIRECTION ( 'NONE',  ( -0.000000000000000000, -1.000000000000000000, -0.000000000000000000 ) ) ;
#985 = ORIENTED_EDGE ( 'NONE', *, *, #393, .T. ) ;
#986 = LINE ( 'NONE', #224, #633 ) ;
#987 = DIRECTION ( 'NONE',  ( 0.000000000000000000, 0.000000000000000000, -1.000000000000000000 ) ) ;
#988 = DIRECTION ( 'NONE',  ( 1.000000000000000000, 0.000000000000000000, 0.000000000000000000 ) ) ;
#989 = ORIENTED_EDGE ( 'NONE', *, *, #1004, .F. ) ;
#990 = VECTOR ( 'NONE', #1375, 1000.000000000000000 ) ;
#991 = DIRECTION ( 'NONE',  ( -0.7071067811865472397, 0.7071067811865479058, 0.000000000000000000 ) ) ;
#992 = DIRECTION ( 'NONE',  ( 1.301042606982605074E-16, 1.000000000000000000, 0.000000000000000000 ) ) ;
#993 = CIRCLE ( 'NONE', #1167, 1.875000000000000000 ) ;
#994 = VECTOR ( 'NONE', #730, 1000.000000000000114 ) ;
#995 = VECTOR ( 'NONE', #420, 1000.000000000000000 ) ;
#996 = CARTESIAN_POINT ( 'NONE',  ( 3.250000000000001776, 31.50000000000000711, -13.99999999999999645 ) ) ;
#997 = ORIENTED_EDGE ( 'NONE', *, *, #982, .T. ) ;
#998 = EDGE_CURVE ( 'NONE', #1087, #474, #1324, .T. ) ;
#999 = ORIENTED_EDGE ( 'NONE', *, *, #397, .F. ) ;
#1000 = CARTESIAN_POINT ( 'NONE',  ( -15.00000000000000000, 20.24999999999999645, 9.125000000000003553 ) ) ;
#1001 = LINE ( 'NONE', #470, #164 ) ;
#1002 = VECTOR ( 'NONE', #8, 1000.000000000000227 ) ;
#1003 = CARTESIAN_POINT ( 'NONE',  ( -12.49999999999999467, 46.49999999999998579, 1.734723475976807094E-15 ) ) ;
#1004 = EDGE_CURVE ( 'NONE', #219, #932, #132, .T. ) ;
#1005 = DIRECTION ( 'NONE',  ( -1.000000000000000000, -0.000000000000000000, -0.000000000000000000 ) ) ;
#1006 = ORIENTED_EDGE ( 'NONE', *, *, #1042, .T. ) ;
#1007 = VERTEX_POINT ( 'NONE', #863 ) ;
#1008 = EDGE_CURVE ( 'NONE', #759, #29, #1187, .T. ) ;
#1009 = FACE_OUTER_BOUND ( 'NONE', #138, .T. ) ;
#1010 = FACE_OUTER_BOUND ( 'NONE', #1107, .T. ) ;
#1011 = LINE ( 'NONE', #41, #1221 ) ;
#1012 = ORIENTED_EDGE ( 'NONE', *, *, #692, .T. ) ;
#1013 = EDGE_CURVE ( 'NONE', #750, #1329, #769, .T. ) ;
#1014 = ORIENTED_EDGE ( 'NONE', *, *, #903, .T. ) ;
#1015 = LINE ( 'NONE', #1210, #883 ) ;
#1016 = CARTESIAN_POINT ( 'NONE',  ( 12.50000000000000533, 26.50000000000000000, 5.204170427930421283E-15 ) ) ;
#1017 = CARTESIAN_POINT ( 'NONE',  ( 0.000000000000000000, -25.50000000000001421, 0.000000000000000000 ) ) ;
#1018 = DIRECTION ( 'NONE',  ( -0.000000000000000000, -1.000000000000000000, -0.000000000000000000 ) ) ;
#1019 = LOCAL_TIME ( 11, 32, 49.00000000000000000, #659 ) ;
#1020 = EDGE_CURVE ( 'NONE', #160, #1354, #113, .T. ) ;
#1021 = EDGE_LOOP ( 'NONE', ( #465, #1250, #290, #241 ) ) ;
#1022 = ORIENTED_EDGE ( 'NONE', *, *, #285, .T. ) ;
#1023 = FACE_OUTER_BOUND ( 'NONE', #1189, .T. ) ;
#1024 = CARTESIAN_POINT ( 'NONE',  ( -15.00000000000000000, -20.24999999999999645, 11.00000000000000355 ) ) ;
#1025 = DIRECTION ( 'NONE',  ( 0.000000000000000000, -1.000000000000000000, 0.000000000000000000 ) ) ;
#1026 = EDGE_CURVE ( 'NONE', #681, #340, #784, .T. ) ;
#1027 = ORIENTED_EDGE ( 'NONE', *, *, #59, .F. ) ;
#1028 = FACE_OUTER_BOUND ( 'NONE', #76, .T. ) ;
#1029 = CARTESIAN_POINT ( 'NONE',  ( -12.49999999999999467, 46.49999999999998579, 6.000000000000001776 ) ) ;
#1030 = CARTESIAN_POINT ( 'NONE',  ( 20.25000000000000000, 20.24999999999999645, 16.00000000000000000 ) ) ;
#1031 = EDGE_LOOP ( 'NONE', ( #544, #1052 ) ) ;
#1032 = DIRECTION ( 'NONE',  ( 0.000000000000000000, 0.000000000000000000, -1.000000000000000000 ) ) ;
#1033 = DIRECTION ( 'NONE',  ( 1.000000000000000000, 0.000000000000000000, 1.387778780781445676E-16 ) ) ;
#1034 = ORIENTED_EDGE ( 'NONE', *, *, #1264, .F. ) ;
#1035 = CARTESIAN_POINT ( 'NONE',  ( 26.50000000000000355, 0.000000000000000000, 16.00000000000000000 ) ) ;
#1036 = ORIENTED_EDGE ( 'NONE', *, *, #1303, .F. ) ;
#1037 = EDGE_CURVE ( 'NONE', #687, #1351, #685, .T. ) ;
#1038 = CYLINDRICAL_SURFACE ( 'NONE', #1393, 1.874999999999998224 ) ;
#1039 = AXIS2_PLACEMENT_3D ( 'NONE', #959, #735, #1378 ) ;
#1040 = DIRECTION ( 'NONE',  ( -0.000000000000000000, -1.000000000000000000, -0.000000000000000000 ) ) ;
#1041 = EDGE_LOOP ( 'NONE', ( #7, #838, #609, #119 ) ) ;
#1042 = EDGE_CURVE ( 'NONE', #468, #1266, #882, .T. ) ;
#1043 = DIRECTION ( 'NONE',  ( -0.000000000000000000, -1.000000000000000000, -0.000000000000000000 ) ) ;
#1044 = ORIENTED_EDGE ( 'NONE', *, *, #657, .T. ) ;
#1045 = ORIENTED_EDGE ( 'NONE', *, *, #467, .T. ) ;
#1046 = DIRECTION ( 'NONE',  ( 1.000000000000000000, 0.000000000000000000, 0.000000000000000000 ) ) ;
#1047 = VECTOR ( 'NONE', #1005, 1000.000000000000000 ) ;
#1048 = CARTESIAN_POINT ( 'NONE',  ( 15.00000000000000000, -26.50000000000000711, 11.00000000000000000 ) ) ;
#1049 = VERTEX_POINT ( 'NONE', #327 ) ;
#1050 = AXIS2_PLACEMENT_3D ( 'NONE', #736, #617, #520 ) ;
#1051 = LINE ( 'NONE', #422, #990 ) ;
#1052 = ORIENTED_EDGE ( 'NONE', *, *, #159, .F. ) ;
#1053 = VERTEX_POINT ( 'NONE', #654 ) ;
#1054 = VECTOR ( 'NONE', #121, 1000.000000000000000 ) ;
#1055 = EDGE_CURVE ( 'NONE', #29, #1346, #225, .T. ) ;
#1056 =( NAMED_UNIT ( * ) PLANE_ANGLE_UNIT ( ) SI_UNIT ( $, .RADIAN. ) );
#1057 = DIRECTION ( 'NONE',  ( 0.000000000000000000, -1.000000000000000000, 0.000000000000000000 ) ) ;
#1058 = CIRCLE ( 'NONE', #818, 1.875000000000003331 ) ;
#1059 = ORIENTED_EDGE ( 'NONE', *, *, #378, .F. ) ;
#1060 = LINE ( 'NONE', #551, #1353 ) ;
#1061 = VECTOR ( 'NONE', #751, 1000.000000000000000 ) ;
#1062 = APPROVAL_STATUS ( 'not_yet_approved' ) ;
#1063 = CIRCLE ( 'NONE', #87, 1.875000000000003331 ) ;
#1064 = PLANE ( 'NONE',  #442 ) ;
#1065 = EDGE_LOOP ( 'NONE', ( #974, #30, #116, #493 ) ) ;
#1066 = DIRECTION ( 'NONE',  ( -1.734723475976806848E-16, -1.000000000000000000, 0.000000000000000000 ) ) ;
#1067 = LINE ( 'NONE', #96, #83 ) ;
#1068 = MECHANICAL_CONTEXT ( 'NONE', #1238, 'mechanical' ) ;
#1069 = DIRECTION ( 'NONE',  ( 0.000000000000000000, -1.000000000000000000, 0.000000000000000000 ) ) ;
#1070 = ORIENTED_EDGE ( 'NONE', *, *, #1264, .T. ) ;
#1071 = DIRECTION ( 'NONE',  ( -0.000000000000000000, -0.000000000000000000, -1.000000000000000000 ) ) ;
#1072 = CARTESIAN_POINT ( 'NONE',  ( 12.50000000000000355, 26.50000000000000000, 6.000000000000000000 ) ) ;
#1073 = APPROVAL_STATUS ( 'not_yet_approved' ) ;
#1074 = ORIENTED_EDGE ( 'NONE', *, *, #208, .F. ) ;
#1075 = CARTESIAN_POINT ( 'NONE',  ( -12.49999999999999467, -46.50000000000000711, 1.734723475976807094E-15 ) ) ;
#1076 = CARTESIAN_POINT ( 'NONE',  ( 20.25000000000000355, 1.734723475976807489E-15, 16.00000000000000000 ) ) ;
#1077 = ORIENTED_EDGE ( 'NONE', *, *, #1008, .F. ) ;
#1078 = DIRECTION ( 'NONE',  ( -1.000000000000000000, -8.566535683836085482E-17, -0.000000000000000000 ) ) ;
#1079 = FACE_OUTER_BOUND ( 'NONE', #240, .T. ) ;
#1080 = AXIS2_PLACEMENT_3D ( 'NONE', #1131, #598, #1032 ) ;
#1081 = ADVANCED_FACE ( 'NONE', ( #1079 ), #343, .T. ) ;
#1082 = CARTESIAN_POINT ( 'NONE',  ( 3.250000000000003109, -41.50000000000000711, -13.99999999999999645 ) ) ;
#1083 = COORDINATED_UNIVERSAL_TIME_OFFSET ( 1, 0, .AHEAD. ) ;
#1084 = ORIENTED_EDGE ( 'NONE', *, *, #42, .T. ) ;
#1085 = LINE ( 'NONE', #117, #626 ) ;
#1086 = LINE ( 'NONE', #789, #346 ) ;
#1087 = VERTEX_POINT ( 'NONE', #550 ) ;
#1088 = CARTESIAN_POINT ( 'NONE',  ( 40.25000000000000711, 16.87500000000000711, 10.99999999999999645 ) ) ;
#1089 = DIRECTION ( 'NONE',  ( 1.301042606982605074E-16, 1.000000000000000000, 0.000000000000000000 ) ) ;
#1090 = LINE ( 'NONE', #319, #995 ) ;
#1091 = ORIENTED_EDGE ( 'NONE', *, *, #770, .F. ) ;
#1092 = CARTESIAN_POINT ( 'NONE',  ( 15.00000000000000000, -26.50000000000000711, 9.124999999999996447 ) ) ;
#1093 = FACE_OUTER_BOUND ( 'NONE', #858, .T. ) ;
#1094 = EDGE_CURVE ( 'NONE', #474, #680, #1063, .T. ) ;
#1095 = CARTESIAN_POINT ( 'NONE',  ( -3.249999999999998224, -31.50000000000000711, 6.000000000000003553 ) ) ;
#1096 = EDGE_LOOP ( 'NONE', ( #308, #1369 ) ) ;
#1097 = ORIENTED_EDGE ( 'NONE', *, *, #867, .T. ) ;
#1098 = ORIENTED_EDGE ( 'NONE', *, *, #1270, .T. ) ;
#1099 = VECTOR ( 'NONE', #1397, 1000.000000000000000 ) ;
#1100 = CARTESIAN_POINT ( 'NONE',  ( 40.25000000000000711, 15.00000000000001066, 10.99999999999999645 ) ) ;
#1101 = CARTESIAN_POINT ( 'NONE',  ( 26.50000000000000355, 15.00000000000000888, 10.99999999999999645 ) ) ;
#1102 = EDGE_CURVE ( 'NONE', #547, #871, #528, .T. ) ;
#1103 = EDGE_CURVE ( 'NONE', #983, #469, #432, .T. ) ;
#1104 = VERTEX_POINT ( 'NONE', #1199 ) ;
#1105 = VECTOR ( 'NONE', #1179, 999.9999999999998863 ) ;
#1106 = CARTESIAN_POINT ( 'NONE',  ( 15.00000000000000000, -20.24999999999999645, 9.124999999999996447 ) ) ;
#1107 = EDGE_LOOP ( 'NONE', ( #912, #729, #914, #1098 ) ) ;
#1108 = DIRECTION ( 'NONE',  ( 0.000000000000000000, 0.000000000000000000, -1.000000000000000000 ) ) ;
#1109 = DIRECTION ( 'NONE',  ( 1.000000000000000000, 0.000000000000000000, 0.000000000000000000 ) ) ;
#1110 = PLANE ( 'NONE',  #140 ) ;
#1111 = ADVANCED_FACE ( 'NONE', ( #1093 ), #1318, .T. ) ;
#1112 = VECTOR ( 'NONE', #931, 1000.000000000000000 ) ;
#1113 = DIRECTION ( 'NONE',  ( -0.000000000000000000, -1.000000000000000000, -0.000000000000000000 ) ) ;
#1114 = ORIENTED_EDGE ( 'NONE', *, *, #964, .T. ) ;
#1115 = ORIENTED_EDGE ( 'NONE', *, *, #45, .T. ) ;
#1116 = ORIENTED_EDGE ( 'NONE', *, *, #289, .T. ) ;
#1117 = CARTESIAN_POINT ( 'NONE',  ( -15.00000000000000000, -26.50000000000000711, 9.125000000000003553 ) ) ;
#1118 = VECTOR ( 'NONE', #599, 1000.000000000000000 ) ;
#1119 = DIRECTION ( 'NONE',  ( -1.000000000000000000, 0.000000000000000000, 0.000000000000000000 ) ) ;
#1120 = EDGE_CURVE ( 'NONE', #461, #516, #228, .T. ) ;
#1121 = DIRECTION ( 'NONE',  ( 0.000000000000000000, 0.7071067811865460184, -0.7071067811865491270 ) ) ;
#1122 = ORIENTED_EDGE ( 'NONE', *, *, #715, .T. ) ;
#1123 = ORIENTED_EDGE ( 'NONE', *, *, #495, .F. ) ;
#1124 = CC_DESIGN_PERSON_AND_ORGANIZATION_ASSIGNMENT ( #1390, #543, ( #313 ) ) ;
#1125 = CARTESIAN_POINT ( 'NONE',  ( 20.25000000000000355, 15.00000000000000888, 10.99999999999999645 ) ) ;
#1126 = LINE ( 'NONE', #929, #77 ) ;
#1127 = ADVANCED_FACE ( 'NONE', ( #1212 ), #341, .F. ) ;
#1128 = CARTESIAN_POINT ( 'NONE',  ( -3.249999999999996891, 41.50000000000000711, 6.000000000000003553 ) ) ;
#1129 = ORIENTED_EDGE ( 'NONE', *, *, #1102, .F. ) ;
#1130 = DIRECTION ( 'NONE',  ( 0.000000000000000000, -1.000000000000000000, 0.000000000000000000 ) ) ;
#1131 = CARTESIAN_POINT ( 'NONE',  ( 15.00000000000000000, -20.24999999999999645, 11.00000000000000000 ) ) ;
#1132 = CARTESIAN_POINT ( 'NONE',  ( -12.49999999999999467, -26.50000000000000711, 6.000000000000000000 ) ) ;
#1133 = CARTESIAN_POINT ( 'NONE',  ( 0.000000000000000000, -20.25000000000000355, 16.00000000000000000 ) ) ;
#1134 = ORIENTED_EDGE ( 'NONE', *, *, #625, .F. ) ;
#1135 = PLANE ( 'NONE',  #365 ) ;
#1136 = DIRECTION ( 'NONE',  ( -9.199760500100263318E-17, -0.7071067811865490160, -0.7071067811865460184 ) ) ;
#1137 = CARTESIAN_POINT ( 'NONE',  ( 26.50000000000000355, 16.87500000000000711, 10.99999999999999645 ) ) ;
#1138 = EDGE_CURVE ( 'NONE', #347, #717, #1086, .T. ) ;
#1139 = ORIENTED_EDGE ( 'NONE', *, *, #1094, .T. ) ;
#1140 = CARTESIAN_POINT ( 'NONE',  ( -26.49999999999999645, 26.50000000000000000, 0.000000000000000000 ) ) ;
#1141 = CARTESIAN_POINT ( 'NONE',  ( 0.000000000000000000, 0.000000000000000000, 16.00000000000000000 ) ) ;
#1142 = ADVANCED_FACE ( 'NONE', ( #1206 ), #662, .F. ) ;
#1143 = EDGE_LOOP ( 'NONE', ( #737, #1300, #446, #977 ) ) ;
#1144 = ADVANCED_FACE ( 'NONE', ( #445 ), #1183, .T. ) ;
#1145 = DIRECTION ( 'NONE',  ( 0.000000000000000000, -1.000000000000000000, 0.000000000000000000 ) ) ;
#1146 = ADVANCED_FACE ( 'NONE', ( #324, #783, #573 ), #438, .F. ) ;
#1147 = ORIENTED_EDGE ( 'NONE', *, *, #1138, .F. ) ;
#1148 = APPROVAL_DATE_TIME ( #287, #566 ) ;
#1149 = CIRCLE ( 'NONE', #178, 1.875000000000000000 ) ;
#1150 = DIRECTION ( 'NONE',  ( -0.000000000000000000, 1.000000000000000000, -0.000000000000000000 ) ) ;
#1151 = ORIENTED_EDGE ( 'NONE', *, *, #144, .T. ) ;
#1152 = FACE_OUTER_BOUND ( 'NONE', #1308, .T. ) ;
#1153 = EDGE_CURVE ( 'NONE', #484, #831, #1001, .T. ) ;
#1154 = ORIENTED_EDGE ( 'NONE', *, *, #540, .T. ) ;
#1155 = VECTOR ( 'NONE', #814, 1000.000000000000000 ) ;
#1156 = CARTESIAN_POINT ( 'NONE',  ( -15.00000000000000000, -40.24999999999999289, 11.00000000000000355 ) ) ;
#1157 = ORIENTED_EDGE ( 'NONE', *, *, #402, .F. ) ;
#1158 = VERTEX_POINT ( 'NONE', #32 ) ;
#1159 = ADVANCED_FACE ( 'NONE', ( #110 ), #556, .F. ) ;
#1160 = DIRECTION ( 'NONE',  ( 0.7071067811865472397, -0.7071067811865479058, 0.000000000000000000 ) ) ;
#1161 = ORIENTED_EDGE ( 'NONE', *, *, #14, .T. ) ;
#1162 = EDGE_CURVE ( 'NONE', #488, #35, #15, .T. ) ;
#1163 = VECTOR ( 'NONE', #1274, 1000.000000000000000 ) ;
#1164 = DIRECTION ( 'NONE',  ( 0.000000000000000000, 0.000000000000000000, 1.000000000000000000 ) ) ;
#1165 = ORIENTED_EDGE ( 'NONE', *, *, #1251, .F. ) ;
#1166 = DIRECTION ( 'NONE',  ( 0.000000000000000000, -1.000000000000000000, 0.000000000000000000 ) ) ;
#1167 = AXIS2_PLACEMENT_3D ( 'NONE', #50, #355, #586 ) ;
#1168 = FACE_BOUND ( 'NONE', #21, .T. ) ;
#1169 = APPROVAL_PERSON_ORGANIZATION ( #315, #566, #1174 ) ;
#1170 = AXIS2_PLACEMENT_3D ( 'NONE', #1277, #330, #988 ) ;
#1171 = VERTEX_POINT ( 'NONE', #766 ) ;
#1172 = DIRECTION ( 'NONE',  ( -0.000000000000000000, -1.000000000000000000, -0.000000000000000000 ) ) ;
#1173 = VECTOR ( 'NONE', #166, 1000.000000000000000 ) ;
#1174 = APPROVAL_ROLE ( '' ) ;
#1175 = LINE ( 'NONE', #747, #878 ) ;
#1176 = VECTOR ( 'NONE', #577, 1000.000000000000000 ) ;
#1177 = ORIENTED_EDGE ( 'NONE', *, *, #998, .F. ) ;
#1178 = PLANE ( 'NONE',  #952 ) ;
#1179 = DIRECTION ( 'NONE',  ( 0.7071067811865473507, 0.7071067811865477948, 0.000000000000000000 ) ) ;
#1180 = VECTOR ( 'NONE', #254, 1000.000000000000000 ) ;
#1181 = EDGE_LOOP ( 'NONE', ( #1256, #966 ) ) ;
#1182 = LINE ( 'NONE', #1075, #20 ) ;
#1183 = PLANE ( 'NONE',  #635 ) ;
#1184 = ORIENTED_EDGE ( 'NONE', *, *, #749, .F. ) ;
#1185 = LINE ( 'NONE', #447, #1359 ) ;
#1186 = EDGE_CURVE ( 'NONE', #283, #1104, #879, .T. ) ;
#1187 = LINE ( 'NONE', #441, #191 ) ;
#1188 = DIRECTION ( 'NONE',  ( 1.000000000000000000, 0.000000000000000000, 0.000000000000000000 ) ) ;
#1189 = EDGE_LOOP ( 'NONE', ( #1147, #781, #937, #172 ) ) ;
#1190 = CARTESIAN_POINT ( 'NONE',  ( -26.49999999999999645, -26.50000000000000711, 6.000000000000000000 ) ) ;
#1191 = DIRECTION ( 'NONE',  ( 0.000000000000000000, -1.000000000000000000, 0.000000000000000000 ) ) ;
#1192 = VERTEX_POINT ( 'NONE', #1092 ) ;
#1193 = CARTESIAN_POINT ( 'NONE',  ( 3.250000000000000444, 25.49999999999997513, 0.000000000000000000 ) ) ;
#1194 = DIRECTION ( 'NONE',  ( -1.000000000000000000, -0.000000000000000000, -1.387778780781445676E-16 ) ) ;
#1195 = CARTESIAN_POINT ( 'NONE',  ( 20.25000000000000355, 15.00000000000000888, 10.99999999999999645 ) ) ;
#1196 = ORIENTED_EDGE ( 'NONE', *, *, #14, .F. ) ;
#1197 = AXIS2_PLACEMENT_3D ( 'NONE', #214, #1317, #991 ) ;
#1198 = PLANE ( 'NONE',  #796 ) ;
#1199 = CARTESIAN_POINT ( 'NONE',  ( -3.249999999999996891, -41.50000000000000711, 0.000000000000000000 ) ) ;
#1200 = DIRECTION ( 'NONE',  ( -1.000000000000000000, 0.000000000000000000, 0.000000000000000000 ) ) ;
#1201 = AXIS2_PLACEMENT_3D ( 'NONE', #1195, #529, #754 ) ;
#1202 = ORIENTED_EDGE ( 'NONE', *, *, #743, .T. ) ;
#1203 = ORIENTED_EDGE ( 'NONE', *, *, #226, .T. ) ;
#1204 = ADVANCED_FACE ( 'NONE', ( #235 ), #976, .F. ) ;
#1205 = ADVANCED_BREP_SHAPE_REPRESENTATION ( 'fix_imu', ( #1234, #385 ), #499 ) ;
#1206 = FACE_OUTER_BOUND ( 'NONE', #585, .T. ) ;
#1207 = CARTESIAN_POINT ( 'NONE',  ( 0.000000000000000000, -20.25000000000000355, 6.000000000000000000 ) ) ;
#1208 = CARTESIAN_POINT ( 'NONE',  ( 26.50000000000000355, -13.12500000000000533, 11.00000000000000000 ) ) ;
#1209 = ORIENTED_EDGE ( 'NONE', *, *, #226, .F. ) ;
#1210 = CARTESIAN_POINT ( 'NONE',  ( -3.249999999999996891, -41.50000000000000711, -13.99999999999999645 ) ) ;
#1211 = CARTESIAN_POINT ( 'NONE',  ( -12.49999999999999467, 46.49999999999998579, 6.000000000000001776 ) ) ;
#1212 = FACE_OUTER_BOUND ( 'NONE', #678, .T. ) ;
#1213 = AXIS2_PLACEMENT_3D ( 'NONE', #1231, #269, #703 ) ;
#1214 = ORIENTED_EDGE ( 'NONE', *, *, #482, .T. ) ;
#1215 = PLANE ( 'NONE',  #864 ) ;
#1216 = ORIENTED_EDGE ( 'NONE', *, *, #1020, .F. ) ;
#1217 = CARTESIAN_POINT ( 'NONE',  ( 12.50000000000000533, 46.49999999999998579, 6.000000000000005329 ) ) ;
#1218 = CARTESIAN_POINT ( 'NONE',  ( -15.00000000000000000, 26.50000000000000000, 12.87500000000000355 ) ) ;
#1219 = CYLINDRICAL_SURFACE ( 'NONE', #821, 1.875000000000000000 ) ;
#1220 = EDGE_LOOP ( 'NONE', ( #146, #848, #1022, #787 ) ) ;
#1221 = VECTOR ( 'NONE', #686, 1000.000000000000000 ) ;
#1222 = DIRECTION ( 'NONE',  ( 1.000000000000000000, 0.000000000000000000, 0.000000000000000000 ) ) ;
#1223 = ORIENTED_EDGE ( 'NONE', *, *, #457, .T. ) ;
#1224 = LINE ( 'NONE', #1217, #310 ) ;
#1225 = DIRECTION ( 'NONE',  ( 0.000000000000000000, -0.000000000000000000, -1.000000000000000000 ) ) ;
#1226 = AXIS2_PLACEMENT_3D ( 'NONE', #1279, #1255, #1371 ) ;
#1227 = LINE ( 'NONE', #384, #1180 ) ;
#1228 = CARTESIAN_POINT ( 'NONE',  ( 3.250000000000001776, -31.50000000000000711, 6.000000000000003553 ) ) ;
#1229 = ORIENTED_EDGE ( 'NONE', *, *, #503, .F. ) ;
#1230 = DIRECTION ( 'NONE',  ( -1.734723475976806848E-16, 1.000000000000000000, -0.000000000000000000 ) ) ;
#1231 = CARTESIAN_POINT ( 'NONE',  ( 3.250000000000001776, -31.50000000000000711, -13.99999999999999645 ) ) ;
#1232 = VECTOR ( 'NONE', #555, 1000.000000000000000 ) ;
#1233 = CARTESIAN_POINT ( 'NONE',  ( 20.25000000000000000, 20.24999999999999645, 16.00000000000000000 ) ) ;
#1234 = MANIFOLD_SOLID_BREP ( 'Chamfer1', #816 ) ;
#1235 = CARTESIAN_POINT ( 'NONE',  ( -12.49999999999999467, 46.49999999999998579, 6.000000000000001776 ) ) ;
#1236 = PRODUCT_DEFINITION_FORMATION_WITH_SPECIFIED_SOURCE ( 'ANY', '', #134, .NOT_KNOWN. ) ;
#1237 = CIRCLE ( 'NONE', #194, 1.875000000000003331 ) ;
#1238 = APPLICATION_CONTEXT ( 'configuration controlled 3d designs of mechanical parts and assemblies' ) ;
#1239 = ORIENTED_EDGE ( 'NONE', *, *, #1004, .T. ) ;
#1240 = CARTESIAN_POINT ( 'NONE',  ( -15.00000000000000000, 26.50000000000000000, 11.00000000000000355 ) ) ;
#1241 = DIRECTION ( 'NONE',  ( 0.000000000000000000, -1.000000000000000000, 0.000000000000000000 ) ) ;
#1242 = EDGE_CURVE ( 'NONE', #1351, #160, #907, .T. ) ;
#1243 = AXIS2_PLACEMENT_3D ( 'NONE', #1024, #486, #170 ) ;
#1244 = VECTOR ( 'NONE', #1191, 1000.000000000000000 ) ;
#1245 = LINE ( 'NONE', #943, #708 ) ;
#1246 = VERTEX_POINT ( 'NONE', #1307 ) ;
#1247 = CARTESIAN_POINT ( 'NONE',  ( -3.249999999999996891, -41.50000000000000711, -13.99999999999999645 ) ) ;
#1248 = EDGE_CURVE ( 'NONE', #687, #1354, #774, .T. ) ;
#1249 = CARTESIAN_POINT ( 'NONE',  ( 26.50000000000000355, 26.50000000000000000, 6.000000000000000000 ) ) ;
#1250 = ORIENTED_EDGE ( 'NONE', *, *, #159, .T. ) ;
#1251 = EDGE_CURVE ( 'NONE', #537, #266, #357, .T. ) ;
#1252 = CARTESIAN_POINT ( 'NONE',  ( -12.49999999999999467, 26.50000000000000000, 6.000000000000000000 ) ) ;
#1253 = ORIENTED_EDGE ( 'NONE', *, *, #956, .T. ) ;
#1254 = CALENDAR_DATE ( 2026, 2, 6 ) ;
#1255 = DIRECTION ( 'NONE',  ( 0.000000000000000000, 1.000000000000000000, 0.000000000000000000 ) ) ;
#1256 = ORIENTED_EDGE ( 'NONE', *, *, #1102, .T. ) ;
#1257 = ADVANCED_FACE ( 'NONE', ( #1009 ), #1198, .T. ) ;
#1258 = CARTESIAN_POINT ( 'NONE',  ( 0.000000000000000000, 46.49999999999998579, 0.000000000000000000 ) ) ;
#1259 = ORIENTED_EDGE ( 'NONE', *, *, #183, .F. ) ;
#1260 = LOCAL_TIME ( 11, 32, 49.00000000000000000, #829 ) ;
#1261 = FACE_OUTER_BOUND ( 'NONE', #904, .T. ) ;
#1262 = AXIS2_PLACEMENT_3D ( 'NONE', #62, #496, #823 ) ;
#1263 = FACE_BOUND ( 'NONE', #951, .T. ) ;
#1264 = EDGE_CURVE ( 'NONE', #602, #680, #125, .T. ) ;
#1265 = EDGE_LOOP ( 'NONE', ( #280, #1275, #1214, #1045, #1006, #742, #695, #100, #301 ) ) ;
#1266 = VERTEX_POINT ( 'NONE', #817 ) ;
#1267 = DATE_AND_TIME ( #204, #593 ) ;
#1268 = CARTESIAN_POINT ( 'NONE',  ( 3.250000000000001776, 31.50000000000000711, 6.000000000000003553 ) ) ;
#1269 = ORIENTED_EDGE ( 'NONE', *, *, #1013, .T. ) ;
#1270 = EDGE_CURVE ( 'NONE', #111, #297, #682, .T. ) ;
#1271 = LINE ( 'NONE', #534, #572 ) ;
#1272 = ORIENTED_EDGE ( 'NONE', *, *, #198, .F. ) ;
#1273 = CARTESIAN_POINT ( 'NONE',  ( 20.25000000000000355, 1.734723475976807489E-15, 6.000000000000000000 ) ) ;
#1274 = DIRECTION ( 'NONE',  ( -1.000000000000000000, -8.566535683836085482E-17, -0.000000000000000000 ) ) ;
#1275 = ORIENTED_EDGE ( 'NONE', *, *, #208, .T. ) ;
#1276 = VECTOR ( 'NONE', #564, 1000.000000000000000 ) ;
#1277 = CARTESIAN_POINT ( 'NONE',  ( 0.000000000000000000, 0.000000000000000000, 0.000000000000000000 ) ) ;
#1278 = VECTOR ( 'NONE', #1230, 1000.000000000000000 ) ;
#1279 = CARTESIAN_POINT ( 'NONE',  ( 0.000000000000000000, 20.24999999999999645, 16.00000000000000000 ) ) ;
#1280 = VECTOR ( 'NONE', #46, 1000.000000000000000 ) ;
#1281 = VECTOR ( 'NONE', #785, 1000.000000000000000 ) ;
#1282 = ORIENTED_EDGE ( 'NONE', *, *, #1294, .T. ) ;
#1283 = LINE ( 'NONE', #273, #1061 ) ;
#1284 = ADVANCED_FACE ( 'NONE', ( #262 ), #592, .F. ) ;
#1285 = CARTESIAN_POINT ( 'NONE',  ( 26.50000000000000355, 26.50000000000000000, 0.000000000000000000 ) ) ;
#1286 = SHAPE_DEFINITION_REPRESENTATION ( #312, #1205 ) ;
#1287 = ORIENTED_EDGE ( 'NONE', *, *, #285, .F. ) ;
#1288 = ADVANCED_FACE ( 'NONE', ( #610 ), #697, .T. ) ;
#1289 = DIRECTION ( 'NONE',  ( -0.000000000000000000, -0.000000000000000000, -1.000000000000000000 ) ) ;
#1290 = VECTOR ( 'NONE', #820, 1000.000000000000000 ) ;
#1291 = ORIENTED_EDGE ( 'NONE', *, *, #877, .T. ) ;
#1292 = CARTESIAN_POINT ( 'NONE',  ( 15.00000000000000000, 26.50000000000000000, 9.124999999999996447 ) ) ;
#1293 = CARTESIAN_POINT ( 'NONE',  ( -3.249999999999998224, 31.50000000000000711, 6.000000000000003553 ) ) ;
#1294 = EDGE_CURVE ( 'NONE', #570, #1336, #1149, .T. ) ;
#1295 = CARTESIAN_POINT ( 'NONE',  ( -15.00000000000000000, -40.24999999999999289, 12.87500000000000355 ) ) ;
#1296 = VECTOR ( 'NONE', #507, 1000.000000000000000 ) ;
#1297 = ORIENTED_EDGE ( 'NONE', *, *, #906, .F. ) ;
#1298 = FACE_BOUND ( 'NONE', #1096, .T. ) ;
#1299 = CARTESIAN_POINT ( 'NONE',  ( 12.50000000000000533, 46.49999999999998579, 6.000000000000005329 ) ) ;
#1300 = ORIENTED_EDGE ( 'NONE', *, *, #244, .T. ) ;
#1301 = FACE_OUTER_BOUND ( 'NONE', #1220, .T. ) ;
#1302 = CARTESIAN_POINT ( 'NONE',  ( -15.00000000000000000, -40.24999999999999289, 9.125000000000003553 ) ) ;
#1303 = EDGE_CURVE ( 'NONE', #1266, #554, #371, .T. ) ;
#1304 = CARTESIAN_POINT ( 'NONE',  ( -15.00000000000000000, 26.50000000000000000, 11.00000000000000355 ) ) ;
#1305 = VECTOR ( 'NONE', #18, 1000.000000000000000 ) ;
#1306 = ORIENTED_EDGE ( 'NONE', *, *, #712, .F. ) ;
#1307 = CARTESIAN_POINT ( 'NONE',  ( 20.25000000000000355, -16.87500000000000355, 11.00000000000000000 ) ) ;
#1308 = EDGE_LOOP ( 'NONE', ( #389, #825, #49, #242 ) ) ;
#1309 = LINE ( 'NONE', #246, #1054 ) ;
#1310 = ADVANCED_FACE ( 'NONE', ( #927, #1330 ), #797, .T. ) ;
#1311 = AXIS2_PLACEMENT_3D ( 'NONE', #232, #1113, #672 ) ;
#1312 = DIRECTION ( 'NONE',  ( -1.000000000000000000, 1.734723475976806848E-16, 0.000000000000000000 ) ) ;
#1313 = VERTEX_POINT ( 'NONE', #1117 ) ;
#1314 = CARTESIAN_POINT ( 'NONE',  ( 26.50000000000000355, 26.50000000000000000, 0.000000000000000000 ) ) ;
#1315 = VECTOR ( 'NONE', #71, 1000.000000000000000 ) ;
#1316 = AXIS2_PLACEMENT_3D ( 'NONE', #1101, #464, #899 ) ;
#1317 = DIRECTION ( 'NONE',  ( 0.7071067811865479058, 0.7071067811865472397, -0.000000000000000000 ) ) ;
#1318 = PLANE ( 'NONE',  #277 ) ;
#1319 = ADVANCED_FACE ( 'NONE', ( #1023 ), #1038, .F. ) ;
#1320 = CARTESIAN_POINT ( 'NONE',  ( 12.50000000000000533, -46.50000000000000711, 6.000000000000005329 ) ) ;
#1321 = ORIENTED_EDGE ( 'NONE', *, *, #202, .T. ) ;
#1322 = ORIENTED_EDGE ( 'NONE', *, *, #877, .F. ) ;
#1323 = DIRECTION ( 'NONE',  ( 0.000000000000000000, -1.000000000000000000, 0.000000000000000000 ) ) ;
#1324 = LINE ( 'NONE', #9, #268 ) ;
#1325 = ORIENTED_EDGE ( 'NONE', *, *, #615, .F. ) ;
#1326 = DIRECTION ( 'NONE',  ( -0.000000000000000000, 1.000000000000000000, -0.000000000000000000 ) ) ;
#1327 = ORIENTED_EDGE ( 'NONE', *, *, #1037, .F. ) ;
#1328 = VERTEX_POINT ( 'NONE', #1337 ) ;
#1329 = VERTEX_POINT ( 'NONE', #51 ) ;
#1330 = FACE_BOUND ( 'NONE', #663, .T. ) ;
#1331 = CARTESIAN_POINT ( 'NONE',  ( -12.49999999999999467, -26.50000000000001066, 6.000000000000001776 ) ) ;
#1332 = AXIS2_PLACEMENT_3D ( 'NONE', #275, #156, #1347 ) ;
#1333 = FACE_OUTER_BOUND ( 'NONE', #176, .T. ) ;
#1334 = ORIENTED_EDGE ( 'NONE', *, *, #137, .T. ) ;
#1335 = VERTEX_POINT ( 'NONE', #1016 ) ;
#1336 = VERTEX_POINT ( 'NONE', #1218 ) ;
#1337 = CARTESIAN_POINT ( 'NONE',  ( 12.50000000000000533, 26.50000000000000000, 6.000000000000005329 ) ) ;
#1338 = EDGE_CURVE ( 'NONE', #1158, #488, #174, .T. ) ;
#1339 = FACE_BOUND ( 'NONE', #43, .T. ) ;
#1340 = LINE ( 'NONE', #595, #689 ) ;
#1341 = ORIENTED_EDGE ( 'NONE', *, *, #620, .F. ) ;
#1342 = DIRECTION ( 'NONE',  ( -0.000000000000000000, -0.000000000000000000, 1.000000000000000000 ) ) ;
#1343 = CARTESIAN_POINT ( 'NONE',  ( 40.25000000000000711, -15.00000000000000355, 11.00000000000000000 ) ) ;
#1344 = DIRECTION ( 'NONE',  ( 0.000000000000000000, 0.000000000000000000, -1.000000000000000000 ) ) ;
#1345 = PLANE ( 'NONE',  #775 ) ;
#1346 = VERTEX_POINT ( 'NONE', #377 ) ;
#1347 = DIRECTION ( 'NONE',  ( 1.000000000000000000, 0.000000000000000000, 1.387778780781445676E-16 ) ) ;
#1348 = AXIS2_PLACEMENT_3D ( 'NONE', #1156, #186, #622 ) ;
#1349 = CARTESIAN_POINT ( 'NONE',  ( -12.49999999999999467, -46.50000000000000711, 6.000000000000001776 ) ) ;
#1350 = CARTESIAN_POINT ( 'NONE',  ( -12.49999999999999467, 26.50000000000000000, 1.734723475976807094E-15 ) ) ;
#1351 = VERTEX_POINT ( 'NONE', #253 ) ;
#1352 = ADVANCED_FACE ( 'NONE', ( #476, #383, #390 ), #1135, .T. ) ;
#1353 = VECTOR ( 'NONE', #745, 1000.000000000000000 ) ;
#1354 = VERTEX_POINT ( 'NONE', #916 ) ;
#1355 = CYLINDRICAL_SURFACE ( 'NONE', #1262, 1.875000000000003331 ) ;
#1356 = ADVANCED_FACE ( 'NONE', ( #805 ), #810, .F. ) ;
#1357 = CARTESIAN_POINT ( 'NONE',  ( 3.250000000000001776, 25.49999999999997513, 0.000000000000000000 ) ) ;
#1358 = VERTEX_POINT ( 'NONE', #603 ) ;
#1359 = VECTOR ( 'NONE', #1071, 1000.000000000000000 ) ;
#1360 = LINE ( 'NONE', #94, #1290 ) ;
#1361 = VECTOR ( 'NONE', #886, 1000.000000000000000 ) ;
#1362 = ORIENTED_EDGE ( 'NONE', *, *, #1037, .T. ) ;
#1363 = EDGE_CURVE ( 'NONE', #353, #1171, #293, .T. ) ;
#1364 = PERSON_AND_ORGANIZATION ( #12, #193 ) ;
#1365 = CARTESIAN_POINT ( 'NONE',  ( -3.249999999999998668, 25.49999999999997513, 0.000000000000000000 ) ) ;
#1366 = EDGE_LOOP ( 'NONE', ( #1161, #1239, #1259, #260 ) ) ;
#1367 = VECTOR ( 'NONE', #278, 1000.000000000000000 ) ;
#1368 = CARTESIAN_POINT ( 'NONE',  ( 26.50000000000000355, -26.50000000000000711, 0.000000000000000000 ) ) ;
#1369 = ORIENTED_EDGE ( 'NONE', *, *, #153, .F. ) ;
#1370 = ADVANCED_FACE ( 'NONE', ( #1028 ), #1355, .F. ) ;
#1371 = DIRECTION ( 'NONE',  ( 0.000000000000000000, -0.000000000000000000, 1.000000000000000000 ) ) ;
#1372 = EDGE_LOOP ( 'NONE', ( #788, #773, #1376, #444 ) ) ;
#1373 = EDGE_CURVE ( 'NONE', #504, #1328, #719, .T. ) ;
#1374 = APPLICATION_PROTOCOL_DEFINITION ( 'international standard', 'config_control_design', 1994, #523 ) ;
#1375 = DIRECTION ( 'NONE',  ( 1.301042606982605074E-16, -1.000000000000000000, 0.000000000000000000 ) ) ;
#1376 = ORIENTED_EDGE ( 'NONE', *, *, #535, .F. ) ;
#1377 = VECTOR ( 'NONE', #870, 1000.000000000000000 ) ;
#1378 = DIRECTION ( 'NONE',  ( 0.000000000000000000, 0.000000000000000000, 1.000000000000000000 ) ) ;
#1379 = DIRECTION ( 'NONE',  ( -1.734723475976806848E-16, -1.000000000000000000, 0.000000000000000000 ) ) ;
#1380 = EDGE_LOOP ( 'NONE', ( #674, #985 ) ) ;
#1381 = DIRECTION ( 'NONE',  ( -0.000000000000000000, 1.000000000000000000, -0.000000000000000000 ) ) ;
#1382 = LINE ( 'NONE', #739, #994 ) ;
#1383 = ADVANCED_FACE ( 'NONE', ( #1261 ), #299, .F. ) ;
#1384 = CARTESIAN_POINT ( 'NONE',  ( -3.249999999999999556, -21.50000000000000000, -4.000000000000034639 ) ) ;
#1385 = VERTEX_POINT ( 'NONE', #639 ) ;
#1386 = CARTESIAN_POINT ( 'NONE',  ( 3.250000000000000444, -25.50000000000001421, 0.000000000000000000 ) ) ;
#1387 = EDGE_CURVE ( 'NONE', #887, #468, #840, .T. ) ;
#1388 = LINE ( 'NONE', #1285, #629 ) ;
#1389 = EDGE_CURVE ( 'NONE', #35, #1329, #631, .T. ) ;
#1390 = PERSON_AND_ORGANIZATION ( #12, #193 ) ;
#1391 = ORIENTED_EDGE ( 'NONE', *, *, #512, .T. ) ;
#1392 = CARTESIAN_POINT ( 'NONE',  ( -15.00000000000000000, -26.50000000000000711, 12.87500000000000355 ) ) ;
#1393 = AXIS2_PLACEMENT_3D ( 'NONE', #1343, #587, #934 ) ;
#1394 = EDGE_CURVE ( 'NONE', #576, #808, #1382, .T. ) ;
#1395 = ORIENTED_EDGE ( 'NONE', *, *, #1103, .T. ) ;
#1396 = CARTESIAN_POINT ( 'NONE',  ( 20.25000000000000355, -20.25000000000000355, 16.00000000000000000 ) ) ;
#1397 = DIRECTION ( 'NONE',  ( 1.000000000000000000, -0.000000000000000000, 1.387778780781445676E-16 ) ) ;
ENDSEC;
END-ISO-10303-21;
