ISO-10303-21;
HEADER;
FILE_DESCRIPTION (( 'STEP AP203' ),
    '1' );
FILE_NAME ('fix_H_flow.STEP',
    '2026-06-02T09:33:07',
    ( '' ),
    ( '' ),
    'SwSTEP 2.0',
    'SolidWorks 2020',
    '' );
FILE_SCHEMA (( 'CONFIG_CONTROL_DESIGN' ));
ENDSEC;

DATA;
#1 = CARTESIAN_POINT ( 'NONE',  ( -40.99999999999998579, 12.50000000000000000, 0.000000000000000000 ) ) ;
#2 = CARTESIAN_POINT ( 'NONE',  ( -17.09763037279003939, -17.50000000000000000, 8.500000000000000000 ) ) ;
#3 = VECTOR ( 'NONE', #145, 1000.000000000000000 ) ;
#4 = ORIENTED_EDGE ( 'NONE', *, *, #889, .T. ) ;
#5 = VERTEX_POINT ( 'NONE', #117 ) ;
#6 = ADVANCED_FACE ( 'NONE', ( #1114 ), #484, .F. ) ;
#7 = AXIS2_PLACEMENT_3D ( 'NONE', #558, #1112, #1022 ) ;
#8 = VERTEX_POINT ( 'NONE', #1025 ) ;
#9 = EDGE_CURVE ( 'NONE', #258, #776, #673, .T. ) ;
#10 = DIRECTION ( 'NONE',  ( -0.000000000000000000, 0.000000000000000000, -1.000000000000000000 ) ) ;
#11 = CARTESIAN_POINT ( 'NONE',  ( 14.49999999999999822, 11.50000000000000178, 12.50000000000001776 ) ) ;
#12 = ORIENTED_EDGE ( 'NONE', *, *, #912, .F. ) ;
#13 = ORIENTED_EDGE ( 'NONE', *, *, #414, .T. ) ;
#14 = CARTESIAN_POINT ( 'NONE',  ( -35.99999999999999289, 3.249999999999997335, 6.000000000000000000 ) ) ;
#15 = FACE_OUTER_BOUND ( 'NONE', #946, .T. ) ;
#16 = ORIENTED_EDGE ( 'NONE', *, *, #613, .F. ) ;
#17 = CARTESIAN_POINT ( 'NONE',  ( 20.99999999999999645, 12.49999999999999822, 6.000000000000000000 ) ) ;
#18 = ORIENTED_EDGE ( 'NONE', *, *, #703, .F. ) ;
#19 = CARTESIAN_POINT ( 'NONE',  ( 0.000000000000000000, 11.04309336266755182, 14.00000000000000000 ) ) ;
#20 = DIRECTION ( 'NONE',  ( -2.115516434118057154E-17, -1.000000000000000000, 0.000000000000000000 ) ) ;
#21 = EDGE_CURVE ( 'NONE', #809, #589, #480, .T. ) ;
#22 = LINE ( 'NONE', #663, #853 ) ;
#23 = LINE ( 'NONE', #836, #738 ) ;
#24 = ORIENTED_EDGE ( 'NONE', *, *, #875, .T. ) ;
#25 = VECTOR ( 'NONE', #170, 1000.000000000000114 ) ;
#26 = AXIS2_PLACEMENT_3D ( 'NONE', #955, #45, #499 ) ;
#27 = VECTOR ( 'NONE', #934, 1000.000000000000000 ) ;
#28 = LINE ( 'NONE', #746, #511 ) ;
#29 = CARTESIAN_POINT ( 'NONE',  ( 21.00000000000000000, -17.50000000000000000, 8.500000000000000000 ) ) ;
#30 = DIRECTION ( 'NONE',  ( -0.000000000000000000, 1.000000000000000000, -0.000000000000000000 ) ) ;
#31 = FACE_BOUND ( 'NONE', #1096, .T. ) ;
#32 = EDGE_CURVE ( 'NONE', #349, #1001, #111, .T. ) ;
#33 = FACE_OUTER_BOUND ( 'NONE', #1145, .T. ) ;
#34 = CARTESIAN_POINT ( 'NONE',  ( 21.00000000000000000, -12.50000000000000355, 0.000000000000000000 ) ) ;
#35 = CARTESIAN_POINT ( 'NONE',  ( -21.00000000000000000, -17.50000000000000000, 0.000000000000000000 ) ) ;
#36 = CARTESIAN_POINT ( 'NONE',  ( -35.99999999999999289, 3.249999999999997335, -6.499999999999999112 ) ) ;
#37 = DIRECTION ( 'NONE',  ( 0.000000000000000000, -1.000000000000000000, 0.000000000000000000 ) ) ;
#38 = DIRECTION ( 'NONE',  ( 0.000000000000000000, -1.000000000000000000, 0.000000000000000000 ) ) ;
#39 = DIRECTION ( 'NONE',  ( -0.000000000000000000, -0.9945218953682732899, -0.1045284632676542896 ) ) ;
#40 = LINE ( 'NONE', #17, #1120 ) ;
#41 = AXIS2_PLACEMENT_3D ( 'NONE', #710, #1068, #828 ) ;
#42 = EDGE_CURVE ( 'NONE', #1001, #954, #22, .T. ) ;
#43 = ADVANCED_FACE ( 'NONE', ( #1102 ), #1014, .T. ) ;
#44 = CARTESIAN_POINT ( 'NONE',  ( -40.99999999999998579, 12.50000000000000000, 6.000000000000000000 ) ) ;
#45 = DIRECTION ( 'NONE',  ( 1.000000000000000000, 1.982541115402065110E-16, -0.000000000000000000 ) ) ;
#46 = VECTOR ( 'NONE', #576, 1000.000000000000000 ) ;
#47 = DIRECTION ( 'NONE',  ( -0.000000000000000000, -0.000000000000000000, -1.000000000000000000 ) ) ;
#48 = CARTESIAN_POINT ( 'NONE',  ( 20.99999999999999289, 15.97406871334390921, 14.51826639334674418 ) ) ;
#49 = CARTESIAN_POINT ( 'NONE',  ( 21.00000000000000000, -17.50000000000000000, 6.000000000000000000 ) ) ;
#50 = PLANE ( 'NONE',  #323 ) ;
#51 = DIRECTION ( 'NONE',  ( -0.000000000000000000, 1.000000000000000000, 0.000000000000000000 ) ) ;
#52 = EDGE_LOOP ( 'NONE', ( #69, #1104, #364, #628 ) ) ;
#53 = PERSON_AND_ORGANIZATION ( #990, #477 ) ;
#54 = DIRECTION ( 'NONE',  ( 0.000000000000000000, 1.000000000000000000, -0.000000000000000000 ) ) ;
#55 = CARTESIAN_POINT ( 'NONE',  ( 20.99999999999999289, 11.50000000000000000, 8.500000000000000000 ) ) ;
#56 = EDGE_CURVE ( 'NONE', #769, #918, #289, .T. ) ;
#57 = ORIENTED_EDGE ( 'NONE', *, *, #756, .T. ) ;
#58 = ORIENTED_EDGE ( 'NONE', *, *, #768, .F. ) ;
#59 = VECTOR ( 'NONE', #952, 1000.000000000000000 ) ;
#60 = DIRECTION ( 'NONE',  ( -0.000000000000000000, 0.000000000000000000, -1.000000000000000000 ) ) ;
#61 = LINE ( 'NONE', #1033, #3 ) ;
#62 = VECTOR ( 'NONE', #486, 1000.000000000000000 ) ;
#63 = EDGE_LOOP ( 'NONE', ( #692, #783, #546, #73 ) ) ;
#64 = ORIENTED_EDGE ( 'NONE', *, *, #525, .F. ) ;
#65 =( LENGTH_UNIT ( ) NAMED_UNIT ( * ) SI_UNIT ( .MILLI., .METRE. ) );
#66 = DIRECTION ( 'NONE',  ( 0.7071067811865483499, 0.000000000000000000, 0.7071067811865466846 ) ) ;
#67 = LINE ( 'NONE', #1052, #661 ) ;
#68 = VERTEX_POINT ( 'NONE', #488 ) ;
#69 = ORIENTED_EDGE ( 'NONE', *, *, #494, .F. ) ;
#70 = COORDINATED_UNIVERSAL_TIME_OFFSET ( 1, 0, .AHEAD. ) ;
#71 = CARTESIAN_POINT ( 'NONE',  ( -21.00000000000000000, -17.50000000000000000, 0.000000000000000000 ) ) ;
#72 = DIRECTION ( 'NONE',  ( 0.7071067811865466846, -0.000000000000000000, -0.7071067811865483499 ) ) ;
#73 = ORIENTED_EDGE ( 'NONE', *, *, #565, .T. ) ;
#74 = VERTEX_POINT ( 'NONE', #399 ) ;
#75 = EDGE_CURVE ( 'NONE', #86, #904, #649, .T. ) ;
#76 = EDGE_CURVE ( 'NONE', #556, #879, #570, .T. ) ;
#77 = VECTOR ( 'NONE', #406, 1000.000000000000000 ) ;
#78 = DIRECTION ( 'NONE',  ( 1.000000000000000000, 0.000000000000000000, 0.000000000000000000 ) ) ;
#79 = DIRECTION ( 'NONE',  ( -0.000000000000000000, -0.000000000000000000, 1.000000000000000000 ) ) ;
#80 = ORIENTED_EDGE ( 'NONE', *, *, #168, .T. ) ;
#81 = PRODUCT_DEFINITION_FORMATION_WITH_SPECIFIED_SOURCE ( 'ANY', '', #448, .NOT_KNOWN. ) ;
#82 = AXIS2_PLACEMENT_3D ( 'NONE', #748, #1109, #829 ) ;
#83 = ORIENTED_EDGE ( 'NONE', *, *, #750, .T. ) ;
#84 = PLANE ( 'NONE',  #1078 ) ;
#85 = DIRECTION ( 'NONE',  ( 0.000000000000000000, -0.000000000000000000, 1.000000000000000000 ) ) ;
#86 = VERTEX_POINT ( 'NONE', #384 ) ;
#87 = EDGE_CURVE ( 'NONE', #985, #679, #219, .T. ) ;
#88 = ORIENTED_EDGE ( 'NONE', *, *, #591, .T. ) ;
#89 = CARTESIAN_POINT ( 'NONE',  ( -25.99999999999998934, -3.250000000000002665, 6.000000000000000000 ) ) ;
#90 = DIRECTION ( 'NONE',  ( 2.775557561562891351E-16, 1.000000000000000000, -0.000000000000000000 ) ) ;
#91 = VERTEX_POINT ( 'NONE', #762 ) ;
#92 = ORIENTED_EDGE ( 'NONE', *, *, #459, .T. ) ;
#93 = ORIENTED_EDGE ( 'NONE', *, *, #945, .T. ) ;
#94 = LINE ( 'NONE', #14, #834 ) ;
#95 = DIRECTION ( 'NONE',  ( 0.000000000000000000, 1.000000000000000000, 0.000000000000000000 ) ) ;
#96 = VECTOR ( 'NONE', #332, 1000.000000000000000 ) ;
#97 = ORIENTED_EDGE ( 'NONE', *, *, #1049, .F. ) ;
#98 = ORIENTED_EDGE ( 'NONE', *, *, #542, .F. ) ;
#99 = VECTOR ( 'NONE', #112, 1000.000000000000000 ) ;
#100 = CARTESIAN_POINT ( 'NONE',  ( -40.99999999999998579, -12.50000000000000178, 6.000000000000000000 ) ) ;
#101 = DIRECTION ( 'NONE',  ( 1.982541115402065110E-16, -1.000000000000000000, 0.000000000000000000 ) ) ;
#102 = ORIENTED_EDGE ( 'NONE', *, *, #837, .T. ) ;
#103 = ORIENTED_EDGE ( 'NONE', *, *, #612, .T. ) ;
#104 = LINE ( 'NONE', #1027, #666 ) ;
#105 = PLANE ( 'NONE',  #1056 ) ;
#106 = ORIENTED_EDGE ( 'NONE', *, *, #681, .T. ) ;
#107 = DIRECTION ( 'NONE',  ( 1.000000000000000000, 0.000000000000000000, 0.000000000000000000 ) ) ;
#108 = CARTESIAN_POINT ( 'NONE',  ( 35.99999999999999289, -3.250000000000002665, 6.000000000000000000 ) ) ;
#109 = CARTESIAN_POINT ( 'NONE',  ( -21.00000000000000711, 11.50000000000000000, 8.500000000000000000 ) ) ;
#110 = EDGE_CURVE ( 'NONE', #415, #266, #201, .T. ) ;
#111 = LINE ( 'NONE', #35, #226 ) ;
#112 = DIRECTION ( 'NONE',  ( -0.000000000000000000, -0.000000000000000000, -1.000000000000000000 ) ) ;
#113 = VECTOR ( 'NONE', #483, 1000.000000000000114 ) ;
#114 = VECTOR ( 'NONE', #840, 1000.000000000000000 ) ;
#115 = CARTESIAN_POINT ( 'NONE',  ( -21.00000000000000711, 17.50000000000000000, 6.000000000000000000 ) ) ;
#116 = LINE ( 'NONE', #839, #304 ) ;
#117 = CARTESIAN_POINT ( 'NONE',  ( -21.00000000000000711, 17.50000000000000000, 0.000000000000000000 ) ) ;
#118 = CARTESIAN_POINT ( 'NONE',  ( 20.99999999999999289, 17.50000000000000000, 0.000000000000000000 ) ) ;
#119 = EDGE_CURVE ( 'NONE', #266, #995, #474, .T. ) ;
#120 = LINE ( 'NONE', #848, #362 ) ;
#121 = PLANE ( 'NONE',  #472 ) ;
#122 = CARTESIAN_POINT ( 'NONE',  ( -14.50000000000000178, 11.04309336266755182, 14.00000000000000000 ) ) ;
#123 = CARTESIAN_POINT ( 'NONE',  ( 41.00000000000002132, 12.49999999999999822, 6.000000000000000000 ) ) ;
#124 = ADVANCED_FACE ( 'NONE', ( #467 ), #1121, .T. ) ;
#125 = ADVANCED_FACE ( 'NONE', ( #206 ), #1126, .T. ) ;
#126 = LINE ( 'NONE', #19, #62 ) ;
#127 = CARTESIAN_POINT ( 'NONE',  ( -40.99999999999998579, 12.50000000000000000, 0.000000000000000000 ) ) ;
#128 = ORIENTED_EDGE ( 'NONE', *, *, #768, .T. ) ;
#129 = CARTESIAN_POINT ( 'NONE',  ( 21.00000000000000000, -12.50000000000000533, 6.000000000000000000 ) ) ;
#130 = CARTESIAN_POINT ( 'NONE',  ( -21.00000000000000711, 17.50000000000000000, 14.00000000000000000 ) ) ;
#131 = VECTOR ( 'NONE', #481, 1000.000000000000000 ) ;
#132 = LOCAL_TIME ( 11, 33, 7.000000000000000000, #218 ) ;
#133 = CARTESIAN_POINT ( 'NONE',  ( -35.99999999999999289, -3.250000000000002665, 6.000000000000000000 ) ) ;
#134 = VECTOR ( 'NONE', #598, 1000.000000000000000 ) ;
#135 = DIRECTION ( 'NONE',  ( 0.000000000000000000, -0.000000000000000000, -1.000000000000000000 ) ) ;
#136 = CARTESIAN_POINT ( 'NONE',  ( -21.00000000000000000, -17.50000000000000000, 0.000000000000000000 ) ) ;
#137 = VERTEX_POINT ( 'NONE', #129 ) ;
#138 = FACE_OUTER_BOUND ( 'NONE', #884, .T. ) ;
#139 = EDGE_CURVE ( 'NONE', #825, #328, #580, .T. ) ;
#140 = PLANE ( 'NONE',  #1155 ) ;
#141 = FACE_OUTER_BOUND ( 'NONE', #63, .T. ) ;
#142 = VERTEX_POINT ( 'NONE', #238 ) ;
#143 = ORIENTED_EDGE ( 'NONE', *, *, #298, .T. ) ;
#144 = CARTESIAN_POINT ( 'NONE',  ( 35.99999999999999289, 3.249999999999997335, -6.499999999999999112 ) ) ;
#145 = DIRECTION ( 'NONE',  ( 0.000000000000000000, 1.000000000000000000, 0.000000000000000000 ) ) ;
#146 = EDGE_CURVE ( 'NONE', #401, #328, #791, .T. ) ;
#147 = ORIENTED_EDGE ( 'NONE', *, *, #473, .F. ) ;
#148 = ORIENTED_EDGE ( 'NONE', *, *, #443, .T. ) ;
#149 = VECTOR ( 'NONE', #72, 1000.000000000000000 ) ;
#150 = CC_DESIGN_PERSON_AND_ORGANIZATION_ASSIGNMENT ( #880, #429, ( #944 ) ) ;
#151 = DIRECTION ( 'NONE',  ( 0.000000000000000000, -1.000000000000000000, 0.000000000000000000 ) ) ;
#152 = DIRECTION ( 'NONE',  ( 1.000000000000000000, 5.981805089575197430E-17, 0.000000000000000000 ) ) ;
#153 = VECTOR ( 'NONE', #1030, 1000.000000000000000 ) ;
#154 = ORIENTED_EDGE ( 'NONE', *, *, #422, .T. ) ;
#155 = ORIENTED_EDGE ( 'NONE', *, *, #624, .F. ) ;
#156 = DIRECTION ( 'NONE',  ( -0.000000000000000000, 0.000000000000000000, 1.000000000000000000 ) ) ;
#157 = DIRECTION ( 'NONE',  ( -0.000000000000000000, 0.9945218953682732899, 0.1045284632676542896 ) ) ;
#158 = ORIENTED_EDGE ( 'NONE', *, *, #744, .F. ) ;
#159 = ADVANCED_FACE ( 'NONE', ( #856 ), #227, .T. ) ;
#160 = EDGE_CURVE ( 'NONE', #367, #427, #587, .T. ) ;
#161 = ORIENTED_EDGE ( 'NONE', *, *, #713, .F. ) ;
#162 = DIRECTION ( 'NONE',  ( -2.115516434118057154E-17, -1.000000000000000000, 0.000000000000000000 ) ) ;
#163 = CARTESIAN_POINT ( 'NONE',  ( 20.99999999999999289, 17.50000000000000000, 0.000000000000000000 ) ) ;
#164 = ORIENTED_EDGE ( 'NONE', *, *, #966, .F. ) ;
#165 = ORIENTED_EDGE ( 'NONE', *, *, #473, .T. ) ;
#166 = APPROVAL_DATE_TIME ( #357, #900 ) ;
#167 = VECTOR ( 'NONE', #702, 1000.000000000000000 ) ;
#168 = EDGE_CURVE ( 'NONE', #634, #510, #1051, .T. ) ;
#169 = DIRECTION ( 'NONE',  ( 0.000000000000000000, 1.000000000000000000, 0.000000000000000000 ) ) ;
#170 = DIRECTION ( 'NONE',  ( 0.5446390350150248638, 0.000000000000000000, 0.8386705679454256046 ) ) ;
#171 = ORIENTED_EDGE ( 'NONE', *, *, #842, .F. ) ;
#172 = VERTEX_POINT ( 'NONE', #865 ) ;
#173 = VECTOR ( 'NONE', #225, 1000.000000000000000 ) ;
#174 = VECTOR ( 'NONE', #770, 1000.000000000000000 ) ;
#175 = ORIENTED_EDGE ( 'NONE', *, *, #624, .T. ) ;
#176 = ADVANCED_FACE ( 'NONE', ( #1129 ), #50, .F. ) ;
#177 = EDGE_CURVE ( 'NONE', #5, #574, #418, .T. ) ;
#178 = CARTESIAN_POINT ( 'NONE',  ( 21.00000000000000355, -12.50000000000000178, 6.000000000000000000 ) ) ;
#179 = CARTESIAN_POINT ( 'NONE',  ( 20.99999999999999289, 17.50000000000000000, 14.00000000000000000 ) ) ;
#180 = VERTEX_POINT ( 'NONE', #500 ) ;
#181 = VERTEX_POINT ( 'NONE', #1148 ) ;
#182 = ORIENTED_EDGE ( 'NONE', *, *, #1004, .F. ) ;
#183 = SHAPE_DEFINITION_REPRESENTATION ( #539, #295 ) ;
#184 = PLANE ( 'NONE',  #680 ) ;
#185 = LINE ( 'NONE', #1090, #25 ) ;
#186 = ORIENTED_EDGE ( 'NONE', *, *, #837, .F. ) ;
#187 = ORIENTED_EDGE ( 'NONE', *, *, #1169, .F. ) ;
#188 = DIRECTION ( 'NONE',  ( 1.000000000000000000, 5.981805089575197430E-17, 0.000000000000000000 ) ) ;
#189 = CARTESIAN_POINT ( 'NONE',  ( 25.99999999999998934, 3.249999999999997335, 6.000000000000019540 ) ) ;
#190 = EDGE_LOOP ( 'NONE', ( #627, #327, #229, #272 ) ) ;
#191 = ORIENTED_EDGE ( 'NONE', *, *, #210, .T. ) ;
#192 = DIRECTION ( 'NONE',  ( 0.000000000000000000, 0.000000000000000000, 1.000000000000000000 ) ) ;
#193 = PLANE ( 'NONE',  #963 ) ;
#194 = ORIENTED_EDGE ( 'NONE', *, *, #542, .T. ) ;
#195 = DIRECTION ( 'NONE',  ( 0.000000000000000000, 1.000000000000000000, 0.000000000000000000 ) ) ;
#196 = EDGE_LOOP ( 'NONE', ( #911, #816, #164, #1053 ) ) ;
#197 = ADVANCED_FACE ( 'NONE', ( #701 ), #425, .F. ) ;
#198 = EDGE_CURVE ( 'NONE', #683, #543, #243, .T. ) ;
#199 = DIRECTION ( 'NONE',  ( 1.982541115402065110E-16, -1.000000000000000000, 0.000000000000000000 ) ) ;
#200 = CARTESIAN_POINT ( 'NONE',  ( 17.09763037279003584, 0.000000000000000000, 8.500000000000000000 ) ) ;
#201 = LINE ( 'NONE', #122, #584 ) ;
#202 = LINE ( 'NONE', #207, #700 ) ;
#203 = LINE ( 'NONE', #478, #416 ) ;
#204 = CARTESIAN_POINT ( 'NONE',  ( -40.99999999999998579, -12.50000000000000178, 6.000000000000000000 ) ) ;
#205 = ADVANCED_FACE ( 'NONE', ( #766 ), #951, .F. ) ;
#206 = FACE_OUTER_BOUND ( 'NONE', #651, .T. ) ;
#207 = CARTESIAN_POINT ( 'NONE',  ( -21.00000000000000000, -17.50000000000000000, 8.500000000000000000 ) ) ;
#208 = CARTESIAN_POINT ( 'NONE',  ( 15.47411138979627410, -17.50000000000000000, 10.99999999999999467 ) ) ;
#209 = LINE ( 'NONE', #294, #1134 ) ;
#210 = EDGE_CURVE ( 'NONE', #86, #91, #336, .T. ) ;
#211 = EDGE_CURVE ( 'NONE', #266, #879, #1055, .T. ) ;
#212 = CARTESIAN_POINT ( 'NONE',  ( 41.00000000000002132, 12.49999999999999822, 6.000000000000000000 ) ) ;
#213 = CARTESIAN_POINT ( 'NONE',  ( 21.00000000000000000, -17.50000000000000000, 10.99999999999999822 ) ) ;
#214 = CARTESIAN_POINT ( 'NONE',  ( -21.00000000000000000, -12.50000000000000355, 0.000000000000000000 ) ) ;
#215 = LINE ( 'NONE', #133, #739 ) ;
#216 = DIRECTION ( 'NONE',  ( 0.000000000000000000, -1.000000000000000000, -0.000000000000000000 ) ) ;
#217 = LINE ( 'NONE', #36, #46 ) ;
#218 = COORDINATED_UNIVERSAL_TIME_OFFSET ( 1, 0, .AHEAD. ) ;
#219 = LINE ( 'NONE', #846, #27 ) ;
#220 = CARTESIAN_POINT ( 'NONE',  ( -35.99999999999999289, -3.250000000000002665, -6.499999999999999112 ) ) ;
#221 = VECTOR ( 'NONE', #79, 1000.000000000000000 ) ;
#222 = ADVANCED_FACE ( 'NONE', ( #605 ), #140, .T. ) ;
#223 = ORIENTED_EDGE ( 'NONE', *, *, #329, .T. ) ;
#224 = VECTOR ( 'NONE', #751, 1000.000000000000000 ) ;
#225 = DIRECTION ( 'NONE',  ( 1.000000000000000000, 0.000000000000000000, 0.000000000000000000 ) ) ;
#226 = VECTOR ( 'NONE', #302, 1000.000000000000000 ) ;
#227 = PLANE ( 'NONE',  #382 ) ;
#228 = DIRECTION ( 'NONE',  ( 1.000000000000000000, 0.000000000000000000, 0.000000000000000000 ) ) ;
#229 = ORIENTED_EDGE ( 'NONE', *, *, #387, .F. ) ;
#230 = ORIENTED_EDGE ( 'NONE', *, *, #355, .T. ) ;
#231 = ADVANCED_FACE ( 'NONE', ( #1038 ), #689, .F. ) ;
#232 = FACE_OUTER_BOUND ( 'NONE', #536, .T. ) ;
#233 = LINE ( 'NONE', #606, #883 ) ;
#234 = ORIENTED_EDGE ( 'NONE', *, *, #613, .T. ) ;
#235 = CC_DESIGN_DATE_AND_TIME_ASSIGNMENT ( #765, #789, ( #896 ) ) ;
#236 = ORIENTED_EDGE ( 'NONE', *, *, #965, .T. ) ;
#237 = PLANE ( 'NONE',  #26 ) ;
#238 = CARTESIAN_POINT ( 'NONE',  ( 25.99999999999998934, -3.250000000000002665, 6.000000000000000000 ) ) ;
#239 = DIRECTION ( 'NONE',  ( 0.000000000000000000, -1.000000000000000000, 0.000000000000000000 ) ) ;
#240 = ORIENTED_EDGE ( 'NONE', *, *, #459, .F. ) ;
#241 = ORIENTED_EDGE ( 'NONE', *, *, #927, .T. ) ;
#242 = AXIS2_PLACEMENT_3D ( 'NONE', #792, #1166, #882 ) ;
#243 = LINE ( 'NONE', #784, #797 ) ;
#244 = CARTESIAN_POINT ( 'NONE',  ( 20.99999999999999289, 17.50000000000000000, 14.00000000000000000 ) ) ;
#245 = ADVANCED_FACE ( 'NONE', ( #430 ), #1135, .F. ) ;
#246 = VECTOR ( 'NONE', #838, 1000.000000000000000 ) ;
#247 = ADVANCED_FACE ( 'NONE', ( #232 ), #593, .F. ) ;
#248 = ORIENTED_EDGE ( 'NONE', *, *, #826, .F. ) ;
#249 = ORIENTED_EDGE ( 'NONE', *, *, #56, .F. ) ;
#250 = CARTESIAN_POINT ( 'NONE',  ( -40.99999999999998579, 12.50000000000000000, 6.000000000000000000 ) ) ;
#251 = LINE ( 'NONE', #163, #924 ) ;
#252 = ORIENTED_EDGE ( 'NONE', *, *, #146, .T. ) ;
#253 = ORIENTED_EDGE ( 'NONE', *, *, #1016, .T. ) ;
#254 = DATE_AND_TIME ( #447, #285 ) ;
#255 = FACE_OUTER_BOUND ( 'NONE', #717, .T. ) ;
#256 = DIRECTION ( 'NONE',  ( -1.000000000000000000, 0.000000000000000000, 0.000000000000000000 ) ) ;
#257 = EDGE_LOOP ( 'NONE', ( #706, #800, #88, #158 ) ) ;
#258 = VERTEX_POINT ( 'NONE', #89 ) ;
#259 = ADVANCED_FACE ( 'NONE', ( #269 ), #84, .F. ) ;
#260 = CALENDAR_DATE ( 2026, 2, 6 ) ;
#261 = AXIS2_PLACEMENT_3D ( 'NONE', #549, #20, #1093 ) ;
#262 = CARTESIAN_POINT ( 'NONE',  ( -21.00000000000000711, 12.50000000000000000, 6.000000000000000000 ) ) ;
#263 = DIRECTION ( 'NONE',  ( 0.000000000000000000, -1.000000000000000000, 0.000000000000000000 ) ) ;
#264 = ORIENTED_EDGE ( 'NONE', *, *, #299, .T. ) ;
#265 = VECTOR ( 'NONE', #192, 1000.000000000000000 ) ;
#266 = VERTEX_POINT ( 'NONE', #520 ) ;
#267 = VECTOR ( 'NONE', #512, 1000.000000000000000 ) ;
#268 = ORIENTED_EDGE ( 'NONE', *, *, #630, .F. ) ;
#269 = FACE_OUTER_BOUND ( 'NONE', #820, .T. ) ;
#270 = PLANE ( 'NONE',  #41 ) ;
#271 = ORIENTED_EDGE ( 'NONE', *, *, #668, .T. ) ;
#272 = ORIENTED_EDGE ( 'NONE', *, *, #740, .T. ) ;
#273 = LINE ( 'NONE', #998, #551 ) ;
#274 = LINE ( 'NONE', #992, #564 ) ;
#275 = ORIENTED_EDGE ( 'NONE', *, *, #421, .F. ) ;
#276 = ORIENTED_EDGE ( 'NONE', *, *, #703, .T. ) ;
#277 = APPLICATION_CONTEXT ( 'configuration controlled 3d designs of mechanical parts and assemblies' ) ;
#278 = CARTESIAN_POINT ( 'NONE',  ( -17.09763037279003939, -17.50000000000000000, 8.500000000000000000 ) ) ;
#279 = CARTESIAN_POINT ( 'NONE',  ( 5.212522231367228365, 11.50000000000000178, 26.80146161812453798 ) ) ;
#280 = ADVANCED_FACE ( 'NONE', ( #455 ), #184, .F. ) ;
#281 = ORIENTED_EDGE ( 'NONE', *, *, #1034, .F. ) ;
#282 = CARTESIAN_POINT ( 'NONE',  ( -40.99999999999998579, 12.50000000000000000, 0.000000000000000000 ) ) ;
#283 = EDGE_CURVE ( 'NONE', #809, #428, #811, .T. ) ;
#284 = AXIS2_PLACEMENT_3D ( 'NONE', #123, #1103, #290 ) ;
#285 = LOCAL_TIME ( 11, 33, 7.000000000000000000, #70 ) ;
#286 = AXIS2_PLACEMENT_3D ( 'NONE', #778, #609, #135 ) ;
#287 = DIRECTION ( 'NONE',  ( 1.982541115402065110E-16, -1.000000000000000000, 0.000000000000000000 ) ) ;
#288 = DIRECTION ( 'NONE',  ( -1.000000000000000000, 0.000000000000000000, -0.000000000000000000 ) ) ;
#289 = LINE ( 'NONE', #1029, #1099 ) ;
#290 = DIRECTION ( 'NONE',  ( -2.775557561562890858E-16, -1.000000000000000000, 0.000000000000000000 ) ) ;
#291 = ORIENTED_EDGE ( 'NONE', *, *, #1161, .F. ) ;
#292 = EDGE_CURVE ( 'NONE', #776, #960, #632, .T. ) ;
#293 = LINE ( 'NONE', #733, #153 ) ;
#294 = CARTESIAN_POINT ( 'NONE',  ( -21.00000000000000000, -12.50000000000000178, 6.000000000000000000 ) ) ;
#295 = ADVANCED_BREP_SHAPE_REPRESENTATION ( 'fix_H_flow', ( #665, #526 ), #986 ) ;
#296 = CARTESIAN_POINT ( 'NONE',  ( -14.50000000000000178, 11.50000000000000000, 14.00000000000000000 ) ) ;
#297 = PLANE ( 'NONE',  #943 ) ;
#298 = EDGE_CURVE ( 'NONE', #782, #635, #721, .T. ) ;
#299 = EDGE_CURVE ( 'NONE', #960, #8, #94, .T. ) ;
#300 = CARTESIAN_POINT ( 'NONE',  ( 21.00000000000000000, -17.50000000000000000, 0.000000000000000000 ) ) ;
#301 = FACE_OUTER_BOUND ( 'NONE', #345, .T. ) ;
#302 = DIRECTION ( 'NONE',  ( 0.000000000000000000, 0.000000000000000000, 1.000000000000000000 ) ) ;
#303 = PLANE ( 'NONE',  #604 ) ;
#304 = VECTOR ( 'NONE', #920, 1000.000000000000000 ) ;
#305 = AXIS2_PLACEMENT_3D ( 'NONE', #859, #970, #410 ) ;
#306 = DIRECTION ( 'NONE',  ( 1.982541115402065110E-16, -1.000000000000000000, 0.000000000000000000 ) ) ;
#307 = DIRECTION ( 'NONE',  ( 0.000000000000000000, 0.000000000000000000, 1.000000000000000000 ) ) ;
#308 = CARTESIAN_POINT ( 'NONE',  ( 35.99999999999999289, 3.249999999999997335, -6.499999999999999112 ) ) ;
#309 = DIRECTION ( 'NONE',  ( 1.000000000000000000, 1.982541115402065110E-16, -0.000000000000000000 ) ) ;
#310 = DATE_AND_TIME ( #1028, #491 ) ;
#311 = ORIENTED_EDGE ( 'NONE', *, *, #87, .T. ) ;
#312 = DIRECTION ( 'NONE',  ( 2.392722035830078972E-16, -1.000000000000000000, -0.000000000000000000 ) ) ;
#313 = LINE ( 'NONE', #398, #173 ) ;
#314 = CARTESIAN_POINT ( 'NONE',  ( -14.50000000000000178, 11.50000000000000000, 12.50000000000001776 ) ) ;
#315 = PLANE ( 'NONE',  #866 ) ;
#316 = ORIENTED_EDGE ( 'NONE', *, *, #76, .F. ) ;
#317 = VECTOR ( 'NONE', #342, 1000.000000000000000 ) ;
#318 = EDGE_CURVE ( 'NONE', #532, #86, #370, .T. ) ;
#319 = ORIENTED_EDGE ( 'NONE', *, *, #744, .T. ) ;
#320 = VECTOR ( 'NONE', #625, 1000.000000000000000 ) ;
#321 = VECTOR ( 'NONE', #151, 1000.000000000000000 ) ;
#322 = DIRECTION ( 'NONE',  ( 1.000000000000000000, 0.000000000000000000, 0.000000000000000000 ) ) ;
#323 = AXIS2_PLACEMENT_3D ( 'NONE', #405, #66, #54 ) ;
#324 = CARTESIAN_POINT ( 'NONE',  ( -40.99999999999998579, -12.50000000000000178, 6.000000000000000000 ) ) ;
#325 = FACE_BOUND ( 'NONE', #354, .T. ) ;
#326 = CC_DESIGN_DATE_AND_TIME_ASSIGNMENT ( #708, #979, ( #944 ) ) ;
#327 = ORIENTED_EDGE ( 'NONE', *, *, #927, .F. ) ;
#328 = VERTEX_POINT ( 'NONE', #1165 ) ;
#329 = EDGE_CURVE ( 'NONE', #729, #776, #730, .T. ) ;
#330 = DIRECTION ( 'NONE',  ( -0.000000000000000000, 0.000000000000000000, 1.000000000000000000 ) ) ;
#331 = DIRECTION ( 'NONE',  ( 0.000000000000000000, -1.000000000000000000, 0.000000000000000000 ) ) ;
#332 = DIRECTION ( 'NONE',  ( -1.000000000000000000, -0.000000000000000000, -0.000000000000000000 ) ) ;
#333 = ORIENTED_EDGE ( 'NONE', *, *, #198, .F. ) ;
#334 = ORIENTED_EDGE ( 'NONE', *, *, #788, .T. ) ;
#335 = EDGE_CURVE ( 'NONE', #137, #977, #901, .T. ) ;
#336 = LINE ( 'NONE', #694, #682 ) ;
#337 = CARTESIAN_POINT ( 'NONE',  ( 0.000000000000000000, 0.000000000000000000, 0.000000000000000000 ) ) ;
#338 = ORIENTED_EDGE ( 'NONE', *, *, #681, .F. ) ;
#339 = ORIENTED_EDGE ( 'NONE', *, *, #949, .T. ) ;
#340 = AXIS2_PLACEMENT_3D ( 'NONE', #617, #980, #169 ) ;
#341 = CARTESIAN_POINT ( 'NONE',  ( -21.00000000000000711, 17.50000000000000000, 0.000000000000000000 ) ) ;
#342 = DIRECTION ( 'NONE',  ( -1.000000000000000000, 0.000000000000000000, 0.000000000000000000 ) ) ;
#343 = VECTOR ( 'NONE', #47, 1000.000000000000000 ) ;
#344 = ORIENTED_EDGE ( 'NONE', *, *, #577, .T. ) ;
#345 = EDGE_LOOP ( 'NONE', ( #12, #1164, #910, #1157, #171 ) ) ;
#346 = PERSON_AND_ORGANIZATION ( #990, #477 ) ;
#347 = DIRECTION ( 'NONE',  ( 0.000000000000000000, -1.000000000000000000, 0.000000000000000000 ) ) ;
#348 = LINE ( 'NONE', #528, #581 ) ;
#349 = VERTEX_POINT ( 'NONE', #1092 ) ;
#350 = EDGE_CURVE ( 'NONE', #1084, #916, #436, .T. ) ;
#351 = ORIENTED_EDGE ( 'NONE', *, *, #704, .F. ) ;
#352 = CARTESIAN_POINT ( 'NONE',  ( 25.99999999999998934, 3.249999999999997335, 6.000000000000019540 ) ) ;
#353 = FACE_OUTER_BOUND ( 'NONE', #524, .T. ) ;
#354 = EDGE_LOOP ( 'NONE', ( #1064, #253, #175, #102 ) ) ;
#355 = EDGE_CURVE ( 'NONE', #904, #1060, #894, .T. ) ;
#356 = ORIENTED_EDGE ( 'NONE', *, *, #788, .F. ) ;
#357 = DATE_AND_TIME ( #997, #705 ) ;
#358 = VECTOR ( 'NONE', #535, 1000.000000000000000 ) ;
#359 = CARTESIAN_POINT ( 'NONE',  ( -35.99999999999999289, 3.249999999999997335, 6.000000000000000000 ) ) ;
#360 = CARTESIAN_POINT ( 'NONE',  ( -21.00000000000000000, -17.50000000000000000, 10.99999999999999822 ) ) ;
#361 = EDGE_LOOP ( 'NONE', ( #338, #725, #503, #1065, #959 ) ) ;
#362 = VECTOR ( 'NONE', #375, 1000.000000000000000 ) ;
#363 = EDGE_LOOP ( 'NONE', ( #64, #464, #886, #728, #603, #1077, #686, #93, #1071 ) ) ;
#364 = ORIENTED_EDGE ( 'NONE', *, *, #565, .F. ) ;
#365 = DIRECTION ( 'NONE',  ( 1.000000000000000000, -2.115516434118057154E-17, 0.000000000000000000 ) ) ;
#366 = PLANE ( 'NONE',  #523 ) ;
#367 = VERTEX_POINT ( 'NONE', #449 ) ;
#368 = EDGE_CURVE ( 'NONE', #807, #172, #273, .T. ) ;
#369 = EDGE_CURVE ( 'NONE', #556, #769, #1002, .T. ) ;
#370 = LINE ( 'NONE', #540, #320 ) ;
#371 = LINE ( 'NONE', #1113, #1097 ) ;
#372 = VERTEX_POINT ( 'NONE', #709 ) ;
#373 = DIRECTION ( 'NONE',  ( 0.000000000000000000, 0.000000000000000000, 1.000000000000000000 ) ) ;
#374 = ORIENTED_EDGE ( 'NONE', *, *, #283, .F. ) ;
#375 = DIRECTION ( 'NONE',  ( -1.000000000000000000, -0.000000000000000000, -0.000000000000000000 ) ) ;
#376 = LINE ( 'NONE', #909, #905 ) ;
#377 = VECTOR ( 'NONE', #90, 1000.000000000000000 ) ;
#378 = VERTEX_POINT ( 'NONE', #1067 ) ;
#379 = FACE_OUTER_BOUND ( 'NONE', #363, .T. ) ;
#380 = EDGE_LOOP ( 'NONE', ( #1131, #712, #590, #806, #194, #374, #92, #182, #24 ) ) ;
#381 = ADVANCED_FACE ( 'NONE', ( #255 ), #548, .T. ) ;
#382 = AXIS2_PLACEMENT_3D ( 'NONE', #144, #962, #156 ) ;
#383 = DIRECTION ( 'NONE',  ( -0.000000000000000000, -1.000000000000000000, -0.000000000000000000 ) ) ;
#384 = CARTESIAN_POINT ( 'NONE',  ( 41.00000000000002132, 12.49999999999999822, 6.000000000000000000 ) ) ;
#385 = FACE_OUTER_BOUND ( 'NONE', #522, .T. ) ;
#386 = ADVANCED_FACE ( 'NONE', ( #527 ), #890, .T. ) ;
#387 = EDGE_CURVE ( 'NONE', #1005, #743, #1073, .T. ) ;
#388 = LINE ( 'NONE', #108, #246 ) ;
#389 = PLANE ( 'NONE',  #831 ) ;
#390 = CARTESIAN_POINT ( 'NONE',  ( 0.000000000000000000, 0.000000000000000000, 14.00000000000000000 ) ) ;
#391 = LINE ( 'NONE', #931, #131 ) ;
#392 = CARTESIAN_POINT ( 'NONE',  ( 20.99999999999999289, 12.50000000000000000, 0.000000000000000000 ) ) ;
#393 = DIRECTION ( 'NONE',  ( -0.000000000000000000, -0.000000000000000000, -1.000000000000000000 ) ) ;
#394 = LINE ( 'NONE', #282, #458 ) ;
#395 = VECTOR ( 'NONE', #1039, 1000.000000000000114 ) ;
#396 = VECTOR ( 'NONE', #287, 1000.000000000000000 ) ;
#397 = FACE_OUTER_BOUND ( 'NONE', #380, .T. ) ;
#398 = CARTESIAN_POINT ( 'NONE',  ( -21.00000000000000000, -17.50000000000000000, 8.500000000000000000 ) ) ;
#399 = CARTESIAN_POINT ( 'NONE',  ( 41.00000000000001421, -12.50000000000000178, 0.000000000000000000 ) ) ;
#400 = CARTESIAN_POINT ( 'NONE',  ( -25.99999999999998934, 3.249999999999997335, 6.000000000000000000 ) ) ;
#401 = VERTEX_POINT ( 'NONE', #482 ) ;
#402 = APPROVAL_ROLE ( '' ) ;
#403 = EDGE_CURVE ( 'NONE', #531, #635, #104, .T. ) ;
#404 = EDGE_CURVE ( 'NONE', #868, #782, #914, .T. ) ;
#405 = CARTESIAN_POINT ( 'NONE',  ( -19.99999999999998224, 0.000000000000000000, 0.000000000000000000 ) ) ;
#406 = DIRECTION ( 'NONE',  ( -2.392722035830078972E-16, 1.000000000000000000, 0.000000000000000000 ) ) ;
#407 = CC_DESIGN_PERSON_AND_ORGANIZATION_ASSIGNMENT ( #672, #1031, ( #896 ) ) ;
#408 = ORIENTED_EDGE ( 'NONE', *, *, #56, .T. ) ;
#409 = DIRECTION ( 'NONE',  ( 0.000000000000000000, 0.000000000000000000, 1.000000000000000000 ) ) ;
#410 = DIRECTION ( 'NONE',  ( 0.000000000000000000, 0.000000000000000000, -1.000000000000000000 ) ) ;
#411 = PLANE ( 'NONE',  #718 ) ;
#412 = EDGE_LOOP ( 'NONE', ( #161, #423, #147, #600 ) ) ;
#413 = VECTOR ( 'NONE', #312, 1000.000000000000000 ) ;
#414 = EDGE_CURVE ( 'NONE', #825, #514, #203, .T. ) ;
#415 = VERTEX_POINT ( 'NONE', #562 ) ;
#416 = VECTOR ( 'NONE', #37, 1000.000000000000000 ) ;
#417 = AXIS2_PLACEMENT_3D ( 'NONE', #390, #1032, #922 ) ;
#418 = LINE ( 'NONE', #341, #134 ) ;
#419 = LINE ( 'NONE', #582, #601 ) ;
#420 = ORIENTED_EDGE ( 'NONE', *, *, #494, .T. ) ;
#421 = EDGE_CURVE ( 'NONE', #589, #985, #653, .T. ) ;
#422 = EDGE_CURVE ( 'NONE', #68, #142, #388, .T. ) ;
#423 = ORIENTED_EDGE ( 'NONE', *, *, #368, .T. ) ;
#424 = APPLICATION_PROTOCOL_DEFINITION ( 'international standard', 'config_control_design', 1994, #658 ) ;
#425 = PLANE ( 'NONE',  #1080 ) ;
#426 = DIRECTION ( 'NONE',  ( 0.000000000000000000, 1.000000000000000000, 0.000000000000000000 ) ) ;
#427 = VERTEX_POINT ( 'NONE', #214 ) ;
#428 = VERTEX_POINT ( 'NONE', #919 ) ;
#429 = PERSON_AND_ORGANIZATION_ROLE ( 'classification_officer' ) ;
#430 = FACE_OUTER_BOUND ( 'NONE', #899, .T. ) ;
#431 = PLANE ( 'NONE',  #242 ) ;
#432 = ORIENTED_EDGE ( 'NONE', *, *, #404, .T. ) ;
#433 = ORIENTED_EDGE ( 'NONE', *, *, #966, .T. ) ;
#434 = VECTOR ( 'NONE', #925, 1000.000000000000000 ) ;
#435 = LOCAL_TIME ( 11, 33, 7.000000000000000000, #622 ) ;
#436 = LINE ( 'NONE', #278, #476 ) ;
#437 = DIRECTION ( 'NONE',  ( -1.982541115402065110E-16, 1.000000000000000000, -0.000000000000000000 ) ) ;
#438 = EDGE_LOOP ( 'NONE', ( #1133, #781, #953, #316 ) ) ;
#439 = ORIENTED_EDGE ( 'NONE', *, *, #421, .T. ) ;
#440 = PERSON_AND_ORGANIZATION_ROLE ( 'design_supplier' ) ;
#441 = DIRECTION ( 'NONE',  ( -0.000000000000000000, 0.1045284632676542896, -0.9945218953682732899 ) ) ;
#442 = CARTESIAN_POINT ( 'NONE',  ( -21.00000000000000000, -17.50000000000000000, 8.500000000000000000 ) ) ;
#443 = EDGE_CURVE ( 'NONE', #172, #142, #572, .T. ) ;
#444 = ORIENTED_EDGE ( 'NONE', *, *, #298, .F. ) ;
#445 = ORIENTED_EDGE ( 'NONE', *, *, #704, .T. ) ;
#446 = ORIENTED_EDGE ( 'NONE', *, *, #318, .F. ) ;
#447 = CALENDAR_DATE ( 2026, 2, 6 ) ;
#448 = PRODUCT ( 'fix_H_flow', 'fix_H_flow', '', ( #487 ) ) ;
#449 = CARTESIAN_POINT ( 'NONE',  ( -40.99999999999998579, -12.50000000000000178, 0.000000000000000000 ) ) ;
#450 = LINE ( 'NONE', #902, #149 ) ;
#451 = ORIENTED_EDGE ( 'NONE', *, *, #1106, .T. ) ;
#452 = ORIENTED_EDGE ( 'NONE', *, *, #525, .T. ) ;
#453 = APPROVAL_STATUS ( 'not_yet_approved' ) ;
#454 = VECTOR ( 'NONE', #1136, 1000.000000000000000 ) ;
#455 = FACE_OUTER_BOUND ( 'NONE', #1151, .T. ) ;
#456 = LINE ( 'NONE', #521, #358 ) ;
#457 = ORIENTED_EDGE ( 'NONE', *, *, #422, .F. ) ;
#458 = VECTOR ( 'NONE', #1095, 1000.000000000000000 ) ;
#459 = EDGE_CURVE ( 'NONE', #809, #372, #827, .T. ) ;
#460 = EDGE_CURVE ( 'NONE', #427, #868, #552, .T. ) ;
#461 = DIRECTION ( 'NONE',  ( 0.000000000000000000, -1.000000000000000000, 0.000000000000000000 ) ) ;
#462 = CARTESIAN_POINT ( 'NONE',  ( -17.09763037279003939, 11.50000000000000000, 8.500000000000000000 ) ) ;
#463 = ORIENTED_EDGE ( 'NONE', *, *, #335, .F. ) ;
#464 = ORIENTED_EDGE ( 'NONE', *, *, #774, .T. ) ;
#465 = DIRECTION ( 'NONE',  ( 0.000000000000000000, 0.000000000000000000, 1.000000000000000000 ) ) ;
#466 = CARTESIAN_POINT ( 'NONE',  ( 0.000000000000000000, 0.000000000000000000, 8.500000000000000000 ) ) ;
#467 = FACE_OUTER_BOUND ( 'NONE', #550, .T. ) ;
#468 = PLANE ( 'NONE',  #284 ) ;
#469 = ORIENTED_EDGE ( 'NONE', *, *, #662, .F. ) ;
#470 = CARTESIAN_POINT ( 'NONE',  ( 35.99999999999999289, -3.250000000000002665, 0.000000000000000000 ) ) ;
#471 = CARTESIAN_POINT ( 'NONE',  ( 14.49999999999999822, -17.50000000000000000, 14.00000000000000000 ) ) ;
#472 = AXIS2_PLACEMENT_3D ( 'NONE', #200, #660, #479 ) ;
#473 = EDGE_CURVE ( 'NONE', #514, #172, #667, .T. ) ;
#474 = LINE ( 'NONE', #759, #1138 ) ;
#475 = FACE_OUTER_BOUND ( 'NONE', #1048, .T. ) ;
#476 = VECTOR ( 'NONE', #347, 1000.000000000000000 ) ;
#477 = ORGANIZATION ( 'UNSPECIFIED', 'UNSPECIFIED', '' ) ;
#478 = CARTESIAN_POINT ( 'NONE',  ( 35.99999999999999289, 0.000000000000000000, 0.000000000000000000 ) ) ;
#479 = DIRECTION ( 'NONE',  ( 0.000000000000000000, -1.000000000000000000, 0.000000000000000000 ) ) ;
#480 = LINE ( 'NONE', #741, #114 ) ;
#481 = DIRECTION ( 'NONE',  ( 1.000000000000000000, 0.000000000000000000, 0.000000000000000000 ) ) ;
#482 = CARTESIAN_POINT ( 'NONE',  ( 25.99999999999998934, 3.249999999999997335, 6.000000000000000000 ) ) ;
#483 = DIRECTION ( 'NONE',  ( -0.5446390350150248638, -3.257924551634200715E-17, 0.8386705679454256046 ) ) ;
#484 = PLANE ( 'NONE',  #82 ) ;
#485 = CARTESIAN_POINT ( 'NONE',  ( 0.000000000000000000, 0.000000000000000000, 6.000000000000000000 ) ) ;
#486 = DIRECTION ( 'NONE',  ( 1.000000000000000000, 0.000000000000000000, 0.000000000000000000 ) ) ;
#487 = MECHANICAL_CONTEXT ( 'NONE', #658, 'mechanical' ) ;
#488 = CARTESIAN_POINT ( 'NONE',  ( 35.99999999999999289, -3.250000000000002665, 6.000000000000000000 ) ) ;
#489 = CARTESIAN_POINT ( 'NONE',  ( 21.00000000000000000, -17.50000000000000000, 6.000000000000000000 ) ) ;
#490 = AXIS2_PLACEMENT_3D ( 'NONE', #352, #715, #991 ) ;
#491 = LOCAL_TIME ( 11, 33, 7.000000000000000000, #688 ) ;
#492 = EDGE_CURVE ( 'NONE', #595, #502, #126, .T. ) ;
#493 = AXIS2_PLACEMENT_3D ( 'NONE', #566, #655, #835 ) ;
#494 = EDGE_CURVE ( 'NONE', #1084, #180, #120, .T. ) ;
#495 = LINE ( 'NONE', #127, #321 ) ;
#496 = DIRECTION ( 'NONE',  ( -1.000000000000000000, 2.115516434118057462E-17, -0.000000000000000000 ) ) ;
#497 = CARTESIAN_POINT ( 'NONE',  ( -19.99999999999998224, 3.249999999999997335, 0.000000000000000000 ) ) ;
#498 = ORIENTED_EDGE ( 'NONE', *, *, #1125, .F. ) ;
#499 = DIRECTION ( 'NONE',  ( -1.982541115402065110E-16, 1.000000000000000000, 0.000000000000000000 ) ) ;
#500 = CARTESIAN_POINT ( 'NONE',  ( -21.00000000000000711, 11.50000000000000000, 8.500000000000000000 ) ) ;
#501 = LINE ( 'NONE', #220, #454 ) ;
#502 = VERTEX_POINT ( 'NONE', #736 ) ;
#503 = ORIENTED_EDGE ( 'NONE', *, *, #889, .F. ) ;
#504 = DIRECTION ( 'NONE',  ( 1.000000000000000000, 0.000000000000000000, 0.000000000000000000 ) ) ;
#505 = FACE_OUTER_BOUND ( 'NONE', #190, .T. ) ;
#506 = ADVANCED_FACE ( 'NONE', ( #397 ), #1100, .T. ) ;
#507 = ADVANCED_FACE ( 'NONE', ( #33 ), #761, .T. ) ;
#508 = ORIENTED_EDGE ( 'NONE', *, *, #329, .F. ) ;
#509 = VECTOR ( 'NONE', #1144, 1000.000000000000114 ) ;
#510 = VERTEX_POINT ( 'NONE', #208 ) ;
#511 = VECTOR ( 'NONE', #1107, 1000.000000000000000 ) ;
#512 = DIRECTION ( 'NONE',  ( -0.000000000000000000, -0.000000000000000000, 1.000000000000000000 ) ) ;
#513 = LINE ( 'NONE', #55, #59 ) ;
#514 = VERTEX_POINT ( 'NONE', #470 ) ;
#515 = EDGE_LOOP ( 'NONE', ( #4, #675, #281, #408 ) ) ;
#516 = DIRECTION ( 'NONE',  ( 1.000000000000000000, 0.000000000000000000, -0.000000000000000000 ) ) ;
#517 = CARTESIAN_POINT ( 'NONE',  ( 35.99999999999999289, -3.250000000000002665, -6.499999999999999112 ) ) ;
#518 = ORIENTED_EDGE ( 'NONE', *, *, #119, .F. ) ;
#519 = EDGE_LOOP ( 'NONE', ( #154, #1058, #252, #687 ) ) ;
#520 = CARTESIAN_POINT ( 'NONE',  ( -14.50000000000000178, -3.228453318666044236, 12.50000000000001776 ) ) ;
#521 = CARTESIAN_POINT ( 'NONE',  ( 0.000000000000000000, -3.250000000000002665, 0.000000000000000000 ) ) ;
#522 = EDGE_LOOP ( 'NONE', ( #143, #276, #339, #530, #191, #498, #351, #240, #711, #439, #311, #128 ) ) ;
#523 = AXIS2_PLACEMENT_3D ( 'NONE', #610, #95, #85 ) ;
#524 = EDGE_LOOP ( 'NONE', ( #608, #223, #1154, #753 ) ) ;
#525 = EDGE_CURVE ( 'NONE', #502, #743, #832, .T. ) ;
#526 = AXIS2_PLACEMENT_3D ( 'NONE', #1142, #592, #322 ) ;
#527 = FACE_OUTER_BOUND ( 'NONE', #196, .T. ) ;
#528 = CARTESIAN_POINT ( 'NONE',  ( 14.49999999999999822, 11.04309336266755182, 14.00000000000000000 ) ) ;
#529 = VECTOR ( 'NONE', #956, 1000.000000000000000 ) ;
#530 = ORIENTED_EDGE ( 'NONE', *, *, #318, .T. ) ;
#531 = VERTEX_POINT ( 'NONE', #300 ) ;
#532 = VERTEX_POINT ( 'NONE', #844 ) ;
#533 = PERSON_AND_ORGANIZATION ( #990, #477 ) ;
#534 = DIRECTION ( 'NONE',  ( -0.7071067811865466846, -0.000000000000000000, 0.7071067811865483499 ) ) ;
#535 = DIRECTION ( 'NONE',  ( 1.000000000000000000, 0.000000000000000000, 0.000000000000000000 ) ) ;
#536 = EDGE_LOOP ( 'NONE', ( #538, #1079, #518, #871, #16 ) ) ;
#537 = EDGE_CURVE ( 'NONE', #985, #367, #28, .T. ) ;
#538 = ORIENTED_EDGE ( 'NONE', *, *, #42, .F. ) ;
#539 = PRODUCT_DEFINITION_SHAPE ( 'NONE', 'NONE',  #896 ) ;
#540 = CARTESIAN_POINT ( 'NONE',  ( 41.00000000000002132, 12.49999999999999822, 6.000000000000000000 ) ) ;
#541 = LINE ( 'NONE', #812, #167 ) ;
#542 = EDGE_CURVE ( 'NONE', #5, #428, #293, .T. ) ;
#543 = VERTEX_POINT ( 'NONE', #671 ) ;
#544 = ORIENTED_EDGE ( 'NONE', *, *, #404, .F. ) ;
#545 = EDGE_CURVE ( 'NONE', #1047, #960, #217, .T. ) ;
#546 = ORIENTED_EDGE ( 'NONE', *, *, #32, .F. ) ;
#547 = VECTOR ( 'NONE', #409, 1000.000000000000000 ) ;
#548 = PLANE ( 'NONE',  #340 ) ;
#549 = CARTESIAN_POINT ( 'NONE',  ( -40.99999999999998579, 12.50000000000000000, 6.000000000000000000 ) ) ;
#550 = EDGE_LOOP ( 'NONE', ( #165, #148, #457, #1146 ) ) ;
#551 = VECTOR ( 'NONE', #636, 1000.000000000000000 ) ;
#552 = LINE ( 'NONE', #1118, #1006 ) ;
#553 = DIRECTION ( 'NONE',  ( -1.000000000000000000, 0.000000000000000000, -0.000000000000000000 ) ) ;
#554 = ORIENTED_EDGE ( 'NONE', *, *, #1034, .T. ) ;
#555 = CARTESIAN_POINT ( 'NONE',  ( -21.00000000000000000, -17.50000000000000000, 0.000000000000000000 ) ) ;
#556 = VERTEX_POINT ( 'NONE', #940 ) ;
#557 = ADVANCED_FACE ( 'NONE', ( #379 ), #656, .T. ) ;
#558 = CARTESIAN_POINT ( 'NONE',  ( -21.00000000000000711, 17.50000000000000000, 0.000000000000000000 ) ) ;
#559 = LINE ( 'NONE', #279, #113 ) ;
#560 = CARTESIAN_POINT ( 'NONE',  ( 35.99999999999999289, 3.249999999999997335, -6.499999999999999112 ) ) ;
#561 = LINE ( 'NONE', #754, #794 ) ;
#562 = CARTESIAN_POINT ( 'NONE',  ( -14.50000000000000178, 11.04309336266754649, 14.00000000000000000 ) ) ;
#563 = CARTESIAN_POINT ( 'NONE',  ( 0.000000000000000000, 11.04309336266755182, 14.00000000000000000 ) ) ;
#564 = VECTOR ( 'NONE', #263, 1000.000000000000000 ) ;
#565 = EDGE_CURVE ( 'NONE', #349, #916, #202, .T. ) ;
#566 = CARTESIAN_POINT ( 'NONE',  ( 35.99999999999999289, -3.250000000000002665, -6.499999999999999112 ) ) ;
#567 = LINE ( 'NONE', #1011, #583 ) ;
#568 = CARTESIAN_POINT ( 'NONE',  ( 21.00000000000000000, -17.50000000000000000, 14.00000000000000000 ) ) ;
#569 = DIRECTION ( 'NONE',  ( 0.000000000000000000, 0.000000000000000000, -1.000000000000000000 ) ) ;
#570 = LINE ( 'NONE', #296, #343 ) ;
#571 = CARTESIAN_POINT ( 'NONE',  ( 21.00000000000000000, -17.50000000000000000, 6.000000000000000000 ) ) ;
#572 = LINE ( 'NONE', #640, #907 ) ;
#573 = APPLICATION_PROTOCOL_DEFINITION ( 'international standard', 'config_control_design', 1994, #277 ) ;
#574 = VERTEX_POINT ( 'NONE', #130 ) ;
#575 = DIRECTION ( 'NONE',  ( 0.000000000000000000, 0.000000000000000000, -1.000000000000000000 ) ) ;
#576 = DIRECTION ( 'NONE',  ( -0.000000000000000000, -0.000000000000000000, 1.000000000000000000 ) ) ;
#577 = EDGE_CURVE ( 'NONE', #531, #977, #664, .T. ) ;
#578 = DESIGN_CONTEXT ( 'detailed design', #277, 'design' ) ;
#579 = CALENDAR_DATE ( 2026, 2, 6 ) ;
#580 = LINE ( 'NONE', #560, #267 ) ;
#581 = VECTOR ( 'NONE', #157, 1000.000000000000114 ) ;
#582 = CARTESIAN_POINT ( 'NONE',  ( 17.09763037279003584, 11.50000000000000000, 8.500000000000000000 ) ) ;
#583 = VECTOR ( 'NONE', #1015, 1000.000000000000000 ) ;
#584 = VECTOR ( 'NONE', #39, 1000.000000000000114 ) ;
#585 = ORIENTED_EDGE ( 'NONE', *, *, #76, .T. ) ;
#586 =( NAMED_UNIT ( * ) SI_UNIT ( $, .STERADIAN. ) SOLID_ANGLE_UNIT ( ) );
#587 = LINE ( 'NONE', #873, #930 ) ;
#588 = CARTESIAN_POINT ( 'NONE',  ( 19.99999999999998224, 3.249999999999997335, 0.000000000000000000 ) ) ;
#589 = VERTEX_POINT ( 'NONE', #841 ) ;
#590 = ORIENTED_EDGE ( 'NONE', *, *, #1081, .F. ) ;
#591 = EDGE_CURVE ( 'NONE', #428, #621, #394, .T. ) ;
#592 = DIRECTION ( 'NONE',  ( 0.000000000000000000, 0.000000000000000000, 1.000000000000000000 ) ) ;
#593 = PLANE ( 'NONE',  #623 ) ;
#594 = LINE ( 'NONE', #48, #395 ) ;
#595 = VERTEX_POINT ( 'NONE', #923 ) ;
#596 = ORIENTED_EDGE ( 'NONE', *, *, #403, .T. ) ;
#597 = CARTESIAN_POINT ( 'NONE',  ( 21.00000000000000000, -17.50000000000000000, 0.000000000000000000 ) ) ;
#598 = DIRECTION ( 'NONE',  ( 0.000000000000000000, 0.000000000000000000, 1.000000000000000000 ) ) ;
#599 = FACE_OUTER_BOUND ( 'NONE', #1000, .T. ) ;
#600 = ORIENTED_EDGE ( 'NONE', *, *, #414, .F. ) ;
#601 = VECTOR ( 'NONE', #51, 1000.000000000000000 ) ;
#602 = ORIENTED_EDGE ( 'NONE', *, *, #662, .T. ) ;
#603 = ORIENTED_EDGE ( 'NONE', *, *, #719, .T. ) ;
#604 = AXIS2_PLACEMENT_3D ( 'NONE', #555, #749, #1026 ) ;
#605 = FACE_OUTER_BOUND ( 'NONE', #723, .T. ) ;
#606 = CARTESIAN_POINT ( 'NONE',  ( -14.50000000000000178, -17.50000000000000000, 14.00000000000000000 ) ) ;
#607 = ORIENTED_EDGE ( 'NONE', *, *, #1161, .T. ) ;
#608 = ORIENTED_EDGE ( 'NONE', *, *, #1016, .F. ) ;
#609 = DIRECTION ( 'NONE',  ( 0.000000000000000000, -1.000000000000000000, 0.000000000000000000 ) ) ;
#610 = CARTESIAN_POINT ( 'NONE',  ( -21.00000000000000711, 17.50000000000000000, 0.000000000000000000 ) ) ;
#611 = ORIENTED_EDGE ( 'NONE', *, *, #1081, .T. ) ;
#612 = EDGE_CURVE ( 'NONE', #1060, #91, #40, .T. ) ;
#613 = EDGE_CURVE ( 'NONE', #954, #415, #391, .T. ) ;
#614 = APPROVAL ( #855, 'UNSPECIFIED' ) ;
#615 = EDGE_LOOP ( 'NONE', ( #929, #264, #1036, #155 ) ) ;
#616 = SECURITY_CLASSIFICATION_LEVEL ( 'unclassified' ) ;
#617 = CARTESIAN_POINT ( 'NONE',  ( -17.09763037279003939, 0.000000000000000000, 8.500000000000000000 ) ) ;
#618 = CARTESIAN_POINT ( 'NONE',  ( -21.00000000000000000, -17.50000000000000000, 0.000000000000000000 ) ) ;
#619 = ORIENTED_EDGE ( 'NONE', *, *, #492, .T. ) ;
#620 = VECTOR ( 'NONE', #383, 1000.000000000000000 ) ;
#621 = VERTEX_POINT ( 'NONE', #935 ) ;
#622 = COORDINATED_UNIVERSAL_TIME_OFFSET ( 1, 0, .AHEAD. ) ;
#623 = AXIS2_PLACEMENT_3D ( 'NONE', #908, #441, #821 ) ;
#624 = EDGE_CURVE ( 'NONE', #1047, #378, #567, .T. ) ;
#625 = DIRECTION ( 'NONE',  ( 2.775557561562891351E-16, 1.000000000000000000, -0.000000000000000000 ) ) ;
#626 = CARTESIAN_POINT ( 'NONE',  ( -19.99999999999998224, -3.250000000000002665, 0.000000000000000000 ) ) ;
#627 = ORIENTED_EDGE ( 'NONE', *, *, #177, .T. ) ;
#628 = ORIENTED_EDGE ( 'NONE', *, *, #875, .F. ) ;
#629 = ORIENTED_EDGE ( 'NONE', *, *, #139, .T. ) ;
#630 = EDGE_CURVE ( 'NONE', #858, #729, #561, .T. ) ;
#631 = ADVANCED_FACE ( 'NONE', ( #1115 ), #303, .T. ) ;
#632 = LINE ( 'NONE', #359, #852 ) ;
#633 = CARTESIAN_POINT ( 'NONE',  ( -21.00000000000001066, 12.50000000000000000, 6.000000000000000000 ) ) ;
#634 = VERTEX_POINT ( 'NONE', #213 ) ;
#635 = VERTEX_POINT ( 'NONE', #571 ) ;
#636 = DIRECTION ( 'NONE',  ( 0.000000000000000000, -1.000000000000000000, 0.000000000000000000 ) ) ;
#637 = LINE ( 'NONE', #1063, #758 ) ;
#638 = ORIENTED_EDGE ( 'NONE', *, *, #861, .F. ) ;
#639 = ORIENTED_EDGE ( 'NONE', *, *, #350, .F. ) ;
#640 = CARTESIAN_POINT ( 'NONE',  ( 25.99999999999998934, -3.250000000000002665, 6.000000000000019540 ) ) ;
#641 = CARTESIAN_POINT ( 'NONE',  ( -15.47411138979627587, -17.50000000000000000, 11.00000000000000000 ) ) ;
#642 = VECTOR ( 'NONE', #10, 1000.000000000000000 ) ;
#643 = APPROVAL_PERSON_ORGANIZATION ( #1147, #614, #402 ) ;
#644 = VERTEX_POINT ( 'NONE', #917 ) ;
#645 = VECTOR ( 'NONE', #1143, 1000.000000000000000 ) ;
#646 = CARTESIAN_POINT ( 'NONE',  ( 20.99999999999999289, 17.50000000000000000, 0.000000000000000000 ) ) ;
#647 = CARTESIAN_POINT ( 'NONE',  ( -21.00000000000000711, 17.50000000000000000, 0.000000000000000000 ) ) ;
#648 = DIRECTION ( 'NONE',  ( -0.7071067811865466846, 0.000000000000000000, -0.7071067811865483499 ) ) ;
#649 = LINE ( 'NONE', #212, #775 ) ;
#650 = DIRECTION ( 'NONE',  ( -0.5446390350150248638, -3.257924551634200715E-17, -0.8386705679454256046 ) ) ;
#651 = EDGE_LOOP ( 'NONE', ( #876, #629, #1076, #433 ) ) ;
#652 = ADVANCED_FACE ( 'NONE', ( #475 ), #468, .F. ) ;
#653 = LINE ( 'NONE', #44, #434 ) ;
#654 = DIRECTION ( 'NONE',  ( 1.000000000000000000, 0.000000000000000000, -0.000000000000000000 ) ) ;
#655 = DIRECTION ( 'NONE',  ( 0.000000000000000000, 1.000000000000000000, 0.000000000000000000 ) ) ;
#656 = PLANE ( 'NONE',  #817 ) ;
#657 = CC_DESIGN_PERSON_AND_ORGANIZATION_ASSIGNMENT ( #533, #802, ( #81 ) ) ;
#658 = APPLICATION_CONTEXT ( 'configuration controlled 3d designs of mechanical parts and assemblies' ) ;
#659 = CARTESIAN_POINT ( 'NONE',  ( 20.99999999999999289, 17.50000000000000000, 0.000000000000000000 ) ) ;
#660 = DIRECTION ( 'NONE',  ( -0.8386705679454256046, -0.000000000000000000, -0.5446390350150248638 ) ) ;
#661 = VECTOR ( 'NONE', #152, 1000.000000000000000 ) ;
#662 = EDGE_CURVE ( 'NONE', #879, #1084, #23, .T. ) ;
#663 = CARTESIAN_POINT ( 'NONE',  ( -21.00000000000000711, 15.97406871334390921, 14.51826639334674418 ) ) ;
#664 = LINE ( 'NONE', #646, #968 ) ;
#665 = MANIFOLD_SOLID_BREP ( 'Mirror1', #888 ) ;
#666 = VECTOR ( 'NONE', #465, 1000.000000000000000 ) ;
#667 = LINE ( 'NONE', #932, #1059 ) ;
#668 = EDGE_CURVE ( 'NONE', #532, #74, #742, .T. ) ;
#669 = ADVANCED_FACE ( 'NONE', ( #31, #385, #1110 ), #297, .T. ) ;
#670 = ORIENTED_EDGE ( 'NONE', *, *, #740, .F. ) ;
#671 = CARTESIAN_POINT ( 'NONE',  ( 17.09763037279002162, 11.50000000000000000, 8.500000000000000000 ) ) ;
#672 = PERSON_AND_ORGANIZATION ( #990, #477 ) ;
#673 = LINE ( 'NONE', #850, #987 ) ;
#674 = LINE ( 'NONE', #857, #1075 ) ;
#675 = ORIENTED_EDGE ( 'NONE', *, *, #842, .T. ) ;
#676 = DIRECTION ( 'NONE',  ( 0.000000000000000000, -0.000000000000000000, -1.000000000000000000 ) ) ;
#677 = VECTOR ( 'NONE', #256, 1000.000000000000000 ) ;
#678 = CARTESIAN_POINT ( 'NONE',  ( -21.00000000000000000, -17.50000000000000000, 6.000000000000000000 ) ) ;
#679 = VERTEX_POINT ( 'NONE', #1122 ) ;
#680 = AXIS2_PLACEMENT_3D ( 'NONE', #100, #881, #1082 ) ;
#681 = EDGE_CURVE ( 'NONE', #510, #181, #779, .T. ) ;
#682 = VECTOR ( 'NONE', #496, 1000.000000000000000 ) ;
#683 = VERTEX_POINT ( 'NONE', #1130 ) ;
#684 = DIRECTION ( 'NONE',  ( 0.000000000000000000, 1.000000000000000000, 0.000000000000000000 ) ) ;
#685 = DIRECTION ( 'NONE',  ( 1.000000000000000000, 0.000000000000000000, 0.000000000000000000 ) ) ;
#686 = ORIENTED_EDGE ( 'NONE', *, *, #612, .F. ) ;
#687 = ORIENTED_EDGE ( 'NONE', *, *, #1049, .T. ) ;
#688 = COORDINATED_UNIVERSAL_TIME_OFFSET ( 1, 0, .AHEAD. ) ;
#689 = PLANE ( 'NONE',  #305 ) ;
#690 = LINE ( 'NONE', #957, #96 ) ;
#691 = ORIENTED_EDGE ( 'NONE', *, *, #292, .F. ) ;
#692 = ORIENTED_EDGE ( 'NONE', *, *, #843, .T. ) ;
#693 = APPROVAL_DATE_TIME ( #254, #996 ) ;
#694 = CARTESIAN_POINT ( 'NONE',  ( -40.99999999999998579, 12.50000000000000000, 6.000000000000000000 ) ) ;
#695 = DIRECTION ( 'NONE',  ( 0.000000000000000000, -0.000000000000000000, -1.000000000000000000 ) ) ;
#696 = EDGE_LOOP ( 'NONE', ( #83, #607, #773, #186 ) ) ;
#697 = VECTOR ( 'NONE', #648, 1000.000000000000000 ) ;
#698 = VECTOR ( 'NONE', #1089, 1000.000000000000000 ) ;
#699 = ORIENTED_EDGE ( 'NONE', *, *, #949, .F. ) ;
#700 = VECTOR ( 'NONE', #107, 1000.000000000000000 ) ;
#701 = FACE_OUTER_BOUND ( 'NONE', #973, .T. ) ;
#702 = DIRECTION ( 'NONE',  ( -2.392722035830078972E-16, 1.000000000000000000, 0.000000000000000000 ) ) ;
#703 = EDGE_CURVE ( 'NONE', #635, #137, #964, .T. ) ;
#704 = EDGE_CURVE ( 'NONE', #372, #644, #67, .T. ) ;
#705 = LOCAL_TIME ( 11, 33, 7.000000000000000000, #988 ) ;
#706 = ORIENTED_EDGE ( 'NONE', *, *, #21, .F. ) ;
#707 = ORIENTED_EDGE ( 'NONE', *, *, #299, .F. ) ;
#708 = DATE_AND_TIME ( #260, #435 ) ;
#709 = CARTESIAN_POINT ( 'NONE',  ( -21.00000000000000711, 11.50000000000000000, 6.000000000000000000 ) ) ;
#710 = CARTESIAN_POINT ( 'NONE',  ( -35.99999999999999289, 3.249999999999997335, -6.499999999999999112 ) ) ;
#711 = ORIENTED_EDGE ( 'NONE', *, *, #21, .T. ) ;
#712 = ORIENTED_EDGE ( 'NONE', *, *, #42, .T. ) ;
#713 = EDGE_CURVE ( 'NONE', #807, #825, #767, .T. ) ;
#714 = APPROVAL_ROLE ( '' ) ;
#715 = DIRECTION ( 'NONE',  ( 0.7071067811865483499, 0.000000000000000000, -0.7071067811865466846 ) ) ;
#716 = CARTESIAN_POINT ( 'NONE',  ( 35.99999999999999289, 3.249999999999997335, -1.734723475976807094E-15 ) ) ;
#717 = EDGE_LOOP ( 'NONE', ( #786, #1041, #892, #639, #469 ) ) ;
#718 = AXIS2_PLACEMENT_3D ( 'NONE', #136, #239, #695 ) ;
#719 = EDGE_CURVE ( 'NONE', #683, #644, #513, .T. ) ;
#720 = ORIENTED_EDGE ( 'NONE', *, *, #668, .F. ) ;
#721 = LINE ( 'NONE', #1159, #928 ) ;
#722 = DIRECTION ( 'NONE',  ( 1.000000000000000000, 0.000000000000000000, 0.000000000000000000 ) ) ;
#723 = EDGE_LOOP ( 'NONE', ( #451, #80, #106, #906 ) ) ;
#724 = ORIENTED_EDGE ( 'NONE', *, *, #369, .T. ) ;
#725 = ORIENTED_EDGE ( 'NONE', *, *, #912, .T. ) ;
#726 = DIRECTION ( 'NONE',  ( -1.000000000000000000, 2.115516434118057462E-17, -0.000000000000000000 ) ) ;
#727 = DIRECTION ( 'NONE',  ( 2.392722035830078972E-16, -1.000000000000000000, -0.000000000000000000 ) ) ;
#728 = ORIENTED_EDGE ( 'NONE', *, *, #826, .T. ) ;
#729 = VERTEX_POINT ( 'NONE', #497 ) ;
#730 = LINE ( 'NONE', #818, #984 ) ;
#731 = CARTESIAN_POINT ( 'NONE',  ( 0.000000000000000000, 0.000000000000000000, 8.500000000000000000 ) ) ;
#732 = ORIENTED_EDGE ( 'NONE', *, *, #945, .F. ) ;
#733 = CARTESIAN_POINT ( 'NONE',  ( -21.00000000000000711, 17.50000000000000000, 0.000000000000000000 ) ) ;
#734 = ORIENTED_EDGE ( 'NONE', *, *, #978, .T. ) ;
#735 = VECTOR ( 'NONE', #860, 1000.000000000000000 ) ;
#736 = CARTESIAN_POINT ( 'NONE',  ( 20.99999999999999289, 11.04309336266755182, 14.00000000000000000 ) ) ;
#737 = DIRECTION ( 'NONE',  ( -0.000000000000000000, 0.1045284632676542896, -0.9945218953682732899 ) ) ;
#738 = VECTOR ( 'NONE', #650, 1000.000000000000114 ) ;
#739 = VECTOR ( 'NONE', #777, 1000.000000000000000 ) ;
#740 = EDGE_CURVE ( 'NONE', #1005, #5, #690, .T. ) ;
#741 = CARTESIAN_POINT ( 'NONE',  ( -40.99999999999998579, 12.50000000000000000, 6.000000000000000000 ) ) ;
#742 = LINE ( 'NONE', #830, #99 ) ;
#743 = VERTEX_POINT ( 'NONE', #244 ) ;
#744 = EDGE_CURVE ( 'NONE', #589, #621, #1046, .T. ) ;
#745 = ADVANCED_FACE ( 'NONE', ( #141 ), #411, .T. ) ;
#746 = CARTESIAN_POINT ( 'NONE',  ( -40.99999999999998579, -12.50000000000000178, 6.000000000000000000 ) ) ;
#747 = CARTESIAN_POINT ( 'NONE',  ( 35.99999999999999289, 3.249999999999997335, 6.000000000000000000 ) ) ;
#748 = CARTESIAN_POINT ( 'NONE',  ( -14.50000000000000178, -17.50000000000000000, 14.00000000000000000 ) ) ;
#749 = DIRECTION ( 'NONE',  ( 0.000000000000000000, -1.000000000000000000, 0.000000000000000000 ) ) ;
#750 = EDGE_CURVE ( 'NONE', #378, #8, #501, .T. ) ;
#751 = DIRECTION ( 'NONE',  ( 0.000000000000000000, 0.000000000000000000, 1.000000000000000000 ) ) ;
#752 = CARTESIAN_POINT ( 'NONE',  ( -21.00000000000000000, -17.50000000000000000, 10.99999999999999822 ) ) ;
#753 = ORIENTED_EDGE ( 'NONE', *, *, #545, .F. ) ;
#754 = CARTESIAN_POINT ( 'NONE',  ( -19.99999999999998224, 0.000000000000000000, 0.000000000000000000 ) ) ;
#755 = ADVANCED_FACE ( 'NONE', ( #599, #325, #971 ), #315, .F. ) ;
#756 = EDGE_CURVE ( 'NONE', #415, #556, #233, .T. ) ;
#757 = LINE ( 'NONE', #189, #697 ) ;
#758 = VECTOR ( 'NONE', #878, 1000.000000000000114 ) ;
#759 = CARTESIAN_POINT ( 'NONE',  ( -14.32321451808255119, -0.6383981317590508020, 12.77222576971577972 ) ) ;
#760 = DIRECTION ( 'NONE',  ( 1.000000000000000000, 0.000000000000000000, 0.000000000000000000 ) ) ;
#761 = PLANE ( 'NONE',  #7 ) ;
#762 = CARTESIAN_POINT ( 'NONE',  ( 20.99999999999999289, 12.50000000000000000, 6.000000000000000000 ) ) ;
#763 = CARTESIAN_POINT ( 'NONE',  ( -21.00000000000000000, -17.50000000000000000, 6.000000000000000000 ) ) ;
#764 = ORIENTED_EDGE ( 'NONE', *, *, #591, .F. ) ;
#765 = DATE_AND_TIME ( #579, #132 ) ;
#766 = FACE_OUTER_BOUND ( 'NONE', #696, .T. ) ;
#767 = LINE ( 'NONE', #772, #735 ) ;
#768 = EDGE_CURVE ( 'NONE', #679, #782, #851, .T. ) ;
#769 = VERTEX_POINT ( 'NONE', #785 ) ;
#770 = DIRECTION ( 'NONE',  ( 0.000000000000000000, 1.000000000000000000, 0.000000000000000000 ) ) ;
#771 = VECTOR ( 'NONE', #872, 1000.000000000000000 ) ;
#772 = CARTESIAN_POINT ( 'NONE',  ( -0.000000000000000000, 3.249999999999997335, 0.000000000000000000 ) ) ;
#773 = ORIENTED_EDGE ( 'NONE', *, *, #913, .T. ) ;
#774 = EDGE_CURVE ( 'NONE', #502, #634, #594, .T. ) ;
#775 = VECTOR ( 'NONE', #393, 1000.000000000000000 ) ;
#776 = VERTEX_POINT ( 'NONE', #400 ) ;
#777 = DIRECTION ( 'NONE',  ( 1.000000000000000000, 0.000000000000000000, 0.000000000000000000 ) ) ;
#778 = CARTESIAN_POINT ( 'NONE',  ( -35.99999999999999289, -3.250000000000002665, -6.499999999999999112 ) ) ;
#779 = LINE ( 'NONE', #942, #509 ) ;
#780 = CC_DESIGN_PERSON_AND_ORGANIZATION_ASSIGNMENT ( #1072, #440, ( #81 ) ) ;
#781 = ORIENTED_EDGE ( 'NONE', *, *, #110, .T. ) ;
#782 = VERTEX_POINT ( 'NONE', #763 ) ;
#783 = ORIENTED_EDGE ( 'NONE', *, *, #947, .T. ) ;
#784 = CARTESIAN_POINT ( 'NONE',  ( -21.00000000000000711, 11.50000000000000000, 8.500000000000000000 ) ) ;
#785 = CARTESIAN_POINT ( 'NONE',  ( 14.49999999999999822, 11.50000000000000178, 14.00000000000000000 ) ) ;
#786 = ORIENTED_EDGE ( 'NONE', *, *, #211, .F. ) ;
#787 = ORIENTED_EDGE ( 'NONE', *, *, #210, .F. ) ;
#788 = EDGE_CURVE ( 'NONE', #868, #531, #674, .T. ) ;
#789 = DATE_TIME_ROLE ( 'creation_date' ) ;
#790 = EDGE_CURVE ( 'NONE', #142, #401, #61, .T. ) ;
#791 = LINE ( 'NONE', #877, #529 ) ;
#792 = CARTESIAN_POINT ( 'NONE',  ( -14.50000000000000178, 11.50000000000000000, 14.00000000000000000 ) ) ;
#793 = ORIENTED_EDGE ( 'NONE', *, *, #403, .F. ) ;
#794 = VECTOR ( 'NONE', #195, 1000.000000000000000 ) ;
#795 = ORIENTED_EDGE ( 'NONE', *, *, #537, .F. ) ;
#796 = CC_DESIGN_APPROVAL ( #996, ( #81 ) ) ;
#797 = VECTOR ( 'NONE', #1062, 1000.000000000000000 ) ;
#798 = DIRECTION ( 'NONE',  ( -1.000000000000000000, -0.000000000000000000, -0.000000000000000000 ) ) ;
#799 = LINE ( 'NONE', #1160, #1021 ) ;
#800 = ORIENTED_EDGE ( 'NONE', *, *, #283, .T. ) ;
#801 = ORIENTED_EDGE ( 'NONE', *, *, #198, .T. ) ;
#802 = PERSON_AND_ORGANIZATION_ROLE ( 'creator' ) ;
#803 = CARTESIAN_POINT ( 'NONE',  ( -40.99999999999998579, 12.50000000000000000, 6.000000000000000000 ) ) ;
#804 = CARTESIAN_POINT ( 'NONE',  ( -14.50000000000000178, 11.50000000000000000, 12.50000000000001776 ) ) ;
#805 = EDGE_CURVE ( 'NONE', #181, #543, #419, .T. ) ;
#806 = ORIENTED_EDGE ( 'NONE', *, *, #177, .F. ) ;
#807 = VERTEX_POINT ( 'NONE', #588 ) ;
#808 = ADVANCED_FACE ( 'NONE', ( #505 ), #366, .T. ) ;
#809 = VERTEX_POINT ( 'NONE', #633 ) ;
#810 = PERSON_AND_ORGANIZATION ( #990, #477 ) ;
#811 = LINE ( 'NONE', #262, #698 ) ;
#812 = CARTESIAN_POINT ( 'NONE',  ( 21.00000000000000000, -17.50000000000000000, 8.500000000000000000 ) ) ;
#813 = ORIENTED_EDGE ( 'NONE', *, *, #719, .F. ) ;
#814 = ORIENTED_EDGE ( 'NONE', *, *, #537, .T. ) ;
#815 = VECTOR ( 'NONE', #38, 1000.000000000000000 ) ;
#816 = ORIENTED_EDGE ( 'NONE', *, *, #368, .F. ) ;
#817 = AXIS2_PLACEMENT_3D ( 'NONE', #118, #309, #1020 ) ;
#818 = CARTESIAN_POINT ( 'NONE',  ( -24.74999999999996803, 3.249999999999997335, 4.749999999999997335 ) ) ;
#819 = FACE_OUTER_BOUND ( 'NONE', #1085, .T. ) ;
#820 = EDGE_LOOP ( 'NONE', ( #230, #103, #787, #1167 ) ) ;
#821 = DIRECTION ( 'NONE',  ( 1.000000000000000000, 0.000000000000000000, -0.000000000000000000 ) ) ;
#822 = PLANE ( 'NONE',  #261 ) ;
#823 = ORIENTED_EDGE ( 'NONE', *, *, #805, .T. ) ;
#824 = DIRECTION ( 'NONE',  ( -1.982541115402065110E-16, 1.000000000000000000, -0.000000000000000000 ) ) ;
#825 = VERTEX_POINT ( 'NONE', #716 ) ;
#826 = EDGE_CURVE ( 'NONE', #976, #683, #541, .T. ) ;
#827 = LINE ( 'NONE', #115, #396 ) ;
#828 = DIRECTION ( 'NONE',  ( 0.000000000000000000, -0.000000000000000000, 1.000000000000000000 ) ) ;
#829 = DIRECTION ( 'NONE',  ( 0.000000000000000000, 0.000000000000000000, 1.000000000000000000 ) ) ;
#830 = CARTESIAN_POINT ( 'NONE',  ( 41.00000000000001421, -12.50000000000000178, 6.000000000000000000 ) ) ;
#831 = AXIS2_PLACEMENT_3D ( 'NONE', #563, #737, #654 ) ;
#832 = LINE ( 'NONE', #568, #1098 ) ;
#833 = CARTESIAN_POINT ( 'NONE',  ( -35.99999999999999289, 3.249999999999997335, 0.000000000000000000 ) ) ;
#834 = VECTOR ( 'NONE', #461, 1000.000000000000000 ) ;
#835 = DIRECTION ( 'NONE',  ( 0.000000000000000000, -0.000000000000000000, 1.000000000000000000 ) ) ;
#836 = CARTESIAN_POINT ( 'NONE',  ( -13.81484090676806176, 11.50000000000000000, 13.55505248230685922 ) ) ;
#837 = EDGE_CURVE ( 'NONE', #378, #858, #456, .T. ) ;
#838 = DIRECTION ( 'NONE',  ( -1.000000000000000000, 0.000000000000000000, 0.000000000000000000 ) ) ;
#839 = CARTESIAN_POINT ( 'NONE',  ( 0.000000000000000000, 3.249999999999997335, 0.000000000000000000 ) ) ;
#840 = DIRECTION ( 'NONE',  ( -1.000000000000000000, 2.115516434118057462E-17, -0.000000000000000000 ) ) ;
#841 = CARTESIAN_POINT ( 'NONE',  ( -40.99999999999998579, 12.50000000000000000, 6.000000000000000000 ) ) ;
#842 = EDGE_CURVE ( 'NONE', #1069, #595, #348, .T. ) ;
#843 = EDGE_CURVE ( 'NONE', #916, #995, #185, .T. ) ;
#844 = CARTESIAN_POINT ( 'NONE',  ( 41.00000000000001421, -12.50000000000000178, 6.000000000000000000 ) ) ;
#845 = CARTESIAN_POINT ( 'NONE',  ( -35.99999999999999289, 3.249999999999997335, 6.000000000000000000 ) ) ;
#846 = CARTESIAN_POINT ( 'NONE',  ( -40.99999999999998579, -12.50000000000000178, 6.000000000000000000 ) ) ;
#847 = DIRECTION ( 'NONE',  ( -0.000000000000000000, 0.000000000000000000, 1.000000000000000000 ) ) ;
#848 = CARTESIAN_POINT ( 'NONE',  ( -21.00000000000000711, 11.50000000000000000, 8.500000000000000000 ) ) ;
#849 = APPROVAL_DATE_TIME ( #310, #614 ) ;
#850 = CARTESIAN_POINT ( 'NONE',  ( -25.99999999999998934, 3.249999999999997335, 6.000000000000000000 ) ) ;
#851 = LINE ( 'NONE', #678, #413 ) ;
#852 = VECTOR ( 'NONE', #798, 1000.000000000000000 ) ;
#853 = VECTOR ( 'NONE', #941, 1000.000000000000114 ) ;
#854 = UNCERTAINTY_MEASURE_WITH_UNIT (LENGTH_MEASURE( 1.000000000000000082E-05 ), #65, 'distance_accuracy_value', 'NONE');
#855 = APPROVAL_STATUS ( 'not_yet_approved' ) ;
#856 = FACE_OUTER_BOUND ( 'NONE', #1168, .T. ) ;
#857 = CARTESIAN_POINT ( 'NONE',  ( -21.00000000000000000, -17.50000000000000000, 0.000000000000000000 ) ) ;
#858 = VERTEX_POINT ( 'NONE', #626 ) ;
#859 = CARTESIAN_POINT ( 'NONE',  ( 14.49999999999999822, -17.50000000000000000, 14.00000000000000000 ) ) ;
#860 = DIRECTION ( 'NONE',  ( 1.000000000000000000, 0.000000000000000000, 0.000000000000000000 ) ) ;
#861 = EDGE_CURVE ( 'NONE', #74, #904, #895, .T. ) ;
#862 = ORIENTED_EDGE ( 'NONE', *, *, #75, .F. ) ;
#863 = ORIENTED_EDGE ( 'NONE', *, *, #460, .F. ) ;
#864 = PERSON_AND_ORGANIZATION_ROLE ( 'design_owner' ) ;
#865 = CARTESIAN_POINT ( 'NONE',  ( 19.99999999999998224, -3.250000000000002665, 0.000000000000000000 ) ) ;
#866 = AXIS2_PLACEMENT_3D ( 'NONE', #337, #1057, #685 ) ;
#867 = CARTESIAN_POINT ( 'NONE',  ( -40.99999999999998579, 12.50000000000000000, 6.000000000000000000 ) ) ;
#868 = VERTEX_POINT ( 'NONE', #618 ) ;
#869 = AXIS2_PLACEMENT_3D ( 'NONE', #324, #684, #1045 ) ;
#870 = EDGE_CURVE ( 'NONE', #514, #68, #999, .T. ) ;
#871 = ORIENTED_EDGE ( 'NONE', *, *, #110, .F. ) ;
#872 = DIRECTION ( 'NONE',  ( -1.982541115402065110E-16, 1.000000000000000000, 0.000000000000000000 ) ) ;
#873 = CARTESIAN_POINT ( 'NONE',  ( -40.99999999999998579, -12.50000000000000178, 0.000000000000000000 ) ) ;
#874 = ORIENTED_EDGE ( 'NONE', *, *, #1169, .T. ) ;
#875 = EDGE_CURVE ( 'NONE', #180, #349, #975, .T. ) ;
#876 = ORIENTED_EDGE ( 'NONE', *, *, #713, .T. ) ;
#877 = CARTESIAN_POINT ( 'NONE',  ( 35.99999999999999289, 3.249999999999997335, 6.000000000000000000 ) ) ;
#878 = DIRECTION ( 'NONE',  ( -0.06772572012531345720, 0.9922384507766766060, 0.1042884635700829787 ) ) ;
#879 = VERTEX_POINT ( 'NONE', #804 ) ;
#880 = PERSON_AND_ORGANIZATION ( #990, #477 ) ;
#881 = DIRECTION ( 'NONE',  ( 0.000000000000000000, 1.000000000000000000, 0.000000000000000000 ) ) ;
#882 = DIRECTION ( 'NONE',  ( -1.000000000000000000, -5.981805089575198662E-17, 0.000000000000000000 ) ) ;
#883 = VECTOR ( 'NONE', #426, 1000.000000000000000 ) ;
#884 = EDGE_LOOP ( 'NONE', ( #18, #793, #344, #463 ) ) ;
#885 = VECTOR ( 'NONE', #188, 1000.000000000000000 ) ;
#886 = ORIENTED_EDGE ( 'NONE', *, *, #1106, .F. ) ;
#887 = APPROVAL_PERSON_ORGANIZATION ( #346, #996, #714 ) ;
#888 = CLOSED_SHELL ( 'NONE', ( #669, #755, #745, #222, #557, #506, #6, #231, #259, #280, #652, #1070, #197, #245, #631, #1132, #507, #808, #921, #43, #1087, #1088, #1035, #381, #989, #247, #205, #1140, #958, #176, #125, #159, #124, #386 ) ) ;
#889 = EDGE_CURVE ( 'NONE', #918, #1069, #274, .T. ) ;
#890 = PLANE ( 'NONE',  #490 ) ;
#891 = CARTESIAN_POINT ( 'NONE',  ( 41.00000000000002132, 12.49999999999999822, 0.000000000000000000 ) ) ;
#892 = ORIENTED_EDGE ( 'NONE', *, *, #843, .F. ) ;
#893 = EDGE_LOOP ( 'NONE', ( #554, #619, #452, #241, #611, #234, #57, #724 ) ) ;
#894 = LINE ( 'NONE', #1, #1137 ) ;
#895 = LINE ( 'NONE', #891, #377 ) ;
#896 = PRODUCT_DEFINITION ( 'UNKNOWN', '', #81, #578 ) ;
#897 = ORIENTED_EDGE ( 'NONE', *, *, #460, .T. ) ;
#898 = EDGE_LOOP ( 'NONE', ( #444, #544, #334, #596 ) ) ;
#899 = EDGE_LOOP ( 'NONE', ( #1042, #734, #1139, #814 ) ) ;
#900 = APPROVAL ( #453, 'UNSPECIFIED' ) ;
#901 = LINE ( 'NONE', #178, #642 ) ;
#902 = CARTESIAN_POINT ( 'NONE',  ( -24.74999999999996803, -3.250000000000002665, 4.749999999999997335 ) ) ;
#903 = ORIENTED_EDGE ( 'NONE', *, *, #139, .F. ) ;
#904 = VERTEX_POINT ( 'NONE', #1074 ) ;
#905 = VECTOR ( 'NONE', #101, 1000.000000000000000 ) ;
#906 = ORIENTED_EDGE ( 'NONE', *, *, #1162, .T. ) ;
#907 = VECTOR ( 'NONE', #1012, 1000.000000000000000 ) ;
#908 = CARTESIAN_POINT ( 'NONE',  ( 0.000000000000000000, 11.04309336266755182, 14.00000000000000000 ) ) ;
#909 = CARTESIAN_POINT ( 'NONE',  ( -21.00000000000000711, 17.50000000000000000, 14.00000000000000000 ) ) ;
#910 = ORIENTED_EDGE ( 'NONE', *, *, #774, .F. ) ;
#911 = ORIENTED_EDGE ( 'NONE', *, *, #443, .F. ) ;
#912 = EDGE_CURVE ( 'NONE', #510, #1069, #637, .T. ) ;
#913 = EDGE_CURVE ( 'NONE', #258, #858, #450, .T. ) ;
#914 = LINE ( 'NONE', #1123, #265 ) ;
#915 = FACE_OUTER_BOUND ( 'NONE', #52, .T. ) ;
#916 = VERTEX_POINT ( 'NONE', #2 ) ;
#917 = CARTESIAN_POINT ( 'NONE',  ( 20.99999999999999289, 11.50000000000000000, 6.000000000000000000 ) ) ;
#918 = VERTEX_POINT ( 'NONE', #11 ) ;
#919 = CARTESIAN_POINT ( 'NONE',  ( -21.00000000000000711, 12.50000000000000000, 0.000000000000000000 ) ) ;
#920 = DIRECTION ( 'NONE',  ( -1.000000000000000000, 0.000000000000000000, 0.000000000000000000 ) ) ;
#921 = ADVANCED_FACE ( 'NONE', ( #819 ), #431, .F. ) ;
#922 = DIRECTION ( 'NONE',  ( 1.000000000000000000, 0.000000000000000000, -0.000000000000000000 ) ) ;
#923 = CARTESIAN_POINT ( 'NONE',  ( 14.49999999999999822, 11.04309336266755182, 14.00000000000000000 ) ) ;
#924 = VECTOR ( 'NONE', #437, 1000.000000000000000 ) ;
#925 = DIRECTION ( 'NONE',  ( 0.000000000000000000, -1.000000000000000000, 0.000000000000000000 ) ) ;
#926 = CARTESIAN_POINT ( 'NONE',  ( 20.99999999999999289, 17.50000000000000000, 0.000000000000000000 ) ) ;
#927 = EDGE_CURVE ( 'NONE', #743, #574, #1153, .T. ) ;
#928 = VECTOR ( 'NONE', #78, 1000.000000000000000 ) ;
#929 = ORIENTED_EDGE ( 'NONE', *, *, #545, .T. ) ;
#930 = VECTOR ( 'NONE', #504, 1000.000000000000000 ) ;
#931 = CARTESIAN_POINT ( 'NONE',  ( 0.000000000000000000, 11.04309336266755182, 14.00000000000000000 ) ) ;
#932 = CARTESIAN_POINT ( 'NONE',  ( -0.000000000000000000, -3.250000000000002665, 0.000000000000000000 ) ) ;
#933 = FACE_OUTER_BOUND ( 'NONE', #361, .T. ) ;
#934 = DIRECTION ( 'NONE',  ( 1.000000000000000000, 0.000000000000000000, 0.000000000000000000 ) ) ;
#935 = CARTESIAN_POINT ( 'NONE',  ( -40.99999999999998579, 12.50000000000000000, 0.000000000000000000 ) ) ;
#936 = DIRECTION ( 'NONE',  ( -1.000000000000000000, 0.000000000000000000, -0.000000000000000000 ) ) ;
#937 = DIRECTION ( 'NONE',  ( -1.000000000000000000, 0.000000000000000000, -0.000000000000000000 ) ) ;
#938 = ORIENTED_EDGE ( 'NONE', *, *, #1162, .F. ) ;
#939 = DIRECTION ( 'NONE',  ( -0.000000000000000000, -0.000000000000000000, -1.000000000000000000 ) ) ;
#940 = CARTESIAN_POINT ( 'NONE',  ( -14.50000000000000178, 11.50000000000000000, 14.00000000000000000 ) ) ;
#941 = DIRECTION ( 'NONE',  ( -1.971680547735192541E-16, 0.9945218953682732899, 0.1045284632676542896 ) ) ;
#942 = CARTESIAN_POINT ( 'NONE',  ( 9.679234524861790590, -17.50000000000000000, 19.92332785393234929 ) ) ;
#943 = AXIS2_PLACEMENT_3D ( 'NONE', #485, #847, #760 ) ;
#944 = SECURITY_CLASSIFICATION ( '', '', #616 ) ;
#945 = EDGE_CURVE ( 'NONE', #1060, #1005, #251, .T. ) ;
#946 = EDGE_LOOP ( 'NONE', ( #938, #823, #333, #248 ) ) ;
#947 = EDGE_CURVE ( 'NONE', #995, #1001, #981, .T. ) ;
#948 = APPROVAL_PERSON_ORGANIZATION ( #810, #900, #1061 ) ;
#949 = EDGE_CURVE ( 'NONE', #137, #532, #799, .T. ) ;
#950 = LINE ( 'NONE', #597, #547 ) ;
#951 = PLANE ( 'NONE',  #286 ) ;
#952 = DIRECTION ( 'NONE',  ( 0.000000000000000000, 0.000000000000000000, -1.000000000000000000 ) ) ;
#953 = ORIENTED_EDGE ( 'NONE', *, *, #211, .T. ) ;
#954 = VERTEX_POINT ( 'NONE', #1083 ) ;
#955 = CARTESIAN_POINT ( 'NONE',  ( 20.99999999999999289, 17.50000000000000000, 0.000000000000000000 ) ) ;
#956 = DIRECTION ( 'NONE',  ( 1.000000000000000000, -0.000000000000000000, -0.000000000000000000 ) ) ;
#957 = CARTESIAN_POINT ( 'NONE',  ( -21.00000000000000711, 17.50000000000000000, 0.000000000000000000 ) ) ;
#958 = ADVANCED_FACE ( 'NONE', ( #353 ), #270, .F. ) ;
#959 = ORIENTED_EDGE ( 'NONE', *, *, #805, .F. ) ;
#960 = VERTEX_POINT ( 'NONE', #845 ) ;
#961 = PLANE ( 'NONE',  #1156 ) ;
#962 = DIRECTION ( 'NONE',  ( -1.000000000000000000, 0.000000000000000000, -0.000000000000000000 ) ) ;
#963 = AXIS2_PLACEMENT_3D ( 'NONE', #731, #1108, #553 ) ;
#964 = LINE ( 'NONE', #489, #77 ) ;
#965 = EDGE_CURVE ( 'NONE', #977, #74, #371, .T. ) ;
#966 = EDGE_CURVE ( 'NONE', #401, #807, #757, .T. ) ;
#967 = ORIENTED_EDGE ( 'NONE', *, *, #861, .T. ) ;
#968 = VECTOR ( 'NONE', #824, 1000.000000000000000 ) ;
#969 = ORIENTED_EDGE ( 'NONE', *, *, #965, .F. ) ;
#970 = DIRECTION ( 'NONE',  ( 1.000000000000000000, 0.000000000000000000, 0.000000000000000000 ) ) ;
#971 = FACE_BOUND ( 'NONE', #412, .T. ) ;
#972 = ORIENTED_EDGE ( 'NONE', *, *, #870, .T. ) ;
#973 = EDGE_LOOP ( 'NONE', ( #874, #795, #275, #319 ) ) ;
#974 = CARTESIAN_POINT ( 'NONE',  ( -14.50000000000000178, 11.50000000000000000, 14.00000000000000000 ) ) ;
#975 = LINE ( 'NONE', #442, #1037 ) ;
#976 = VERTEX_POINT ( 'NONE', #29 ) ;
#977 = VERTEX_POINT ( 'NONE', #34 ) ;
#978 = EDGE_CURVE ( 'NONE', #427, #679, #209, .T. ) ;
#979 = DATE_TIME_ROLE ( 'classification_date' ) ;
#980 = DIRECTION ( 'NONE',  ( 0.8386705679454256046, 0.000000000000000000, -0.5446390350150248638 ) ) ;
#981 = LINE ( 'NONE', #360, #677 ) ;
#982 = VECTOR ( 'NONE', #569, 1000.000000000000000 ) ;
#983 = ORIENTED_EDGE ( 'NONE', *, *, #577, .F. ) ;
#984 = VECTOR ( 'NONE', #534, 1000.000000000000000 ) ;
#985 = VERTEX_POINT ( 'NONE', #204 ) ;
#986 =( GEOMETRIC_REPRESENTATION_CONTEXT ( 3 ) GLOBAL_UNCERTAINTY_ASSIGNED_CONTEXT ( ( #854 ) ) GLOBAL_UNIT_ASSIGNED_CONTEXT ( ( #65, #1124, #586 ) ) REPRESENTATION_CONTEXT ( 'NONE', 'WORKASPACE' ) );
#987 = VECTOR ( 'NONE', #30, 1000.000000000000000 ) ;
#988 = COORDINATED_UNIVERSAL_TIME_OFFSET ( 1, 0, .AHEAD. ) ;
#989 = ADVANCED_FACE ( 'NONE', ( #301 ), #389, .F. ) ;
#990 = PERSON ( 'UNSPECIFIED', 'UNSPECIFIED', 'UNSPECIFIED', ('UNSPECIFIED'), ('UNSPECIFIED'), ('UNSPECIFIED') ) ;
#991 = DIRECTION ( 'NONE',  ( 0.000000000000000000, -1.000000000000000000, 0.000000000000000000 ) ) ;
#992 = CARTESIAN_POINT ( 'NONE',  ( 14.49999999999999822, -17.50000000000000000, 12.50000000000001776 ) ) ;
#993 = ORIENTED_EDGE ( 'NONE', *, *, #355, .F. ) ;
#994 = ORIENTED_EDGE ( 'NONE', *, *, #9, .F. ) ;
#995 = VERTEX_POINT ( 'NONE', #641 ) ;
#996 = APPROVAL ( #1066, 'UNSPECIFIED' ) ;
#997 = CALENDAR_DATE ( 2026, 2, 6 ) ;
#998 = CARTESIAN_POINT ( 'NONE',  ( 19.99999999999998224, -3.250000000000002665, 0.000000000000000000 ) ) ;
#999 = LINE ( 'NONE', #517, #221 ) ;
#1000 = EDGE_LOOP ( 'NONE', ( #764, #98, #670, #732, #993, #638, #969, #983, #356, #863, #1127, #187 ) ) ;
#1001 = VERTEX_POINT ( 'NONE', #752 ) ;
#1002 = LINE ( 'NONE', #974, #885 ) ;
#1003 = LINE ( 'NONE', #747, #815 ) ;
#1004 = EDGE_CURVE ( 'NONE', #180, #372, #1013, .T. ) ;
#1005 = VERTEX_POINT ( 'NONE', #926 ) ;
#1006 = VECTOR ( 'NONE', #306, 1000.000000000000000 ) ;
#1007 = AXIS2_PLACEMENT_3D ( 'NONE', #308, #216, #575 ) ;
#1008 = DIRECTION ( 'NONE',  ( -1.982541115402065110E-16, 1.000000000000000000, 0.000000000000000000 ) ) ;
#1009 = FACE_OUTER_BOUND ( 'NONE', #257, .T. ) ;
#1010 = ORIENTED_EDGE ( 'NONE', *, *, #913, .F. ) ;
#1011 = CARTESIAN_POINT ( 'NONE',  ( -35.99999999999999289, 0.000000000000000000, 0.000000000000000000 ) ) ;
#1012 = DIRECTION ( 'NONE',  ( 0.7071067811865466846, -0.000000000000000000, 0.7071067811865483499 ) ) ;
#1013 = LINE ( 'NONE', #109, #982 ) ;
#1014 = PLANE ( 'NONE',  #417 ) ;
#1015 = DIRECTION ( 'NONE',  ( 0.000000000000000000, -1.000000000000000000, 0.000000000000000000 ) ) ;
#1016 = EDGE_CURVE ( 'NONE', #729, #1047, #116, .T. ) ;
#1017 = DIRECTION ( 'NONE',  ( -1.000000000000000000, -1.982541115402065110E-16, 0.000000000000000000 ) ) ;
#1018 = LINE ( 'NONE', #471, #620 ) ;
#1019 = DIRECTION ( 'NONE',  ( -0.06772572012531345720, -0.9922384507766766060, -0.1042884635700829787 ) ) ;
#1020 = DIRECTION ( 'NONE',  ( -1.982541115402065110E-16, 1.000000000000000000, 0.000000000000000000 ) ) ;
#1021 = VECTOR ( 'NONE', #722, 1000.000000000000000 ) ;
#1022 = DIRECTION ( 'NONE',  ( 1.982541115402065110E-16, -1.000000000000000000, 0.000000000000000000 ) ) ;
#1023 = DIRECTION ( 'NONE',  ( 1.000000000000000000, 0.000000000000000000, 0.000000000000000000 ) ) ;
#1024 = AXIS2_PLACEMENT_3D ( 'NONE', #647, #1017, #199 ) ;
#1025 = CARTESIAN_POINT ( 'NONE',  ( -35.99999999999999289, -3.250000000000002665, 6.000000000000000000 ) ) ;
#1026 = DIRECTION ( 'NONE',  ( 0.000000000000000000, -0.000000000000000000, -1.000000000000000000 ) ) ;
#1027 = CARTESIAN_POINT ( 'NONE',  ( 21.00000000000000000, -17.50000000000000000, 0.000000000000000000 ) ) ;
#1028 = CALENDAR_DATE ( 2026, 2, 6 ) ;
#1029 = CARTESIAN_POINT ( 'NONE',  ( 14.49999999999999822, 11.50000000000000178, 14.00000000000000000 ) ) ;
#1030 = DIRECTION ( 'NONE',  ( 1.982541115402065110E-16, -1.000000000000000000, 0.000000000000000000 ) ) ;
#1031 = PERSON_AND_ORGANIZATION_ROLE ( 'creator' ) ;
#1032 = DIRECTION ( 'NONE',  ( 0.000000000000000000, 0.000000000000000000, 1.000000000000000000 ) ) ;
#1033 = CARTESIAN_POINT ( 'NONE',  ( 25.99999999999998934, 3.249999999999997335, 6.000000000000000000 ) ) ;
#1034 = EDGE_CURVE ( 'NONE', #769, #595, #1018, .T. ) ;
#1035 = ADVANCED_FACE ( 'NONE', ( #933 ), #121, .T. ) ;
#1036 = ORIENTED_EDGE ( 'NONE', *, *, #750, .F. ) ;
#1037 = VECTOR ( 'NONE', #727, 1000.000000000000000 ) ;
#1038 = FACE_OUTER_BOUND ( 'NONE', #515, .T. ) ;
#1039 = DIRECTION ( 'NONE',  ( 1.971680547735192541E-16, -0.9945218953682732899, -0.1045284632676542896 ) ) ;
#1040 = CC_DESIGN_APPROVAL ( #614, ( #896 ) ) ;
#1041 = ORIENTED_EDGE ( 'NONE', *, *, #119, .T. ) ;
#1042 = ORIENTED_EDGE ( 'NONE', *, *, #160, .T. ) ;
#1043 = EDGE_CURVE ( 'NONE', #543, #918, #559, .T. ) ;
#1044 = FACE_OUTER_BOUND ( 'NONE', #615, .T. ) ;
#1045 = DIRECTION ( 'NONE',  ( 0.000000000000000000, -0.000000000000000000, 1.000000000000000000 ) ) ;
#1046 = LINE ( 'NONE', #867, #1117 ) ;
#1047 = VERTEX_POINT ( 'NONE', #833 ) ;
#1048 = EDGE_LOOP ( 'NONE', ( #967, #862, #446, #271 ) ) ;
#1049 = EDGE_CURVE ( 'NONE', #328, #68, #1003, .T. ) ;
#1050 = LINE ( 'NONE', #49, #771 ) ;
#1051 = LINE ( 'NONE', #1152, #645 ) ;
#1052 = CARTESIAN_POINT ( 'NONE',  ( -14.50000000000000178, 11.50000000000000000, 6.000000000000000000 ) ) ;
#1053 = ORIENTED_EDGE ( 'NONE', *, *, #790, .F. ) ;
#1054 = ORIENTED_EDGE ( 'NONE', *, *, #369, .F. ) ;
#1055 = LINE ( 'NONE', #314, #174 ) ;
#1056 = AXIS2_PLACEMENT_3D ( 'NONE', #466, #1101, #288 ) ;
#1057 = DIRECTION ( 'NONE',  ( -0.000000000000000000, 0.000000000000000000, 1.000000000000000000 ) ) ;
#1058 = ORIENTED_EDGE ( 'NONE', *, *, #790, .T. ) ;
#1059 = VECTOR ( 'NONE', #936, 1000.000000000000000 ) ;
#1060 = VERTEX_POINT ( 'NONE', #392 ) ;
#1061 = APPROVAL_ROLE ( '' ) ;
#1062 = DIRECTION ( 'NONE',  ( -1.000000000000000000, -0.000000000000000000, -0.000000000000000000 ) ) ;
#1063 = CARTESIAN_POINT ( 'NONE',  ( 14.32321451808254764, -0.6383981317590508020, 12.77222576971577972 ) ) ;
#1064 = ORIENTED_EDGE ( 'NONE', *, *, #630, .T. ) ;
#1065 = ORIENTED_EDGE ( 'NONE', *, *, #1043, .F. ) ;
#1066 = APPROVAL_STATUS ( 'not_yet_approved' ) ;
#1067 = CARTESIAN_POINT ( 'NONE',  ( -35.99999999999999289, -3.250000000000002665, -1.734723475976807094E-15 ) ) ;
#1068 = DIRECTION ( 'NONE',  ( -0.000000000000000000, 1.000000000000000000, 0.000000000000000000 ) ) ;
#1069 = VERTEX_POINT ( 'NONE', #1119 ) ;
#1070 = ADVANCED_FACE ( 'NONE', ( #1009 ), #822, .F. ) ;
#1071 = ORIENTED_EDGE ( 'NONE', *, *, #387, .T. ) ;
#1072 = PERSON_AND_ORGANIZATION ( #990, #477 ) ;
#1073 = LINE ( 'NONE', #659, #224 ) ;
#1074 = CARTESIAN_POINT ( 'NONE',  ( 41.00000000000002132, 12.49999999999999822, 0.000000000000000000 ) ) ;
#1075 = VECTOR ( 'NONE', #228, 1000.000000000000000 ) ;
#1076 = ORIENTED_EDGE ( 'NONE', *, *, #146, .F. ) ;
#1077 = ORIENTED_EDGE ( 'NONE', *, *, #1125, .T. ) ;
#1078 = AXIS2_PLACEMENT_3D ( 'NONE', #803, #162, #365 ) ;
#1079 = ORIENTED_EDGE ( 'NONE', *, *, #947, .F. ) ;
#1080 = AXIS2_PLACEMENT_3D ( 'NONE', #250, #516, #60 ) ;
#1081 = EDGE_CURVE ( 'NONE', #574, #954, #376, .T. ) ;
#1082 = DIRECTION ( 'NONE',  ( 0.000000000000000000, -0.000000000000000000, 1.000000000000000000 ) ) ;
#1083 = CARTESIAN_POINT ( 'NONE',  ( -21.00000000000000711, 11.04309336266755182, 14.00000000000000000 ) ) ;
#1084 = VERTEX_POINT ( 'NONE', #462 ) ;
#1085 = EDGE_LOOP ( 'NONE', ( #445, #813, #801, #1163, #249, #1054, #585, #602, #420, #1141 ) ) ;
#1086 = EDGE_LOOP ( 'NONE', ( #1010, #1150, #508, #268 ) ) ;
#1087 = ADVANCED_FACE ( 'NONE', ( #15 ), #193, .T. ) ;
#1088 = ADVANCED_FACE ( 'NONE', ( #915 ), #105, .T. ) ;
#1089 = DIRECTION ( 'NONE',  ( 0.000000000000000000, 0.000000000000000000, -1.000000000000000000 ) ) ;
#1090 = CARTESIAN_POINT ( 'NONE',  ( -22.13776502026988524, -17.50000000000000000, 0.7388732434377782710 ) ) ;
#1091 = ORIENTED_EDGE ( 'NONE', *, *, #978, .F. ) ;
#1092 = CARTESIAN_POINT ( 'NONE',  ( -21.00000000000000000, -17.50000000000000000, 8.500000000000000000 ) ) ;
#1093 = DIRECTION ( 'NONE',  ( 1.000000000000000000, -2.115516434118057154E-17, 0.000000000000000000 ) ) ;
#1094 = ORIENTED_EDGE ( 'NONE', *, *, #335, .T. ) ;
#1095 = DIRECTION ( 'NONE',  ( -1.000000000000000000, 2.115516434118057462E-17, -0.000000000000000000 ) ) ;
#1096 = EDGE_LOOP ( 'NONE', ( #994, #291, #707, #691 ) ) ;
#1097 = VECTOR ( 'NONE', #1023, 1000.000000000000000 ) ;
#1098 = VECTOR ( 'NONE', #1008, 1000.000000000000000 ) ;
#1099 = VECTOR ( 'NONE', #939, 1000.000000000000000 ) ;
#1100 = PLANE ( 'NONE',  #1024 ) ;
#1101 = DIRECTION ( 'NONE',  ( 0.000000000000000000, 0.000000000000000000, -1.000000000000000000 ) ) ;
#1102 = FACE_OUTER_BOUND ( 'NONE', #893, .T. ) ;
#1103 = DIRECTION ( 'NONE',  ( -1.000000000000000000, 2.775557561562890858E-16, 0.000000000000000000 ) ) ;
#1104 = ORIENTED_EDGE ( 'NONE', *, *, #350, .T. ) ;
#1105 = CC_DESIGN_APPROVAL ( #900, ( #944 ) ) ;
#1106 = EDGE_CURVE ( 'NONE', #976, #634, #950, .T. ) ;
#1107 = DIRECTION ( 'NONE',  ( -0.000000000000000000, -0.000000000000000000, -1.000000000000000000 ) ) ;
#1108 = DIRECTION ( 'NONE',  ( 0.000000000000000000, 0.000000000000000000, -1.000000000000000000 ) ) ;
#1109 = DIRECTION ( 'NONE',  ( -1.000000000000000000, 0.000000000000000000, 0.000000000000000000 ) ) ;
#1110 = FACE_BOUND ( 'NONE', #519, .T. ) ;
#1111 = CC_DESIGN_PERSON_AND_ORGANIZATION_ASSIGNMENT ( #53, #864, ( #448 ) ) ;
#1112 = DIRECTION ( 'NONE',  ( -1.000000000000000000, -1.982541115402065110E-16, 0.000000000000000000 ) ) ;
#1113 = CARTESIAN_POINT ( 'NONE',  ( -40.99999999999998579, -12.50000000000000178, 0.000000000000000000 ) ) ;
#1114 = FACE_OUTER_BOUND ( 'NONE', #438, .T. ) ;
#1115 = FACE_OUTER_BOUND ( 'NONE', #898, .T. ) ;
#1116 = PRODUCT_RELATED_PRODUCT_CATEGORY ( 'detail', '', ( #448 ) ) ;
#1117 = VECTOR ( 'NONE', #1149, 1000.000000000000000 ) ;
#1118 = CARTESIAN_POINT ( 'NONE',  ( -21.00000000000000711, 17.50000000000000000, 0.000000000000000000 ) ) ;
#1119 = CARTESIAN_POINT ( 'NONE',  ( 14.49999999999999822, -3.228453318666044236, 12.50000000000001776 ) ) ;
#1120 = VECTOR ( 'NONE', #373, 1000.000000000000000 ) ;
#1121 = PLANE ( 'NONE',  #493 ) ;
#1122 = CARTESIAN_POINT ( 'NONE',  ( -21.00000000000000000, -12.50000000000000533, 6.000000000000000000 ) ) ;
#1123 = CARTESIAN_POINT ( 'NONE',  ( -21.00000000000000000, -17.50000000000000000, 0.000000000000000000 ) ) ;
#1124 =( NAMED_UNIT ( * ) PLANE_ANGLE_UNIT ( ) SI_UNIT ( $, .RADIAN. ) );
#1125 = EDGE_CURVE ( 'NONE', #644, #91, #1050, .T. ) ;
#1126 = PLANE ( 'NONE',  #1007 ) ;
#1127 = ORIENTED_EDGE ( 'NONE', *, *, #160, .F. ) ;
#1128 = CARTESIAN_POINT ( 'NONE',  ( -35.99999999999999289, 3.249999999999997335, -6.499999999999999112 ) ) ;
#1129 = FACE_OUTER_BOUND ( 'NONE', #1086, .T. ) ;
#1130 = CARTESIAN_POINT ( 'NONE',  ( 20.99999999999999289, 11.50000000000000000, 8.500000000000000000 ) ) ;
#1131 = ORIENTED_EDGE ( 'NONE', *, *, #32, .T. ) ;
#1132 = ADVANCED_FACE ( 'NONE', ( #138 ), #237, .T. ) ;
#1133 = ORIENTED_EDGE ( 'NONE', *, *, #756, .F. ) ;
#1134 = VECTOR ( 'NONE', #307, 1000.000000000000000 ) ;
#1135 = PLANE ( 'NONE',  #869 ) ;
#1136 = DIRECTION ( 'NONE',  ( -0.000000000000000000, -0.000000000000000000, 1.000000000000000000 ) ) ;
#1137 = VECTOR ( 'NONE', #726, 1000.000000000000000 ) ;
#1138 = VECTOR ( 'NONE', #1019, 1000.000000000000114 ) ;
#1139 = ORIENTED_EDGE ( 'NONE', *, *, #87, .F. ) ;
#1140 = ADVANCED_FACE ( 'NONE', ( #1044 ), #961, .F. ) ;
#1141 = ORIENTED_EDGE ( 'NONE', *, *, #1004, .T. ) ;
#1142 = CARTESIAN_POINT ( 'NONE',  ( 0.000000000000000000, 0.000000000000000000, 0.000000000000000000 ) ) ;
#1143 = DIRECTION ( 'NONE',  ( -1.000000000000000000, 0.000000000000000000, 0.000000000000000000 ) ) ;
#1144 = DIRECTION ( 'NONE',  ( 0.5446390350150248638, 0.000000000000000000, -0.8386705679454256046 ) ) ;
#1145 = EDGE_LOOP ( 'NONE', ( #58, #1091, #897, #432 ) ) ;
#1146 = ORIENTED_EDGE ( 'NONE', *, *, #870, .F. ) ;
#1147 = PERSON_AND_ORGANIZATION ( #990, #477 ) ;
#1148 = CARTESIAN_POINT ( 'NONE',  ( 17.09763037279002873, -17.50000000000000000, 8.500000000000000000 ) ) ;
#1149 = DIRECTION ( 'NONE',  ( -0.000000000000000000, -0.000000000000000000, -1.000000000000000000 ) ) ;
#1150 = ORIENTED_EDGE ( 'NONE', *, *, #9, .T. ) ;
#1151 = EDGE_LOOP ( 'NONE', ( #699, #1094, #236, #720 ) ) ;
#1152 = CARTESIAN_POINT ( 'NONE',  ( -21.00000000000000000, -17.50000000000000000, 10.99999999999999822 ) ) ;
#1153 = LINE ( 'NONE', #179, #317 ) ;
#1154 = ORIENTED_EDGE ( 'NONE', *, *, #292, .T. ) ;
#1155 = AXIS2_PLACEMENT_3D ( 'NONE', #71, #331, #676 ) ;
#1156 = AXIS2_PLACEMENT_3D ( 'NONE', #1128, #937, #330 ) ;
#1157 = ORIENTED_EDGE ( 'NONE', *, *, #492, .F. ) ;
#1158 = CC_DESIGN_SECURITY_CLASSIFICATION ( #944, ( #81 ) ) ;
#1159 = CARTESIAN_POINT ( 'NONE',  ( -21.00000000000000000, -17.50000000000000000, 6.000000000000000000 ) ) ;
#1160 = CARTESIAN_POINT ( 'NONE',  ( -40.99999999999998579, -12.50000000000000178, 6.000000000000000000 ) ) ;
#1161 = EDGE_CURVE ( 'NONE', #8, #258, #215, .T. ) ;
#1162 = EDGE_CURVE ( 'NONE', #181, #976, #313, .T. ) ;
#1163 = ORIENTED_EDGE ( 'NONE', *, *, #1043, .T. ) ;
#1164 = ORIENTED_EDGE ( 'NONE', *, *, #168, .F. ) ;
#1165 = CARTESIAN_POINT ( 'NONE',  ( 35.99999999999999289, 3.249999999999997335, 6.000000000000000000 ) ) ;
#1166 = DIRECTION ( 'NONE',  ( -5.981805089575198662E-17, 1.000000000000000000, 0.000000000000000000 ) ) ;
#1167 = ORIENTED_EDGE ( 'NONE', *, *, #75, .T. ) ;
#1168 = EDGE_LOOP ( 'NONE', ( #13, #972, #97, #903 ) ) ;
#1169 = EDGE_CURVE ( 'NONE', #621, #367, #495, .T. ) ;
ENDSEC;
END-ISO-10303-21;
