ISO-10303-21;
HEADER;
FILE_DESCRIPTION (( 'STEP AP203' ),
    '1' );
FILE_NAME ('fix_holybro.STEP',
    '2026-08-10T10:47:08',
    ( '' ),
    ( '' ),
    'SwSTEP 2.0',
    'SolidWorks 2020',
    '' );
FILE_SCHEMA (( 'CONFIG_CONTROL_DESIGN' ));
ENDSEC;

DATA;
#1 = ORIENTED_EDGE ( 'NONE', *, *, #334, .T. ) ;
#2 = CC_DESIGN_PERSON_AND_ORGANIZATION_ASSIGNMENT ( #106, #386, ( #90 ) ) ;
#3 = APPROVAL_STATUS ( 'not_yet_approved' ) ;
#4 = LINE ( 'NONE', #83, #204 ) ;
#5 = CARTESIAN_POINT ( 'NONE',  ( 1.500000000000000222, 1.836970198721030181E-16, 0.000000000000000000 ) ) ;
#6 = LOCAL_TIME ( 12, 47, 8.000000000000000000, #283 ) ;
#7 = EDGE_CURVE ( 'NONE', #286, #457, #4, .T. ) ;
#8 = CARTESIAN_POINT ( 'NONE',  ( 0.5889351576442591885, -2.617489589530042071, 2.000000000000000000 ) ) ;
#9 = VERTEX_POINT ( 'NONE', #229 ) ;
#10 = CARTESIAN_POINT ( 'NONE',  ( 0.000000000000000000, 0.000000000000000000, 2.000000000000000000 ) ) ;
#11 = DIRECTION ( 'NONE',  ( 0.9756097560975609539, 0.2195121951219511092, 0.000000000000000000 ) ) ;
#12 = DIRECTION ( 'NONE',  ( 1.000000000000000000, 0.000000000000000000, 0.000000000000000000 ) ) ;
#13 = LINE ( 'NONE', #88, #326 ) ;
#14 = CARTESIAN_POINT ( 'NONE',  ( 0.000000000000000000, 0.000000000000000000, 0.000000000000000000 ) ) ;
#15 = AXIS2_PLACEMENT_3D ( 'NONE', #444, #441, #266 ) ;
#16 = DIRECTION ( 'NONE',  ( 0.2195121951219511369, -0.9756097560975610650, 0.000000000000000000 ) ) ;
#17 = FACE_OUTER_BOUND ( 'NONE', #35, .T. ) ;
#18 = EDGE_CURVE ( 'NONE', #81, #324, #426, .T. ) ;
#19 = CYLINDRICAL_SURFACE ( 'NONE', #391, 1.500000000000000222 ) ;
#20 = DIRECTION ( 'NONE',  ( -0.000000000000000000, 0.000000000000000000, 1.000000000000000000 ) ) ;
#21 = CARTESIAN_POINT ( 'NONE',  ( -15.00000000000001421, 0.000000000000000000, -2.000000000000000000 ) ) ;
#22 = APPLICATION_CONTEXT ( 'configuration controlled 3d designs of mechanical parts and assemblies' ) ;
#23 = DIRECTION ( 'NONE',  ( 1.000000000000000000, 0.000000000000000000, 0.000000000000000000 ) ) ;
#24 = CC_DESIGN_PERSON_AND_ORGANIZATION_ASSIGNMENT ( #182, #210, ( #185 ) ) ;
#25 = AXIS2_PLACEMENT_3D ( 'NONE', #375, #430, #276 ) ;
#26 = ORIENTED_EDGE ( 'NONE', *, *, #421, .F. ) ;
#27 = DIRECTION ( 'NONE',  ( -0.000000000000000000, 0.000000000000000000, 1.000000000000000000 ) ) ;
#28 = ORIENTED_EDGE ( 'NONE', *, *, #152, .F. ) ;
#29 = ORIENTED_EDGE ( 'NONE', *, *, #120, .F. ) ;
#30 = CALENDAR_DATE ( 2026, 10, 8 ) ;
#31 = AXIS2_PLACEMENT_3D ( 'NONE', #162, #167, #126 ) ;
#32 = AXIS2_PLACEMENT_3D ( 'NONE', #10, #295, #265 ) ;
#33 = VERTEX_POINT ( 'NONE', #5 ) ;
#34 = CC_DESIGN_APPROVAL ( #415, ( #279 ) ) ;
#35 = EDGE_LOOP ( 'NONE', ( #414, #294, #157, #455 ) ) ;
#36 = ORIENTED_EDGE ( 'NONE', *, *, #164, .T. ) ;
#37 = UNCERTAINTY_MEASURE_WITH_UNIT (LENGTH_MEASURE( 1.000000000000000082E-05 ), #176, 'distance_accuracy_value', 'NONE');
#38 = CC_DESIGN_DATE_AND_TIME_ASSIGNMENT ( #256, #327, ( #279 ) ) ;
#39 = AXIS2_PLACEMENT_3D ( 'NONE', #58, #275, #138 ) ;
#40 = ORIENTED_EDGE ( 'NONE', *, *, #139, .F. ) ;
#41 = ORIENTED_EDGE ( 'NONE', *, *, #18, .T. ) ;
#42 = EDGE_CURVE ( 'NONE', #74, #319, #159, .T. ) ;
#43 = APPROVAL_DATE_TIME ( #398, #415 ) ;
#44 = CARTESIAN_POINT ( 'NONE',  ( -7.500000000000009770, 3.061616997868383141E-16, 2.000000000000000000 ) ) ;
#45 = VECTOR ( 'NONE', #328, 1000.000000000000000 ) ;
#46 = DIRECTION ( 'NONE',  ( -1.000000000000000000, 0.000000000000000000, 0.000000000000000000 ) ) ;
#47 = AXIS2_PLACEMENT_3D ( 'NONE', #196, #368, #93 ) ;
#48 = CARTESIAN_POINT ( 'NONE',  ( 0.000000000000000000, 0.000000000000000000, 0.000000000000000000 ) ) ;
#49 = DIRECTION ( 'NONE',  ( -0.000000000000000000, -0.000000000000000000, -1.000000000000000000 ) ) ;
#50 = CARTESIAN_POINT ( 'NONE',  ( -10.00000000000001066, 0.000000000000000000, 2.000000000000000000 ) ) ;
#51 = DIRECTION ( 'NONE',  ( 0.000000000000000000, 0.000000000000000000, 1.000000000000000000 ) ) ;
#52 = DIRECTION ( 'NONE',  ( -1.000000000000000000, 0.000000000000000000, 0.000000000000000000 ) ) ;
#53 = CARTESIAN_POINT ( 'NONE',  ( 1.500000000000000222, 1.836970198721030181E-16, 2.000000000000000000 ) ) ;
#54 = DIRECTION ( 'NONE',  ( 1.000000000000000000, 0.000000000000000000, -0.000000000000000000 ) ) ;
#55 = LINE ( 'NONE', #232, #133 ) ;
#56 = AXIS2_PLACEMENT_3D ( 'NONE', #300, #402, #86 ) ;
#57 = CARTESIAN_POINT ( 'NONE',  ( -1.500000000000000222, 0.000000000000000000, 2.000000000000000000 ) ) ;
#58 = CARTESIAN_POINT ( 'NONE',  ( 0.000000000000000000, 0.000000000000000000, 2.000000000000000000 ) ) ;
#59 = CARTESIAN_POINT ( 'NONE',  ( -7.500000000000007994, 3.061616997868384620E-16, -2.000000000000000000 ) ) ;
#60 = CARTESIAN_POINT ( 'NONE',  ( -7.858417608566345969, 4.518143961927427732, 2.000000000000000000 ) ) ;
#61 = EDGE_CURVE ( 'NONE', #81, #346, #103, .T. ) ;
#62 = EDGE_LOOP ( 'NONE', ( #151, #423, #69, #288 ) ) ;
#63 = CARTESIAN_POINT ( 'NONE',  ( 0.000000000000000000, 0.000000000000000000, 2.000000000000000000 ) ) ;
#64 = AXIS2_PLACEMENT_3D ( 'NONE', #129, #89, #371 ) ;
#65 = CIRCLE ( 'NONE', #112, 1.500000000000000222 ) ;
#66 = CC_DESIGN_APPROVAL ( #247, ( #97 ) ) ;
#67 = ORIENTED_EDGE ( 'NONE', *, *, #403, .F. ) ;
#68 = FACE_BOUND ( 'NONE', #298, .T. ) ;
#69 = ORIENTED_EDGE ( 'NONE', *, *, #431, .F. ) ;
#70 = COORDINATED_UNIVERSAL_TIME_OFFSET ( 1, 0, .AHEAD. ) ;
#71 = EDGE_CURVE ( 'NONE', #290, #9, #357, .T. ) ;
#72 = PERSON_AND_ORGANIZATION ( #396, #113 ) ;
#73 = AXIS2_PLACEMENT_3D ( 'NONE', #170, #51, #174 ) ;
#74 = VERTEX_POINT ( 'NONE', #337 ) ;
#75 = VERTEX_POINT ( 'NONE', #245 ) ;
#76 = ADVANCED_FACE ( 'NONE', ( #331 ), #267, .T. ) ;
#77 = EDGE_LOOP ( 'NONE', ( #424, #116, #1, #313 ) ) ;
#78 = VECTOR ( 'NONE', #85, 1000.000000000000227 ) ;
#79 = AXIS2_PLACEMENT_3D ( 'NONE', #449, #412, #251 ) ;
#80 = CC_DESIGN_PERSON_AND_ORGANIZATION_ASSIGNMENT ( #262, #199, ( #97 ) ) ;
#81 = VERTEX_POINT ( 'NONE', #175 ) ;
#82 = CALENDAR_DATE ( 2026, 10, 8 ) ;
#83 = CARTESIAN_POINT ( 'NONE',  ( 0.5889351576442589664, 2.617489589530042071, 2.000000000000000000 ) ) ;
#84 = FACE_OUTER_BOUND ( 'NONE', #153, .T. ) ;
#85 = DIRECTION ( 'NONE',  ( -0.9756097560975609539, 0.2195121951219510537, 0.000000000000000000 ) ) ;
#86 = DIRECTION ( 'NONE',  ( -1.000000000000000000, 0.000000000000000000, 0.000000000000000000 ) ) ;
#87 = VECTOR ( 'NONE', #137, 1000.000000000000000 ) ;
#88 = CARTESIAN_POINT ( 'NONE',  ( 0.000000000000000000, 2.750000000000000444, 2.000000000000000000 ) ) ;
#89 = DIRECTION ( 'NONE',  ( -0.000000000000000000, 0.000000000000000000, 1.000000000000000000 ) ) ;
#90 = PRODUCT_DEFINITION ( 'UNKNOWN', '', #97, #134 ) ;
#91 = CARTESIAN_POINT ( 'NONE',  ( 0.000000000000000000, -2.750000000000000444, 2.000000000000000000 ) ) ;
#92 = DIRECTION ( 'NONE',  ( 0.000000000000000000, 0.000000000000000000, 1.000000000000000000 ) ) ;
#93 = DIRECTION ( 'NONE',  ( 1.000000000000000000, 0.000000000000000000, 0.000000000000000000 ) ) ;
#94 = CIRCLE ( 'NONE', #25, 1.500000000000000222 ) ;
#95 = CIRCLE ( 'NONE', #311, 2.500000000000001332 ) ;
#96 = DIRECTION ( 'NONE',  ( -0.000000000000000000, -0.000000000000000000, -1.000000000000000000 ) ) ;
#97 = PRODUCT_DEFINITION_FORMATION_WITH_SPECIFIED_SOURCE ( 'ANY', '', #185, .NOT_KNOWN. ) ;
#98 = ADVANCED_FACE ( 'NONE', ( #17 ), #209, .F. ) ;
#99 = CARTESIAN_POINT ( 'NONE',  ( 0.000000000000000000, 0.000000000000000000, 2.000000000000000000 ) ) ;
#100 = DIRECTION ( 'NONE',  ( 1.000000000000000000, 0.000000000000000000, 0.000000000000000000 ) ) ;
#101 = ORIENTED_EDGE ( 'NONE', *, *, #280, .F. ) ;
#102 = APPLICATION_PROTOCOL_DEFINITION ( 'international standard', 'config_control_design', 1994, #124 ) ;
#103 = CIRCLE ( 'NONE', #31, 2.500000000000000444 ) ;
#104 = LOCAL_TIME ( 12, 47, 8.000000000000000000, #70 ) ;
#105 = EDGE_LOOP ( 'NONE', ( #29, #101, #26, #318 ) ) ;
#106 = PERSON_AND_ORGANIZATION ( #396, #113 ) ;
#107 = PRODUCT_RELATED_PRODUCT_CATEGORY ( 'detail', '', ( #185 ) ) ;
#108 = ORIENTED_EDGE ( 'NONE', *, *, #431, .T. ) ;
#109 = DATE_AND_TIME ( #30, #104 ) ;
#110 = ORIENTED_EDGE ( 'NONE', *, *, #285, .T. ) ;
#111 = DATE_AND_TIME ( #82, #206 ) ;
#112 = AXIS2_PLACEMENT_3D ( 'NONE', #314, #254, #23 ) ;
#113 = ORGANIZATION ( 'UNSPECIFIED', 'UNSPECIFIED', '' ) ;
#114 = EDGE_CURVE ( 'NONE', #181, #394, #212, .T. ) ;
#115 = ORIENTED_EDGE ( 'NONE', *, *, #114, .T. ) ;
#116 = ORIENTED_EDGE ( 'NONE', *, *, #61, .T. ) ;
#117 = EDGE_LOOP ( 'NONE', ( #385, #188, #453, #28 ) ) ;
#118 = AXIS2_PLACEMENT_3D ( 'NONE', #341, #379, #405 ) ;
#119 = CIRCLE ( 'NONE', #257, 5.000000000000000888 ) ;
#120 = EDGE_CURVE ( 'NONE', #181, #75, #309, .T. ) ;
#121 = COORDINATED_UNIVERSAL_TIME_OFFSET ( 1, 0, .AHEAD. ) ;
#122 = ORIENTED_EDGE ( 'NONE', *, *, #361, .T. ) ;
#123 = CYLINDRICAL_SURFACE ( 'NONE', #447, 4.999999999999999112 ) ;
#124 = APPLICATION_CONTEXT ( 'configuration controlled 3d designs of mechanical parts and assemblies' ) ;
#125 = CARTESIAN_POINT ( 'NONE',  ( 0.000000000000000000, 2.750000000000000444, 0.000000000000000000 ) ) ;
#126 = DIRECTION ( 'NONE',  ( 1.000000000000000000, 0.000000000000000000, 0.000000000000000000 ) ) ;
#127 = DIRECTION ( 'NONE',  ( -0.000000000000000000, -0.000000000000000000, -1.000000000000000000 ) ) ;
#128 = CARTESIAN_POINT ( 'NONE',  ( -5.000000000000010658, 6.123233995736766282E-16, 2.000000000000000000 ) ) ;
#129 = CARTESIAN_POINT ( 'NONE',  ( -10.00000000000001066, 0.000000000000000000, 0.000000000000000000 ) ) ;
#130 = VECTOR ( 'NONE', #140, 1000.000000000000000 ) ;
#131 = ADVANCED_FACE ( 'NONE', ( #373 ), #370, .F. ) ;
#132 = FACE_OUTER_BOUND ( 'NONE', #227, .T. ) ;
#133 = VECTOR ( 'NONE', #332, 1000.000000000000000 ) ;
#134 = DESIGN_CONTEXT ( 'detailed design', #124, 'design' ) ;
#135 = FACE_OUTER_BOUND ( 'NONE', #360, .T. ) ;
#136 = DIRECTION ( 'NONE',  ( -1.000000000000000000, 0.000000000000000000, 0.000000000000000000 ) ) ;
#137 = DIRECTION ( 'NONE',  ( -0.000000000000000000, -0.000000000000000000, -1.000000000000000000 ) ) ;
#138 = DIRECTION ( 'NONE',  ( 1.000000000000000000, 0.000000000000000000, 0.000000000000000000 ) ) ;
#139 = EDGE_CURVE ( 'NONE', #394, #351, #207, .T. ) ;
#140 = DIRECTION ( 'NONE',  ( 0.000000000000000000, 0.000000000000000000, 1.000000000000000000 ) ) ;
#141 = APPLICATION_PROTOCOL_DEFINITION ( 'international standard', 'config_control_design', 1994, #22 ) ;
#142 = AXIS2_PLACEMENT_3D ( 'NONE', #299, #302, #54 ) ;
#143 = LOCAL_TIME ( 12, 47, 8.000000000000000000, #456 ) ;
#144 =( NAMED_UNIT ( * ) SI_UNIT ( $, .STERADIAN. ) SOLID_ANGLE_UNIT ( ) );
#145 = DIRECTION ( 'NONE',  ( 1.000000000000000000, 0.000000000000000000, 0.000000000000000000 ) ) ;
#146 = ORIENTED_EDGE ( 'NONE', *, *, #252, .F. ) ;
#147 = APPROVAL ( #452, 'UNSPECIFIED' ) ;
#148 = CC_DESIGN_SECURITY_CLASSIFICATION ( #279, ( #97 ) ) ;
#149 = ORIENTED_EDGE ( 'NONE', *, *, #334, .F. ) ;
#150 = PLANE ( 'NONE',  #382 ) ;
#151 = ORIENTED_EDGE ( 'NONE', *, *, #186, .T. ) ;
#152 = EDGE_CURVE ( 'NONE', #9, #255, #366, .T. ) ;
#153 = EDGE_LOOP ( 'NONE', ( #258, #248, #122, #264, #108 ) ) ;
#154 = CLOSED_SHELL ( 'NONE', ( #259, #304, #320, #343, #214, #76, #98, #131, #223, #390, #180, #208 ) ) ;
#155 = AXIS2_PLACEMENT_3D ( 'NONE', #14, #340, #168 ) ;
#156 = ORIENTED_EDGE ( 'NONE', *, *, #61, .F. ) ;
#157 = ORIENTED_EDGE ( 'NONE', *, *, #152, .T. ) ;
#158 = DIRECTION ( 'NONE',  ( -0.9756097560975609539, 0.2195121951219510537, 0.000000000000000000 ) ) ;
#159 = LINE ( 'NONE', #194, #45 ) ;
#160 = CARTESIAN_POINT ( 'NONE',  ( 1.500000000000000222, 1.836970198721030181E-16, 2.000000000000000000 ) ) ;
#161 = PERSON_AND_ORGANIZATION_ROLE ( 'creator' ) ;
#162 = CARTESIAN_POINT ( 'NONE',  ( -10.00000000000001066, 0.000000000000000000, 2.000000000000000000 ) ) ;
#163 = CARTESIAN_POINT ( 'NONE',  ( 0.5889351576442591885, -2.617489589530042071, 0.000000000000000000 ) ) ;
#164 = EDGE_CURVE ( 'NONE', #286, #192, #13, .T. ) ;
#165 = CARTESIAN_POINT ( 'NONE',  ( -5.000000000000009770, 6.123233995736767268E-16, -2.000000000000000000 ) ) ;
#166 = LINE ( 'NONE', #236, #416 ) ;
#167 = DIRECTION ( 'NONE',  ( -0.000000000000000000, 0.000000000000000000, 1.000000000000000000 ) ) ;
#168 = DIRECTION ( 'NONE',  ( 1.000000000000000000, 0.000000000000000000, 0.000000000000000000 ) ) ;
#169 = CIRCLE ( 'NONE', #353, 2.750000000000000000 ) ;
#170 = CARTESIAN_POINT ( 'NONE',  ( -10.00000000000001066, 0.000000000000000000, -2.000000000000000000 ) ) ;
#171 = CARTESIAN_POINT ( 'NONE',  ( 0.000000000000000000, 0.000000000000000000, 2.000000000000000000 ) ) ;
#172 = CARTESIAN_POINT ( 'NONE',  ( -10.00000000000001066, 0.000000000000000000, 2.000000000000000000 ) ) ;
#173 = EDGE_CURVE ( 'NONE', #217, #75, #166, .T. ) ;
#174 = DIRECTION ( 'NONE',  ( 1.000000000000000000, 0.000000000000000000, 0.000000000000000000 ) ) ;
#175 = CARTESIAN_POINT ( 'NONE',  ( -7.500000000000009770, 3.061616997868382648E-16, 2.000000000000000000 ) ) ;
#176 =( LENGTH_UNIT ( ) NAMED_UNIT ( * ) SI_UNIT ( .MILLI., .METRE. ) );
#177 = CARTESIAN_POINT ( 'NONE',  ( 0.000000000000000000, -2.750000000000000444, 2.000000000000000000 ) ) ;
#178 = ORIENTED_EDGE ( 'NONE', *, *, #354, .T. ) ;
#179 = CARTESIAN_POINT ( 'NONE',  ( 0.000000000000000000, 0.000000000000000000, 0.000000000000000000 ) ) ;
#180 = ADVANCED_FACE ( 'NONE', ( #201, #336 ), #330, .F. ) ;
#181 = VERTEX_POINT ( 'NONE', #439 ) ;
#182 = PERSON_AND_ORGANIZATION ( #396, #113 ) ;
#183 = CARTESIAN_POINT ( 'NONE',  ( -5.000000000000009770, 6.123233995736767268E-16, 0.000000000000000000 ) ) ;
#184 = CIRCLE ( 'NONE', #242, 2.750000000000000000 ) ;
#185 = PRODUCT ( 'fix_holybro', 'fix_holybro', '', ( #282 ) ) ;
#186 = EDGE_CURVE ( 'NONE', #261, #192, #184, .T. ) ;
#187 = EDGE_LOOP ( 'NONE', ( #178, #355 ) ) ;
#188 = ORIENTED_EDGE ( 'NONE', *, *, #231, .T. ) ;
#189 = ORIENTED_EDGE ( 'NONE', *, *, #263, .T. ) ;
#190 = EDGE_CURVE ( 'NONE', #319, #351, #284, .T. ) ;
#191 = CALENDAR_DATE ( 2026, 10, 8 ) ;
#192 = VERTEX_POINT ( 'NONE', #125 ) ;
#193 = DIRECTION ( 'NONE',  ( -0.9756097560975610650, -0.2195121951219511369, 0.000000000000000000 ) ) ;
#194 = CARTESIAN_POINT ( 'NONE',  ( -15.00000000000001066, 0.000000000000000000, 2.000000000000000000 ) ) ;
#195 = CIRCLE ( 'NONE', #155, 1.500000000000000222 ) ;
#196 = CARTESIAN_POINT ( 'NONE',  ( -10.00000000000001066, 0.000000000000000000, 0.000000000000000000 ) ) ;
#197 = EDGE_CURVE ( 'NONE', #192, #260, #233, .T. ) ;
#198 = CARTESIAN_POINT ( 'NONE',  ( -1.500000000000000222, 0.000000000000000000, 0.000000000000000000 ) ) ;
#199 = PERSON_AND_ORGANIZATION_ROLE ( 'design_supplier' ) ;
#200 = DIRECTION ( 'NONE',  ( 1.000000000000000000, 0.000000000000000000, 0.000000000000000000 ) ) ;
#201 = FACE_BOUND ( 'NONE', #187, .T. ) ;
#202 = DIRECTION ( 'NONE',  ( -0.000000000000000000, -0.000000000000000000, -1.000000000000000000 ) ) ;
#203 = DIRECTION ( 'NONE',  ( -0.000000000000000000, -0.000000000000000000, -1.000000000000000000 ) ) ;
#204 = VECTOR ( 'NONE', #158, 1000.000000000000227 ) ;
#205 = CARTESIAN_POINT ( 'NONE',  ( -12.50000000000001066, 0.000000000000000000, 2.000000000000000000 ) ) ;
#206 = LOCAL_TIME ( 12, 47, 8.000000000000000000, #221 ) ;
#207 = LINE ( 'NONE', #128, #437 ) ;
#208 = ADVANCED_FACE ( 'NONE', ( #333, #434 ), #270, .F. ) ;
#209 = CYLINDRICAL_SURFACE ( 'NONE', #315, 1.500000000000000222 ) ;
#210 = PERSON_AND_ORGANIZATION_ROLE ( 'design_owner' ) ;
#211 = EDGE_LOOP ( 'NONE', ( #67, #291 ) ) ;
#212 = CIRCLE ( 'NONE', #64, 5.000000000000000888 ) ;
#213 = CIRCLE ( 'NONE', #272, 5.000000000000000000 ) ;
#214 = ADVANCED_FACE ( 'NONE', ( #135 ), #240, .F. ) ;
#215 = ORIENTED_EDGE ( 'NONE', *, *, #310, .F. ) ;
#216 = CARTESIAN_POINT ( 'NONE',  ( -10.00000000000001066, 0.000000000000000000, 2.000000000000000000 ) ) ;
#217 = VERTEX_POINT ( 'NONE', #91 ) ;
#218 = ORIENTED_EDGE ( 'NONE', *, *, #285, .F. ) ;
#219 = LINE ( 'NONE', #177, #438 ) ;
#220 = ORIENTED_EDGE ( 'NONE', *, *, #443, .T. ) ;
#221 = COORDINATED_UNIVERSAL_TIME_OFFSET ( 1, 0, .AHEAD. ) ;
#222 = EDGE_LOOP ( 'NONE', ( #380, #218 ) ) ;
#223 = ADVANCED_FACE ( 'NONE', ( #308 ), #238, .T. ) ;
#224 = AXIS2_PLACEMENT_3D ( 'NONE', #8, #16, #11 ) ;
#225 = ORIENTED_EDGE ( 'NONE', *, *, #310, .T. ) ;
#226 = SHAPE_DEFINITION_REPRESENTATION ( #448, #230 ) ;
#227 = EDGE_LOOP ( 'NONE', ( #189, #41, #253, #149 ) ) ;
#228 = PERSON_AND_ORGANIZATION ( #396, #113 ) ;
#229 = CARTESIAN_POINT ( 'NONE',  ( -1.500000000000000222, 0.000000000000000000, 2.000000000000000000 ) ) ;
#230 = ADVANCED_BREP_SHAPE_REPRESENTATION ( 'fix_holybro', ( #269, #411 ), #348 ) ;
#231 = EDGE_CURVE ( 'NONE', #290, #33, #306, .T. ) ;
#232 = CARTESIAN_POINT ( 'NONE',  ( -12.50000000000001066, 0.000000000000000000, 2.000000000000000000 ) ) ;
#233 = LINE ( 'NONE', #410, #78 ) ;
#234 = AXIS2_PLACEMENT_3D ( 'NONE', #239, #406, #12 ) ;
#235 = CARTESIAN_POINT ( 'NONE',  ( -7.858417608566345969, 4.518143961927429508, 0.000000000000000000 ) ) ;
#236 = CARTESIAN_POINT ( 'NONE',  ( 0.5889351576442591885, -2.617489589530042071, 2.000000000000000000 ) ) ;
#237 = APPROVAL_ROLE ( '' ) ;
#238 = PLANE ( 'NONE',  #224 ) ;
#239 = CARTESIAN_POINT ( 'NONE',  ( -10.00000000000001066, 0.000000000000000000, 2.000000000000000000 ) ) ;
#240 = PLANE ( 'NONE',  #404 ) ;
#241 = EDGE_CURVE ( 'NONE', #33, #255, #94, .T. ) ;
#242 = AXIS2_PLACEMENT_3D ( 'NONE', #48, #20, #278 ) ;
#243 = FACE_OUTER_BOUND ( 'NONE', #428, .T. ) ;
#244 = DIRECTION ( 'NONE',  ( -0.000000000000000000, -0.000000000000000000, -1.000000000000000000 ) ) ;
#245 = CARTESIAN_POINT ( 'NONE',  ( -7.858417608566345969, -4.518143961927427732, 2.000000000000000000 ) ) ;
#246 = DIRECTION ( 'NONE',  ( 1.000000000000000000, 0.000000000000000000, 0.000000000000000000 ) ) ;
#247 = APPROVAL ( #422, 'UNSPECIFIED' ) ;
#248 = ORIENTED_EDGE ( 'NONE', *, *, #450, .T. ) ;
#249 = PERSON_AND_ORGANIZATION ( #396, #113 ) ;
#250 = ORIENTED_EDGE ( 'NONE', *, *, #197, .T. ) ;
#251 = DIRECTION ( 'NONE',  ( 1.000000000000000000, 0.000000000000000000, 0.000000000000000000 ) ) ;
#252 = EDGE_CURVE ( 'NONE', #260, #457, #408, .T. ) ;
#253 = ORIENTED_EDGE ( 'NONE', *, *, #384, .F. ) ;
#254 = DIRECTION ( 'NONE',  ( -0.000000000000000000, 0.000000000000000000, 1.000000000000000000 ) ) ;
#255 = VERTEX_POINT ( 'NONE', #198 ) ;
#256 = DATE_AND_TIME ( #191, #143 ) ;
#257 = AXIS2_PLACEMENT_3D ( 'NONE', #374, #440, #200 ) ;
#258 = ORIENTED_EDGE ( 'NONE', *, *, #7, .T. ) ;
#259 = ADVANCED_FACE ( 'NONE', ( #132 ), #301, .F. ) ;
#260 = VERTEX_POINT ( 'NONE', #235 ) ;
#261 = VERTEX_POINT ( 'NONE', #372 ) ;
#262 = PERSON_AND_ORGANIZATION ( #396, #113 ) ;
#263 = EDGE_CURVE ( 'NONE', #346, #81, #345, .T. ) ;
#264 = ORIENTED_EDGE ( 'NONE', *, *, #173, .F. ) ;
#265 = DIRECTION ( 'NONE',  ( -1.000000000000000000, 0.000000000000000000, 0.000000000000000000 ) ) ;
#266 = DIRECTION ( 'NONE',  ( 1.000000000000000000, 0.000000000000000000, 0.000000000000000000 ) ) ;
#267 = CYLINDRICAL_SURFACE ( 'NONE', #56, 4.999999999999999112 ) ;
#268 = CARTESIAN_POINT ( 'NONE',  ( 0.000000000000000000, 0.000000000000000000, 2.000000000000000000 ) ) ;
#269 = MANIFOLD_SOLID_BREP ( 'Boss-Extrude3', #154 ) ;
#270 = PLANE ( 'NONE',  #142 ) ;
#271 = APPROVAL_DATE_TIME ( #111, #247 ) ;
#272 = AXIS2_PLACEMENT_3D ( 'NONE', #172, #307, #442 ) ;
#273 = CARTESIAN_POINT ( 'NONE',  ( 0.000000000000000000, 2.750000000000000444, 2.000000000000000000 ) ) ;
#274 = CARTESIAN_POINT ( 'NONE',  ( 0.5889351576442589664, 2.617489589530042071, 2.000000000000000000 ) ) ;
#275 = DIRECTION ( 'NONE',  ( -0.000000000000000000, 0.000000000000000000, 1.000000000000000000 ) ) ;
#276 = DIRECTION ( 'NONE',  ( 1.000000000000000000, 0.000000000000000000, 0.000000000000000000 ) ) ;
#277 = CARTESIAN_POINT ( 'NONE',  ( -10.00000000000001066, 0.000000000000000000, -2.000000000000000000 ) ) ;
#278 = DIRECTION ( 'NONE',  ( 1.000000000000000000, 0.000000000000000000, 0.000000000000000000 ) ) ;
#279 = SECURITY_CLASSIFICATION ( '', '', #427 ) ;
#280 = EDGE_CURVE ( 'NONE', #261, #181, #342, .T. ) ;
#281 = ORIENTED_EDGE ( 'NONE', *, *, #42, .F. ) ;
#282 = MECHANICAL_CONTEXT ( 'NONE', #22, 'mechanical' ) ;
#283 = COORDINATED_UNIVERSAL_TIME_OFFSET ( 1, 0, .AHEAD. ) ;
#284 = CIRCLE ( 'NONE', #73, 5.000000000000000888 ) ;
#285 = EDGE_CURVE ( 'NONE', #351, #319, #119, .T. ) ;
#286 = VERTEX_POINT ( 'NONE', #273 ) ;
#287 = VECTOR ( 'NONE', #433, 999.9999999999998863 ) ;
#288 = ORIENTED_EDGE ( 'NONE', *, *, #421, .T. ) ;
#289 = CC_DESIGN_PERSON_AND_ORGANIZATION_ASSIGNMENT ( #297, #161, ( #97 ) ) ;
#290 = VERTEX_POINT ( 'NONE', #53 ) ;
#291 = ORIENTED_EDGE ( 'NONE', *, *, #71, .F. ) ;
#292 = APPROVAL_ROLE ( '' ) ;
#293 = APPROVAL_PERSON_ORGANIZATION ( #362, #415, #237 ) ;
#294 = ORIENTED_EDGE ( 'NONE', *, *, #71, .T. ) ;
#295 = DIRECTION ( 'NONE',  ( -0.000000000000000000, -0.000000000000000000, -1.000000000000000000 ) ) ;
#296 = DIRECTION ( 'NONE',  ( 0.9756097560975609539, -0.2195121951219510537, 0.000000000000000000 ) ) ;
#297 = PERSON_AND_ORGANIZATION ( #396, #113 ) ;
#298 = EDGE_LOOP ( 'NONE', ( #392, #156 ) ) ;
#299 = CARTESIAN_POINT ( 'NONE',  ( -10.00000000000001066, 0.000000000000000000, -2.000000000000000000 ) ) ;
#300 = CARTESIAN_POINT ( 'NONE',  ( -10.00000000000001066, 0.000000000000000000, 2.000000000000000000 ) ) ;
#301 = CYLINDRICAL_SURFACE ( 'NONE', #365, 2.500000000000000444 ) ;
#302 = DIRECTION ( 'NONE',  ( 0.000000000000000000, 0.000000000000000000, 1.000000000000000000 ) ) ;
#303 = VECTOR ( 'NONE', #96, 1000.000000000000000 ) ;
#304 = ADVANCED_FACE ( 'NONE', ( #364 ), #19, .F. ) ;
#305 = CARTESIAN_POINT ( 'NONE',  ( -12.50000000000001243, 0.000000000000000000, -2.000000000000000000 ) ) ;
#306 = LINE ( 'NONE', #160, #87 ) ;
#307 = DIRECTION ( 'NONE',  ( -0.000000000000000000, 0.000000000000000000, 1.000000000000000000 ) ) ;
#308 = FACE_OUTER_BOUND ( 'NONE', #105, .T. ) ;
#309 = LINE ( 'NONE', #445, #130 ) ;
#310 = EDGE_CURVE ( 'NONE', #394, #260, #317, .T. ) ;
#311 = AXIS2_PLACEMENT_3D ( 'NONE', #277, #378, #400 ) ;
#312 = DIRECTION ( 'NONE',  ( -0.000000000000000000, -0.000000000000000000, -1.000000000000000000 ) ) ;
#313 = ORIENTED_EDGE ( 'NONE', *, *, #443, .F. ) ;
#314 = CARTESIAN_POINT ( 'NONE',  ( 0.000000000000000000, 0.000000000000000000, 2.000000000000000000 ) ) ;
#315 = AXIS2_PLACEMENT_3D ( 'NONE', #171, #49, #52 ) ;
#316 = CC_DESIGN_PERSON_AND_ORGANIZATION_ASSIGNMENT ( #228, #358, ( #279 ) ) ;
#317 = CIRCLE ( 'NONE', #47, 5.000000000000000888 ) ;
#318 = ORIENTED_EDGE ( 'NONE', *, *, #173, .T. ) ;
#319 = VERTEX_POINT ( 'NONE', #21 ) ;
#320 = ADVANCED_FACE ( 'NONE', ( #243 ), #123, .T. ) ;
#321 = ORIENTED_EDGE ( 'NONE', *, *, #361, .F. ) ;
#322 = AXIS2_PLACEMENT_3D ( 'NONE', #216, #27, #246 ) ;
#323 = ORIENTED_EDGE ( 'NONE', *, *, #197, .F. ) ;
#324 = VERTEX_POINT ( 'NONE', #59 ) ;
#325 = ORIENTED_EDGE ( 'NONE', *, *, #120, .T. ) ;
#326 = VECTOR ( 'NONE', #244, 1000.000000000000000 ) ;
#327 = DATE_TIME_ROLE ( 'classification_date' ) ;
#328 = DIRECTION ( 'NONE',  ( -0.000000000000000000, -0.000000000000000000, -1.000000000000000000 ) ) ;
#329 = FACE_OUTER_BOUND ( 'NONE', #62, .T. ) ;
#330 = PLANE ( 'NONE',  #15 ) ;
#331 = FACE_OUTER_BOUND ( 'NONE', #387, .T. ) ;
#332 = DIRECTION ( 'NONE',  ( -0.000000000000000000, -0.000000000000000000, -1.000000000000000000 ) ) ;
#333 = FACE_BOUND ( 'NONE', #356, .T. ) ;
#334 = EDGE_CURVE ( 'NONE', #346, #359, #55, .T. ) ;
#335 = DIRECTION ( 'NONE',  ( -1.000000000000000000, 0.000000000000000000, 0.000000000000000000 ) ) ;
#336 = FACE_OUTER_BOUND ( 'NONE', #458, .T. ) ;
#337 = CARTESIAN_POINT ( 'NONE',  ( -15.00000000000001066, 0.000000000000000000, 2.000000000000000000 ) ) ;
#338 = CIRCLE ( 'NONE', #322, 5.000000000000000000 ) ;
#339 = LOCAL_TIME ( 12, 47, 8.000000000000000000, #121 ) ;
#340 = DIRECTION ( 'NONE',  ( -0.000000000000000000, 0.000000000000000000, 1.000000000000000000 ) ) ;
#341 = CARTESIAN_POINT ( 'NONE',  ( -10.00000000000001066, 0.000000000000000000, 2.000000000000000000 ) ) ;
#342 = LINE ( 'NONE', #163, #287 ) ;
#343 = ADVANCED_FACE ( 'NONE', ( #329 ), #429, .T. ) ;
#344 = DIRECTION ( 'NONE',  ( -0.000000000000000000, 0.000000000000000000, 1.000000000000000000 ) ) ;
#345 = CIRCLE ( 'NONE', #234, 2.500000000000000444 ) ;
#346 = VERTEX_POINT ( 'NONE', #205 ) ;
#347 = FACE_BOUND ( 'NONE', #211, .T. ) ;
#348 =( GEOMETRIC_REPRESENTATION_CONTEXT ( 3 ) GLOBAL_UNCERTAINTY_ASSIGNED_CONTEXT ( ( #37 ) ) GLOBAL_UNIT_ASSIGNED_CONTEXT ( ( #176, #381, #144 ) ) REPRESENTATION_CONTEXT ( 'NONE', 'WORKASPACE' ) );
#349 = DIRECTION ( 'NONE',  ( -0.000000000000000000, 0.000000000000000000, 1.000000000000000000 ) ) ;
#350 = ORIENTED_EDGE ( 'NONE', *, *, #450, .F. ) ;
#351 = VERTEX_POINT ( 'NONE', #165 ) ;
#352 = DATE_TIME_ROLE ( 'creation_date' ) ;
#353 = AXIS2_PLACEMENT_3D ( 'NONE', #63, #349, #145 ) ;
#354 = EDGE_CURVE ( 'NONE', #255, #33, #195, .T. ) ;
#355 = ORIENTED_EDGE ( 'NONE', *, *, #241, .T. ) ;
#356 = EDGE_LOOP ( 'NONE', ( #363, #220 ) ) ;
#357 = CIRCLE ( 'NONE', #39, 1.500000000000000222 ) ;
#358 = PERSON_AND_ORGANIZATION_ROLE ( 'classification_officer' ) ;
#359 = VERTEX_POINT ( 'NONE', #305 ) ;
#360 = EDGE_LOOP ( 'NONE', ( #250, #432, #389, #36 ) ) ;
#361 = EDGE_CURVE ( 'NONE', #74, #75, #213, .T. ) ;
#362 = PERSON_AND_ORGANIZATION ( #396, #113 ) ;
#363 = ORIENTED_EDGE ( 'NONE', *, *, #384, .T. ) ;
#364 = FACE_OUTER_BOUND ( 'NONE', #117, .T. ) ;
#365 = AXIS2_PLACEMENT_3D ( 'NONE', #409, #436, #335 ) ;
#366 = LINE ( 'NONE', #57, #303 ) ;
#367 = APPROVAL_PERSON_ORGANIZATION ( #72, #247, #292 ) ;
#368 = DIRECTION ( 'NONE',  ( -0.000000000000000000, 0.000000000000000000, 1.000000000000000000 ) ) ;
#369 = CC_DESIGN_DATE_AND_TIME_ASSIGNMENT ( #109, #352, ( #90 ) ) ;
#370 = CYLINDRICAL_SURFACE ( 'NONE', #118, 2.500000000000000444 ) ;
#371 = DIRECTION ( 'NONE',  ( 1.000000000000000000, 0.000000000000000000, 0.000000000000000000 ) ) ;
#372 = CARTESIAN_POINT ( 'NONE',  ( 0.000000000000000000, -2.750000000000000444, 0.000000000000000000 ) ) ;
#373 = FACE_OUTER_BOUND ( 'NONE', #77, .T. ) ;
#374 = CARTESIAN_POINT ( 'NONE',  ( -10.00000000000001066, 0.000000000000000000, -2.000000000000000000 ) ) ;
#375 = CARTESIAN_POINT ( 'NONE',  ( 0.000000000000000000, 0.000000000000000000, 0.000000000000000000 ) ) ;
#376 = VECTOR ( 'NONE', #397, 1000.000000000000000 ) ;
#377 = APPROVAL_PERSON_ORGANIZATION ( #249, #147, #388 ) ;
#378 = DIRECTION ( 'NONE',  ( 0.000000000000000000, 0.000000000000000000, 1.000000000000000000 ) ) ;
#379 = DIRECTION ( 'NONE',  ( -0.000000000000000000, -0.000000000000000000, -1.000000000000000000 ) ) ;
#380 = ORIENTED_EDGE ( 'NONE', *, *, #190, .F. ) ;
#381 =( NAMED_UNIT ( * ) PLANE_ANGLE_UNIT ( ) SI_UNIT ( $, .RADIAN. ) );
#382 = AXIS2_PLACEMENT_3D ( 'NONE', #99, #344, #100 ) ;
#383 = ORIENTED_EDGE ( 'NONE', *, *, #42, .T. ) ;
#384 = EDGE_CURVE ( 'NONE', #359, #324, #95, .T. ) ;
#385 = ORIENTED_EDGE ( 'NONE', *, *, #403, .T. ) ;
#386 = PERSON_AND_ORGANIZATION_ROLE ( 'creator' ) ;
#387 = EDGE_LOOP ( 'NONE', ( #40, #425, #325, #321, #383, #451 ) ) ;
#388 = APPROVAL_ROLE ( '' ) ;
#389 = ORIENTED_EDGE ( 'NONE', *, *, #7, .F. ) ;
#390 = ADVANCED_FACE ( 'NONE', ( #84, #347, #68 ), #150, .T. ) ;
#391 = AXIS2_PLACEMENT_3D ( 'NONE', #268, #202, #46 ) ;
#392 = ORIENTED_EDGE ( 'NONE', *, *, #263, .F. ) ;
#393 = ORIENTED_EDGE ( 'NONE', *, *, #186, .F. ) ;
#394 = VERTEX_POINT ( 'NONE', #183 ) ;
#395 = CC_DESIGN_APPROVAL ( #147, ( #90 ) ) ;
#396 = PERSON ( 'UNSPECIFIED', 'UNSPECIFIED', 'UNSPECIFIED', ('UNSPECIFIED'), ('UNSPECIFIED'), ('UNSPECIFIED') ) ;
#397 = DIRECTION ( 'NONE',  ( -0.000000000000000000, -0.000000000000000000, -1.000000000000000000 ) ) ;
#398 = DATE_AND_TIME ( #435, #339 ) ;
#399 = ORIENTED_EDGE ( 'NONE', *, *, #280, .T. ) ;
#400 = DIRECTION ( 'NONE',  ( 1.000000000000000000, 0.000000000000000000, 0.000000000000000000 ) ) ;
#401 = CARTESIAN_POINT ( 'NONE',  ( -7.858417608566338863, 4.518143961927425067, -2.000000000000000000 ) ) ;
#402 = DIRECTION ( 'NONE',  ( -0.000000000000000000, -0.000000000000000000, -1.000000000000000000 ) ) ;
#403 = EDGE_CURVE ( 'NONE', #9, #290, #65, .T. ) ;
#404 = AXIS2_PLACEMENT_3D ( 'NONE', #274, #407, #296 ) ;
#405 = DIRECTION ( 'NONE',  ( -1.000000000000000000, 0.000000000000000000, 0.000000000000000000 ) ) ;
#406 = DIRECTION ( 'NONE',  ( -0.000000000000000000, 0.000000000000000000, 1.000000000000000000 ) ) ;
#407 = DIRECTION ( 'NONE',  ( -0.2195121951219510814, -0.9756097560975610650, 0.000000000000000000 ) ) ;
#408 = LINE ( 'NONE', #401, #459 ) ;
#409 = CARTESIAN_POINT ( 'NONE',  ( -10.00000000000001066, 0.000000000000000000, 2.000000000000000000 ) ) ;
#410 = CARTESIAN_POINT ( 'NONE',  ( 0.5889351576442589664, 2.617489589530042071, 0.000000000000000000 ) ) ;
#411 = AXIS2_PLACEMENT_3D ( 'NONE', #179, #446, #413 ) ;
#412 = DIRECTION ( 'NONE',  ( 0.000000000000000000, 0.000000000000000000, 1.000000000000000000 ) ) ;
#413 = DIRECTION ( 'NONE',  ( 1.000000000000000000, 0.000000000000000000, 0.000000000000000000 ) ) ;
#414 = ORIENTED_EDGE ( 'NONE', *, *, #231, .F. ) ;
#415 = APPROVAL ( #3, 'UNSPECIFIED' ) ;
#416 = VECTOR ( 'NONE', #193, 999.9999999999998863 ) ;
#417 = CIRCLE ( 'NONE', #79, 2.500000000000001332 ) ;
#418 = DATE_AND_TIME ( #454, #6 ) ;
#419 = ORIENTED_EDGE ( 'NONE', *, *, #139, .T. ) ;
#420 = APPROVAL_DATE_TIME ( #418, #147 ) ;
#421 = EDGE_CURVE ( 'NONE', #217, #261, #219, .T. ) ;
#422 = APPROVAL_STATUS ( 'not_yet_approved' ) ;
#423 = ORIENTED_EDGE ( 'NONE', *, *, #164, .F. ) ;
#424 = ORIENTED_EDGE ( 'NONE', *, *, #18, .F. ) ;
#425 = ORIENTED_EDGE ( 'NONE', *, *, #114, .F. ) ;
#426 = LINE ( 'NONE', #44, #376 ) ;
#427 = SECURITY_CLASSIFICATION_LEVEL ( 'unclassified' ) ;
#428 = EDGE_LOOP ( 'NONE', ( #215, #419, #110, #281, #350, #146 ) ) ;
#429 = CYLINDRICAL_SURFACE ( 'NONE', #32, 2.750000000000000000 ) ;
#430 = DIRECTION ( 'NONE',  ( -0.000000000000000000, 0.000000000000000000, 1.000000000000000000 ) ) ;
#431 = EDGE_CURVE ( 'NONE', #217, #286, #169, .T. ) ;
#432 = ORIENTED_EDGE ( 'NONE', *, *, #252, .T. ) ;
#433 = DIRECTION ( 'NONE',  ( -0.9756097560975610650, -0.2195121951219511369, 0.000000000000000000 ) ) ;
#434 = FACE_OUTER_BOUND ( 'NONE', #222, .T. ) ;
#435 = CALENDAR_DATE ( 2026, 10, 8 ) ;
#436 = DIRECTION ( 'NONE',  ( -0.000000000000000000, -0.000000000000000000, -1.000000000000000000 ) ) ;
#437 = VECTOR ( 'NONE', #203, 1000.000000000000000 ) ;
#438 = VECTOR ( 'NONE', #312, 1000.000000000000000 ) ;
#439 = CARTESIAN_POINT ( 'NONE',  ( -7.858417608566345969, -4.518143961927429508, 0.000000000000000000 ) ) ;
#440 = DIRECTION ( 'NONE',  ( 0.000000000000000000, 0.000000000000000000, 1.000000000000000000 ) ) ;
#441 = DIRECTION ( 'NONE',  ( -0.000000000000000000, 0.000000000000000000, 1.000000000000000000 ) ) ;
#442 = DIRECTION ( 'NONE',  ( 1.000000000000000000, 0.000000000000000000, 0.000000000000000000 ) ) ;
#443 = EDGE_CURVE ( 'NONE', #324, #359, #417, .T. ) ;
#444 = CARTESIAN_POINT ( 'NONE',  ( 0.000000000000000000, 0.000000000000000000, 0.000000000000000000 ) ) ;
#445 = CARTESIAN_POINT ( 'NONE',  ( -7.858417608566338863, -4.518143961927425067, -2.000000000000000000 ) ) ;
#446 = DIRECTION ( 'NONE',  ( 0.000000000000000000, 0.000000000000000000, 1.000000000000000000 ) ) ;
#447 = AXIS2_PLACEMENT_3D ( 'NONE', #50, #127, #136 ) ;
#448 = PRODUCT_DEFINITION_SHAPE ( 'NONE', 'NONE',  #90 ) ;
#449 = CARTESIAN_POINT ( 'NONE',  ( -10.00000000000001066, 0.000000000000000000, -2.000000000000000000 ) ) ;
#450 = EDGE_CURVE ( 'NONE', #457, #74, #338, .T. ) ;
#451 = ORIENTED_EDGE ( 'NONE', *, *, #190, .T. ) ;
#452 = APPROVAL_STATUS ( 'not_yet_approved' ) ;
#453 = ORIENTED_EDGE ( 'NONE', *, *, #354, .F. ) ;
#454 = CALENDAR_DATE ( 2026, 10, 8 ) ;
#455 = ORIENTED_EDGE ( 'NONE', *, *, #241, .F. ) ;
#456 = COORDINATED_UNIVERSAL_TIME_OFFSET ( 1, 0, .AHEAD. ) ;
#457 = VERTEX_POINT ( 'NONE', #60 ) ;
#458 = EDGE_LOOP ( 'NONE', ( #399, #115, #225, #323, #393 ) ) ;
#459 = VECTOR ( 'NONE', #92, 1000.000000000000000 ) ;
ENDSEC;
END-ISO-10303-21;
