ISO-10303-21;
HEADER;
FILE_DESCRIPTION (( 'STEP AP203' ),
    '1' );
FILE_NAME ('supportchien.STEP',
    '2026-08-10T14:05:23',
    ( '' ),
    ( '' ),
    'SwSTEP 2.0',
    'SolidWorks 2020',
    '' );
FILE_SCHEMA (( 'CONFIG_CONTROL_DESIGN' ));
ENDSEC;

DATA;
#1 = APPROVAL ( #651, 'UNSPECIFIED' ) ;
#2 = VECTOR ( 'NONE', #778, 1000.000000000000114 ) ;
#3 = EDGE_CURVE ( 'NONE', #943, #703, #652, .T. ) ;
#4 = ORIENTED_EDGE ( 'NONE', *, *, #436, .T. ) ;
#5 = ORIENTED_EDGE ( 'NONE', *, *, #494, .F. ) ;
#6 = CARTESIAN_POINT ( 'NONE',  ( -36.05787845707112638, 77.23164504696657673, -30.21150682466723580 ) ) ;
#7 = CIRCLE ( 'NONE', #476, 3.500000000000023981 ) ;
#8 = ORIENTED_EDGE ( 'NONE', *, *, #159, .T. ) ;
#9 = ORIENTED_EDGE ( 'NONE', *, *, #621, .F. ) ;
#10 = EDGE_LOOP ( 'NONE', ( #918, #252, #841 ) ) ;
#11 = DIRECTION ( 'NONE',  ( 0.9420049690080122273, 0.3355989248555693027, 0.000000000000000000 ) ) ;
#12 = CARTESIAN_POINT ( 'NONE',  ( -5.019912841934385028, -8.999999999999994671, -1.949480715314297452 ) ) ;
#13 = VECTOR ( 'NONE', #371, 1000.000000000000114 ) ;
#14 = EDGE_CURVE ( 'NONE', #495, #754, #864, .T. ) ;
#15 = CARTESIAN_POINT ( 'NONE',  ( 0.000000000000000000, -9.000000000000000000, 0.000000000000000000 ) ) ;
#16 = ORIENTED_EDGE ( 'NONE', *, *, #790, .T. ) ;
#17 = LINE ( 'NONE', #824, #564 ) ;
#18 = CARTESIAN_POINT ( 'NONE',  ( -37.50000000000000000, 91.00000000000000000, -35.00000000000000000 ) ) ;
#19 = EDGE_CURVE ( 'NONE', #314, #989, #112, .T. ) ;
#20 = APPROVAL_PERSON_ORGANIZATION ( #284, #543, #893 ) ;
#21 = CARTESIAN_POINT ( 'NONE',  ( -4.869571406269961322, 13.80927508830081685, -1.138335495116435947 ) ) ;
#22 = CARTESIAN_POINT ( 'NONE',  ( -3.411591251800067504, -8.999999999999994671, 3.655276341214332092 ) ) ;
#23 = PRODUCT_RELATED_PRODUCT_CATEGORY ( 'detail', '', ( #820 ) ) ;
#24 = ORIENTED_EDGE ( 'NONE', *, *, #87, .F. ) ;
#25 = AXIS2_PLACEMENT_3D ( 'NONE', #792, #190, #646 ) ;
#26 = B_SPLINE_CURVE_WITH_KNOTS ( 'NONE', 3,
 ( #603, #136, #670, #446, #45, #745, #909, #356, #596, #812, #215, #659, #741, #801, #123, #376, #665, #890 ),
 .UNSPECIFIED., .F., .F.,
 ( 4, 2, 2, 2, 2, 2, 2, 2, 4 ),
 ( 0.000000000000000000, 0.003865460132845409836, 0.007730920265690819672, 0.009663650332113526975, 0.01159638039853623688, 0.01352911046495894505, 0.01449547549817029393, 0.01497865801477594495, 0.01546184053138159771 ),
 .UNSPECIFIED. ) ;
#27 = CARTESIAN_POINT ( 'NONE',  ( -4.790499466634039472, 14.18221009993359161, -1.436039144163598236 ) ) ;
#28 = CARTESIAN_POINT ( 'NONE',  ( -4.714752604639217637, 14.40356414432440602, -1.664664493838831305 ) ) ;
#29 = VECTOR ( 'NONE', #955, 999.9999999999998863 ) ;
#30 = ORIENTED_EDGE ( 'NONE', *, *, #494, .T. ) ;
#31 = CARTESIAN_POINT ( 'NONE',  ( -37.50000000000000000, 100.0000000000000000, -40.00000000000000000 ) ) ;
#32 = FACE_BOUND ( 'NONE', #842, .T. ) ;
#33 = ORIENTED_EDGE ( 'NONE', *, *, #585, .T. ) ;
#34 = DIRECTION ( 'NONE',  ( 0.000000000000000000, 0.000000000000000000, 1.000000000000000000 ) ) ;
#35 = FACE_OUTER_BOUND ( 'NONE', #916, .T. ) ;
#36 = AXIS2_PLACEMENT_3D ( 'NONE', #750, #110, #676 ) ;
#37 = LINE ( 'NONE', #957, #310 ) ;
#38 = VERTEX_POINT ( 'NONE', #791 ) ;
#39 = CALENDAR_DATE ( 2026, 10, 8 ) ;
#40 = DIRECTION ( 'NONE',  ( 0.000000000000000000, 1.000000000000000000, 0.000000000000000000 ) ) ;
#41 = DIRECTION ( 'NONE',  ( 0.3202562212786879692, -0.8989389698733022405, 0.2989058065267754527 ) ) ;
#42 = LINE ( 'NONE', #654, #600 ) ;
#43 = VERTEX_POINT ( 'NONE', #410 ) ;
#44 = CARTESIAN_POINT ( 'NONE',  ( -32.48008715806564339, 100.0000000000000142, -33.05051928468567013 ) ) ;
#45 = CARTESIAN_POINT ( 'NONE',  ( -32.84707085996919318, 84.78382042606568803, -36.87012288017279360 ) ) ;
#46 = FACE_OUTER_BOUND ( 'NONE', #831, .T. ) ;
#47 = CYLINDRICAL_SURFACE ( 'NONE', #511, 4.999999999999997335 ) ;
#48 = ORIENTED_EDGE ( 'NONE', *, *, #529, .F. ) ;
#49 = DIRECTION ( 'NONE',  ( 0.000000000000000000, 0.000000000000000000, -1.000000000000000000 ) ) ;
#50 = CARTESIAN_POINT ( 'NONE',  ( 3.170477384419497557, -0.6159302234412594723, -3.869673287316877541 ) ) ;
#51 = APPROVAL_DATE_TIME ( #439, #362 ) ;
#52 = DIRECTION ( 'NONE',  ( 0.000000000000000000, -1.000000000000000000, 0.000000000000000000 ) ) ;
#53 = DIRECTION ( 'NONE',  ( 0.000000000000000000, -0.000000000000000000, 1.000000000000000000 ) ) ;
#54 = EDGE_CURVE ( 'NONE', #461, #948, #488, .T. ) ;
#55 = EDGE_CURVE ( 'NONE', #832, #754, #427, .T. ) ;
#56 = CARTESIAN_POINT ( 'NONE',  ( 3.411591251800069280, -8.999999999999994671, -3.655276341214332536 ) ) ;
#57 =( LENGTH_UNIT ( ) NAMED_UNIT ( * ) SI_UNIT ( .MILLI., .METRE. ) );
#58 = CARTESIAN_POINT ( 'NONE',  ( -1.305009710203209217, 13.56440962794326843, -4.828102058681431608 ) ) ;
#59 = CARTESIAN_POINT ( 'NONE',  ( 0.000000000000000000, 0.000000000000000000, 0.000000000000000000 ) ) ;
#60 = CARTESIAN_POINT ( 'NONE',  ( -32.13963473636067647, 100.0000000000000142, -36.83642059683101166 ) ) ;
#61 = DIRECTION ( 'NONE',  ( -0.000000000000000000, -1.000000000000000000, -0.000000000000000000 ) ) ;
#62 = CARTESIAN_POINT ( 'NONE',  ( -37.49999999999999289, 80.13609518130496667, -30.00000000000000000 ) ) ;
#63 = CYLINDRICAL_SURFACE ( 'NONE', #761, 4.999999999999997335 ) ;
#64 = VECTOR ( 'NONE', #576, 1000.000000000000000 ) ;
#65 = EDGE_LOOP ( 'NONE', ( #151, #386, #655, #458 ) ) ;
#66 = EDGE_LOOP ( 'NONE', ( #219, #572, #154, #503 ) ) ;
#67 = VECTOR ( 'NONE', #450, 1000.000000000000114 ) ;
#68 = AXIS2_PLACEMENT_3D ( 'NONE', #187, #582, #868 ) ;
#69 = ORIENTED_EDGE ( 'NONE', *, *, #905, .T. ) ;
#70 = VECTOR ( 'NONE', #902, 999.9999999999998863 ) ;
#71 = VERTEX_POINT ( 'NONE', #567 ) ;
#72 = EDGE_CURVE ( 'NONE', #96, #696, #937, .T. ) ;
#73 = ORIENTED_EDGE ( 'NONE', *, *, #619, .T. ) ;
#74 = ORIENTED_EDGE ( 'NONE', *, *, #72, .F. ) ;
#75 = DIRECTION ( 'NONE',  ( 0.000000000000000000, 0.000000000000000000, 1.000000000000000000 ) ) ;
#76 = ORIENTED_EDGE ( 'NONE', *, *, #822, .T. ) ;
#77 = ORIENTED_EDGE ( 'NONE', *, *, #719, .F. ) ;
#78 = EDGE_CURVE ( 'NONE', #537, #743, #99, .T. ) ;
#79 = DIRECTION ( 'NONE',  ( 0.000000000000000000, 0.000000000000000000, -1.000000000000000000 ) ) ;
#80 = CARTESIAN_POINT ( 'NONE',  ( 0.000000000000000000, -9.000000000000000000, 5.000000000000000000 ) ) ;
#81 = CIRCLE ( 'NONE', #480, 5.000000000000000000 ) ;
#82 = DIRECTION ( 'NONE',  ( -0.6823182503600112581, 0.000000000000000000, 0.7310552682428690385 ) ) ;
#83 = EDGE_LOOP ( 'NONE', ( #985, #295, #85, #417, #389, #614 ) ) ;
#84 = EDGE_CURVE ( 'NONE', #496, #71, #245, .T. ) ;
#85 = ORIENTED_EDGE ( 'NONE', *, *, #789, .F. ) ;
#86 = CARTESIAN_POINT ( 'NONE',  ( 0.000000000000000000, -1.000000000000000888, 0.000000000000000000 ) ) ;
#87 = EDGE_CURVE ( 'NONE', #754, #610, #569, .T. ) ;
#88 = VERTEX_POINT ( 'NONE', #342 ) ;
#89 = FACE_OUTER_BOUND ( 'NONE', #638, .T. ) ;
#90 = LINE ( 'NONE', #892, #70 ) ;
#91 = DIRECTION ( 'NONE',  ( 0.000000000000000000, 1.000000000000000000, 0.000000000000000000 ) ) ;
#92 = DIRECTION ( 'NONE',  ( 0.6571740697546951671, 0.4380738846851363610, 0.6133624651043825260 ) ) ;
#93 = ORIENTED_EDGE ( 'NONE', *, *, #910, .T. ) ;
#94 = CARTESIAN_POINT ( 'NONE',  ( -4.652262570386002771, 6.210086638533631742, 1.871805260512180880 ) ) ;
#95 = LINE ( 'NONE', #411, #895 ) ;
#96 = VERTEX_POINT ( 'NONE', #571 ) ;
#97 =( BOUNDED_CURVE ( )  B_SPLINE_CURVE ( 3, ( #428, #279, #205, #732 ),
 .UNSPECIFIED., .F., .T. ) 
 B_SPLINE_CURVE_WITH_KNOTS ( ( 4, 4 ),
 ( 0.000000000000000000, 1.570796326794891451 ),
 .UNSPECIFIED. ) 
 CURVE ( )  GEOMETRIC_REPRESENTATION_ITEM ( )  RATIONAL_B_SPLINE_CURVE ( ( 1.000000000000000000, 0.8047378541243661587, 0.8047378541243661587, 1.000000000000000000 ) ) 
 REPRESENTATION_ITEM ( '' )  );
#98 = LINE ( 'NONE', #184, #534 ) ;
#99 = CIRCLE ( 'NONE', #668, 2.500000000000000000 ) ;
#100 = DIRECTION ( 'NONE',  ( -0.7310552682428690385, -0.000000000000000000, -0.6823182503600111470 ) ) ;
#101 = EDGE_CURVE ( 'NONE', #610, #915, #98, .T. ) ;
#102 = CARTESIAN_POINT ( 'NONE',  ( -38.99128727266661798, 84.61883610033481773, -30.22034213737714126 ) ) ;
#103 = LINE ( 'NONE', #799, #635 ) ;
#104 = CARTESIAN_POINT ( 'NONE',  ( -4.504674152032673184, 4.973306729504791690, 2.196774857559201433 ) ) ;
#105 = EDGE_CURVE ( 'NONE', #908, #786, #144, .T. ) ;
#106 = CARTESIAN_POINT ( 'NONE',  ( 0.000000000000000000, -9.000000000000000000, 0.000000000000000000 ) ) ;
#107 = CARTESIAN_POINT ( 'NONE',  ( -40.91159125180004708, 100.0000000000000000, -31.34472365878566436 ) ) ;
#108 = ORIENTED_EDGE ( 'NONE', *, *, #78, .T. ) ;
#109 = DIRECTION ( 'NONE',  ( 0.000000000000000000, 1.000000000000000000, 0.000000000000000000 ) ) ;
#110 = DIRECTION ( 'NONE',  ( 0.000000000000000000, 1.000000000000000000, 0.000000000000000000 ) ) ;
#111 = DIRECTION ( 'NONE',  ( 0.000000000000000000, -0.000000000000000000, -1.000000000000000000 ) ) ;
#112 = CIRCLE ( 'NONE', #197, 2.500000000000000000 ) ;
#113 = AXIS2_PLACEMENT_3D ( 'NONE', #851, #250, #34 ) ;
#114 = CARTESIAN_POINT ( 'NONE',  ( -3.411591251800067504, -1.848159876401205270, 3.655276341214332092 ) ) ;
#115 = DIRECTION ( 'NONE',  ( 0.000000000000000000, 1.000000000000000000, 0.000000000000000000 ) ) ;
#116 = ORIENTED_EDGE ( 'NONE', *, *, #562, .F. ) ;
#117 = ADVANCED_FACE ( 'NONE', ( #575 ), #409, .F. ) ;
#118 = DIRECTION ( 'NONE',  ( 0.000000000000000000, -1.000000000000000000, 0.000000000000000000 ) ) ;
#119 = FACE_BOUND ( 'NONE', #214, .T. ) ;
#120 = CARTESIAN_POINT ( 'NONE',  ( -3.281303541961596348, 15.56247921514235699, -4.028219591969204316 ) ) ;
#121 = COORDINATED_UNIVERSAL_TIME_OFFSET ( 1, 0, .AHEAD. ) ;
#122 = FACE_OUTER_BOUND ( 'NONE', #83, .T. ) ;
#123 = CARTESIAN_POINT ( 'NONE',  ( -32.65324026903766708, 77.06240618791308350, -33.76707976550716239 ) ) ;
#124 = AXIS2_PLACEMENT_3D ( 'NONE', #15, #566, #192 ) ;
#125 = EDGE_CURVE ( 'NONE', #859, #335, #90, .T. ) ;
#126 = ADVANCED_FACE ( 'NONE', ( #740 ), #375, .T. ) ;
#127 = CARTESIAN_POINT ( 'NONE',  ( -37.50000000000000000, 100.0000000000000000, -35.00000000000000000 ) ) ;
#128 = CARTESIAN_POINT ( 'NONE',  ( 0.000000000000000000, 0.000000000000000000, 0.000000000000000000 ) ) ;
#129 = AXIS2_PLACEMENT_3D ( 'NONE', #541, #216, #681 ) ;
#130 = COORDINATED_UNIVERSAL_TIME_OFFSET ( 1, 0, .AHEAD. ) ;
#131 = CC_DESIGN_APPROVAL ( #1, ( #631 ) ) ;
#132 = CARTESIAN_POINT ( 'NONE',  ( 1.676208689777667793, 5.715099333978968410, -4.716361811744945953 ) ) ;
#133 = CARTESIAN_POINT ( 'NONE',  ( -31.99384127181721738, 100.0000000000000000, -33.57149701995182767 ) ) ;
#134 = AXIS2_PLACEMENT_3D ( 'NONE', #962, #798, #135 ) ;
#135 = DIRECTION ( 'NONE',  ( 0.000000000000000000, -0.000000000000000000, 1.000000000000000000 ) ) ;
#136 = CARTESIAN_POINT ( 'NONE',  ( -33.53339356284535455, 89.75287343110271365, -38.06167430728226719 ) ) ;
#137 = CARTESIAN_POINT ( 'NONE',  ( -1.424537302009673434, 13.74691457636115643, -4.794733431550070257 ) ) ;
#138 = CARTESIAN_POINT ( 'NONE',  ( -37.50000000000000000, 100.0000000000000000, -37.50000000000000711 ) ) ;
#139 = ORIENTED_EDGE ( 'NONE', *, *, #585, .F. ) ;
#140 = CARTESIAN_POINT ( 'NONE',  ( -34.08840874819993871, 100.0000000000000000, -38.65527634121435341 ) ) ;
#141 = AXIS2_PLACEMENT_3D ( 'NONE', #520, #207, #509 ) ;
#142 = ORIENTED_EDGE ( 'NONE', *, *, #934, .T. ) ;
#143 = CC_DESIGN_PERSON_AND_ORGANIZATION_ASSIGNMENT ( #667, #203, ( #643 ) ) ;
#144 = B_SPLINE_CURVE_WITH_KNOTS ( 'NONE', 3,
 ( #640, #254, #497, #788, #102, #946, #645, #259 ),
 .UNSPECIFIED., .F., .F.,
 ( 4, 2, 2, 4 ),
 ( 0.004112304340615323059, 0.006952283427340824259, 0.009792262514066327195, 0.01547222068751728970 ),
 .UNSPECIFIED. ) ;
#145 = ORIENTED_EDGE ( 'NONE', *, *, #412, .F. ) ;
#146 = EDGE_CURVE ( 'NONE', #527, #776, #950, .T. ) ;
#147 = CARTESIAN_POINT ( 'NONE',  ( -0.3874215339409418091, 11.80593928553594729, -4.988545129533065392 ) ) ;
#148 = CIRCLE ( 'NONE', #883, 2.500000000000002220 ) ;
#149 = CIRCLE ( 'NONE', #348, 4.999999999999997335 ) ;
#150 = EDGE_LOOP ( 'NONE', ( #538, #925, #175, #583, #33 ) ) ;
#151 = ORIENTED_EDGE ( 'NONE', *, *, #125, .F. ) ;
#152 = FACE_OUTER_BOUND ( 'NONE', #466, .T. ) ;
#153 = EDGE_CURVE ( 'NONE', #463, #306, #396, .T. ) ;
#154 = ORIENTED_EDGE ( 'NONE', *, *, #308, .T. ) ;
#155 = ORIENTED_EDGE ( 'NONE', *, *, #977, .F. ) ;
#156 = CARTESIAN_POINT ( 'NONE',  ( 0.000000000000000000, -9.000000000000000000, 2.500000000000000000 ) ) ;
#157 = DIRECTION ( 'NONE',  ( 0.000000000000000000, 1.000000000000000000, 0.000000000000000000 ) ) ;
#158 = ADVANCED_FACE ( 'NONE', ( #268 ), #605, .F. ) ;
#159 = EDGE_CURVE ( 'NONE', #776, #477, #563, .T. ) ;
#160 = AXIS2_PLACEMENT_3D ( 'NONE', #403, #867, #186 ) ;
#161 = VERTEX_POINT ( 'NONE', #889 ) ;
#162 = VERTEX_POINT ( 'NONE', #580 ) ;
#163 = ORIENTED_EDGE ( 'NONE', *, *, #125, .T. ) ;
#164 = LINE ( 'NONE', #674, #366 ) ;
#165 = ORIENTED_EDGE ( 'NONE', *, *, #693, .F. ) ;
#166 = CARTESIAN_POINT ( 'NONE',  ( -3.411591251800067504, -8.999999999999994671, 3.655276341214332092 ) ) ;
#167 = CONICAL_SURFACE ( 'NONE', #616, 2.500000000000000000, 0.7853981633974511656 ) ;
#168 = CARTESIAN_POINT ( 'NONE',  ( -4.875332277937107328, 8.670795187216434385, 1.129390642213577323 ) ) ;
#169 = LINE ( 'NONE', #401, #882 ) ;
#170 = LINE ( 'NONE', #430, #253 ) ;
#171 =( BOUNDED_CURVE ( )  B_SPLINE_CURVE ( 3, ( #281, #748, #60, #531 ),
 .UNSPECIFIED., .F., .T. ) 
 B_SPLINE_CURVE_WITH_KNOTS ( ( 4, 4 ),
 ( 0.6980789277401669990, 1.570796326794893005 ),
 .UNSPECIFIED. ) 
 CURVE ( )  GEOMETRIC_REPRESENTATION_ITEM ( )  RATIONAL_B_SPLINE_CURVE ( ( 1.000000000000000000, 0.9375310901948111786, 0.9375310901948111786, 1.000000000000000000 ) ) 
 REPRESENTATION_ITEM ( '' )  );
#172 = DIRECTION ( 'NONE',  ( 0.000000000000000000, 1.000000000000000000, 0.000000000000000000 ) ) ;
#173 = CARTESIAN_POINT ( 'NONE',  ( -40.67047738441968363, 91.61593022344131043, -31.13032671268328144 ) ) ;
#174 = CARTESIAN_POINT ( 'NONE',  ( -1.985479603199183707, 14.40356414432443088, -4.588885566810312788 ) ) ;
#175 = ORIENTED_EDGE ( 'NONE', *, *, #545, .F. ) ;
#176 = CARTESIAN_POINT ( 'NONE',  ( -3.642087735212775179, -0.6159302234411497823, 3.429503626576601238 ) ) ;
#177 = CC_DESIGN_DATE_AND_TIME_ASSIGNMENT ( #973, #286, ( #631 ) ) ;
#178 = ORIENTED_EDGE ( 'NONE', *, *, #768, .F. ) ;
#179 = CIRCLE ( 'NONE', #984, 2.500000000000000000 ) ;
#180 = CARTESIAN_POINT ( 'NONE',  ( -4.757339938924818767, 14.29856963703058526, -1.544046347665406937 ) ) ;
#181 = CARTESIAN_POINT ( 'NONE',  ( -37.50000000000000000, 91.00000000000000000, -30.00000000000000711 ) ) ;
#182 = ORIENTED_EDGE ( 'NONE', *, *, #974, .F. ) ;
#183 = EDGE_CURVE ( 'NONE', #495, #335, #551, .T. ) ;
#184 = CARTESIAN_POINT ( 'NONE',  ( -39.22783711984978083, 98.68577834594461251, -29.77321980229874754 ) ) ;
#185 = CARTESIAN_POINT ( 'NONE',  ( -40.79368841538421719, 92.23204511110797910, -31.23468101146421105 ) ) ;
#186 = DIRECTION ( 'NONE',  ( -0.9420049690080122273, -0.3355989248555693027, 0.000000000000000000 ) ) ;
#187 = CARTESIAN_POINT ( 'NONE',  ( -37.50000000000000000, 91.00000000000000000, -35.00000000000000000 ) ) ;
#188 = ORIENTED_EDGE ( 'NONE', *, *, #759, .T. ) ;
#189 = FACE_OUTER_BOUND ( 'NONE', #988, .T. ) ;
#190 = DIRECTION ( 'NONE',  ( 0.6823182503600111470, 0.000000000000000000, -0.7310552682428690385 ) ) ;
#191 = ADVANCED_FACE ( 'NONE', ( #189 ), #449, .F. ) ;
#192 = DIRECTION ( 'NONE',  ( 0.000000000000000000, 0.000000000000000000, 1.000000000000000000 ) ) ;
#193 = DIRECTION ( 'NONE',  ( 0.000000000000000000, 0.000000000000000000, -1.000000000000000000 ) ) ;
#194 = ORIENTED_EDGE ( 'NONE', *, *, #485, .T. ) ;
#195 = DIRECTION ( 'NONE',  ( 0.000000000000000000, 0.000000000000000000, 1.000000000000000000 ) ) ;
#196 = ORIENTED_EDGE ( 'NONE', *, *, #338, .F. ) ;
#197 = AXIS2_PLACEMENT_3D ( 'NONE', #705, #244, #847 ) ;
#198 = CARTESIAN_POINT ( 'NONE',  ( -40.91159125180004708, 92.84815987640128299, -31.34472365878566436 ) ) ;
#199 = CARTESIAN_POINT ( 'NONE',  ( -4.244679409368070644, 15.56247921514234811, -2.996031162605119036 ) ) ;
#200 = APPROVAL_STATUS ( 'not_yet_approved' ) ;
#201 = CARTESIAN_POINT ( 'NONE',  ( -6.218991173553002128, -8.999999999999994671, -0.6647539314371755381 ) ) ;
#202 = CARTESIAN_POINT ( 'NONE',  ( -37.50000000000000000, 91.00000000000000000, -35.00000000000000000 ) ) ;
#203 = PERSON_AND_ORGANIZATION_ROLE ( 'design_supplier' ) ;
#204 = CARTESIAN_POINT ( 'NONE',  ( -4.627140449982966253, -8.999999999999994671, 2.520763756243627363 ) ) ;
#205 = CARTESIAN_POINT ( 'NONE',  ( 0.7668829817190859766, -8.999999999999994671, -6.123670726623235971 ) ) ;
#206 = CARTESIAN_POINT ( 'NONE',  ( 3.041770856716322413, 0.000000000000000000, -3.968328370388626958 ) ) ;
#207 = DIRECTION ( 'NONE',  ( 0.000000000000000000, 1.000000000000000000, 0.000000000000000000 ) ) ;
#208 = CARTESIAN_POINT ( 'NONE',  ( 1.448891628740589521, 6.528050403771894494, -4.792034535788795679 ) ) ;
#209 = CALENDAR_DATE ( 2026, 10, 8 ) ;
#210 = CARTESIAN_POINT ( 'NONE',  ( -37.50000000000000000, 92.00000000000001421, -37.50000000000000711 ) ) ;
#211 = PERSON ( 'UNSPECIFIED', 'UNSPECIFIED', 'UNSPECIFIED', ('UNSPECIFIED'), ('UNSPECIFIED'), ('UNSPECIFIED') ) ;
#212 = DIRECTION ( 'NONE',  ( 0.000000000000000000, 1.000000000000000000, 0.000000000000000000 ) ) ;
#213 = VECTOR ( 'NONE', #811, 1000.000000000000000 ) ;
#214 = EDGE_LOOP ( 'NONE', ( #353, #552 ) ) ;
#215 = CARTESIAN_POINT ( 'NONE',  ( -32.49690789895083043, 78.71857339913977114, -34.74956760821311974 ) ) ;
#216 = DIRECTION ( 'NONE',  ( 0.000000000000000000, -1.000000000000000000, 0.000000000000000000 ) ) ;
#217 = ORIENTED_EDGE ( 'NONE', *, *, #341, .T. ) ;
#218 = DIRECTION ( 'NONE',  ( 0.000000000000000000, 0.000000000000000000, -1.000000000000000000 ) ) ;
#219 = ORIENTED_EDGE ( 'NONE', *, *, #768, .T. ) ;
#220 = ORIENTED_EDGE ( 'NONE', *, *, #525, .T. ) ;
#221 = CIRCLE ( 'NONE', #237, 5.000000000000000000 ) ;
#222 = AXIS2_PLACEMENT_3D ( 'NONE', #906, #921, #11 ) ;
#223 = EDGE_LOOP ( 'NONE', ( #804, #8, #178, #305, #302, #116, #547 ) ) ;
#224 = EDGE_CURVE ( 'NONE', #88, #162, #350, .T. ) ;
#225 = ORIENTED_EDGE ( 'NONE', *, *, #970, .F. ) ;
#226 = CARTESIAN_POINT ( 'NONE',  ( 0.000000000000000000, -1.000000000000000888, 0.000000000000000000 ) ) ;
#227 = EDGE_CURVE ( 'NONE', #321, #161, #663, .T. ) ;
#228 = ORIENTED_EDGE ( 'NONE', *, *, #828, .T. ) ;
#229 = ORIENTED_EDGE ( 'NONE', *, *, #55, .F. ) ;
#230 = ORIENTED_EDGE ( 'NONE', *, *, #372, .F. ) ;
#231 = LINE ( 'NONE', #780, #848 ) ;
#232 = DIRECTION ( 'NONE',  ( 0.000000000000000000, 0.000000000000000000, 1.000000000000000000 ) ) ;
#233 = DIRECTION ( 'NONE',  ( 0.7310552682428689275, -0.000000000000000000, 0.6823182503600111470 ) ) ;
#234 = DIRECTION ( 'NONE',  ( -0.3202562212786881357, 0.8989389698733022405, -0.2989058065267755637 ) ) ;
#235 = DIRECTION ( 'NONE',  ( 0.000000000000000000, 1.000000000000000000, 0.000000000000000000 ) ) ;
#236 = CARTESIAN_POINT ( 'NONE',  ( -37.50000000000000000, 100.0000000000000000, -35.00000000000000000 ) ) ;
#237 = AXIS2_PLACEMENT_3D ( 'NONE', #628, #378, #747 ) ;
#238 = VECTOR ( 'NONE', #594, 999.9999999999998863 ) ;
#239 = CARTESIAN_POINT ( 'NONE',  ( -34.21869645803840854, 75.43752078485763946, -30.97178040803079568 ) ) ;
#240 = VECTOR ( 'NONE', #803, 1000.000000000000000 ) ;
#241 = ORIENTED_EDGE ( 'NONE', *, *, #974, .T. ) ;
#242 = CARTESIAN_POINT ( 'NONE',  ( 0.000000000000000000, 0.000000000000000000, 0.000000000000000000 ) ) ;
#243 = CIRCLE ( 'NONE', #907, 3.500000000000006661 ) ;
#244 = DIRECTION ( 'NONE',  ( 0.000000000000000000, 1.000000000000000000, 0.000000000000000000 ) ) ;
#245 = CIRCLE ( 'NONE', #113, 3.500000000000006661 ) ;
#246 = CARTESIAN_POINT ( 'NONE',  ( -37.50000000000000000, -8.999999999999994671, -35.00000000000000000 ) ) ;
#247 = AXIS2_PLACEMENT_3D ( 'NONE', #532, #806, #49 ) ;
#248 = DIRECTION ( 'NONE',  ( -0.6571740697546953891, -0.4380738846851363610, -0.6133624651043824150 ) ) ;
#249 = EDGE_CURVE ( 'NONE', #477, #936, #278, .T. ) ;
#250 = DIRECTION ( 'NONE',  ( -0.000000000000000000, -1.000000000000000000, -0.000000000000000000 ) ) ;
#251 = CARTESIAN_POINT ( 'NONE',  ( -4.714752604639217637, 14.40356414432440602, -1.664664493838831305 ) ) ;
#252 = ORIENTED_EDGE ( 'NONE', *, *, #105, .T. ) ;
#253 = VECTOR ( 'NONE', #931, 1000.000000000000000 ) ;
#254 = CARTESIAN_POINT ( 'NONE',  ( -37.84702245294894141, 81.01426326564046576, -30.00000000000001066 ) ) ;
#255 = CIRCLE ( 'NONE', #644, 2.500000000000002220 ) ;
#256 = EDGE_CURVE ( 'NONE', #311, #461, #975, .T. ) ;
#257 = CARTESIAN_POINT ( 'NONE',  ( 37.11637437865552158, 100.0000000000000000, -107.6181566454583134 ) ) ;
#258 = ORIENTED_EDGE ( 'NONE', *, *, #977, .T. ) ;
#259 = CARTESIAN_POINT ( 'NONE',  ( -40.54177085671648939, 91.00000000000000000, -31.03167162961150893 ) ) ;
#260 = DIRECTION ( 'NONE',  ( -0.000000000000000000, -1.000000000000000000, -0.000000000000000000 ) ) ;
#261 = ADVANCED_FACE ( 'NONE', ( #669, #354 ), #673, .F. ) ;
#262 = ADVANCED_FACE ( 'NONE', ( #588 ), #584, .F. ) ;
#263 = CARTESIAN_POINT ( 'NONE',  ( -39.69604205361711990, 100.0000000000000000, -30.21021107381492854 ) ) ;
#264 = DIRECTION ( 'NONE',  ( -0.000000000000000000, -1.000000000000000000, -0.000000000000000000 ) ) ;
#265 = CARTESIAN_POINT ( 'NONE',  ( -40.91159125180005418, 100.0000000000000000, -31.34472365878567146 ) ) ;
#266 = ORIENTED_EDGE ( 'NONE', *, *, #341, .F. ) ;
#267 = COORDINATED_UNIVERSAL_TIME_OFFSET ( 1, 0, .AHEAD. ) ;
#268 = FACE_OUTER_BOUND ( 'NONE', #384, .T. ) ;
#269 = CARTESIAN_POINT ( 'NONE',  ( 33.46109803744117528, 86.00000000000000000, -111.0297478972583747 ) ) ;
#270 = CARTESIAN_POINT ( 'NONE',  ( 3.411591251800069280, -1.848159876401307633, -3.655276341214332536 ) ) ;
#271 = EDGE_LOOP ( 'NONE', ( #74, #266, #145, #608, #165 ) ) ;
#272 = COORDINATED_UNIVERSAL_TIME_OFFSET ( 1, 0, .AHEAD. ) ;
#273 = DIRECTION ( 'NONE',  ( 0.000000000000000000, 0.000000000000000000, 1.000000000000000000 ) ) ;
#274 = ORIENTED_EDGE ( 'NONE', *, *, #19, .F. ) ;
#275 =( BOUNDED_CURVE ( )  B_SPLINE_CURVE ( 3, ( #697, #133, #373, #292 ),
 .UNSPECIFIED., .F., .T. ) 
 B_SPLINE_CURVE_WITH_KNOTS ( ( 4, 4 ),
 ( 0.000000000000000000, 0.6980789277401669990 ),
 .UNSPECIFIED. ) 
 CURVE ( )  GEOMETRIC_REPRESENTATION_ITEM ( )  RATIONAL_B_SPLINE_CURVE ( ( 1.000000000000000000, 0.9598010967887555811, 0.9598010967887555811, 1.000000000000000000 ) ) 
 REPRESENTATION_ITEM ( '' )  );
#276 = FACE_OUTER_BOUND ( 'NONE', #556, .T. ) ;
#277 = EDGE_LOOP ( 'NONE', ( #816, #885, #700 ) ) ;
#278 = LINE ( 'NONE', #658, #850 ) ;
#279 = CARTESIAN_POINT ( 'NONE',  ( -1.091561508875679820, -8.999999999999994671, -6.158428572162891079 ) ) ;
#280 = DIRECTION ( 'NONE',  ( -0.000000000000000000, -1.000000000000000000, -0.000000000000000000 ) ) ;
#281 = CARTESIAN_POINT ( 'NONE',  ( -31.73511772443337975, 100.0000000000000000, -34.99282839318465932 ) ) ;
#282 = CARTESIAN_POINT ( 'NONE',  ( -33.85791226478661287, 91.61593022344129622, -38.42950362657595065 ) ) ;
#283 = EDGE_CURVE ( 'NONE', #703, #463, #901, .T. ) ;
#284 = PERSON_AND_ORGANIZATION ( #211, #323 ) ;
#285 = DIRECTION ( 'NONE',  ( 0.000000000000000000, 1.000000000000000000, 0.000000000000000000 ) ) ;
#286 = DATE_TIME_ROLE ( 'classification_date' ) ;
#287 = EDGE_LOOP ( 'NONE', ( #5, #397, #340, #979, #230 ) ) ;
#288 = DIRECTION ( 'NONE',  ( 0.000000000000000000, 0.000000000000000000, -1.000000000000000000 ) ) ;
#289 = AXIS2_PLACEMENT_3D ( 'NONE', #269, #92, #507 ) ;
#290 = DIRECTION ( 'NONE',  ( 0.000000000000000000, 0.000000000000000000, 1.000000000000000000 ) ) ;
#291 = CARTESIAN_POINT ( 'NONE',  ( -36.97854880425698099, 78.87255625590196928, -30.01706178990815133 ) ) ;
#292 = CARTESIAN_POINT ( 'NONE',  ( -31.73511772443337975, 100.0000000000000000, -34.99282839318465932 ) ) ;
#293 = CIRCLE ( 'NONE', #420, 5.000000000000000000 ) ;
#294 = ADVANCED_FACE ( 'NONE', ( #122 ), #512, .T. ) ;
#295 = ORIENTED_EDGE ( 'NONE', *, *, #146, .F. ) ;
#296 = CARTESIAN_POINT ( 'NONE',  ( 0.000000000000000000, -1.000000000000000888, 2.500000000000000000 ) ) ;
#297 = CARTESIAN_POINT ( 'NONE',  ( -35.63933159606993684, 76.70806026352373408, -30.35711219521887827 ) ) ;
#298 = PRODUCT_DEFINITION_SHAPE ( 'NONE', 'NONE',  #711 ) ;
#299 = AXIS2_PLACEMENT_3D ( 'NONE', #246, #212, #601 ) ;
#300 = CYLINDRICAL_SURFACE ( 'NONE', #299, 4.999999999999997335 ) ;
#301 = AXIS2_PLACEMENT_3D ( 'NONE', #505, #365, #426 ) ;
#302 = ORIENTED_EDGE ( 'NONE', *, *, #790, .F. ) ;
#303 = ADVANCED_FACE ( 'NONE', ( #339 ), #935, .F. ) ;
#304 = EDGE_LOOP ( 'NONE', ( #620, #627, #392, #73, #217, #228, #767, #548 ) ) ;
#305 = ORIENTED_EDGE ( 'NONE', *, *, #970, .T. ) ;
#306 = VERTEX_POINT ( 'NONE', #181 ) ;
#307 = CARTESIAN_POINT ( 'NONE',  ( -35.51452039680081896, 76.59643585567557977, -30.41111443318968455 ) ) ;
#308 = EDGE_CURVE ( 'NONE', #936, #43, #687, .T. ) ;
#309 = EDGE_LOOP ( 'NONE', ( #686, #30, #784, #642, #775 ) ) ;
#310 = VECTOR ( 'NONE', #965, 1000.000000000000114 ) ;
#311 = VERTEX_POINT ( 'NONE', #174 ) ;
#312 = CARTESIAN_POINT ( 'NONE',  ( -32.48008715806565050, 100.0000000000000000, -33.05051928468567723 ) ) ;
#313 = VECTOR ( 'NONE', #808, 1000.000000000000000 ) ;
#314 = VERTEX_POINT ( 'NONE', #490 ) ;
#315 = VERTEX_POINT ( 'NONE', #265 ) ;
#316 = ORIENTED_EDGE ( 'NONE', *, *, #329, .F. ) ;
#317 = CARTESIAN_POINT ( 'NONE',  ( -34.08840874819993871, 92.84815987640128299, -38.65527634121435341 ) ) ;
#318 = DIRECTION ( 'NONE',  ( 0.000000000000000000, 1.000000000000000000, 0.000000000000000000 ) ) ;
#319 = DIRECTION ( 'NONE',  ( 0.3202562212786880802, -0.8989389698733023515, 0.2989058065267756192 ) ) ;
#320 = CARTESIAN_POINT ( 'NONE',  ( -39.69604205361711990, 100.0000000000000000, -30.21021107381492854 ) ) ;
#321 = VERTEX_POINT ( 'NONE', #713 ) ;
#322 = DIRECTION ( 'NONE',  ( -0.6823182503600112581, -0.000000000000000000, 0.7310552682428688165 ) ) ;
#323 = ORGANIZATION ( 'UNSPECIFIED', 'UNSPECIFIED', '' ) ;
#324 = PLANE ( 'NONE',  #840 ) ;
#325 = CARTESIAN_POINT ( 'NONE',  ( -3.749374253487367525, 0.000000000000000000, 3.307898533402445551 ) ) ;
#326 = DIRECTION ( 'NONE',  ( 0.000000000000000000, 0.000000000000000000, 1.000000000000000000 ) ) ;
#327 = CC_DESIGN_PERSON_AND_ORGANIZATION_ASSIGNMENT ( #805, #967, ( #643 ) ) ;
#328 = CIRCLE ( 'NONE', #462, 4.999999999999997335 ) ;
#329 = EDGE_CURVE ( 'NONE', #832, #311, #656, .T. ) ;
#330 = ORIENTED_EDGE ( 'NONE', *, *, #787, .T. ) ;
#331 = CARTESIAN_POINT ( 'NONE',  ( -4.927658241188232147, 13.41206060416445212, -0.8673625417700090434 ) ) ;
#332 = CARTESIAN_POINT ( 'NONE',  ( -3.411591251800067504, -8.999999999999994671, 3.655276341214332092 ) ) ;
#333 = ADVANCED_FACE ( 'NONE', ( #334 ), #502, .T. ) ;
#334 = FACE_OUTER_BOUND ( 'NONE', #309, .T. ) ;
#335 = VERTEX_POINT ( 'NONE', #972 ) ;
#336 = B_SPLINE_CURVE_WITH_KNOTS ( 'NONE', 3,
 ( #637, #173, #185, #493 ),
 .UNSPECIFIED., .F., .F.,
 ( 4, 4 ),
 ( 0.000000000000000000, 0.001910620504124197708 ),
 .UNSPECIFIED. ) ;
#337 = CARTESIAN_POINT ( 'NONE',  ( -33.84472365878566080, 100.0000000000000000, -31.58840874819995292 ) ) ;
#338 = EDGE_CURVE ( 'NONE', #859, #830, #171, .T. ) ;
#339 = FACE_OUTER_BOUND ( 'NONE', #539, .T. ) ;
#340 = ORIENTED_EDGE ( 'NONE', *, *, #227, .T. ) ;
#341 = EDGE_CURVE ( 'NONE', #694, #96, #724, .T. ) ;
#342 = CARTESIAN_POINT ( 'NONE',  ( -37.50000000000000000, 91.00000000000000000, -38.50000000000002842 ) ) ;
#343 = DIRECTION ( 'NONE',  ( 0.7310552682428689275, 0.000000000000000000, 0.6823182503600111470 ) ) ;
#344 = DIRECTION ( 'NONE',  ( -0.9420049690080122273, -0.3355989248555693027, 0.000000000000000000 ) ) ;
#345 = VERTEX_POINT ( 'NONE', #432 ) ;
#346 = AXIS2_PLACEMENT_3D ( 'NONE', #737, #742, #53 ) ;
#347 = PERSON_AND_ORGANIZATION ( #211, #323 ) ;
#348 = AXIS2_PLACEMENT_3D ( 'NONE', #771, #568, #471 ) ;
#349 = DIRECTION ( 'NONE',  ( 0.000000000000000000, 0.000000000000000000, 1.000000000000000000 ) ) ;
#350 = CIRCLE ( 'NONE', #301, 3.500000000000023981 ) ;
#351 = DIRECTION ( 'NONE',  ( 0.000000000000000000, 1.000000000000000000, 0.000000000000000000 ) ) ;
#352 = CARTESIAN_POINT ( 'NONE',  ( -37.50000000000000000, 91.00000000000000000, -35.00000000000000000 ) ) ;
#353 = ORIENTED_EDGE ( 'NONE', *, *, #961, .F. ) ;
#354 = FACE_OUTER_BOUND ( 'NONE', #223, .T. ) ;
#355 = CARTESIAN_POINT ( 'NONE',  ( -37.50000000000000000, 100.0000000000000000, -35.00000000000000000 ) ) ;
#356 = CARTESIAN_POINT ( 'NONE',  ( -32.54685791664411454, 81.10844416776569687, -35.71463753614618497 ) ) ;
#357 = LINE ( 'NONE', #474, #753 ) ;
#358 = CARTESIAN_POINT ( 'NONE',  ( 3.061616997868383141E-16, -9.000000000000000000, -2.500000000000000000 ) ) ;
#359 = ORIENTED_EDGE ( 'NONE', *, *, #153, .T. ) ;
#360 = DIRECTION ( 'NONE',  ( 0.000000000000000000, 0.000000000000000000, -1.000000000000000000 ) ) ;
#361 = LINE ( 'NONE', #590, #313 ) ;
#362 = APPROVAL ( #200, 'UNSPECIFIED' ) ;
#363 = APPROVAL_ROLE ( '' ) ;
#364 = ORIENTED_EDGE ( 'NONE', *, *, #19, .T. ) ;
#365 = DIRECTION ( 'NONE',  ( -0.000000000000000000, 1.000000000000000000, -0.000000000000000000 ) ) ;
#366 = VECTOR ( 'NONE', #839, 1000.000000000000114 ) ;
#367 = PERSON_AND_ORGANIZATION_ROLE ( 'design_owner' ) ;
#368 = AXIS2_PLACEMENT_3D ( 'NONE', #526, #52, #453 ) ;
#369 = DIRECTION ( 'NONE',  ( -0.000000000000000000, 1.000000000000000000, -0.000000000000000000 ) ) ;
#370 = DATE_AND_TIME ( #209, #755 ) ;
#371 = DIRECTION ( 'NONE',  ( -0.3202562212786880247, 0.8989389698733022405, -0.2989058065267753972 ) ) ;
#372 = EDGE_CURVE ( 'NONE', #345, #495, #293, .T. ) ;
#373 = CARTESIAN_POINT ( 'NONE',  ( -31.73511772443337620, 100.0000000000000000, -34.24604966598007394 ) ) ;
#374 = ORIENTED_EDGE ( 'NONE', *, *, #414, .T. ) ;
#375 = CYLINDRICAL_SURFACE ( 'NONE', #465, 4.999999999999997335 ) ;
#376 = CARTESIAN_POINT ( 'NONE',  ( -32.70967414242532811, 76.81708374854652277, -33.56335447219878887 ) ) ;
#377 = CARTESIAN_POINT ( 'NONE',  ( -1.826656719523829686, 14.26152151956943648, -4.657603688338429748 ) ) ;
#378 = DIRECTION ( 'NONE',  ( 0.000000000000000000, 1.000000000000000000, 0.000000000000000000 ) ) ;
#379 = AXIS2_PLACEMENT_3D ( 'NONE', #624, #318, #232 ) ;
#380 = EDGE_LOOP ( 'NONE', ( #258, #108 ) ) ;
#381 = EDGE_LOOP ( 'NONE', ( #388, #194, #364, #929 ) ) ;
#382 = CARTESIAN_POINT ( 'NONE',  ( 0.2704064336777639022, 10.16251674339561184, -4.994905725182870349 ) ) ;
#383 = CARTESIAN_POINT ( 'NONE',  ( 2.196042053617140777, -8.999999999999994671, -4.789788926185075901 ) ) ;
#384 = EDGE_LOOP ( 'NONE', ( #865, #689, #93, #611 ) ) ;
#385 =( BOUNDED_CURVE ( )  B_SPLINE_CURVE ( 3, ( #320, #846, #626, #709 ),
 .UNSPECIFIED., .F., .F. ) 
 B_SPLINE_CURVE_WITH_KNOTS ( ( 4, 4 ),
 ( 1.570796326794900777, 3.141592653589792228 ),
 .UNSPECIFIED. ) 
 CURVE ( )  GEOMETRIC_REPRESENTATION_ITEM ( )  RATIONAL_B_SPLINE_CURVE ( ( 1.000000000000000000, 0.8047378541243661587, 0.8047378541243661587, 1.000000000000000000 ) ) 
 REPRESENTATION_ITEM ( '' )  );
#386 = ORIENTED_EDGE ( 'NONE', *, *, #695, .F. ) ;
#387 = ORIENTED_EDGE ( 'NONE', *, *, #451, .F. ) ;
#388 = ORIENTED_EDGE ( 'NONE', *, *, #78, .F. ) ;
#389 = ORIENTED_EDGE ( 'NONE', *, *, #414, .F. ) ;
#390 = CARTESIAN_POINT ( 'NONE',  ( -35.75072239175988642, 76.83246855833364464, -30.31466903030508675 ) ) ;
#391 = B_SPLINE_CURVE_WITH_KNOTS ( 'NONE', 3,
 ( #827, #382, #980, #533, #147, #823, #987, #58, #137, #751, #377, #914 ),
 .UNSPECIFIED., .F., .F.,
 ( 4, 2, 2, 2, 2, 4 ),
 ( 0.01015438700022523386, 0.01148125038301430617, 0.01280811376580337849, 0.01413497714859245080, 0.01479840883998698869, 0.01546184053138152832 ),
 .UNSPECIFIED. ) ;
#392 = ORIENTED_EDGE ( 'NONE', *, *, #338, .T. ) ;
#393 = ORIENTED_EDGE ( 'NONE', *, *, #227, .F. ) ;
#394 = CYLINDRICAL_SURFACE ( 'NONE', #222, 2.999999999999996891 ) ;
#395 = DIRECTION ( 'NONE',  ( 0.000000000000000000, 0.000000000000000000, -1.000000000000000000 ) ) ;
#396 = CIRCLE ( 'NONE', #247, 4.999999999999997335 ) ;
#397 = ORIENTED_EDGE ( 'NONE', *, *, #562, .T. ) ;
#398 = LINE ( 'NONE', #22, #67 ) ;
#399 = LINE ( 'NONE', #733, #557 ) ;
#400 = CARTESIAN_POINT ( 'NONE',  ( -3.966682887020957615, 1.247565466384059851, 3.061587654334007702 ) ) ;
#401 = CARTESIAN_POINT ( 'NONE',  ( -1.364636500720026957, 4.999999999999997335, 1.462110536485747181 ) ) ;
#402 = AXIS2_PLACEMENT_3D ( 'NONE', #18, #928, #111 ) ;
#403 = CARTESIAN_POINT ( 'NONE',  ( -34.16384129001588832, 87.31422165405538749, -34.62202314117259050 ) ) ;
#404 = ADVANCED_FACE ( 'NONE', ( #738 ), #983, .T. ) ;
#405 = CARTESIAN_POINT ( 'NONE',  ( 0.000000000000000000, 0.000000000000000000, 0.000000000000000000 ) ) ;
#406 = DIRECTION ( 'NONE',  ( 0.000000000000000000, 1.000000000000000000, 0.000000000000000000 ) ) ;
#407 = ORIENTED_EDGE ( 'NONE', *, *, #3, .F. ) ;
#408 = CLOSED_SHELL ( 'NONE', ( #690, #191, #648, #516, #783, #117, #941, #333, #858, #261, #853, #262, #712, #685, #813, #452, #898, #639, #126, #920, #445, #158, #303, #863, #294, #940, #404, #625 ) ) ;
#409 = CONICAL_SURFACE ( 'NONE', #765, 2.500000000000000000, 0.7853981633974511656 ) ;
#410 = CARTESIAN_POINT ( 'NONE',  ( -32.78524739536078414, 76.59643585567559398, -33.33533550616115804 ) ) ;
#411 = CARTESIAN_POINT ( 'NONE',  ( -37.50000000000000000, 181.0000000000000000, -37.50000000000000711 ) ) ;
#412 = EDGE_CURVE ( 'NONE', #703, #694, #852, .T. ) ;
#413 = VERTEX_POINT ( 'NONE', #210 ) ;
#414 = EDGE_CURVE ( 'NONE', #936, #908, #699, .T. ) ;
#415 = CARTESIAN_POINT ( 'NONE',  ( -3.749374253487367525, 0.000000000000000000, 3.307898533402445551 ) ) ;
#416 = DIRECTION ( 'NONE',  ( -0.000000000000000000, -1.000000000000000000, -0.000000000000000000 ) ) ;
#417 = ORIENTED_EDGE ( 'NONE', *, *, #105, .F. ) ;
#418 = PERSON_AND_ORGANIZATION ( #211, #323 ) ;
#419 = CARTESIAN_POINT ( 'NONE',  ( 0.000000000000000000, -9.000000000000000000, 0.000000000000000000 ) ) ;
#420 = AXIS2_PLACEMENT_3D ( 'NONE', #128, #809, #438 ) ;
#421 = PLANE ( 'NONE',  #402 ) ;
#422 = CARTESIAN_POINT ( 'NONE',  ( 3.041770856716322413, 0.000000000000000000, -3.968328370388626958 ) ) ;
#423 = ORIENTED_EDGE ( 'NONE', *, *, #283, .F. ) ;
#424 = AXIS2_PLACEMENT_3D ( 'NONE', #947, #264, #79 ) ;
#425 = VECTOR ( 'NONE', #91, 1000.000000000000000 ) ;
#426 = DIRECTION ( 'NONE',  ( 0.000000000000000000, 0.000000000000000000, -1.000000000000000000 ) ) ;
#427 = B_SPLINE_CURVE_WITH_KNOTS ( 'NONE', 3,
 ( #710, #180, #27, #492, #21, #331, #855, #715, #718, #499, #942, #168, #636, #94, #104, #861, #400, #415 ),
 .UNSPECIFIED., .F., .F.,
 ( 4, 2, 2, 2, 2, 2, 2, 2, 4 ),
 ( 2.045668567712605528E-18, 0.0004835068964849246814, 0.0009670137929698473028, 0.001934027585939688100, 0.003868055171879370129, 0.005802082757819050640, 0.007736110343758732452, 0.01160416551563809087, 0.01547222068751745276 ),
 .UNSPECIFIED. ) ;
#428 = CARTESIAN_POINT ( 'NONE',  ( -2.290639840494337776, -8.999999999999994671, -4.873701788285778491 ) ) ;
#429 = ORIENTED_EDGE ( 'NONE', *, *, #822, .F. ) ;
#430 = CARTESIAN_POINT ( 'NONE',  ( -3.411591251800067504, -8.999999999999994671, 3.655276341214332092 ) ) ;
#431 = CARTESIAN_POINT ( 'NONE',  ( -37.50000000000000000, 181.0000000000000000, -32.50000000000000000 ) ) ;
#432 = CARTESIAN_POINT ( 'NONE',  ( 0.000000000000000000, 0.000000000000000000, 5.000000000000000000 ) ) ;
#433 = ORIENTED_EDGE ( 'NONE', *, *, #683, .T. ) ;
#434 = APPROVAL_DATE_TIME ( #370, #543 ) ;
#435 = CARTESIAN_POINT ( 'NONE',  ( -5.095345383750303547, -7.685778345944596524, 2.083772484727444585 ) ) ;
#436 = EDGE_CURVE ( 'NONE', #335, #311, #391, .T. ) ;
#437 = CARTESIAN_POINT ( 'NONE',  ( 0.000000000000000000, -9.000000000000000000, 0.000000000000000000 ) ) ;
#438 = DIRECTION ( 'NONE',  ( 0.000000000000000000, 0.000000000000000000, 1.000000000000000000 ) ) ;
#439 = DATE_AND_TIME ( #877, #664 ) ;
#440 = AXIS2_PLACEMENT_3D ( 'NONE', #242, #802, #581 ) ;
#441 = CARTESIAN_POINT ( 'NONE',  ( -34.08840874819993871, 92.84815987640128299, -38.65527634121435341 ) ) ;
#442 = DIRECTION ( 'NONE',  ( -0.3202562212786880247, 0.8989389698733023515, -0.2989058065267755637 ) ) ;
#443 = CALENDAR_DATE ( 2026, 10, 8 ) ;
#444 = CARTESIAN_POINT ( 'NONE',  ( 0.7029698772814337859, 8.948338499346649044, -4.958538680819360778 ) ) ;
#445 = ADVANCED_FACE ( 'NONE', ( #922 ), #835, .F. ) ;
#446 = CARTESIAN_POINT ( 'NONE',  ( -32.99499958824230816, 86.02421886145785379, -37.19616231964121766 ) ) ;
#447 = DIRECTION ( 'NONE',  ( 0.000000000000000000, 0.000000000000000000, 1.000000000000000000 ) ) ;
#448 = APPROVAL_DATE_TIME ( #818, #1 ) ;
#449 = CONICAL_SURFACE ( 'NONE', #807, 2.500000000000002220, 0.7853981633974516097 ) ;
#450 = DIRECTION ( 'NONE',  ( 0.7310552682428689275, -0.000000000000000000, 0.6823182503600111470 ) ) ;
#451 = EDGE_CURVE ( 'NONE', #38, #413, #958, .T. ) ;
#452 = ADVANCED_FACE ( 'NONE', ( #152 ), #464, .F. ) ;
#453 = DIRECTION ( 'NONE',  ( 0.000000000000000000, 0.000000000000000000, -1.000000000000000000 ) ) ;
#454 =( NAMED_UNIT ( * ) PLANE_ANGLE_UNIT ( ) SI_UNIT ( $, .RADIAN. ) );
#455 = MANIFOLD_SOLID_BREP ( 'Fillet1', #408 ) ;
#456 = FACE_OUTER_BOUND ( 'NONE', #675, .T. ) ;
#457 = DIRECTION ( 'NONE',  ( 0.9420049690080122273, 0.3355989248555693027, 0.000000000000000000 ) ) ;
#458 = ORIENTED_EDGE ( 'NONE', *, *, #436, .F. ) ;
#459 = ORIENTED_EDGE ( 'NONE', *, *, #101, .T. ) ;
#460 = ORIENTED_EDGE ( 'NONE', *, *, #621, .T. ) ;
#461 = VERTEX_POINT ( 'NONE', #312 ) ;
#462 = AXIS2_PLACEMENT_3D ( 'NONE', #202, #794, #728 ) ;
#463 = VERTEX_POINT ( 'NONE', #618 ) ;
#464 = CYLINDRICAL_SURFACE ( 'NONE', #692, 4.999999999999999112 ) ;
#465 = AXIS2_PLACEMENT_3D ( 'NONE', #744, #61, #288 ) ;
#466 = EDGE_LOOP ( 'NONE', ( #959, #722, #4, #316, #729 ) ) ;
#467 = ORIENTED_EDGE ( 'NONE', *, *, #693, .T. ) ;
#468 = EDGE_CURVE ( 'NONE', #413, #38, #255, .T. ) ;
#469 = EDGE_LOOP ( 'NONE', ( #833, #762 ) ) ;
#470 = ORIENTED_EDGE ( 'NONE', *, *, #554, .T. ) ;
#471 = DIRECTION ( 'NONE',  ( 0.000000000000000000, 0.000000000000000000, -1.000000000000000000 ) ) ;
#472 = CARTESIAN_POINT ( 'NONE',  ( 3.061616997868383141E-16, -9.000000000000000000, -2.500000000000000000 ) ) ;
#473 = AXIS2_PLACEMENT_3D ( 'NONE', #236, #157, #290 ) ;
#474 = CARTESIAN_POINT ( 'NONE',  ( -3.411591251800067504, 100.0000000000000000, 3.655276341214332092 ) ) ;
#475 = ORIENTED_EDGE ( 'NONE', *, *, #910, .F. ) ;
#476 = AXIS2_PLACEMENT_3D ( 'NONE', #352, #369, #720 ) ;
#477 = VERTEX_POINT ( 'NONE', #12 ) ;
#478 = EDGE_CURVE ( 'NONE', #754, #345, #797, .T. ) ;
#479 = CARTESIAN_POINT ( 'NONE',  ( -2.290639840494337776, -8.999999999999994671, -4.873701788285778491 ) ) ;
#480 = AXIS2_PLACEMENT_3D ( 'NONE', #437, #874, #666 ) ;
#481 = LINE ( 'NONE', #647, #2 ) ;
#482 = AXIS2_PLACEMENT_3D ( 'NONE', #257, #248, #721 ) ;
#483 = CARTESIAN_POINT ( 'NONE',  ( -3.411591251800067504, -1.848159876401205270, 3.655276341214332092 ) ) ;
#484 = FACE_OUTER_BOUND ( 'NONE', #10, .T. ) ;
#485 = EDGE_CURVE ( 'NONE', #537, #314, #558, .T. ) ;
#486 = CARTESIAN_POINT ( 'NONE',  ( -37.50000000000000000, 100.0000000000000000, -32.50000000000000000 ) ) ;
#487 = ORIENTED_EDGE ( 'NONE', *, *, #256, .T. ) ;
#488 = LINE ( 'NONE', #337, #887 ) ;
#489 = AXIS2_PLACEMENT_3D ( 'NONE', #355, #406, #273 ) ;
#490 = CARTESIAN_POINT ( 'NONE',  ( 3.061616997868383141E-16, -1.000000000000000888, -2.500000000000000000 ) ) ;
#491 = ORIENTED_EDGE ( 'NONE', *, *, #619, .F. ) ;
#492 = CARTESIAN_POINT ( 'NONE',  ( -4.846723916386141973, 13.93770084116697205, -1.233029132551902718 ) ) ;
#493 = CARTESIAN_POINT ( 'NONE',  ( -40.91159125180004708, 92.84815987640128299, -31.34472365878566436 ) ) ;
#494 = EDGE_CURVE ( 'NONE', #542, #345, #772, .T. ) ;
#495 = VERTEX_POINT ( 'NONE', #206 ) ;
#496 = VERTEX_POINT ( 'NONE', #734 ) ;
#497 = CARTESIAN_POINT ( 'NONE',  ( -38.15568384926405088, 81.91046251234968167, -30.03460565167316787 ) ) ;
#498 = ORIENTED_EDGE ( 'NONE', *, *, #787, .F. ) ;
#499 = CARTESIAN_POINT ( 'NONE',  ( -4.981273609019882365, 10.49416402465853260, 0.4951307515554159711 ) ) ;
#500 = FACE_OUTER_BOUND ( 'NONE', #381, .T. ) ;
#501 = CARTESIAN_POINT ( 'NONE',  ( 0.000000000000000000, -9.000000000000000000, 5.000000000000000000 ) ) ;
#502 = CYLINDRICAL_SURFACE ( 'NONE', #141, 5.000000000000000000 ) ;
#503 = ORIENTED_EDGE ( 'NONE', *, *, #529, .T. ) ;
#504 = CIRCLE ( 'NONE', #36, 2.500000000000000000 ) ;
#505 = CARTESIAN_POINT ( 'NONE',  ( -37.50000000000000000, 91.00000000000000000, -35.00000000000000000 ) ) ;
#506 = AXIS2_PLACEMENT_3D ( 'NONE', #795, #115, #815 ) ;
#507 = DIRECTION ( 'NONE',  ( 0.6823182503600113691, 0.000000000000000000, -0.7310552682428688165 ) ) ;
#508 = LINE ( 'NONE', #660, #238 ) ;
#509 = DIRECTION ( 'NONE',  ( 0.000000000000000000, 0.000000000000000000, 1.000000000000000000 ) ) ;
#510 = ORIENTED_EDGE ( 'NONE', *, *, #719, .T. ) ;
#511 = AXIS2_PLACEMENT_3D ( 'NONE', #127, #416, #193 ) ;
#512 = CYLINDRICAL_SURFACE ( 'NONE', #707, 2.999999999999996891 ) ;
#513 = DESIGN_CONTEXT ( 'detailed design', #945, 'design' ) ;
#514 = CC_DESIGN_DATE_AND_TIME_ASSIGNMENT ( #672, #662, ( #711 ) ) ;
#515 = CARTESIAN_POINT ( 'NONE',  ( 2.699474633625917441, 1.638072232493076541, -4.230702493339166814 ) ) ;
#516 = ADVANCED_FACE ( 'NONE', ( #952 ), #47, .T. ) ;
#517 = DIRECTION ( 'NONE',  ( 0.000000000000000000, 0.000000000000000000, 1.000000000000000000 ) ) ;
#518 = ORIENTED_EDGE ( 'NONE', *, *, #905, .F. ) ;
#519 = PLANE ( 'NONE',  #346 ) ;
#520 = CARTESIAN_POINT ( 'NONE',  ( 0.000000000000000000, -9.000000000000000000, 0.000000000000000000 ) ) ;
#521 = EDGE_CURVE ( 'NONE', #306, #786, #757, .T. ) ;
#522 = CARTESIAN_POINT ( 'NONE',  ( -37.50000000000000000, 92.00000000000001421, -35.00000000000000000 ) ) ;
#523 = APPLICATION_PROTOCOL_DEFINITION ( 'international standard', 'config_control_design', 1994, #945 ) ;
#524 = DIRECTION ( 'NONE',  ( -0.7310552682428690385, -0.000000000000000000, -0.6823182503600111470 ) ) ;
#525 = EDGE_CURVE ( 'NONE', #908, #306, #361, .T. ) ;
#526 = CARTESIAN_POINT ( 'NONE',  ( -37.50000000000000000, 92.00000000000001421, -35.00000000000000000 ) ) ;
#527 = VERTEX_POINT ( 'NONE', #198 ) ;
#528 = EDGE_CURVE ( 'NONE', #939, #38, #530, .T. ) ;
#529 = EDGE_CURVE ( 'NONE', #43, #735, #508, .T. ) ;
#530 = LINE ( 'NONE', #431, #981 ) ;
#531 = CARTESIAN_POINT ( 'NONE',  ( -32.87285955001701154, 100.0000000000000000, -37.52076375624361759 ) ) ;
#532 = CARTESIAN_POINT ( 'NONE',  ( -37.50000000000000000, 91.00000000000000000, -35.00000000000000000 ) ) ;
#533 = CARTESIAN_POINT ( 'NONE',  ( -0.2140711285915166961, 11.39932675087938385, -4.998122564136636470 ) ) ;
#534 = VECTOR ( 'NONE', #779, 999.9999999999998863 ) ;
#535 = DIRECTION ( 'NONE',  ( 0.000000000000000000, 1.000000000000000000, 0.000000000000000000 ) ) ;
#536 = ORIENTED_EDGE ( 'NONE', *, *, #468, .T. ) ;
#537 = VERTEX_POINT ( 'NONE', #358 ) ;
#538 = ORIENTED_EDGE ( 'NONE', *, *, #828, .F. ) ;
#539 = EDGE_LOOP ( 'NONE', ( #717, #487, #760, #330 ) ) ;
#540 = AXIS2_PLACEMENT_3D ( 'NONE', #106, #351, #447 ) ;
#541 = CARTESIAN_POINT ( 'NONE',  ( -37.50000000000000000, 92.00000000000001421, -35.00000000000000000 ) ) ;
#542 = VERTEX_POINT ( 'NONE', #501 ) ;
#543 = APPROVAL ( #593, 'UNSPECIFIED' ) ;
#544 = ORIENTED_EDGE ( 'NONE', *, *, #84, .T. ) ;
#545 = EDGE_CURVE ( 'NONE', #786, #696, #328, .T. ) ;
#546 = CARTESIAN_POINT ( 'NONE',  ( -36.50718881940104410, 77.95893050718781581, -30.09696807082989167 ) ) ;
#547 = ORIENTED_EDGE ( 'NONE', *, *, #657, .F. ) ;
#548 = ORIENTED_EDGE ( 'NONE', *, *, #904, .T. ) ;
#549 = DIRECTION ( 'NONE',  ( -0.000000000000000000, -1.000000000000000000, -0.000000000000000000 ) ) ;
#550 = CARTESIAN_POINT ( 'NONE',  ( -36.33767872910080143, 77.65717232682015947, -30.13311855472444023 ) ) ;
#551 = B_SPLINE_CURVE_WITH_KNOTS ( 'NONE', 3,
 ( #817, #515, #595, #132, #208, #749, #444, #871 ),
 .UNSPECIFIED., .F., .F.,
 ( 4, 2, 2, 4 ),
 ( 0.000000000000000000, 0.005077193500112616928, 0.007615790250168925392, 0.01015438700022523386 ),
 .UNSPECIFIED. ) ;
#552 = ORIENTED_EDGE ( 'NONE', *, *, #554, .F. ) ;
#553 = CARTESIAN_POINT ( 'NONE',  ( -31.73511772443337975, 100.0000000000000000, -34.99282839318465932 ) ) ;
#554 = EDGE_CURVE ( 'NONE', #939, #769, #148, .T. ) ;
#555 = ORIENTED_EDGE ( 'NONE', *, *, #545, .T. ) ;
#556 = EDGE_LOOP ( 'NONE', ( #825, #615, #24, #229, #498 ) ) ;
#557 = VECTOR ( 'NONE', #41, 1000.000000000000114 ) ;
#558 = LINE ( 'NONE', #472, #773 ) ;
#559 = CARTESIAN_POINT ( 'NONE',  ( -35.51452039680081896, 76.59643585567557977, -30.41111443318968455 ) ) ;
#560 = DIRECTION ( 'NONE',  ( 0.000000000000000000, 0.000000000000000000, 1.000000000000000000 ) ) ;
#561 = CARTESIAN_POINT ( 'NONE',  ( 0.000000000000000000, -9.000000000000000000, 2.500000000000000000 ) ) ;
#562 = EDGE_CURVE ( 'NONE', #542, #321, #81, .T. ) ;
#563 =( BOUNDED_CURVE ( )  B_SPLINE_CURVE ( 3, ( #204, #736, #201, #731 ),
 .UNSPECIFIED., .F., .T. ) 
 B_SPLINE_CURVE_WITH_KNOTS ( ( 4, 4 ),
 ( 1.570796326794895670, 3.141592653589783790 ),
 .UNSPECIFIED. ) 
 CURVE ( )  GEOMETRIC_REPRESENTATION_ITEM ( )  RATIONAL_B_SPLINE_CURVE ( ( 1.000000000000000000, 0.8047378541243670469, 0.8047378541243670469, 1.000000000000000000 ) ) 
 REPRESENTATION_ITEM ( '' )  );
#564 = VECTOR ( 'NONE', #322, 1000.000000000000114 ) ;
#565 = VECTOR ( 'NONE', #234, 1000.000000000000114 ) ;
#566 = DIRECTION ( 'NONE',  ( 0.000000000000000000, 1.000000000000000000, 0.000000000000000000 ) ) ;
#567 = CARTESIAN_POINT ( 'NONE',  ( 0.000000000000000000, 0.000000000000000000, 3.500000000000006661 ) ) ;
#568 = DIRECTION ( 'NONE',  ( 0.000000000000000000, -1.000000000000000000, 0.000000000000000000 ) ) ;
#569 = B_SPLINE_CURVE_WITH_KNOTS ( 'NONE', 3,
 ( #325, #176, #573, #483 ),
 .UNSPECIFIED., .F., .F.,
 ( 4, 4 ),
 ( 0.000000000000000000, 0.001910620504123904974 ),
 .UNSPECIFIED. ) ;
#570 = CARTESIAN_POINT ( 'NONE',  ( -33.25532059063193202, 75.43752078485765367, -32.00396883739487208 ) ) ;
#571 = CARTESIAN_POINT ( 'NONE',  ( -37.50000000000000000, 100.0000000000000000, -40.00000000000000000 ) ) ;
#572 = ORIENTED_EDGE ( 'NONE', *, *, #249, .T. ) ;
#573 = CARTESIAN_POINT ( 'NONE',  ( -3.529494088103187543, -1.232045111067625154, 3.545233693998099067 ) ) ;
#574 = ORIENTED_EDGE ( 'NONE', *, *, #961, .T. ) ;
#575 = FACE_OUTER_BOUND ( 'NONE', #796, .T. ) ;
#576 = DIRECTION ( 'NONE',  ( 0.000000000000000000, 1.000000000000000000, 0.000000000000000000 ) ) ;
#577 = CARTESIAN_POINT ( 'NONE',  ( -35.51452039680081896, 76.59643585567557977, -30.41111443318968455 ) ) ;
#578 = ORIENTED_EDGE ( 'NONE', *, *, #308, .F. ) ;
#579 = CALENDAR_DATE ( 2026, 10, 8 ) ;
#580 = CARTESIAN_POINT ( 'NONE',  ( -37.50000000000000000, 91.00000000000000000, -31.49999999999997868 ) ) ;
#581 = DIRECTION ( 'NONE',  ( 0.000000000000000000, -0.000000000000000000, 1.000000000000000000 ) ) ;
#582 = DIRECTION ( 'NONE',  ( 0.000000000000000000, -1.000000000000000000, 0.000000000000000000 ) ) ;
#583 = ORIENTED_EDGE ( 'NONE', *, *, #789, .T. ) ;
#584 = CYLINDRICAL_SURFACE ( 'NONE', #911, 2.500000000000000000 ) ;
#585 = EDGE_CURVE ( 'NONE', #527, #315, #971, .T. ) ;
#586 = CYLINDRICAL_SURFACE ( 'NONE', #860, 2.999999999999996891 ) ;
#587 = ORIENTED_EDGE ( 'NONE', *, *, #521, .T. ) ;
#588 = FACE_OUTER_BOUND ( 'NONE', #924, .T. ) ;
#589 = CARTESIAN_POINT ( 'NONE',  ( 0.000000000000000000, 0.000000000000000000, 0.000000000000000000 ) ) ;
#590 = CARTESIAN_POINT ( 'NONE',  ( -37.50000000000000000, -8.999999999999994671, -30.00000000000000711 ) ) ;
#591 = EDGE_CURVE ( 'NONE', #161, #495, #599, .T. ) ;
#592 = CARTESIAN_POINT ( 'NONE',  ( -33.75062574651217062, 91.00000000000000000, -38.30789853340192508 ) ) ;
#593 = APPROVAL_STATUS ( 'not_yet_approved' ) ;
#594 = DIRECTION ( 'NONE',  ( 0.3202562212786881357, -0.8989389698733023515, 0.2989058065267756192 ) ) ;
#595 = CARTESIAN_POINT ( 'NONE',  ( 2.320045566491615308, 3.272377463479416271, -4.453354445055037303 ) ) ;
#596 = CARTESIAN_POINT ( 'NONE',  ( -32.51854695679040219, 80.50179559847201460, -35.49364551050128114 ) ) ;
#597 = LOCAL_TIME ( 16, 5, 23.00000000000000000, #130 ) ;
#598 = CARTESIAN_POINT ( 'NONE',  ( -37.24875485065658864, 79.50029922740471022, -30.00000000000000355 ) ) ;
#599 = B_SPLINE_CURVE_WITH_KNOTS ( 'NONE', 3,
 ( #270, #896, #50, #422 ),
 .UNSPECIFIED., .F., .F.,
 ( 4, 4 ),
 ( -2.487818798205689681E-05, 0.001885742316141982965 ),
 .UNSPECIFIED. ) ;
#600 = VECTOR ( 'NONE', #524, 1000.000000000000000 ) ;
#601 = DIRECTION ( 'NONE',  ( 0.000000000000000000, 0.000000000000000000, 1.000000000000000000 ) ) ;
#602 = EDGE_LOOP ( 'NONE', ( #574, #607, #919, #429 ) ) ;
#603 = CARTESIAN_POINT ( 'NONE',  ( -33.75062574651217062, 91.00000000000000000, -38.30789853340192508 ) ) ;
#604 = DIRECTION ( 'NONE',  ( -0.000000000000000000, -1.000000000000000000, -0.000000000000000000 ) ) ;
#605 = CONICAL_SURFACE ( 'NONE', #368, 2.500000000000002220, 0.7853981633974516097 ) ;
#606 = DIRECTION ( 'NONE',  ( 0.3202562212786880802, -0.8989389698733023515, 0.2989058065267755637 ) ) ;
#607 = ORIENTED_EDGE ( 'NONE', *, *, #528, .T. ) ;
#608 = ORIENTED_EDGE ( 'NONE', *, *, #283, .T. ) ;
#609 = EDGE_CURVE ( 'NONE', #162, #88, #7, .T. ) ;
#610 = VERTEX_POINT ( 'NONE', #114 ) ;
#611 = ORIENTED_EDGE ( 'NONE', *, *, #609, .F. ) ;
#612 = DIRECTION ( 'NONE',  ( 0.000000000000000000, 1.000000000000000000, 0.000000000000000000 ) ) ;
#613 = CARTESIAN_POINT ( 'NONE',  ( -36.89311429145593024, 87.31422165405540170, -31.69780206820112411 ) ) ;
#614 = ORIENTED_EDGE ( 'NONE', *, *, #249, .F. ) ;
#615 = ORIENTED_EDGE ( 'NONE', *, *, #101, .F. ) ;
#616 = AXIS2_PLACEMENT_3D ( 'NONE', #226, #926, #326 ) ;
#617 = FACE_OUTER_BOUND ( 'NONE', #826, .T. ) ;
#618 = CARTESIAN_POINT ( 'NONE',  ( -33.75062574651217062, 91.00000000000000000, -38.30789853340192508 ) ) ;
#619 = EDGE_CURVE ( 'NONE', #830, #694, #42, .T. ) ;
#620 = ORIENTED_EDGE ( 'NONE', *, *, #54, .F. ) ;
#621 = EDGE_CURVE ( 'NONE', #314, #496, #37, .T. ) ;
#622 = ORIENTED_EDGE ( 'NONE', *, *, #725, .T. ) ;
#623 = FACE_OUTER_BOUND ( 'NONE', #758, .T. ) ;
#624 = CARTESIAN_POINT ( 'NONE',  ( 0.000000000000000000, 0.000000000000000000, 0.000000000000000000 ) ) ;
#625 = ADVANCED_FACE ( 'NONE', ( #276 ), #586, .T. ) ;
#626 = CARTESIAN_POINT ( 'NONE',  ( -36.40843849112431485, 100.0000000000000000, -28.84157142783709205 ) ) ;
#627 = ORIENTED_EDGE ( 'NONE', *, *, #695, .T. ) ;
#628 = CARTESIAN_POINT ( 'NONE',  ( 0.000000000000000000, -9.000000000000000000, 0.000000000000000000 ) ) ;
#629 =( GEOMETRIC_REPRESENTATION_CONTEXT ( 3 ) GLOBAL_UNCERTAINTY_ASSIGNED_CONTEXT ( ( #879 ) ) GLOBAL_UNIT_ASSIGNED_CONTEXT ( ( #57, #454, #956 ) ) REPRESENTATION_CONTEXT ( 'NONE', 'WORKASPACE' ) );
#630 = DIRECTION ( 'NONE',  ( 0.9420049690080122273, 0.3355989248555693027, 0.000000000000000000 ) ) ;
#631 = SECURITY_CLASSIFICATION ( '', '', #870 ) ;
#632 = CARTESIAN_POINT ( 'NONE',  ( -37.49999999999999289, 80.13609518130496667, -30.00000000000000000 ) ) ;
#633 = CARTESIAN_POINT ( 'NONE',  ( -32.11688653893585865, 87.31422165405540170, -36.81518894590120539 ) ) ;
#634 = CARTESIAN_POINT ( 'NONE',  ( -37.50000000000000000, -8.999999999999994671, -35.00000000000000000 ) ) ;
#635 = VECTOR ( 'NONE', #100, 1000.000000000000000 ) ;
#636 = CARTESIAN_POINT ( 'NONE',  ( -4.825598760401897280, 8.056030960869284385, 1.323025734020917721 ) ) ;
#637 = CARTESIAN_POINT ( 'NONE',  ( -40.54177085671648939, 91.00000000000000000, -31.03167162961150893 ) ) ;
#638 = EDGE_LOOP ( 'NONE', ( #139, #684, #433, #142, #459, #650 ) ) ;
#639 = ADVANCED_FACE ( 'NONE', ( #884, #119 ), #519, .T. ) ;
#640 = CARTESIAN_POINT ( 'NONE',  ( -37.49999999999999289, 80.13609518130496667, -30.00000000000000000 ) ) ;
#641 = PLANE ( 'NONE',  #440 ) ;
#642 = ORIENTED_EDGE ( 'NONE', *, *, #87, .T. ) ;
#643 = PRODUCT_DEFINITION_FORMATION_WITH_SPECIFIED_SOURCE ( 'ANY', '', #820, .NOT_KNOWN. ) ;
#644 = AXIS2_PLACEMENT_3D ( 'NONE', #844, #927, #395 ) ;
#645 = CARTESIAN_POINT ( 'NONE',  ( -40.15895944045993105, 89.16804069413997524, -30.73824212960428071 ) ) ;
#646 = DIRECTION ( 'NONE',  ( -0.7310552682428690385, 0.000000000000000000, -0.6823182503600111470 ) ) ;
#647 = CARTESIAN_POINT ( 'NONE',  ( -37.50000000000000000, 92.00000000000001421, -37.50000000000000711 ) ) ;
#648 = ADVANCED_FACE ( 'NONE', ( #671 ), #649, .F. ) ;
#649 = CYLINDRICAL_SURFACE ( 'NONE', #424, 2.500000000000002220 ) ;
#650 = ORIENTED_EDGE ( 'NONE', *, *, #862, .F. ) ;
#651 = APPROVAL_STATUS ( 'not_yet_approved' ) ;
#652 = LINE ( 'NONE', #633, #565 ) ;
#653 = CYLINDRICAL_SURFACE ( 'NONE', #124, 5.000000000000000000 ) ;
#654 = CARTESIAN_POINT ( 'NONE',  ( -34.08840874819993871, 100.0000000000000000, -38.65527634121435341 ) ) ;
#655 = ORIENTED_EDGE ( 'NONE', *, *, #256, .F. ) ;
#656 =( BOUNDED_CURVE ( )  B_SPLINE_CURVE ( 3, ( #251, #199, #120, #875 ),
 .UNSPECIFIED., .F., .T. ) 
 B_SPLINE_CURVE_WITH_KNOTS ( ( 4, 4 ),
 ( 5.871668461112095727, 6.694702153247071408 ),
 .UNSPECIFIED. ) 
 CURVE ( )  GEOMETRIC_REPRESENTATION_ITEM ( )  RATIONAL_B_SPLINE_CURVE ( ( 1.000000000000000000, 0.9443434259941120290, 0.9443434259941120290, 1.000000000000000000 ) ) 
 REPRESENTATION_ITEM ( '' )  );
#657 = EDGE_CURVE ( 'NONE', #838, #542, #221, .T. ) ;
#658 = CARTESIAN_POINT ( 'NONE',  ( -38.86463650072003162, 86.00000000000000000, -33.53788946351427569 ) ) ;
#659 = CARTESIAN_POINT ( 'NONE',  ( -32.54781968817504634, 77.86397904497711409, -34.29337287217026642 ) ) ;
#660 = CARTESIAN_POINT ( 'NONE',  ( -2.290639840494324897, -9.000000000000000000, -4.873701788285795367 ) ) ;
#661 = EDGE_LOOP ( 'NONE', ( #555, #467, #359, #587 ) ) ;
#662 = DATE_TIME_ROLE ( 'creation_date' ) ;
#663 = LINE ( 'NONE', #56, #213 ) ;
#664 = LOCAL_TIME ( 16, 5, 23.00000000000000000, #121 ) ;
#665 = CARTESIAN_POINT ( 'NONE',  ( -32.74328622781640519, 76.69988661599445834, -33.45418018910226721 ) ) ;
#666 = DIRECTION ( 'NONE',  ( 0.000000000000000000, 0.000000000000000000, 1.000000000000000000 ) ) ;
#667 = PERSON_AND_ORGANIZATION ( #211, #323 ) ;
#668 = AXIS2_PLACEMENT_3D ( 'NONE', #419, #866, #932 ) ;
#669 = FACE_BOUND ( 'NONE', #380, .T. ) ;
#670 = CARTESIAN_POINT ( 'NONE',  ( -33.33792694522208677, 88.50797835113468182, -37.79200743746152824 ) ) ;
#671 = FACE_OUTER_BOUND ( 'NONE', #602, .T. ) ;
#672 = DATE_AND_TIME ( #39, #691 ) ;
#673 = PLANE ( 'NONE',  #134 ) ;
#674 = CARTESIAN_POINT ( 'NONE',  ( 0.000000000000000000, -1.000000000000000888, 2.500000000000000000 ) ) ;
#675 = EDGE_LOOP ( 'NONE', ( #374, #220, #876, #241, #578 ) ) ;
#676 = DIRECTION ( 'NONE',  ( 0.000000000000000000, 0.000000000000000000, 1.000000000000000000 ) ) ;
#677 = VECTOR ( 'NONE', #746, 1000.000000000000000 ) ;
#678 = CARTESIAN_POINT ( 'NONE',  ( -37.50000000000000000, 181.0000000000000000, -35.00000000000000000 ) ) ;
#679 = DIRECTION ( 'NONE',  ( 8.659560562354962440E-17, -0.7071067811865452413, 0.7071067811865499042 ) ) ;
#680 = ORIENTED_EDGE ( 'NONE', *, *, #224, .F. ) ;
#681 = DIRECTION ( 'NONE',  ( 0.000000000000000000, 0.000000000000000000, -1.000000000000000000 ) ) ;
#682 = CC_DESIGN_PERSON_AND_ORGANIZATION_ASSIGNMENT ( #954, #886, ( #711 ) ) ;
#683 = EDGE_CURVE ( 'NONE', #776, #838, #398, .T. ) ;
#684 = ORIENTED_EDGE ( 'NONE', *, *, #146, .T. ) ;
#685 = ADVANCED_FACE ( 'NONE', ( #484 ), #300, .F. ) ;
#686 = ORIENTED_EDGE ( 'NONE', *, *, #657, .T. ) ;
#687 =( BOUNDED_CURVE ( )  B_SPLINE_CURVE ( 3, ( #577, #239, #570, #854 ),
 .UNSPECIFIED., .F., .T. ) 
 B_SPLINE_CURVE_WITH_KNOTS ( ( 4, 4 ),
 ( 2.730075807522306608, 3.553109499657280956 ),
 .UNSPECIFIED. ) 
 CURVE ( )  GEOMETRIC_REPRESENTATION_ITEM ( )  RATIONAL_B_SPLINE_CURVE ( ( 1.000000000000000000, 0.9443434259941121400, 0.9443434259941121400, 1.000000000000000000 ) ) 
 REPRESENTATION_ITEM ( '' )  );
#688 = ORIENTED_EDGE ( 'NONE', *, *, #528, .F. ) ;
#689 = ORIENTED_EDGE ( 'NONE', *, *, #468, .F. ) ;
#690 = ADVANCED_FACE ( 'NONE', ( #617 ), #394, .T. ) ;
#691 = LOCAL_TIME ( 16, 5, 23.00000000000000000, #272 ) ;
#692 = AXIS2_PLACEMENT_3D ( 'NONE', #764, #612, #75 ) ;
#693 = EDGE_CURVE ( 'NONE', #696, #463, #149, .T. ) ;
#694 = VERTEX_POINT ( 'NONE', #777 ) ;
#695 = EDGE_CURVE ( 'NONE', #461, #859, #275, .T. ) ;
#696 = VERTEX_POINT ( 'NONE', #843 ) ;
#697 = CARTESIAN_POINT ( 'NONE',  ( -32.48008715806565050, 100.0000000000000000, -33.05051928468567723 ) ) ;
#698 = DIRECTION ( 'NONE',  ( 0.000000000000000000, 1.000000000000000000, 0.000000000000000000 ) ) ;
#699 = B_SPLINE_CURVE_WITH_KNOTS ( 'NONE', 3,
 ( #307, #297, #390, #917, #6, #550, #546, #291, #598, #62 ),
 .UNSPECIFIED., .F., .F.,
 ( 4, 2, 2, 2, 4 ),
 ( 0.000000000000000000, 0.0005140380425769331633, 0.001028076085153866327, 0.002056152170307688418, 0.004112304340615323059 ),
 .UNSPECIFIED. ) ;
#700 = ORIENTED_EDGE ( 'NONE', *, *, #14, .T. ) ;
#701 = DIRECTION ( 'NONE',  ( 0.000000000000000000, 0.000000000000000000, 1.000000000000000000 ) ) ;
#702 = CARTESIAN_POINT ( 'NONE',  ( -35.20936015950568532, 100.0000000000000000, -30.12629821171420730 ) ) ;
#703 = VERTEX_POINT ( 'NONE', #317 ) ;
#704 = FACE_BOUND ( 'NONE', #469, .T. ) ;
#705 = CARTESIAN_POINT ( 'NONE',  ( 0.000000000000000000, -1.000000000000000888, 0.000000000000000000 ) ) ;
#706 = DIRECTION ( 'NONE',  ( 0.3202562212786879692, -0.8989389698733022405, 0.2989058065267755082 ) ) ;
#707 = AXIS2_PLACEMENT_3D ( 'NONE', #613, #319, #457 ) ;
#708 = ORIENTED_EDGE ( 'NONE', *, *, #726, .F. ) ;
#709 = CARTESIAN_POINT ( 'NONE',  ( -35.20936015950568532, 100.0000000000000000, -30.12629821171420730 ) ) ;
#710 = CARTESIAN_POINT ( 'NONE',  ( -4.714752604639217637, 14.40356414432440602, -1.664664493838831305 ) ) ;
#711 = PRODUCT_DEFINITION ( 'UNKNOWN', '', #643, #513 ) ;
#712 = ADVANCED_FACE ( 'NONE', ( #623 ), #167, .F. ) ;
#713 = CARTESIAN_POINT ( 'NONE',  ( 3.411591251800069280, -8.999999999999994671, -3.655276341214332536 ) ) ;
#714 = ORIENTED_EDGE ( 'NONE', *, *, #84, .F. ) ;
#715 = CARTESIAN_POINT ( 'NONE',  ( -5.003260269270617400, 12.27427097281997170, -0.2470437202093098417 ) ) ;
#716 = CARTESIAN_POINT ( 'NONE',  ( -32.87285955001701154, 100.0000000000000000, -37.52076375624361759 ) ) ;
#717 = ORIENTED_EDGE ( 'NONE', *, *, #329, .T. ) ;
#718 = CARTESIAN_POINT ( 'NONE',  ( -5.005803619647168468, 11.68601091685439641, 0.01309009477075444468 ) ) ;
#719 = EDGE_CURVE ( 'NONE', #71, #496, #243, .T. ) ;
#720 = DIRECTION ( 'NONE',  ( 0.000000000000000000, 0.000000000000000000, -1.000000000000000000 ) ) ;
#721 = DIRECTION ( 'NONE',  ( -0.6823182503600111470, 0.000000000000000000, 0.7310552682428689275 ) ) ;
#722 = ORIENTED_EDGE ( 'NONE', *, *, #183, .T. ) ;
#723 = PERSON_AND_ORGANIZATION_ROLE ( 'classification_officer' ) ;
#724 = CIRCLE ( 'NONE', #506, 4.999999999999997335 ) ;
#725 = EDGE_CURVE ( 'NONE', #38, #162, #231, .T. ) ;
#726 = EDGE_CURVE ( 'NONE', #989, #71, #164, .T. ) ;
#727 = CARTESIAN_POINT ( 'NONE',  ( 0.000000000000000000, -1.000000000000000888, 0.000000000000000000 ) ) ;
#728 = DIRECTION ( 'NONE',  ( 0.000000000000000000, 0.000000000000000000, -1.000000000000000000 ) ) ;
#729 = ORIENTED_EDGE ( 'NONE', *, *, #55, .T. ) ;
#730 = EDGE_CURVE ( 'NONE', #743, #989, #978, .T. ) ;
#731 = CARTESIAN_POINT ( 'NONE',  ( -5.019912841934385028, -8.999999999999994671, -1.949480715314297452 ) ) ;
#732 = CARTESIAN_POINT ( 'NONE',  ( 2.196042053617140777, -8.999999999999994671, -4.789788926185075901 ) ) ;
#733 = CARTESIAN_POINT ( 'NONE',  ( 1.440069042535991217, 3.685778345944565437, -5.495363736527476561 ) ) ;
#734 = CARTESIAN_POINT ( 'NONE',  ( 4.286263797015743990E-16, 0.000000000000000000, -3.500000000000006661 ) ) ;
#735 = VERTEX_POINT ( 'NONE', #479 ) ;
#736 = CARTESIAN_POINT ( 'NONE',  ( -6.056299521881006065, -8.999999999999994671, 1.186881955805460853 ) ) ;
#737 = CARTESIAN_POINT ( 'NONE',  ( -37.50000000000000000, 100.0000000000000000, -35.00000000000000000 ) ) ;
#738 = FACE_OUTER_BOUND ( 'NONE', #65, .T. ) ;
#739 = AXIS2_PLACEMENT_3D ( 'NONE', #836, #606, #630 ) ;
#740 = FACE_OUTER_BOUND ( 'NONE', #271, .T. ) ;
#741 = CARTESIAN_POINT ( 'NONE',  ( -32.57257580920887108, 77.58616271113348262, -34.13147042580487067 ) ) ;
#742 = DIRECTION ( 'NONE',  ( 0.000000000000000000, 1.000000000000000000, 0.000000000000000000 ) ) ;
#743 = VERTEX_POINT ( 'NONE', #561 ) ;
#744 = CARTESIAN_POINT ( 'NONE',  ( -37.50000000000000000, 100.0000000000000000, -35.00000000000000000 ) ) ;
#745 = CARTESIAN_POINT ( 'NONE',  ( -32.67397409634191519, 82.93891400638388234, -36.32145800897891519 ) ) ;
#746 = DIRECTION ( 'NONE',  ( 0.000000000000000000, 1.000000000000000000, 0.000000000000000000 ) ) ;
#747 = DIRECTION ( 'NONE',  ( 0.000000000000000000, 0.000000000000000000, 1.000000000000000000 ) ) ;
#748 = CARTESIAN_POINT ( 'NONE',  ( -31.73511772443337620, 100.0000000000000142, -35.93762894092490967 ) ) ;
#749 = CARTESIAN_POINT ( 'NONE',  ( 0.9621617053628755967, 8.144333253660908767, -4.912954996411048825 ) ) ;
#750 = CARTESIAN_POINT ( 'NONE',  ( 0.000000000000000000, -9.000000000000000000, 0.000000000000000000 ) ) ;
#751 = CARTESIAN_POINT ( 'NONE',  ( -1.684996833577710573, 14.09452035248385648, -4.709518114974611258 ) ) ;
#752 = CARTESIAN_POINT ( 'NONE',  ( -3.749374253487367525, 0.000000000000000000, 3.307898533402445551 ) ) ;
#753 = VECTOR ( 'NONE', #233, 1000.000000000000114 ) ;
#754 = VERTEX_POINT ( 'NONE', #752 ) ;
#755 = LOCAL_TIME ( 16, 5, 23.00000000000000000, #903 ) ;
#756 = ORIENTED_EDGE ( 'NONE', *, *, #485, .F. ) ;
#757 = CIRCLE ( 'NONE', #68, 4.999999999999997335 ) ;
#758 = EDGE_LOOP ( 'NONE', ( #9, #766, #834, #714 ) ) ;
#759 = EDGE_CURVE ( 'NONE', #989, #314, #179, .T. ) ;
#760 = ORIENTED_EDGE ( 'NONE', *, *, #54, .T. ) ;
#761 = AXIS2_PLACEMENT_3D ( 'NONE', #634, #235, #982 ) ;
#762 = ORIENTED_EDGE ( 'NONE', *, *, #609, .T. ) ;
#763 = AXIS2_PLACEMENT_3D ( 'NONE', #405, #172, #560 ) ;
#764 = CARTESIAN_POINT ( 'NONE',  ( 8.673617379884035472E-16, -8.999999999999994671, -8.673617379884035472E-16 ) ) ;
#765 = AXIS2_PLACEMENT_3D ( 'NONE', #727, #40, #349 ) ;
#766 = ORIENTED_EDGE ( 'NONE', *, *, #759, .F. ) ;
#767 = ORIENTED_EDGE ( 'NONE', *, *, #862, .T. ) ;
#768 = EDGE_CURVE ( 'NONE', #735, #477, #17, .T. ) ;
#769 = VERTEX_POINT ( 'NONE', #138 ) ;
#770 = APPROVAL_PERSON_ORGANIZATION ( #810, #362, #363 ) ;
#771 = CARTESIAN_POINT ( 'NONE',  ( -37.50000000000000000, 91.00000000000000000, -35.00000000000000000 ) ) ;
#772 = LINE ( 'NONE', #80, #64 ) ;
#773 = VECTOR ( 'NONE', #698, 1000.000000000000000 ) ;
#774 = FACE_OUTER_BOUND ( 'NONE', #66, .T. ) ;
#775 = ORIENTED_EDGE ( 'NONE', *, *, #934, .F. ) ;
#776 = VERTEX_POINT ( 'NONE', #930 ) ;
#777 = CARTESIAN_POINT ( 'NONE',  ( -34.08840874819994582, 100.0000000000000000, -38.65527634121434630 ) ) ;
#778 = DIRECTION ( 'NONE',  ( 0.000000000000000000, -0.7071067811865452413, -0.7071067811865499042 ) ) ;
#779 = DIRECTION ( 'NONE',  ( -0.3202562212786880802, 0.8989389698733023515, -0.2989058065267756192 ) ) ;
#780 = CARTESIAN_POINT ( 'NONE',  ( -37.50000000000000000, 92.00000000000001421, -32.50000000000000000 ) ) ;
#781 = CYLINDRICAL_SURFACE ( 'NONE', #160, 2.999999999999996891 ) ;
#782 = DIRECTION ( 'NONE',  ( -0.6823182503600112581, 0.000000000000000000, 0.7310552682428689275 ) ) ;
#783 = ADVANCED_FACE ( 'NONE', ( #456 ), #63, .F. ) ;
#784 = ORIENTED_EDGE ( 'NONE', *, *, #478, .F. ) ;
#785 = DIRECTION ( 'NONE',  ( -0.000000000000000000, -1.000000000000000000, -0.000000000000000000 ) ) ;
#786 = VERTEX_POINT ( 'NONE', #933 ) ;
#787 = EDGE_CURVE ( 'NONE', #948, #832, #169, .T. ) ;
#788 = CARTESIAN_POINT ( 'NONE',  ( -38.72854460654787800, 83.71349194023439111, -30.14451439150480638 ) ) ;
#789 = EDGE_CURVE ( 'NONE', #786, #527, #336, .T. ) ;
#790 = EDGE_CURVE ( 'NONE', #321, #943, #103, .T. ) ;
#791 = CARTESIAN_POINT ( 'NONE',  ( -37.50000000000000000, 92.00000000000001421, -32.50000000000000000 ) ) ;
#792 = CARTESIAN_POINT ( 'NONE',  ( -34.08840874819993871, -8.999999999999994671, -38.65527634121435341 ) ) ;
#793 = CYLINDRICAL_SURFACE ( 'NONE', #540, 2.500000000000000000 ) ;
#794 = DIRECTION ( 'NONE',  ( 0.000000000000000000, -1.000000000000000000, 0.000000000000000000 ) ) ;
#795 = CARTESIAN_POINT ( 'NONE',  ( -37.50000000000000000, 100.0000000000000000, -35.00000000000000000 ) ) ;
#796 = EDGE_LOOP ( 'NONE', ( #274, #460, #77, #708 ) ) ;
#797 = CIRCLE ( 'NONE', #379, 5.000000000000000000 ) ;
#798 = DIRECTION ( 'NONE',  ( 0.000000000000000000, 1.000000000000000000, 0.000000000000000000 ) ) ;
#799 = CARTESIAN_POINT ( 'NONE',  ( -34.08840874819993871, -8.999999999999994671, -38.65527634121435341 ) ) ;
#800 = CC_DESIGN_SECURITY_CLASSIFICATION ( #631, ( #643 ) ) ;
#801 = CARTESIAN_POINT ( 'NONE',  ( -32.63044641619014641, 77.19069143529181076, -33.86161909331017483 ) ) ;
#802 = DIRECTION ( 'NONE',  ( 0.000000000000000000, 1.000000000000000000, 0.000000000000000000 ) ) ;
#803 = DIRECTION ( 'NONE',  ( 0.000000000000000000, 1.000000000000000000, 0.000000000000000000 ) ) ;
#804 = ORIENTED_EDGE ( 'NONE', *, *, #683, .F. ) ;
#805 = PERSON_AND_ORGANIZATION ( #211, #323 ) ;
#806 = DIRECTION ( 'NONE',  ( 0.000000000000000000, -1.000000000000000000, 0.000000000000000000 ) ) ;
#807 = AXIS2_PLACEMENT_3D ( 'NONE', #522, #118, #360 ) ;
#808 = DIRECTION ( 'NONE',  ( 0.000000000000000000, 1.000000000000000000, 0.000000000000000000 ) ) ;
#809 = DIRECTION ( 'NONE',  ( 0.000000000000000000, 1.000000000000000000, 0.000000000000000000 ) ) ;
#810 = PERSON_AND_ORGANIZATION ( #211, #323 ) ;
#811 = DIRECTION ( 'NONE',  ( 0.000000000000000000, 1.000000000000000000, 0.000000000000000000 ) ) ;
#812 = CARTESIAN_POINT ( 'NONE',  ( -32.49415794068823971, 79.30740176154621679, -35.01027564915856516 ) ) ;
#813 = ADVANCED_FACE ( 'NONE', ( #35 ), #856, .T. ) ;
#814 = CARTESIAN_POINT ( 'NONE',  ( -37.18088236876976538, 98.68577834594459830, -31.96638560702734466 ) ) ;
#815 = DIRECTION ( 'NONE',  ( 0.000000000000000000, 0.000000000000000000, 1.000000000000000000 ) ) ;
#816 = ORIENTED_EDGE ( 'NONE', *, *, #478, .T. ) ;
#817 = CARTESIAN_POINT ( 'NONE',  ( 3.041770856716322413, 0.000000000000000000, -3.968328370388626958 ) ) ;
#818 = DATE_AND_TIME ( #579, #944 ) ;
#819 = CARTESIAN_POINT ( 'NONE',  ( -37.50000000000000000, 100.0000000000000000, -35.00000000000000000 ) ) ;
#820 = PRODUCT ( 'supportchien', 'supportchien', '', ( #881 ) ) ;
#821 = DIRECTION ( 'NONE',  ( -0.3202562212786880247, 0.8989389698733022405, -0.2989058065267755637 ) ) ;
#822 = EDGE_CURVE ( 'NONE', #769, #413, #95, .T. ) ;
#823 = CARTESIAN_POINT ( 'NONE',  ( -0.7626869035965094801, 12.60589359490216310, -4.945097232758079109 ) ) ;
#824 = CARTESIAN_POINT ( 'NONE',  ( 67.30582169622682898, -8.999999999999994671, -79.44133914905842175 ) ) ;
#825 = ORIENTED_EDGE ( 'NONE', *, *, #904, .F. ) ;
#826 = EDGE_LOOP ( 'NONE', ( #196, #163, #913, #912, #518 ) ) ;
#827 = CARTESIAN_POINT ( 'NONE',  ( 0.4188887810117581934, 9.745736179933478738, -4.982422321435878487 ) ) ;
#828 = EDGE_CURVE ( 'NONE', #96, #315, #829, .T. ) ;
#829 = CIRCLE ( 'NONE', #489, 4.999999999999997335 ) ;
#830 = VERTEX_POINT ( 'NONE', #716 ) ;
#831 = EDGE_LOOP ( 'NONE', ( #423, #407, #225, #48, #182 ) ) ;
#832 = VERTEX_POINT ( 'NONE', #28 ) ;
#833 = ORIENTED_EDGE ( 'NONE', *, *, #224, .T. ) ;
#834 = ORIENTED_EDGE ( 'NONE', *, *, #726, .T. ) ;
#835 = CYLINDRICAL_SURFACE ( 'NONE', #878, 2.500000000000002220 ) ;
#836 = CARTESIAN_POINT ( 'NONE',  ( -34.45160936732971635, 98.68577834594458409, -34.89060667999881105 ) ) ;
#837 = EDGE_LOOP ( 'NONE', ( #688, #470, #76, #536 ) ) ;
#838 = VERTEX_POINT ( 'NONE', #332 ) ;
#839 = DIRECTION ( 'NONE',  ( 0.000000000000000000, 0.7071067811865455743, 0.7071067811865495711 ) ) ;
#840 = AXIS2_PLACEMENT_3D ( 'NONE', #166, #82, #343 ) ;
#841 = ORIENTED_EDGE ( 'NONE', *, *, #521, .F. ) ;
#842 = EDGE_LOOP ( 'NONE', ( #510, #544 ) ) ;
#843 = CARTESIAN_POINT ( 'NONE',  ( -37.50000000000000000, 91.00000000000000000, -40.00000000000000000 ) ) ;
#844 = CARTESIAN_POINT ( 'NONE',  ( -37.50000000000000000, 92.00000000000001421, -35.00000000000000000 ) ) ;
#845 = APPROVAL_PERSON_ORGANIZATION ( #347, #1, #949 ) ;
#846 = CARTESIAN_POINT ( 'NONE',  ( -38.26688298171907832, 100.0000000000000000, -28.87632927337675071 ) ) ;
#847 = DIRECTION ( 'NONE',  ( 0.000000000000000000, 0.000000000000000000, 1.000000000000000000 ) ) ;
#848 = VECTOR ( 'NONE', #679, 1000.000000000000114 ) ;
#849 = DIRECTION ( 'NONE',  ( 0.000000000000000000, 0.000000000000000000, 1.000000000000000000 ) ) ;
#850 = VECTOR ( 'NONE', #821, 1000.000000000000114 ) ;
#851 = CARTESIAN_POINT ( 'NONE',  ( 0.000000000000000000, 0.000000000000000000, 0.000000000000000000 ) ) ;
#852 = LINE ( 'NONE', #140, #677 ) ;
#853 = ADVANCED_FACE ( 'NONE', ( #32, #938 ), #641, .T. ) ;
#854 = CARTESIAN_POINT ( 'NONE',  ( -32.78524739536078414, 76.59643585567559398, -33.33533550616115804 ) ) ;
#855 = CARTESIAN_POINT ( 'NONE',  ( -4.952658742676858239, 13.13012069758576672, -0.7032654968258199579 ) ) ;
#856 = PLANE ( 'NONE',  #25 ) ;
#857 = CC_DESIGN_APPROVAL ( #543, ( #711 ) ) ;
#858 = ADVANCED_FACE ( 'NONE', ( #923 ), #653, .T. ) ;
#859 = VERTEX_POINT ( 'NONE', #553 ) ;
#860 = AXIS2_PLACEMENT_3D ( 'NONE', #814, #442, #344 ) ;
#861 = CARTESIAN_POINT ( 'NONE',  ( -4.162068324043070255, 2.492098862805868897, 2.791969959865765016 ) ) ;
#862 = EDGE_CURVE ( 'NONE', #315, #915, #357, .T. ) ;
#863 = ADVANCED_FACE ( 'NONE', ( #774 ), #872, .F. ) ;
#864 = CIRCLE ( 'NONE', #763, 5.000000000000000000 ) ;
#865 = ORIENTED_EDGE ( 'NONE', *, *, #725, .F. ) ;
#866 = DIRECTION ( 'NONE',  ( 0.000000000000000000, 1.000000000000000000, 0.000000000000000000 ) ) ;
#867 = DIRECTION ( 'NONE',  ( -0.3202562212786881357, 0.8989389698733023515, -0.2989058065267756192 ) ) ;
#868 = DIRECTION ( 'NONE',  ( 0.000000000000000000, 0.000000000000000000, -1.000000000000000000 ) ) ;
#869 = ORIENTED_EDGE ( 'NONE', *, *, #3, .T. ) ;
#870 = SECURITY_CLASSIFICATION_LEVEL ( 'unclassified' ) ;
#871 = CARTESIAN_POINT ( 'NONE',  ( 0.4188887810117581934, 9.745736179933478738, -4.982422321435878487 ) ) ;
#872 = PLANE ( 'NONE',  #289 ) ;
#873 = AXIS2_PLACEMENT_3D ( 'NONE', #589, #517, #976 ) ;
#874 = DIRECTION ( 'NONE',  ( 0.000000000000000000, 1.000000000000000000, 0.000000000000000000 ) ) ;
#875 = CARTESIAN_POINT ( 'NONE',  ( -1.985479603199183707, 14.40356414432443088, -4.588885566810312788 ) ) ;
#876 = ORIENTED_EDGE ( 'NONE', *, *, #153, .F. ) ;
#877 = CALENDAR_DATE ( 2026, 10, 8 ) ;
#878 = AXIS2_PLACEMENT_3D ( 'NONE', #678, #604, #218 ) ;
#879 = UNCERTAINTY_MEASURE_WITH_UNIT (LENGTH_MEASURE( 1.000000000000000082E-05 ), #57, 'distance_accuracy_value', 'NONE');
#880 = CARTESIAN_POINT ( 'NONE',  ( 0.000000000000000000, -9.000000000000000000, 0.000000000000000000 ) ) ;
#881 = MECHANICAL_CONTEXT ( 'NONE', #899, 'mechanical' ) ;
#882 = VECTOR ( 'NONE', #706, 1000.000000000000114 ) ;
#883 = AXIS2_PLACEMENT_3D ( 'NONE', #819, #285, #891 ) ;
#884 = FACE_OUTER_BOUND ( 'NONE', #304, .T. ) ;
#885 = ORIENTED_EDGE ( 'NONE', *, *, #372, .T. ) ;
#886 = PERSON_AND_ORGANIZATION_ROLE ( 'creator' ) ;
#887 = VECTOR ( 'NONE', #782, 1000.000000000000000 ) ;
#888 = CC_DESIGN_PERSON_AND_ORGANIZATION_ASSIGNMENT ( #969, #367, ( #820 ) ) ;
#889 = CARTESIAN_POINT ( 'NONE',  ( 3.411591251800069280, -1.848159876401307633, -3.655276341214332536 ) ) ;
#890 = CARTESIAN_POINT ( 'NONE',  ( -32.78524739536078414, 76.59643585567559398, -33.33533550616115804 ) ) ;
#891 = DIRECTION ( 'NONE',  ( 0.000000000000000000, 0.000000000000000000, 1.000000000000000000 ) ) ;
#892 = CARTESIAN_POINT ( 'NONE',  ( -31.62559446030568111, 99.69257512051129311, -34.89060667999881105 ) ) ;
#893 = APPROVAL_ROLE ( '' ) ;
#894 = SHAPE_DEFINITION_REPRESENTATION ( #298, #964 ) ;
#895 = VECTOR ( 'NONE', #260, 1000.000000000000000 ) ;
#896 = CARTESIAN_POINT ( 'NONE',  ( 3.293688415286165405, -1.232045111142930915, -3.765318988627292640 ) ) ;
#897 = CIRCLE ( 'NONE', #473, 2.500000000000002220 ) ;
#898 = ADVANCED_FACE ( 'NONE', ( #89 ), #324, .T. ) ;
#899 = APPLICATION_CONTEXT ( 'configuration controlled 3d designs of mechanical parts and assemblies' ) ;
#900 = CC_DESIGN_APPROVAL ( #362, ( #643 ) ) ;
#901 = B_SPLINE_CURVE_WITH_KNOTS ( 'NONE', 3,
 ( #441, #968, #282, #592 ),
 .UNSPECIFIED., .F., .F.,
 ( 4, 4 ),
 ( -2.487818798204927012E-05, 0.001885742316142135838 ),
 .UNSPECIFIED. ) ;
#902 = DIRECTION ( 'NONE',  ( 0.3202562212786880802, -0.8989389698733023515, 0.2989058065267755637 ) ) ;
#903 = COORDINATED_UNIVERSAL_TIME_OFFSET ( 1, 0, .AHEAD. ) ;
#904 = EDGE_CURVE ( 'NONE', #915, #948, #385, .T. ) ;
#905 = EDGE_CURVE ( 'NONE', #830, #161, #399, .T. ) ;
#906 = CARTESIAN_POINT ( 'NONE',  ( -34.45160936732971635, 98.68577834594458409, -34.89060667999881105 ) ) ;
#907 = AXIS2_PLACEMENT_3D ( 'NONE', #59, #549, #849 ) ;
#908 = VERTEX_POINT ( 'NONE', #632 ) ;
#909 = CARTESIAN_POINT ( 'NONE',  ( -32.62446484017481652, 82.32643052868596101, -36.12848580464645210 ) ) ;
#910 = EDGE_CURVE ( 'NONE', #413, #88, #481, .T. ) ;
#911 = AXIS2_PLACEMENT_3D ( 'NONE', #880, #109, #195 ) ;
#912 = ORIENTED_EDGE ( 'NONE', *, *, #591, .F. ) ;
#913 = ORIENTED_EDGE ( 'NONE', *, *, #183, .F. ) ;
#914 = CARTESIAN_POINT ( 'NONE',  ( -1.985479603199183707, 14.40356414432443088, -4.588885566810312788 ) ) ;
#915 = VERTEX_POINT ( 'NONE', #263 ) ;
#916 = EDGE_LOOP ( 'NONE', ( #16, #869, #953, #491, #69, #393 ) ) ;
#917 = CARTESIAN_POINT ( 'NONE',  ( -35.96017863246444080, 77.09408898268512189, -30.24171789378210562 ) ) ;
#918 = ORIENTED_EDGE ( 'NONE', *, *, #525, .F. ) ;
#919 = ORIENTED_EDGE ( 'NONE', *, *, #451, .T. ) ;
#920 = ADVANCED_FACE ( 'NONE', ( #704, #951 ), #421, .T. ) ;
#921 = DIRECTION ( 'NONE',  ( 0.3202562212786880802, -0.8989389698733023515, 0.2989058065267755637 ) ) ;
#922 = FACE_OUTER_BOUND ( 'NONE', #837, .T. ) ;
#923 = FACE_OUTER_BOUND ( 'NONE', #287, .T. ) ;
#924 = EDGE_LOOP ( 'NONE', ( #756, #155, #986, #188 ) ) ;
#925 = ORIENTED_EDGE ( 'NONE', *, *, #72, .T. ) ;
#926 = DIRECTION ( 'NONE',  ( 0.000000000000000000, 1.000000000000000000, 0.000000000000000000 ) ) ;
#927 = DIRECTION ( 'NONE',  ( 0.000000000000000000, -1.000000000000000000, 0.000000000000000000 ) ) ;
#928 = DIRECTION ( 'NONE',  ( 0.000000000000000000, -1.000000000000000000, 0.000000000000000000 ) ) ;
#929 = ORIENTED_EDGE ( 'NONE', *, *, #730, .F. ) ;
#930 = CARTESIAN_POINT ( 'NONE',  ( -4.627140449982966253, -8.999999999999994671, 2.520763756243627363 ) ) ;
#931 = DIRECTION ( 'NONE',  ( 0.000000000000000000, 1.000000000000000000, 0.000000000000000000 ) ) ;
#932 = DIRECTION ( 'NONE',  ( 0.000000000000000000, 0.000000000000000000, 1.000000000000000000 ) ) ;
#933 = CARTESIAN_POINT ( 'NONE',  ( -40.54177085671648939, 91.00000000000000000, -31.03167162961150893 ) ) ;
#934 = EDGE_CURVE ( 'NONE', #838, #610, #170, .T. ) ;
#935 = PLANE ( 'NONE',  #482 ) ;
#936 = VERTEX_POINT ( 'NONE', #559 ) ;
#937 = LINE ( 'NONE', #31, #966 ) ;
#938 = FACE_OUTER_BOUND ( 'NONE', #277, .T. ) ;
#939 = VERTEX_POINT ( 'NONE', #486 ) ;
#940 = ADVANCED_FACE ( 'NONE', ( #46 ), #781, .T. ) ;
#941 = ADVANCED_FACE ( 'NONE', ( #500 ), #793, .F. ) ;
#942 = CARTESIAN_POINT ( 'NONE',  ( -4.953059885842194809, 9.889857495492877959, 0.7152522703745356480 ) ) ;
#943 = VERTEX_POINT ( 'NONE', #383 ) ;
#944 = LOCAL_TIME ( 16, 5, 23.00000000000000000, #267 ) ;
#945 = APPLICATION_CONTEXT ( 'configuration controlled 3d designs of mechanical parts and assemblies' ) ;
#946 = CARTESIAN_POINT ( 'NONE',  ( -39.73055881671442080, 87.34240464216468069, -30.49435072175191053 ) ) ;
#947 = CARTESIAN_POINT ( 'NONE',  ( -37.50000000000000000, 181.0000000000000000, -35.00000000000000000 ) ) ;
#948 = VERTEX_POINT ( 'NONE', #702 ) ;
#949 = APPROVAL_ROLE ( '' ) ;
#950 = LINE ( 'NONE', #435, #29 ) ;
#951 = FACE_OUTER_BOUND ( 'NONE', #661, .T. ) ;
#952 = FACE_OUTER_BOUND ( 'NONE', #150, .T. ) ;
#953 = ORIENTED_EDGE ( 'NONE', *, *, #412, .T. ) ;
#954 = PERSON_AND_ORGANIZATION ( #211, #323 ) ;
#955 = DIRECTION ( 'NONE',  ( 0.3202562212786880802, -0.8989389698733023515, 0.2989058065267756192 ) ) ;
#956 =( NAMED_UNIT ( * ) SI_UNIT ( $, .STERADIAN. ) SOLID_ANGLE_UNIT ( ) );
#957 = CARTESIAN_POINT ( 'NONE',  ( 3.061616997868383141E-16, -1.000000000000000888, -2.500000000000000000 ) ) ;
#958 = CIRCLE ( 'NONE', #129, 2.500000000000002220 ) ;
#959 = ORIENTED_EDGE ( 'NONE', *, *, #14, .F. ) ;
#960 = CC_DESIGN_PERSON_AND_ORGANIZATION_ASSIGNMENT ( #418, #723, ( #631 ) ) ;
#961 = EDGE_CURVE ( 'NONE', #769, #939, #897, .T. ) ;
#962 = CARTESIAN_POINT ( 'NONE',  ( 0.000000000000000000, -9.000000000000000000, 0.000000000000000000 ) ) ;
#963 = APPLICATION_PROTOCOL_DEFINITION ( 'international standard', 'config_control_design', 1994, #899 ) ;
#964 = ADVANCED_BREP_SHAPE_REPRESENTATION ( 'supportchien', ( #455, #873 ), #629 ) ;
#965 = DIRECTION ( 'NONE',  ( 8.659560562354957510E-17, 0.7071067811865455743, -0.7071067811865495711 ) ) ;
#966 = VECTOR ( 'NONE', #785, 1000.000000000000000 ) ;
#967 = PERSON_AND_ORGANIZATION_ROLE ( 'creator' ) ;
#968 = CARTESIAN_POINT ( 'NONE',  ( -33.97050591180770596, 92.23204511109953785, -38.54523369391491627 ) ) ;
#969 = PERSON_AND_ORGANIZATION ( #211, #323 ) ;
#970 = EDGE_CURVE ( 'NONE', #735, #943, #97, .T. ) ;
#971 = LINE ( 'NONE', #107, #240 ) ;
#972 = CARTESIAN_POINT ( 'NONE',  ( 0.4188887810117581934, 9.745736179933478738, -4.982422321435878487 ) ) ;
#973 = DATE_AND_TIME ( #443, #597 ) ;
#974 = EDGE_CURVE ( 'NONE', #463, #43, #26, .T. ) ;
#975 = LINE ( 'NONE', #44, #13 ) ;
#976 = DIRECTION ( 'NONE',  ( 1.000000000000000000, 0.000000000000000000, 0.000000000000000000 ) ) ;
#977 = EDGE_CURVE ( 'NONE', #743, #537, #504, .T. ) ;
#978 = LINE ( 'NONE', #156, #425 ) ;
#979 = ORIENTED_EDGE ( 'NONE', *, *, #591, .T. ) ;
#980 = CARTESIAN_POINT ( 'NONE',  ( 0.1148845067194387004, 10.57783242369847621, -5.001385524466603449 ) ) ;
#981 = VECTOR ( 'NONE', #280, 1000.000000000000000 ) ;
#982 = DIRECTION ( 'NONE',  ( 0.000000000000000000, 0.000000000000000000, 1.000000000000000000 ) ) ;
#983 = CYLINDRICAL_SURFACE ( 'NONE', #739, 2.999999999999996891 ) ;
#984 = AXIS2_PLACEMENT_3D ( 'NONE', #86, #535, #701 ) ;
#985 = ORIENTED_EDGE ( 'NONE', *, *, #159, .F. ) ;
#986 = ORIENTED_EDGE ( 'NONE', *, *, #730, .T. ) ;
#987 = CARTESIAN_POINT ( 'NONE',  ( -0.9649866636152294452, 13.00168694547453718, -4.911545588724488098 ) ) ;
#988 = EDGE_LOOP ( 'NONE', ( #387, #622, #680, #475 ) ) ;
#989 = VERTEX_POINT ( 'NONE', #296 ) ;
ENDSEC;
END-ISO-10303-21;
